<svg xmlns="http://www.w3.org/2000/svg" width="30" height="30" viewBox="0 0 30 30"><g fill="#FFF"><path d="M.151 10.634h6.786V28.35H.151z"/><ellipse cx="3.476" cy="4.673" rx="3.434" ry="3.134"/><path d="M23.994 10.233c-1.391 0-2.567.253-3.535.759-.967.506-1.922 1.349-2.867 2.527v-2.886h-6.319V28.35h6.786v-8.508c0-1.612.256-2.729.767-3.353.512-.623 1.178-.935 2.001-.935.745 0 1.322.231 1.732.693.412.461.617 1.248.617 2.36v9.741h6.82V17.09c0-2.335-.531-4.062-1.593-5.18-1.061-1.118-2.532-1.677-4.409-1.677z"/></g></svg>