<svg xmlns="http://www.w3.org/2000/svg" viewBox="0 0 138.559 19.777"><defs><style>.a{fill:#c9c9c9;}</style></defs><path class="a" d="M101.5,4.6c3.687,0,5.467,1.812,5.467,4.718a3.656,3.656,0,0,1-3.03,4c2.656.437,4,1.906,4,4.436,0,2.874-1.937,4.874-6,4.874H94.5V4.6Zm-4.53,2.343v5.374h4.218c2.343,0,3.312-1.062,3.312-2.812s-1.031-2.593-3.312-2.593Zm0,7.592v5.624h5.061c2.374,0,3.437-.844,3.437-2.656,0-1.937-1.031-2.968-3.5-2.968Z" transform="translate(-64.976 -3.163)"/><path class="a" d="M146.747,1.491A1.564,1.564,0,0,1,148.4,2.928v.219a1.656,1.656,0,0,1-3.312,0,1.564,1.564,0,0,1,1.437-1.656Zm-1.187,5.28h2.374V20.517H145.56Z" transform="translate(-99.759 -1.022)"/><path class="a" d="M168.286,23.44a8.2,8.2,0,0,0,1.5-.187v2.281a5.6,5.6,0,0,1-1.593.219c-2.937,0-4.374-1.718-4.374-4.28V14.192H161.6V12.006h2.218V9.1h2.312v2.906h3.655v2.187H166.1v7.217A1.92,1.92,0,0,0,168.286,23.44Z" transform="translate(-111.113 -6.257)"/><path class="a" d="M204.148,19.776a4.507,4.507,0,0,1-4.374-2.687V19.5H197.4V0h2.374V8.217a4.847,4.847,0,0,1,4.655-2.749c3.655,0,5.5,3.093,5.5,7.154C209.928,16.5,207.991,19.776,204.148,19.776Zm-.375-12.122c-2.124,0-4,1.343-4,4.405v1.093c0,3.062,1.718,4.405,3.749,4.405,2.656,0,4.03-1.75,4.03-4.936C207.554,9.31,206.242,7.654,203.773,7.654Z" transform="translate(-135.728)"/><path class="a" d="M245.4,18.4h2.374v8.31c0,2.468,1,3.562,3.249,3.562,2.187,0,3.718-1.468,3.718-4.218V18.4h2.374V32.147h-2.374V29.9a4.807,4.807,0,0,1-4.343,2.531c-3.155,0-4.967-2.187-4.967-5.967Z" transform="translate(-168.732 -12.651)"/><path class="a" d="M302.129,31.078a7.606,7.606,0,0,1-3.343.625c-4.9,0-7.186-2.968-7.186-7.186,0-4.155,2.281-7.123,7.186-7.123a7.048,7.048,0,0,1,3.28.687v2.187a6.776,6.776,0,0,0-3.124-.656c-3.562,0-5.03,2.249-5.03,4.936s1.468,4.905,5.061,4.905a8.2,8.2,0,0,0,3.124-.5Z" transform="translate(-200.498 -11.957)"/><path class="a" d="M333.9,19.5V0h2.374V12.184l5.9-6.436h3.093L338.8,12.5l6.748,7h-3.218l-6.061-6.436V19.5Z" transform="translate(-229.583)"/><path class="a" d="M379.9,31.809c-5.155,0-7.4-2.968-7.4-7.186,0-4.155,2.312-7.123,6.5-7.123,4.218,0,5.936,2.937,5.936,7.123v1.062H374.906c.344,2.343,1.843,3.843,5.092,3.843a11.951,11.951,0,0,0,4.186-.75v2.187A9.711,9.711,0,0,1,379.9,31.809Zm-5.03-8.123h7.654c-.125-2.562-1.281-4.03-3.655-4.03-2.5,0-3.749,1.625-4,4.03Z" transform="translate(-256.123 -12.033)"/><path class="a" d="M423.986,23.44a8.2,8.2,0,0,0,1.5-.187v2.281a5.6,5.6,0,0,1-1.593.219c-2.937,0-4.374-1.718-4.374-4.28V14.192H417.3V12.006h2.218V9.1h2.312v2.906h3.655v2.187H421.83v7.217A1.9,1.9,0,0,0,423.986,23.44Z" transform="translate(-286.927 -6.257)"/><path class="a" d="M.625,6.3A.627.627,0,0,0,0,6.925v.094l2.656,16.09a.845.845,0,0,0,.844.719H16.215a.635.635,0,0,0,.625-.531L19.5,7.019a.632.632,0,0,0-.531-.719H.625ZM11.81,17.922H7.748L6.655,12.174h6.155Z" transform="translate(0 -4.332)"/><path class="a" d="M25.115,25.1H19.241l-1,5.749H14.18L9.4,36.535a.9.9,0,0,0,.562.219H22.678a.635.635,0,0,0,.625-.531Z" transform="translate(-6.463 -17.258)"/></svg>