<svg xmlns="http://www.w3.org/2000/svg" viewBox="0 0 140 35.519"><defs><style>.a{fill:#c9c9c9;}</style></defs><g transform="translate(-0.019)"><g transform="translate(0.019)"><path class="a" d="M44.277,12.881a7.682,7.682,0,0,0-3.268-5.095L39.9,7.017l-.769,1.105a8.824,8.824,0,0,0-1.3,5.383,6.246,6.246,0,0,0,1.009,2.932,8.275,8.275,0,0,1-3.893.865H.2l-.048.385a16.762,16.762,0,0,0,3.6,12.545c2.98,3.509,7.4,5.287,13.217,5.287,12.593,0,21.917-5.816,26.291-16.342,1.73.048,5.431,0,7.306-3.6.048-.1.144-.288.481-1.009l.192-.385-1.057-.721A10.471,10.471,0,0,0,44.277,12.881ZM28.031,0H22.744V4.806h5.287Zm0,5.768H22.744v4.806h5.287Zm-6.248,0H16.5v4.806h5.287Zm-6.248,0H10.248v4.806h5.287ZM9.286,11.535H4v4.806H9.286Zm6.248,0H10.248v4.806h5.287Zm6.248,0H16.5v4.806h5.287Zm6.248,0H22.744v4.806h5.287Zm6.248,0H28.992v4.806h5.287Zm77.382,6.537a2.044,2.044,0,0,0-.1-.529l-.288-.433a.7.7,0,0,0-.433-.288,1.728,1.728,0,0,0-.529-.1,1.158,1.158,0,0,0-.721.192l-7.738,5.047V11.824a1.342,1.342,0,0,0-.385-.961,1.172,1.172,0,0,0-.961-.385,1.342,1.342,0,0,0-.961.385,1.429,1.429,0,0,0-.385.961v18.12a1.429,1.429,0,0,0,.385.961,1.172,1.172,0,0,0,.961.385,1.429,1.429,0,0,0,.961-.385,1.172,1.172,0,0,0,.385-.961v-4.71l1.586-1.057,5.96,6.777a1.2,1.2,0,0,0,.913.336,1.728,1.728,0,0,0,.529-.1,1.325,1.325,0,0,0,.721-.721.951.951,0,0,0,.1-.529,1.526,1.526,0,0,0-.385-.961l-5.527-6.3,5.431-3.557A1.131,1.131,0,0,0,111.662,18.072Zm13.794.769a7.194,7.194,0,0,0-10.189,0,7.116,7.116,0,0,0-2.115,5.143,7.037,7.037,0,0,0,2.115,5.143,6.823,6.823,0,0,0,5.095,2.115,6.691,6.691,0,0,0,4.71-1.778,1.429,1.429,0,0,0,.385-.961,1.314,1.314,0,0,0-1.346-1.346,1.639,1.639,0,0,0-.913.336,4.027,4.027,0,0,1-1.3.769,5.158,5.158,0,0,1-1.538.24,5.034,5.034,0,0,1-1.442-.24,3.924,3.924,0,0,1-1.25-.673,5.021,5.021,0,0,1-1.009-1.009,4.061,4.061,0,0,1-.625-1.3h10.238a1.314,1.314,0,0,0,1.346-1.346,7.572,7.572,0,0,0-.529-2.788A8.125,8.125,0,0,0,125.456,18.841Zm-9.42,3.8a4.061,4.061,0,0,1,.625-1.3,5.022,5.022,0,0,1,1.009-1.009,5.518,5.518,0,0,1,1.3-.673,4.446,4.446,0,0,1,2.884,0,3.924,3.924,0,0,1,1.25.673,5.022,5.022,0,0,1,1.009,1.009,4.167,4.167,0,0,1,.673,1.3Zm-34.414-3.8a7.194,7.194,0,0,0-10.189,0,7.116,7.116,0,0,0-2.115,5.143,7.037,7.037,0,0,0,2.115,5.143,6.823,6.823,0,0,0,5.095,2.115,7.221,7.221,0,0,0,7.21-7.258,7.572,7.572,0,0,0-.529-2.788A6.8,6.8,0,0,0,81.622,18.841Zm-.961,6.921A5.042,5.042,0,0,1,79.7,27.2a4.56,4.56,0,0,1-1.442,1.009,4.3,4.3,0,0,1-3.557,0,5.809,5.809,0,0,1-1.442-.961A5.809,5.809,0,0,1,72.3,25.81a4.868,4.868,0,0,1,0-3.557,4.418,4.418,0,0,1,2.4-2.4,4.37,4.37,0,0,1,1.778-.385,4.549,4.549,0,0,1,1.778.385A4.344,4.344,0,0,1,79.7,20.86a4.733,4.733,0,0,1,.961,1.442A4.345,4.345,0,0,1,81,24.08,3.9,3.9,0,0,1,80.661,25.762Zm58.974-8.123a2.481,2.481,0,0,0-.913-.577,4.881,4.881,0,0,0-1.2-.288,12,12,0,0,0-1.2-.1,6.478,6.478,0,0,0-2.4.433,7.737,7.737,0,0,0-2.115,1.2v-.24a1.429,1.429,0,0,0-.385-.961,1.172,1.172,0,0,0-.961-.385,1.342,1.342,0,0,0-.961.385,1.429,1.429,0,0,0-.384.961V29.944a1.429,1.429,0,0,0,.384.961,1.172,1.172,0,0,0,.961.385,1.429,1.429,0,0,0,.961-.385,1.172,1.172,0,0,0,.385-.961V24.032a4.345,4.345,0,0,1,.336-1.778,5.042,5.042,0,0,1,.961-1.442,4.454,4.454,0,0,1,1.442-.961,4.868,4.868,0,0,1,3.557,0,1.28,1.28,0,0,0,.577.144,1.728,1.728,0,0,0,.529-.1,1.325,1.325,0,0,0,.721-.721.951.951,0,0,0,.1-.529A1.3,1.3,0,0,0,139.635,17.639ZM89.264,20.763a4.733,4.733,0,0,1,1.442-.961,4.345,4.345,0,0,1,1.778-.336,4.234,4.234,0,0,1,1.586.288,4.786,4.786,0,0,1,1.394.865,1.382,1.382,0,0,0,.865.336,1.314,1.314,0,0,0,1.346-1.346,1.207,1.207,0,0,0-.481-1.009,6.773,6.773,0,0,0-4.71-1.778,6.929,6.929,0,0,0-5.095,2.115,7.116,7.116,0,0,0-2.115,5.143,7.037,7.037,0,0,0,2.115,5.143,7.162,7.162,0,0,0,9.8.336,1.383,1.383,0,0,0,.433-1.009,1.37,1.37,0,0,0-2.211-1.057,3.624,3.624,0,0,1-1.346.817,4.234,4.234,0,0,1-1.586.288,4.5,4.5,0,0,1-1.778-.336,5.809,5.809,0,0,1-1.442-.961,4.733,4.733,0,0,1-.961-1.442,4.5,4.5,0,0,1-.336-1.778A4.345,4.345,0,0,1,88.3,22.3,4.186,4.186,0,0,1,89.264,20.763ZM66.386,10.478a1.314,1.314,0,0,0-1.346,1.346v6.489a7,7,0,0,0-4.518-1.586,6.929,6.929,0,0,0-5.095,2.115,7.116,7.116,0,0,0-2.115,5.143,7.037,7.037,0,0,0,2.115,5.143,6.823,6.823,0,0,0,5.095,2.115,7.221,7.221,0,0,0,7.21-7.258V11.824a1.314,1.314,0,0,0-1.346-1.346ZM64.7,25.762a5.042,5.042,0,0,1-.961,1.442A4.56,4.56,0,0,1,62.3,28.213a4.3,4.3,0,0,1-3.557,0,5.809,5.809,0,0,1-1.442-.961,5.809,5.809,0,0,1-.961-1.442,4.868,4.868,0,0,1,0-3.557,4.418,4.418,0,0,1,2.4-2.4,4.37,4.37,0,0,1,1.778-.385,4.549,4.549,0,0,1,1.778.385,4.9,4.9,0,0,1,1.442,1.009A4.733,4.733,0,0,1,64.7,22.3a4.345,4.345,0,0,1,.336,1.778A3.9,3.9,0,0,1,64.7,25.762Z" transform="translate(-0.019)"/></g></g></svg>