<svg xmlns="http://www.w3.org/2000/svg" viewBox="0 0 100 27.048"><defs><style>.a{fill:#c9c9c9;}</style></defs><path class="a" d="M19.272,11.58H10.858a.38.38,0,0,0-.389.389v4.11a.38.38,0,0,0,.389.389h3.277v5.11a10.117,10.117,0,0,1-2.777.25c-2.388,0-5.748-.889-5.748-8.248,0-7.387,3.5-8.359,6.776-8.359a12.982,12.982,0,0,1,4.832.75.39.39,0,0,0,.472-.389l.944-3.971a.354.354,0,0,0-.139-.305C18.162,1.083,16.245,0,11.358,0,5.748,0,0,2.388,0,13.857S6.581,27.048,12.136,27.048a13.587,13.587,0,0,0,7.387-1.972.354.354,0,0,0,.139-.305v-12.8A.38.38,0,0,0,19.272,11.58Z"/><path class="a" d="M177.584,3.989a.38.38,0,0,0-.389-.389h-4.721a.38.38,0,0,0-.389.389v9.136H164.7V3.989a.38.38,0,0,0-.389-.389h-4.721a.38.38,0,0,0-.389.389V28.76a.38.38,0,0,0,.389.389h4.721a.38.38,0,0,0,.389-.389V18.151h7.387v10.58a.38.38,0,0,0,.389.389h4.749a.38.38,0,0,0,.389-.389V3.989Z" transform="translate(-114.99 -2.6)"/><g transform="translate(22.077 1.555)"><path class="a" d="M85.609,8.682a3.055,3.055,0,1,0-3.055,3.082A3.07,3.07,0,0,0,85.609,8.682Z" transform="translate(-79.5 -5.6)"/><path class="a" d="M85.926,44.53V33.089a.38.38,0,0,0-.389-.389H80.817a.453.453,0,0,0-.417.444V49.529c0,.472.305.611.694.611h4.249c.472,0,.583-.222.583-.639Z" transform="translate(-80.15 -25.174)"/></g><path class="a" d="M249.362,32.9h-4.693a.38.38,0,0,0-.389.389V45.424a5.361,5.361,0,0,1-2.888.861c-1.694,0-2.138-.778-2.138-2.416V33.289a.38.38,0,0,0-.389-.389h-4.776a.38.38,0,0,0-.389.389V44.674c0,4.915,2.749,6.137,6.526,6.137a10.829,10.829,0,0,0,5.582-1.722,9.309,9.309,0,0,0,.167,1,.412.412,0,0,0,.333.222h3.027a.38.38,0,0,0,.389-.389V33.289A.343.343,0,0,0,249.362,32.9Z" transform="translate(-168.801 -23.764)"/><path class="a" d="M310.3,11.181a8.751,8.751,0,0,0-4.471,1.194V3.989a.38.38,0,0,0-.389-.389h-4.749a.38.38,0,0,0-.389.389V28.76a.38.38,0,0,0,.389.389h3.3a.392.392,0,0,0,.333-.222,7.507,7.507,0,0,0,.194-1.139,8.512,8.512,0,0,0,5.61,1.833c4.3,0,6.776-2.194,6.776-9.831C316.934,12.181,312.991,11.181,310.3,11.181Zm-1.833,13.941a5.641,5.641,0,0,1-2.721-.778V16.485a6.12,6.12,0,0,1,2.416-.778c1.694-.139,3.332.361,3.332,4.388C311.464,24.344,310.742,25.205,308.464,25.122Z" transform="translate(-216.907 -2.6)"/><path class="a" d="M118.53,19.771h-3.555V15.078c0-.167-.083-.278-.305-.278h-4.832c-.194,0-.278.083-.278.25v4.86s-2.416.583-2.583.639a.392.392,0,0,0-.278.389v3.055a.38.38,0,0,0,.389.389h2.472v7.331c0,5.443,3.8,5.971,6.387,5.971a10.679,10.679,0,0,0,2.8-.472.372.372,0,0,0,.222-.361v-3.36a.4.4,0,0,0-.389-.389c-.194,0-.75.083-1.277.083-1.75,0-2.333-.805-2.333-1.861v-6.97h3.555a.38.38,0,0,0,.389-.389v-3.8A.4.4,0,0,0,118.53,19.771Z" transform="translate(-77.069 -10.69)"/></svg>