<svg xmlns="http://www.w3.org/2000/svg" viewBox="0 0 167.3 38.9"><defs><style>.a{opacity:0.5;}.b{fill:#264bca;}.c{fill:#8fa3e4;}</style></defs><g class="a" transform="translate(0.1)"><path class="b" d="M13.5,17.2a9.691,9.691,0,0,0-1.8-1.6,5.1,5.1,0,0,0-2.5-.5,5.45,5.45,0,0,0-2.2.5c-.5.4-1.1.9-1.1,1.6A1.714,1.714,0,0,0,7,18.8a12.67,12.67,0,0,0,3.2.9c.7.2,1.4.4,2.3.7.7.4,1.4.7,2.2,1.1a6.228,6.228,0,0,1,1.4,1.8,4.654,4.654,0,0,1,.5,2.5,5.7,5.7,0,0,1-.7,3.1,5.065,5.065,0,0,1-1.8,2A6.661,6.661,0,0,1,11.4,32a16.476,16.476,0,0,1-3.2.4,13.353,13.353,0,0,1-4.5-.9A8.272,8.272,0,0,1,.2,28.9l3.2-3.1a6.661,6.661,0,0,0,2.2,1.8,5.664,5.664,0,0,0,2.9.7,2.153,2.153,0,0,0,1.1-.2,2.46,2.46,0,0,0,1.1-.4,1.575,1.575,0,0,0,.7-.7,2.46,2.46,0,0,0,.4-1.1,1.889,1.889,0,0,0-1.1-1.8c-.7-.2-1.8-.5-3.4-.9A4.645,4.645,0,0,1,5,22.6a5,5,0,0,1-2-1.1,3.435,3.435,0,0,1-1.3-1.6,4.337,4.337,0,0,1-.5-2.3,5.2,5.2,0,0,1,.7-2.9,11.233,11.233,0,0,1,1.8-2,9.475,9.475,0,0,1,2.5-1.1,14.455,14.455,0,0,1,2.9-.4,12.91,12.91,0,0,1,4.3.7,6.491,6.491,0,0,1,3.2,2.3Z"/><path class="b" d="M10.8,24.3a2.038,2.038,0,0,1,1.3,2,2.836,2.836,0,0,1-.4,1.3c-.2.4-.5.5-.9.7a2.46,2.46,0,0,1-1.1.4,2.153,2.153,0,0,1-1.1.2,6.428,6.428,0,0,1-3.1-.7,7.871,7.871,0,0,1-2.2-1.8L.2,29.3a7.994,7.994,0,0,0,3.6,2.3,9.81,9.81,0,0,0,4.5.9,14.559,14.559,0,0,0,3.1-.4A6.437,6.437,0,0,0,14.1,31a8.6,8.6,0,0,0,1.8-2,7.094,7.094,0,0,0,.7-3.1,4.9,4.9,0,0,0-.5-2.3A4.483,4.483,0,0,0,14.7,22a6.44,6.44,0,0,0-2-1.1,7.754,7.754,0,0,0-2.3-.7c-1.4-.4-2.5-.7-3.2-.9a2.072,2.072,0,0,1-1.3-1.8A1.889,1.889,0,0,1,7,15.7a4.337,4.337,0,0,1,2.3-.5,5.443,5.443,0,0,1,2.7.7,8.622,8.622,0,0,1,1.8,1.4l2.7-2.9a8.218,8.218,0,0,0-3.1-2.2,11.79,11.79,0,0,0-4.1-.7,14.455,14.455,0,0,0-2.9.4,4.735,4.735,0,0,0-2.4,1,5.864,5.864,0,0,0-1.8,2,6.2,6.2,0,0,0-.7,2.9A5.555,5.555,0,0,0,2,20.1a9.137,9.137,0,0,0,1.3,1.6c.5.4,1.3.7,1.8,1.1m3.3,9.9a15.633,15.633,0,0,1-4.7-.9A10.476,10.476,0,0,1-.1,29.3v-.2l3.4-3.2v.2a6.661,6.661,0,0,0,2.2,1.8,5.664,5.664,0,0,0,2.9.7,2.153,2.153,0,0,0,1.1-.2,2.46,2.46,0,0,0,1.1-.4,1.575,1.575,0,0,0,.7-.7,2.46,2.46,0,0,0,.4-1.1,1.714,1.714,0,0,0-1.1-1.6,19.411,19.411,0,0,0-3.4-1.1c-.7-.2-1.4-.4-2.2-.7a4.426,4.426,0,0,1-2-1.1,7,7,0,0,1-1.4-1.6,4.654,4.654,0,0,1-.5-2.5,5.2,5.2,0,0,1,.7-2.9,6.969,6.969,0,0,1,1.8-2c.9-.5,1.8-.9,2.7-1.3A14.559,14.559,0,0,1,9.4,11a12.91,12.91,0,0,1,4.3.7,7.778,7.778,0,0,1,3.2,2.5v.2l-3.4,2.9v-.2a6.228,6.228,0,0,0-1.8-1.4,5.1,5.1,0,0,0-2.5-.5,6.308,6.308,0,0,0-2.2.5c-.7.2-.9.7-.9,1.4a1.32,1.32,0,0,0,1.1,1.4,9.527,9.527,0,0,0,3.2.9c.7.2,1.4.4,2.3.7.7.4,1.4.7,2.2,1.1A6.9,6.9,0,0,1,16.5,23a5.1,5.1,0,0,1,.5,2.5,6.314,6.314,0,0,1-.7,3.2,7.871,7.871,0,0,1-1.8,2.2c-1.1.5-2,.9-3.1,1.3a8.963,8.963,0,0,1-3,.5"/><path class="b" d="M24.3,21.7a9.256,9.256,0,0,0,.4,2.3,6.458,6.458,0,0,0,1.1,2.2,6.228,6.228,0,0,0,1.8,1.4,6.551,6.551,0,0,0,2.5.5,5.83,5.83,0,0,0,2.5-.5,6.228,6.228,0,0,0,1.8-1.4A4.573,4.573,0,0,0,35.5,24a9.255,9.255,0,0,0,.4-2.3,9.255,9.255,0,0,0-.4-2.3,4.426,4.426,0,0,0-1.1-2A6.228,6.228,0,0,0,32.6,16a5.1,5.1,0,0,0-2.5-.5,5.83,5.83,0,0,0-2.5.5,8.622,8.622,0,0,0-1.8,1.4,4.9,4.9,0,0,0-1.1,2,5.081,5.081,0,0,0-.4,2.3m-5.3,0a11.34,11.34,0,0,1,.9-4.3,8.215,8.215,0,0,1,2.3-3.2A13.252,13.252,0,0,1,25.6,12a11.765,11.765,0,0,1,4.3-.7,12.91,12.91,0,0,1,4.3.7,12.381,12.381,0,0,1,3.4,2.2,10.449,10.449,0,0,1,2.3,3.2,11.34,11.34,0,0,1,.9,4.3,11.34,11.34,0,0,1-.9,4.3,12.019,12.019,0,0,1-2.3,3.4,13.252,13.252,0,0,1-3.4,2.2,11.765,11.765,0,0,1-4.3.7,12.91,12.91,0,0,1-4.3-.7,9.982,9.982,0,0,1-3.4-2.2A9.289,9.289,0,0,1,19.9,26a10.935,10.935,0,0,1-.9-4.3"/><path class="b" d="M30,15.5a6.551,6.551,0,0,0-2.5.5,6.228,6.228,0,0,0-1.8,1.4,4.9,4.9,0,0,0-1.1,2,7.876,7.876,0,0,0-.4,2.3,9.256,9.256,0,0,0,.4,2.3,4.426,4.426,0,0,0,1.1,2,6.228,6.228,0,0,0,1.8,1.4,5.96,5.96,0,0,0,5,.1,6.228,6.228,0,0,0,1.8-1.4,4.9,4.9,0,0,0,1.1-2,9.256,9.256,0,0,0,.4-2.3,11.13,11.13,0,0,0-.4-2.3,4.426,4.426,0,0,0-1.1-2,6.228,6.228,0,0,0-1.8-1.4,6.566,6.566,0,0,0-2.5-.6m0,12.9a6.845,6.845,0,0,1-2.7-.5,3.973,3.973,0,0,1-1.8-1.6,4.573,4.573,0,0,1-1.1-2.2,9.255,9.255,0,0,1-.4-2.3,9.256,9.256,0,0,1,.4-2.3,6.458,6.458,0,0,1,1.1-2.2,6.228,6.228,0,0,1,1.8-1.4,5.439,5.439,0,0,1,2.7-.5,6.845,6.845,0,0,1,2.7.5,6.615,6.615,0,0,1,1.8,1.4,4.573,4.573,0,0,1,1.1,2.2,9.255,9.255,0,0,1,.4,2.3,9.255,9.255,0,0,1-.4,2.3,6.458,6.458,0,0,1-1.1,2.2,14.544,14.544,0,0,1-1.8,1.6,6.845,6.845,0,0,1-2.7.5m0-16.9a11.047,11.047,0,0,0-4.1.7,9.1,9.1,0,0,0-3.4,2.2,10.449,10.449,0,0,0-2.3,3.2,11.77,11.77,0,0,0-.9,4.3,11.34,11.34,0,0,0,.9,4.3,8.215,8.215,0,0,0,2.3,3.2,13.252,13.252,0,0,0,3.4,2.2,11.409,11.409,0,0,0,4.1.7,11.047,11.047,0,0,0,4.1-.7,11.053,11.053,0,0,0,3.4-2.2,10.449,10.449,0,0,0,2.3-3.2,11.34,11.34,0,0,0,.9-4.3,11.34,11.34,0,0,0-.9-4.3,9.017,9.017,0,0,0-2.3-3.2,13.252,13.252,0,0,0-3.4-2.2,11.046,11.046,0,0,0-4.1-.7m0,21.2a21.421,21.421,0,0,1-4.3-.7,9.982,9.982,0,0,1-3.4-2.2A11.34,11.34,0,0,1,20,26.4a12.713,12.713,0,0,1-.9-4.3,11.34,11.34,0,0,1,.9-4.3,10.213,10.213,0,0,1,2.3-3.4,11.554,11.554,0,0,1,3.6-2.2,12.511,12.511,0,0,1,4.3-.7,12.91,12.91,0,0,1,4.3.7,13.4,13.4,0,0,1,3.6,2.2,9.289,9.289,0,0,1,2.3,3.4,11.77,11.77,0,0,1,.9,4.3,11.34,11.34,0,0,1-.9,4.3,20.786,20.786,0,0,1-2.7,3.2,13.252,13.252,0,0,1-3.4,2.2,13.233,13.233,0,0,1-4.3.9"/><path class="b" d="M61.6,32H57V28.8h0a7.243,7.243,0,0,1-2.3,2.7,7,7,0,0,1-4,1.1,7.674,7.674,0,0,1-3.4-.7A10.179,10.179,0,0,1,45,30.1a7.45,7.45,0,0,1-1.3-2.5,7.781,7.781,0,0,1-.4-3.1V11.9h5V23a5.537,5.537,0,0,0,.2,1.8,3.453,3.453,0,0,0,.5,1.8,14.961,14.961,0,0,0,1.1,1.3,2.981,2.981,0,0,0,2,.5,4.552,4.552,0,0,0,2-.5,2.949,2.949,0,0,0,1.4-1.3,5.076,5.076,0,0,0,.9-1.8,7.106,7.106,0,0,0,.4-2v-11h5L61.6,32Z"/><path class="b" d="M43.3,12V24.4a16.455,16.455,0,0,0,.4,3.1A9.859,9.859,0,0,0,45,30a6.165,6.165,0,0,0,2.3,1.8,7.931,7.931,0,0,0,3.2.7,7.042,7.042,0,0,0,3.8-1.1,6.754,6.754,0,0,0,2.3-2.5H57v3.2h4.5V12.4H56.8v11a6.465,6.465,0,0,1-.4,2,5.076,5.076,0,0,1-.9,1.8,8.636,8.636,0,0,1-1.4,1.3,3.6,3.6,0,0,1-2.2.5,3.939,3.939,0,0,1-2-.5,5.347,5.347,0,0,1-1.3-1.3,2.73,2.73,0,0,1-.5-1.8c0-.7-.1-1.3-.1-1.9V12Zm7.2,20.7a7,7,0,0,1-5.7-2.5,6.806,6.806,0,0,1-1.3-2.7,8.282,8.282,0,0,1-.4-3.1V11.9h5.2V23a5.537,5.537,0,0,0,.2,1.8,2.767,2.767,0,0,0,.5,1.6,4.488,4.488,0,0,0,1.1,1.3,2.73,2.73,0,0,0,1.8.5,4.552,4.552,0,0,0,2-.5,4.357,4.357,0,0,0,1.4-1.3,6.467,6.467,0,0,0,.9-1.6,7.106,7.106,0,0,0,.4-2v-11h5.2V32.1h-5V29.2a7.216,7.216,0,0,1-6.3,3.5"/><path class="b" d="M64.7,11.9h4.9v3.4h0a6.77,6.77,0,0,1,2.3-2.9,6.236,6.236,0,0,1,3.4-1.1h.5c.2,0,.4,0,.5.2v4.7c-.4,0-.5-.2-.9-.2h-.7a6.845,6.845,0,0,0-2.7.5,4.258,4.258,0,0,0-2.3,3.2,3.9,3.9,0,0,0-.2,1.4V32H64.6V11.9Z"/><path class="b" d="M64.9,31.8h4.7V21.2a3.645,3.645,0,0,1,.2-1.4,5.069,5.069,0,0,1,.9-1.8,8.046,8.046,0,0,1,1.6-1.6,5.619,5.619,0,0,1,2.9-.7h.7a1.078,1.078,0,0,1,.7.2V11.6h-1a5.536,5.536,0,0,0-3.4,1.1,6.77,6.77,0,0,0-2.3,2.9h-.4V12H65V31.8Zm5,.2H64.7V11.9h5V15a5.428,5.428,0,0,1,2.2-2.5,6.379,6.379,0,0,1,3.6-1.1h.7c.2,0,.4,0,.5.2h.2v4.7h-.2c-.4,0-.5-.2-.9-.2h-.7a6.845,6.845,0,0,0-2.7.5A4.483,4.483,0,0,0,70.8,18a2.875,2.875,0,0,0-.7,1.8,3.9,3.9,0,0,0-.2,1.4V32Z"/><path class="b" d="M92,17.4A3.788,3.788,0,0,0,90.2,16a4.794,4.794,0,0,0-2.3-.5,4.9,4.9,0,0,0-2.3.5,8.622,8.622,0,0,0-1.8,1.4,9.456,9.456,0,0,0-1.1,2,9.256,9.256,0,0,0-.4,2.3,9.255,9.255,0,0,0,.4,2.3,4.426,4.426,0,0,0,1.1,2,6.228,6.228,0,0,0,1.8,1.4,5.1,5.1,0,0,0,2.5.5,6.352,6.352,0,0,0,2.3-.5,4,4,0,0,0,1.8-1.3l3.1,3.2a8.251,8.251,0,0,1-3.2,2A11.409,11.409,0,0,1,88,32a10.447,10.447,0,0,1-4.3-.6,7.717,7.717,0,0,1-3.4-2.2A9.289,9.289,0,0,1,78,25.8a12.874,12.874,0,0,1-.9-4.5A11.34,11.34,0,0,1,78,17a10.768,10.768,0,0,1,2.3-3.4,13.252,13.252,0,0,1,3.4-2.2,11.409,11.409,0,0,1,4.1-.7,13.233,13.233,0,0,1,4.3.9,6.491,6.491,0,0,1,3.2,2.3Z"/><path class="b" d="M87.9,11.5a11.046,11.046,0,0,0-4.1.7,12.381,12.381,0,0,0-3.4,2.2,10.449,10.449,0,0,0-2.3,3.2,11.34,11.34,0,0,0-.9,4.3,13.353,13.353,0,0,0,.9,4.5,8.215,8.215,0,0,0,2.3,3.2,9,9,0,0,0,3.4,2,11.409,11.409,0,0,0,4.1.7,11.046,11.046,0,0,0,4.1-.7,7.573,7.573,0,0,0,3.1-2l-2.9-3.1a8.32,8.32,0,0,1-1.8,1.3,4.794,4.794,0,0,1-2.3.5,6.551,6.551,0,0,1-2.5-.5,8.622,8.622,0,0,1-1.8-1.4,4.573,4.573,0,0,1-1.1-2.2,9.256,9.256,0,0,1-.4-2.3,9.255,9.255,0,0,1,.4-2.3,6.458,6.458,0,0,1,1.1-2.2A6.228,6.228,0,0,1,85.6,16a5.1,5.1,0,0,1,2.5-.5,7.418,7.418,0,0,1,2.5.5,5.936,5.936,0,0,1,1.8,1.3l2.9-2.9a8.218,8.218,0,0,0-3.1-2.2,13.328,13.328,0,0,0-4.3-.7M88,32.7a12.91,12.91,0,0,1-4.3-.7,13.4,13.4,0,0,1-3.6-2.2,7.372,7.372,0,0,1-2.3-3.4,12.874,12.874,0,0,1-.9-4.5,13.353,13.353,0,0,1,.9-4.5A10.212,10.212,0,0,1,80.1,14a13.252,13.252,0,0,1,3.4-2.2,11.409,11.409,0,0,1,4.1-.7,13.233,13.233,0,0,1,4.3.9,7.748,7.748,0,0,1,3.6,2.3v.2L92,17.8v-.2a4.389,4.389,0,0,0-1.6-1.4,4.794,4.794,0,0,0-2.3-.5,5.555,5.555,0,0,0-2.3.5,4.483,4.483,0,0,0-1.6,1.4,17.977,17.977,0,0,0-1.1,2,7.876,7.876,0,0,0-.4,2.3,9.255,9.255,0,0,0,.4,2.3,4.426,4.426,0,0,0,1.1,2A6.228,6.228,0,0,0,86,27.6a4.337,4.337,0,0,0,2.3.5,6.352,6.352,0,0,0,2.3-.5,4.92,4.92,0,0,0,1.8-1.3l.2-.2,3.2,3.4v.2a12.125,12.125,0,0,1-3.2,2.2,20.226,20.226,0,0,1-4.6.8"/><path class="b" d="M111.2,19.9a4.776,4.776,0,0,0-.4-1.8,6.467,6.467,0,0,0-.9-1.6,5.68,5.68,0,0,0-1.4-1.1,6.174,6.174,0,0,0-2.2-.4,5.943,5.943,0,0,0-3.8,1.4,4.986,4.986,0,0,0-1.8,3.4h10.5Zm5,2.2v1.4H101a4.552,4.552,0,0,0,.5,2,9.136,9.136,0,0,0,1.3,1.6,14.19,14.19,0,0,0,1.8,1.1,7.8,7.8,0,0,0,2.2.4,6.314,6.314,0,0,0,3.2-.7,6.012,6.012,0,0,0,2.2-2l3.4,2.7a10.059,10.059,0,0,1-8.6,4,11.415,11.415,0,0,1-4.3-.7,13.865,13.865,0,0,1-3.4-2A10.449,10.449,0,0,1,97,26.7a11.34,11.34,0,0,1-.9-4.3,11.34,11.34,0,0,1,.9-4.3,11.053,11.053,0,0,1,2.2-3.4,6.486,6.486,0,0,1,3.4-2.5,11.409,11.409,0,0,1,4.1-.7,9.2,9.2,0,0,1,3.8.7,8.3,8.3,0,0,1,3.1,2,13.252,13.252,0,0,1,2.2,3.4c.1,1.3.4,2.7.4,4.5"/><path class="b" d="M101.1,19.8h10.1c0-.5-.2-1.1-.2-1.6a3.39,3.39,0,0,0-.9-1.4,5.108,5.108,0,0,0-1.6-1.1,5.917,5.917,0,0,0-2-.4,5.846,5.846,0,0,0-3.8,1.3,4.026,4.026,0,0,0-1.6,3.2m10.3.3H100.8v-.2a5.442,5.442,0,0,1,1.8-3.6,5.9,5.9,0,0,1,4-1.4,6.652,6.652,0,0,1,2.2.4,8.537,8.537,0,0,1,1.4,1.1,6.467,6.467,0,0,1,.9,1.6,11.76,11.76,0,0,1,.3,2.1Zm-4.9-8.6a11.046,11.046,0,0,0-4.1.7,9.138,9.138,0,0,0-3.2,2.2A10.518,10.518,0,0,0,97,17.8a11.765,11.765,0,0,0-.7,4.3,17.562,17.562,0,0,0,.7,4.3,9.138,9.138,0,0,0,2.2,3.2,9,9,0,0,0,3.4,2,11.765,11.765,0,0,0,4.3.7,10.056,10.056,0,0,0,8.4-3.8L112.2,26a5.633,5.633,0,0,1-2.2,1.8,6.565,6.565,0,0,1-3.2.7,9.332,9.332,0,0,1-2.2-.4,3.412,3.412,0,0,1-1.8-1.1,5.34,5.34,0,0,1-1.3-1.6,3.323,3.323,0,0,1-.5-2v-.2h15.3V22a13.3,13.3,0,0,0-.7-4.7,9.568,9.568,0,0,0-2-3.4,7.24,7.24,0,0,0-3.1-2,27.105,27.105,0,0,0-4-.4m.2,21.2a11.415,11.415,0,0,1-4.3-.7A9.982,9.982,0,0,1,99,29.8a10.449,10.449,0,0,1-2.3-3.2,12.422,12.422,0,0,1-.9-4.5,13.353,13.353,0,0,1,.9-4.5,9.1,9.1,0,0,1,2.2-3.4,13.252,13.252,0,0,1,3.4-2.2,9.736,9.736,0,0,1,4.3-.7,10.879,10.879,0,0,1,4,.7,6.817,6.817,0,0,1,3.1,2.2,7.7,7.7,0,0,1,2,3.4,14.875,14.875,0,0,1,.7,4.9v1.6H101a3.453,3.453,0,0,0,.5,1.8,4.357,4.357,0,0,0,1.3,1.4c.6.3,1.1.7,1.8,1.1a7.106,7.106,0,0,0,2,.4,5.7,5.7,0,0,0,3.1-.7,6.458,6.458,0,0,0,2.2-1.8v-.2l3.6,2.9v.2a12.03,12.03,0,0,1-8.8,3.5"/><path class="c" d="M147.8,0V14.2h0a4.36,4.36,0,0,0-.9-1.1,17.1,17.1,0,0,0-1.4-1.1,5.91,5.91,0,0,0-2-.7A9.519,9.519,0,0,0,141,11a11.088,11.088,0,0,0-4,.9,7.229,7.229,0,0,0-3.1,2.3,9,9,0,0,0-2,3.4,11.409,11.409,0,0,0-.7,4.1,11.047,11.047,0,0,0,.7,4.1,9.568,9.568,0,0,0,2,3.4,11.357,11.357,0,0,0,3.1,2.3,11.616,11.616,0,0,0,4.1.9,11.088,11.088,0,0,0,4-.9,5.447,5.447,0,0,0,2.9-2.7h0V32h4.9V0Zm-8.2,27.7a8.622,8.622,0,0,1-1.8-1.4,4.573,4.573,0,0,1-1.1-2.2,9.256,9.256,0,0,1-.4-2.3,9.256,9.256,0,0,1,.4-2.3,6.458,6.458,0,0,1,1.1-2.2,6.228,6.228,0,0,1,1.8-1.4,5.1,5.1,0,0,1,2.5-.5,6.551,6.551,0,0,1,2.5.5,5.125,5.125,0,0,1,1.8,1.4,7.516,7.516,0,0,1,1.3,2.2,9.256,9.256,0,0,1,.4,2.3,9.256,9.256,0,0,1-.4,2.3,7.418,7.418,0,0,1-1.3,2.2,6.228,6.228,0,0,1-1.8,1.4,6.5,6.5,0,0,1-5,0ZM155.7,1.1V4.7H158c.9,0,1.3.2,1.6.7a4.776,4.776,0,0,1,.4,1.8v7.9a5.45,5.45,0,0,0,.5,2.2,8.537,8.537,0,0,0,1.1,1.4,4.194,4.194,0,0,0,1.4.9,3.816,3.816,0,0,0,1.3.4h0a4.6,4.6,0,0,0-1.3.4,6.109,6.109,0,0,0-1.4.7,17.1,17.1,0,0,0-1.1,1.4,3.935,3.935,0,0,0-.5,2.3v7.5a5.84,5.84,0,0,1-.4,1.8c-.2.5-.7.7-1.6.7h-2.3v3.6h3.1a6.465,6.465,0,0,0,2-.4,3.412,3.412,0,0,0,1.8-1.1,8.32,8.32,0,0,0,1.3-1.8,4.706,4.706,0,0,0,.4-2.5V24.5a3.1,3.1,0,0,1,.4-1.6c.2-.3.4-.7.7-1.1.4-.2.5-.4.9-.5a6.374,6.374,0,0,0,.9-.2V18c-.4,0-.7,0-.9-.2a1.268,1.268,0,0,1-.9-.4c-.4-.2-.5-.5-.7-.9a3.255,3.255,0,0,1-.4-1.4V6.6a9.348,9.348,0,0,0-.4-2.5,5.936,5.936,0,0,0-1.3-1.8,4.185,4.185,0,0,0-1.8-1.1,7.106,7.106,0,0,0-2-.4l-3.1.3Zm-27,0a6.465,6.465,0,0,0-2,.4,3.412,3.412,0,0,0-1.8,1.1,8.32,8.32,0,0,0-1.3,1.8,4.706,4.706,0,0,0-.4,2.5v8.4a2.891,2.891,0,0,1-.4,1.4,2.178,2.178,0,0,1-.7.9c-.4.2-.5.4-.9.4a6.374,6.374,0,0,0-.9.2v3.4a1.486,1.486,0,0,1,.9.2,1.05,1.05,0,0,1,.9.5c.4.2.5.5.7,1.1a3.408,3.408,0,0,1,.4,1.6v8.1a9.347,9.347,0,0,0,.4,2.5,5.936,5.936,0,0,0,1.3,1.8,4.185,4.185,0,0,0,1.8,1.1,7.106,7.106,0,0,0,2,.4h3.1V35.3h-2.3c-.9,0-1.3-.2-1.6-.7a4.776,4.776,0,0,1-.4-1.8V25a4.9,4.9,0,0,0-.5-2.3,8.537,8.537,0,0,0-1.1-1.4,6.11,6.11,0,0,0-1.4-.7c-.5-.2-.9-.2-1.3-.4h0a4.6,4.6,0,0,0,1.3-.4,5.507,5.507,0,0,0,1.4-.9,17.1,17.1,0,0,0,1.1-1.4,3.6,3.6,0,0,0,.5-2.2V7a5.84,5.84,0,0,1,.4-1.8c.2-.5.7-.7,1.6-.7h2.3V.9h-3.1v.2Z"/></g></svg>