<svg xmlns="http://www.w3.org/2000/svg" viewBox="0 0 128.104 27.349"><defs><style>.a{fill:#c9c9c9;}</style></defs><g transform="translate(-21.785 -110.953)"><path class="a" d="M213.238,130.946v-2.253h-2.8v-3.5l-.094.029-2.628.8-.052.016v2.654h-4.147v-1.479a2.346,2.346,0,0,1,.458-1.566,1.612,1.612,0,0,1,1.281-.524,2.98,2.98,0,0,1,1.216.277l.1.046v-2.373l-.049-.018a4.738,4.738,0,0,0-1.554-.208,4.553,4.553,0,0,0-2.2.53,3.758,3.758,0,0,0-1.512,1.5,4.451,4.451,0,0,0-.536,2.193v1.626h-1.949v2.253h1.949v9.491h2.8v-9.491h4.148v6.032c0,2.484,1.172,3.743,3.482,3.743a5.721,5.721,0,0,0,1.188-.132,3.286,3.286,0,0,0,.865-.274l.037-.022V138.02l-.114.075a1.955,1.955,0,0,1-.562.245,2.14,2.14,0,0,1-.552.094,1.5,1.5,0,0,1-1.191-.434,2.337,2.337,0,0,1-.379-1.509v-5.544h2.8Zm-20.709,7.487a2.967,2.967,0,0,1-2.38-1,4.246,4.246,0,0,1-.855-2.823,4.412,4.412,0,0,1,.856-2.9,2.92,2.92,0,0,1,2.357-1.015,2.873,2.873,0,0,1,2.294.971,4.324,4.324,0,0,1,.838,2.875,4.614,4.614,0,0,1-.788,2.91,2.807,2.807,0,0,1-2.322.98m.125-10.023a6.137,6.137,0,0,0-4.572,1.686,6.327,6.327,0,0,0-1.652,4.6,5.992,5.992,0,0,0,1.612,4.4,5.849,5.849,0,0,0,4.327,1.624,5.969,5.969,0,0,0,4.481-1.709,6.308,6.308,0,0,0,1.651-4.559,6.152,6.152,0,0,0-1.549-4.428,5.706,5.706,0,0,0-4.3-1.614m-10.732,0a5.056,5.056,0,0,0-3.24,1,3.194,3.194,0,0,0-1.262,2.605,3.644,3.644,0,0,0,.272,1.456,2.931,2.931,0,0,0,.836,1.092,7.263,7.263,0,0,0,1.7.951,12.724,12.724,0,0,1,1.414.658,1.964,1.964,0,0,1,.622.511,1.151,1.151,0,0,1,.173.666c0,.789-.591,1.173-1.806,1.173a5,5,0,0,1-1.529-.279,5.78,5.78,0,0,1-1.565-.795l-.116-.082v2.692l.042.02a6.883,6.883,0,0,0,1.483.458,7.944,7.944,0,0,0,1.584.183,5.363,5.363,0,0,0,3.42-1.007,3.254,3.254,0,0,0,1.274-2.668,3.069,3.069,0,0,0-.685-2.018,5.879,5.879,0,0,0-2.329-1.482,6,6,0,0,1-1.658-.862,1.211,1.211,0,0,1-.335-.9,1.009,1.009,0,0,1,.425-.837,1.907,1.907,0,0,1,1.191-.336,4.882,4.882,0,0,1,1.416.217,4.529,4.529,0,0,1,1.237.574l.114.078v-2.554l-.044-.019a6.132,6.132,0,0,0-1.256-.35,7.662,7.662,0,0,0-1.377-.143m-11.792,10.023a2.964,2.964,0,0,1-2.379-1,4.242,4.242,0,0,1-.855-2.823,4.412,4.412,0,0,1,.855-2.9,2.918,2.918,0,0,1,2.357-1.015,2.874,2.874,0,0,1,2.294.971,4.328,4.328,0,0,1,.837,2.875,4.614,4.614,0,0,1-.787,2.91,2.808,2.808,0,0,1-2.322.98m.124-10.023a6.132,6.132,0,0,0-4.571,1.686,6.324,6.324,0,0,0-1.653,4.6,5.994,5.994,0,0,0,1.612,4.4,5.85,5.85,0,0,0,4.328,1.624,5.97,5.97,0,0,0,4.481-1.709,6.314,6.314,0,0,0,1.651-4.559,6.149,6.149,0,0,0-1.55-4.428,5.7,5.7,0,0,0-4.3-1.614m-10.468,2.317v-2.034h-2.763v11.743h2.763v-6.007a4.186,4.186,0,0,1,.689-2.494,2.113,2.113,0,0,1,1.787-.944,3.245,3.245,0,0,1,.831.122,2.107,2.107,0,0,1,.644.26l.116.084v-2.785l-.045-.019a2.863,2.863,0,0,0-1.082-.165,2.831,2.831,0,0,0-1.848.662,3.741,3.741,0,0,0-1.063,1.575h-.029Zm-7.71-2.317a6.816,6.816,0,0,0-3.359.808A5.435,5.435,0,0,0,146.5,131.5a7.26,7.26,0,0,0-.761,3.375,6.225,6.225,0,0,0,.739,3.025,5.2,5.2,0,0,0,2.067,2.089,6.156,6.156,0,0,0,3.02.734,6.6,6.6,0,0,0,3.332-.781l.037-.02v-2.531l-.116.084a5.19,5.19,0,0,1-1.351.7,4.09,4.09,0,0,1-1.325.256,3.4,3.4,0,0,1-2.585-1.007,3.919,3.919,0,0,1-.955-2.793,4.068,4.068,0,0,1,.994-2.867,3.383,3.383,0,0,1,2.591-1.069,4.436,4.436,0,0,1,2.629.914l.116.084v-2.666l-.037-.021a4.545,4.545,0,0,0-1.278-.432,7.73,7.73,0,0,0-1.543-.164m-8.238.283h-2.763v11.744h2.763Zm-1.353-5a1.663,1.663,0,0,0-1.176.461,1.523,1.523,0,0,0-.493,1.152,1.484,1.484,0,0,0,.487,1.13,1.682,1.682,0,0,0,1.182.45,1.7,1.7,0,0,0,1.188-.449,1.473,1.473,0,0,0,.494-1.13,1.552,1.552,0,0,0-.481-1.139,1.649,1.649,0,0,0-1.2-.474m-6.892,4.136v12.61h2.819V124.05h-3.9l-4.959,12.172-4.814-12.172h-4.061v16.387h2.649V127.826h.091l5.082,12.611h2l5-12.61Z" transform="translate(-63.349 -7.621)"/><path class="a" d="M34.781,123.948h-13v-13h13v13Z" transform="translate(-0.001 0)"/><path class="a" d="M74.7,123.948h-13v-13h13v13Z" transform="translate(-25.574 0)"/><path class="a" d="M34.78,163.884h-13v-13h13v13Z" transform="translate(0 -25.583)"/><path class="a" d="M74.7,163.884h-13v-13h13v13Z" transform="translate(-25.574 -25.583)"/></g></svg>