<svg xmlns="http://www.w3.org/2000/svg" viewBox="0 0 304 125.523"><defs><style>.a,.b,.c{fill:none;stroke:#fff;stroke-miterlimit:10;stroke-width:4px;}.a{stroke-dasharray:6;opacity:0.2;}.b{stroke-linecap:round;stroke-linejoin:round;}</style></defs><rect class="a" width="300" height="121.523" transform="translate(2 2)"/><rect class="b" width="182.285" height="35.242" transform="translate(68.19 46.558)"/><path class="c" d="M120.228,77.314a5.914,5.914,0,1,1-5.914-5.914A5.947,5.947,0,0,1,120.228,77.314Z" transform="translate(-20.2 -13.175)"/><path class="c" d="M147.228,77.314a5.914,5.914,0,1,1-5.914-5.914A5.947,5.947,0,0,1,147.228,77.314Z" transform="translate(-25.325 -13.175)"/><path class="c" d="M234.314,83.228a5.914,5.914,0,0,1,0-11.828h35.728a5.914,5.914,0,1,1,0,11.828Z" transform="translate(-42.981 -13.175)"/></svg>