<svg xmlns="http://www.w3.org/2000/svg" viewBox="0 0 194 194"><defs><style>.a{fill:#fff;}.b{opacity:0.2;}.c,.d{fill:none;stroke-miterlimit:10;stroke-width:4px;}.c{stroke:#fff;stroke-dasharray:5.969 5.969;}.d{stroke:#ffa700;}</style></defs><g transform="translate(-633 -1514)"><g transform="translate(701 1576)"><path class="a" d="M53.836,16.047h0l-3.365-3.365a2.562,2.562,0,1,0-3.624,3.624L48.142,17.6l-1.553,1.812a26.856,26.856,0,0,0-15.53-6.471V2.588A2.445,2.445,0,0,0,28.471,0a2.445,2.445,0,0,0-2.588,2.588V12.941a28.759,28.759,0,0,0-17.6,8.282L7.506,22A28.071,28.071,0,0,0,0,41.412,28.388,28.388,0,0,0,8.282,61.6a27.953,27.953,0,0,0,20.189,8.282A28.28,28.28,0,0,0,56.942,41.412a27.74,27.74,0,0,0-6.73-18.377l1.553-1.553,1.553,1.553a2.562,2.562,0,1,0,3.624-3.624ZM51.766,41.412a21.535,21.535,0,0,1-6.988,16.306,21.535,21.535,0,0,1-16.306,6.988,22.5,22.5,0,0,1-16.565-6.988,22.264,22.264,0,0,1-6.73-16.306,23.147,23.147,0,0,1,6.212-16.047l.259-.259a.253.253,0,0,1,.259-.259,23.286,23.286,0,0,1,16.565-6.73,22.264,22.264,0,0,1,16.306,6.73A22.5,22.5,0,0,1,51.766,41.412Z"/><path class="a" d="M25.53,22.941H15.177V12.588A2.445,2.445,0,0,0,12.588,10,2.445,2.445,0,0,0,10,12.588V25.53a2.445,2.445,0,0,0,2.588,2.588H25.53a2.445,2.445,0,0,0,2.588-2.588A2.445,2.445,0,0,0,25.53,22.941Z" transform="translate(15.883 15.883)"/></g><g transform="translate(633 1514)"><g class="b"><circle class="c" cx="95" cy="95" r="95" transform="translate(2 2)"/></g><circle class="d" cx="73.9" cy="73.9" r="73.9" transform="translate(23.1 23.1)"/></g></g></svg>