<?xml version="1.0" encoding="utf-8"?>
<!-- Generator: Adobe Illustrator 22.1.0, SVG Export Plug-In . SVG Version: 6.00 Build 0)  -->
<svg version="1.1" id="Layer_1" xmlns="http://www.w3.org/2000/svg" xmlns:xlink="http://www.w3.org/1999/xlink" x="0px" y="0px"
	 viewBox="0 0 194 194" style="enable-background:new 0 0 194 194;" xml:space="preserve">
<style type="text/css">
	.st0{opacity:0.2;}
	.st1{fill:none;stroke:#FFFFFF;stroke-width:4;stroke-miterlimit:10;stroke-dasharray:5.969,5.969;}
	.st2{fill:none;stroke:#FFA700;stroke-width:4;stroke-miterlimit:10;}
	.st3{fill:#FFFFFF;}
</style>
<g transform="translate(-984 -1793)">
	<g transform="translate(984 1793)">
		<g class="st0">
			<circle class="st1" cx="97" cy="97" r="95"/>
		</g>
		<circle class="st2" cx="97" cy="97" r="73.9"/>
	</g>
	<path class="st3" d="M1119,1876.7c-2.6-2.6-6.1-4.1-9.8-4c-3.8,0-7.4,1.5-10,4.2c-2,2-3.3,4.6-3.7,7.5h-3.7
		c-2.8-12.1-13.3-21-25.9-21c-14.7,0-26.6,11.9-26.6,26.6s11.9,26.6,26.6,26.6c14.7,0,26.6-11.9,26.6-26.6v-1.2h2.8
		c0.4,2.8,1.7,5.4,3.7,7.5c2.6,2.7,6.2,4.3,10,4.2c3.7,0.1,7.3-1.5,9.8-4.2c2.7-2.5,4.2-6.1,4.2-9.8
		C1123,1882.8,1121.6,1879.3,1119,1876.7z M1087.5,1890c0.1,12.1-9.6,21.9-21.7,21.9s-21.9-9.6-21.9-21.7c0-0.1,0-0.2,0-0.3
		c0.1-12.1,9.8-21.9,21.9-21.9c9.8,0,18.4,6.6,21,16.1h-17.7c-1.2-0.1-2.3,0.9-2.3,2.1c0,0.1,0,0.2,0,0.3v11.7c0,1.3,1,2.3,2.3,2.3
		c1.3,0,2.3-1,2.3-2.3v-9.3h4.4v9.3c0,1.3,1,2.3,2.3,2.3s2.3-1,2.3-2.3c0,0,0,0,0,0v-9.3h7C1087.5,1889.3,1087.5,1889.5,1087.5,1890
		z M1115.5,1893c-3.4,3.6-9.1,3.7-12.8,0.3c-0.1-0.1-0.2-0.2-0.3-0.3c-1.7-1.6-2.7-3.8-2.8-6.1v-0.7l0,0c0-2.4,0.9-4.8,2.6-6.5
		c1.8-1.9,4.2-2.9,6.8-2.8c2.5,0,4.8,1,6.5,2.8c1.8,1.7,2.8,4.1,2.8,6.5C1118.3,1889.1,1117.6,1891.2,1115.5,1893z"/>
</g>
</svg>
