<svg xmlns="http://www.w3.org/2000/svg" viewBox="15 100 375 210" display="block"><g fill-rule="evenodd"><path d="M129.6 106c0 .676-.715 1.2-1.638 1.2-.901 0-2.472.9-3.492 2-1.019 1.1-2.468 2-3.219 2-1.527 0-3.651 1.829-3.651 3.143 0 .471-.54.857-1.2.857-.66 0-1.2.54-1.2 1.2 0 .66-.376 1.2-.836 1.2-1.086 0-4.764 3.678-4.764 4.764 0 .46-.54.836-1.2.836-.66 0-1.2.36-1.2.8 0 .44-.54.8-1.2.8-.66 0-1.2.54-1.2 1.2 0 .66-.36 1.2-.8 1.2-.44 0-.8.527-.8 1.172 0 .644-.81 1.598-1.8 2.12-2.207 1.162-3.096 2.4-2.632 3.667.209.571-.119.779-.809.515-.716-.275-1.159.046-1.159.84 0 .707-.36 1.286-.8 1.286-.44 0-.8.54-.8 1.2 0 .67-.713 1.2-1.615 1.2-1.637 0-11.985 9.657-11.985 11.185 0 .448-.54.815-1.2.815-.66 0-1.2.36-1.2.8 0 .44-.54.8-1.2.8-.66 0-1.2.54-1.2 1.2 0 .66-.36 1.2-.8 1.2-.44 0-.8.386-.8.857 0 .935-1.97 3.143-2.804 3.143-.676 0-5.196 4.52-5.196 5.196 0 .834-2.208 2.804-3.143 2.804a.86.86 0 0 0-.857.857c0 1.108-2.035 3.143-3.143 3.143-.471 0-.857.54-.857 1.2 0 .66-.42 1.2-.933 1.2-.514 0-.694.24-.401.533.293.292 2.188-1.148 4.212-3.2 2.024-2.053 3.915-3.734 4.201-3.735.287-.002 1.241-1.107 2.121-2.457.88-1.35 2.68-3.015 4-3.699 2.413-1.252 5.2-3.753 5.2-4.666 0-.701 2.169-2.776 2.903-2.776.847 0 33.097-32.585 33.097-33.442 0-.378.86-1.148 1.912-1.711 1.052-.563 2.372-1.883 2.935-2.935.563-1.052 1.338-1.912 1.723-1.912s1.67-.9 2.857-2c1.186-1.1 2.61-2 3.165-2 .554 0 1.008-.344 1.008-.764 0-.42 1.235-.995 2.745-1.278 1.906-.358 2.613-.858 2.314-1.637-.575-1.499-2.659-1.437-2.659.079m5.6 0c0 .667.711 1.2 1.6 1.2.889 0 1.6-.533 1.6-1.2 0-.667-.711-1.2-1.6-1.2-.889 0-1.6.533-1.6 1.2m7.2 5.2c0 .943.54 2.254 1.2 2.914 1.067 1.067 1.2 1.01 1.2-.514 0-.943-.54-2.254-1.2-2.914-1.067-1.067-1.2-1.01-1.2.514m3.2 4.826c-1.067.688-1.067.86 0 1.548 1.23.794 1.995-.013 1.467-1.548-.172-.5-.693-.5-1.467 0m39.2-.026c0 .44-.942.8-2.093.8-1.807 0-2.041.276-1.707 2.02.253 1.327-.058 2.28-.907 2.776-.711.415-.879.766-.373.78 1.071.028 6.68-5.392 6.68-6.456 0-.396-.36-.72-.8-.72-.44 0-.8.36-.8.8m6.595.2c.18.55 1.56 1.063 3.067 1.14 1.506.077 2.108-.039 1.338-.258-.77-.22-1.4-.733-1.4-1.141 0-.407-.75-.741-1.667-.741-.975 0-1.53.415-1.338 1M202.4 118c0 .66.36 1.2.8 1.2.44 0 .8-.54.8-1.2 0-.66-.36-1.2-.8-1.2-.44 0-.8.54-.8 1.2m-55.937 2.6c-.042 1.209.396 1.796 1.337 1.788.864-.008 1.063-.238.52-.6-.484-.324-1.086-1.128-1.337-1.788-.305-.802-.478-.603-.52.6m61.737-.4c.183.55 1.014 1.132 1.846 1.293.833.162 1.944.881 2.469 1.599.525.718 1.224 1.036 1.553.707.329-.33.179-.599-.335-.599-.513 0-.933-.54-.933-1.2 0-.66-.54-1.2-1.2-1.2-.66 0-1.2-.36-1.2-.8 0-.44-.57-.8-1.267-.8-.696 0-1.117.45-.933 1m-28.907 4.4c-.053 1.025-.609 1.8-1.293 1.8-.66 0-1.2.508-1.2 1.129 0 1.567 2.74 1.025 3.059-.605.142-.728.094-1.954-.108-2.724-.275-1.054-.388-.955-.458.4m36.77-.775c-.035.564.477 1.232 1.137 1.486.66.253 1.2.797 1.2 1.208 0 .706.663 1.645 3 4.252.55.613 1 1.5 1 1.972 0 .471.63.829 1.4.794.836-.038.997-.226.4-.467-.55-.222-1-1.093-1-1.937 0-.843-.54-1.533-1.2-1.533-.66 0-1.2-.54-1.2-1.2 0-.66-.36-1.2-.8-1.2-.44 0-.8-.54-.8-1.2 0-.66-.51-1.2-1.133-1.2-.624 0-1.315-.45-1.537-1-.316-.783-.417-.778-.467.025m-67.811 4.167c.143 1.921 2.948 3.508 2.948 1.667 0-.473-.514-.859-1.141-.859-.628 0-1.325-.63-1.548-1.4-.236-.813-.344-.565-.259.592m28.682 3.408c-.073 1.21-.494 2.2-.934 2.2-.44 0-.8.9-.8 2 0 2.143 1.371 2.727 2.078.884.236-.614.285-2.504.11-4.2-.222-2.141-.36-2.411-.454-.884m-26.23 5.337c.097 4.395 2.096 7.188 2.096 2.93 0-1.137-.337-2.067-.749-2.067s-.906-1.17-1.097-2.6c-.19-1.43-.303-.648-.25 1.737M224.8 138.4c0 .44.343.8.762.8s.869 2.221 1 4.937c.221 4.576 2.238 8.118 2.238 3.93 0-.917-.36-1.667-.8-1.667-.44 0-.8-1.98-.8-4.4 0-3.378-.279-4.4-1.2-4.4-.66 0-1.2.36-1.2.8m-49.491 4.2c-.068 1.374-.56 2.2-1.309 2.2-.667 0-1.2.711-1.2 1.6 0 .88.533 1.6 1.185 1.6 1.372 0 2.308-2.991 1.79-5.719-.325-1.713-.367-1.685-.466.319m82.291-.6c0 .66-.54 1.2-1.2 1.2-.8 0-1.2.8-1.2 2.4 0 1.6-.4 2.4-1.2 2.4-.838 0-1.2.844-1.2 2.8 0 1.54-.36 2.8-.8 2.8-.44 0-.8.36-.8.8 0 .44.54.8 1.2.8.803 0 1.2-.803 1.2-2.425 0-1.418.499-2.617 1.2-2.886.66-.253 1.2-1.167 1.2-2.032 0-1.744 1.274-3.272 3.4-4.077 1.929-.73 1.778-2.98-.2-2.98-.889 0-1.6.533-1.6 1.2m4-.086c0 1.128 1.649 2.086 3.591 2.086.665 0 .904-.595.641-1.6-.486-1.857-4.232-2.287-4.232-.486m6.911 2.486c.253.66 1.322 1.2 2.375 1.2s1.914.36 1.914.8c0 .44.36.8.8.8.44 0 .8-.54.8-1.2 0-.747-.756-1.2-2-1.2-1.1 0-2-.36-2-.8 0-.44-.529-.8-1.175-.8-.716 0-.995.469-.714 1.2m-116.391 3.735c-.066 1.174.099 2.704.366 3.4.711 1.854 2.714 1.544 2.714-.421 0-1.137-.374-1.542-1.151-1.243-.788.302-1.255-.238-1.48-1.715L152.24 146l-.12 2.135M277 148.2c.183.55.997 1.129 1.81 1.286.812.158 1.978.788 2.591 1.4.612.613 1.598 1.114 2.189 1.114.592 0 1.218.424 1.391.942.172.518.742.676 1.266.352 1.716-1.06 1.001-2.094-1.447-2.094-1.6 0-2.4-.4-2.4-1.2 0-.747-.756-1.2-2-1.2-1.1 0-2-.36-2-.8 0-.44-.39-.8-.867-.8-.476 0-.717.45-.533 1m11.093 5.422c-.085 1.116 2.493 3.978 3.583 3.978.658 0 5.291 4.894 6.837 7.223.751 1.132 1.606 1.674 2 1.267.387-.399.25-.865-.313-1.066-.55-.197-1-1.227-1-2.291 0-1.063-.386-1.933-.857-1.933-1.108 0-3.143-2.035-3.143-3.143 0-.471-.54-.857-1.2-.857-.66 0-1.2-.36-1.2-.8 0-.44-.874-.8-1.941-.8-1.177 0-2.086-.552-2.308-1.4-.272-1.043-.389-1.088-.458-.178M19.2 204c0 26.84.27 48.8.6 48.8.33 0 .504-21.42.388-47.6-.188-42.088-.072-47.6 1-47.6.666 0 1.212.316 1.212.703 0 .386 2.16 2.98 4.8 5.763 2.64 2.783 4.8 5.453 4.8 5.935 0 .481 1.44 2.28 3.2 3.999 1.76 1.719 3.2 3.437 3.2 3.82 0 .382.45 1.145 1 1.696.55.552 1.9 2.143 3 3.536 2.181 2.762 4.245 3.217 6.114 1.348 1.067-1.067.838-1.2-2.057-1.2-2.941 0-3.257-.194-3.257-2 0-1.1-.388-2-.862-2-1.119 0-5.538-4.419-5.538-5.538 0-.474-.36-.862-.8-.862-.44 0-.8-.56-.8-1.245 0-1.233-4.582-5.955-5.778-5.955-.342 0-.622-.54-.622-1.2 0-.66-.36-1.2-.8-1.2-.44 0-.8-.587-.8-1.306 0-1.572-5.246-6.694-6.857-6.694-.978 0-1.143 7.036-1.143 48.8m209.218-44.622c.323 4.297 2.782 6.665 2.782 2.679 0-1.944-.365-2.857-1.144-2.857-.63 0-1.306-.63-1.503-1.4-.198-.77-.258-.06-.135 1.578m-56.218-.581c-1.388 1.577-1.26 4.403.2 4.403.838 0 1.2-.844 1.2-2.8 0-3.151-.019-3.172-1.4-1.603m-17.66 5.003c-.111 3.973.106 5 1.06 5 .667 0 1.2-.711 1.2-1.6 0-.88-.339-1.6-.754-1.6s-.892-1.53-1.06-3.4c-.242-2.684-.336-2.347-.446 1.6m96.753-3.6c-.051.77-.633 1.4-1.293 1.4-.66 0-1.2.54-1.2 1.2 0 1.534 2.308 1.571 2.893.047.243-.635.274-1.805.067-2.6-.343-1.327-.382-1.331-.467-.047m-163.662 5.793c-1.303 1.065-2.113 2.192-1.8 2.505.313.313.569.149.569-.365 0-.513 1.08-.933 2.4-.933 1.548 0 2.4-.406 2.4-1.144 0-.63.81-1.301 1.8-1.491 1.39-.268 1.254-.365-.6-.427-1.447-.049-3.341.689-4.769 1.855m12.769-1.411c.88.218 1.888.896 2.24 1.507.352.611 1.522 1.111 2.6 1.111s1.96.36 1.96.8c0 .44.386.8.857.8.472 0 1.372.514 2 1.143.629.628 1.143 1.528 1.143 2 0 .471.582.857 1.294.857.875 0 .257-1.038-1.906-3.2-1.76-1.76-3.744-3.2-4.408-3.2-.665 0-1.416-.54-1.669-1.2-.292-.76-1.424-1.166-3.086-1.107-1.717.061-2.072.23-1.025.489m200.4 3.818c0 .66.36 1.2.8 1.2.44 0 .8.9.8 2 0 1.395.423 1.981 1.4 1.937.836-.038.997-.226.4-.467-.55-.222-1-1.633-1-3.137 0-1.896-.367-2.733-1.2-2.733-.66 0-1.2.54-1.2 1.2M171.354 171c-.11 2.42-.5 3.4-1.354 3.4-.889 0-1.2.933-1.2 3.6 0 2.646.314 3.6 1.185 3.6 1.61 0 2.156-2.659 1.812-8.825-.193-3.459-.34-4.047-.443-1.775m77.865-1.46c-.29.913-.863 1.66-1.273 1.66-.41 0-.746.54-.746 1.2 0 2.275 2.201 1.195 2.706-1.328.582-2.912.096-3.998-.687-1.532m-167.642.958c-.648.934-1.627 2.168-2.177 2.743-.55.575-1 1.932-1 3.016 0 1.085-.557 2.185-1.237 2.446-1.905.731-1.329 11.173.637 11.547.853.163 1.4-.224 1.4-.991 0-.693-.54-1.259-1.2-1.259-.907 0-1.2-.978-1.2-4 0-3.022.293-4 1.2-4 .811 0 1.2-.812 1.2-2.507 0-2.312 3.16-6.289 5-6.292.33-.001.6-.541.6-1.201 0-1.753-1.863-1.465-3.223.498M347.2 170c0 .812-.812 1.2-2.508 1.2-1.648 0-3.144.686-4.362 2-1.02 1.1-2.437 2-3.149 2-1.424 0-3.581 1.841-3.581 3.057 0 .425-.54.979-1.2 1.232-.66.254-1.2 1.061-1.2 1.794 0 .734-.9 2.168-2 3.187-1.1 1.02-2 2.591-2 3.492 0 .923-.524 1.638-1.2 1.638-.66 0-1.2.648-1.2 1.44 0 .792-.432 1.872-.96 2.4-.747.747-.658.96.4.96.901 0 1.36-.646 1.36-1.914 0-1.053.54-2.122 1.2-2.375.66-.254 1.2-1.012 1.2-1.686 0-.674.334-1.225.741-1.225.408 0 .858-.515 1-1.144.452-1.997 11.144-12.456 12.734-12.456.839 0 1.525-.337 1.525-.749s1.167-.862 2.593-1c2.696-.261 4.402-3.051 1.866-3.051-.693 0-1.259.54-1.259 1.2m17.748.2c.186.984 1.094 1.437 3.059 1.524 1.536.068 1.983-.047.993-.256-.99-.209-1.8-.894-1.8-1.524 0-.629-.566-1.144-1.259-1.144-.766 0-1.155.548-.993 1.4M91.2 172c0 .44-.731.8-1.625.8s-1.832.54-2.086 1.2c-.253.66-.962 1.2-1.575 1.2-.655 0-1.114.824-1.114 2 0 1.1-.36 2-.8 2-.44 0-.8.54-.8 1.2 0 1.655 1.54 1.512 2.143-.2.875-2.483 4.304-6.6 5.498-6.6.637 0 1.159-.54 1.159-1.2 0-.66-.18-1.2-.4-1.2-.22 0-.4.36-.4.8m10.463.2c-.035.77.229 1.4.585 1.4 6.522 0 7.96 19.408 1.562 21.081-1.519.398-1.968 2.119-.553 2.119 1.108 0 3.143-2.035 3.143-3.143 0-.471.54-.857 1.2-.857.838 0 1.2-.844 1.2-2.8s.362-2.8 1.2-2.8c.888 0 1.2-.931 1.2-3.575 0-2.849-.244-3.481-1.2-3.114-.93.357-1.2-.189-1.2-2.425 0-1.587-.36-2.886-.8-2.886-.44 0-.8-.54-.8-1.2 0-.792-.793-1.2-2.333-1.2-1.284 0-2.515-.45-2.737-1-.241-.597-.429-.436-.467.4m270.4 0c-.044.987.544 1.4 1.994 1.4 1.132 0 2.527.45 3.102 1 .575.55 1.845 1.54 2.824 2.2.978.66 2.095 1.92 2.482 2.8.552 1.257.663 1 .519-1.2-.158-2.405-.494-2.836-2.384-3.053-1.259-.145-2.2-.744-2.2-1.4 0-.772-.893-1.147-2.733-1.147-1.504 0-2.915-.45-3.137-1-.241-.597-.429-.436-.467.4m-141.35 5.337c.056 3.333.438 5.252 1.087 5.466 1.164.384 1.363-2.314.253-3.443-.41-.418-.899-2.2-1.087-3.96-.187-1.76-.301-.889-.253 1.937m-117.435-3.349c-.855.856-.505 1.812.663 1.812.628 0 1.306.63 1.508 1.4.234.897.399.641.458-.714.087-1.984-1.569-3.557-2.629-2.498m87.304-.103c-.32.32-.576 1.332-.57 2.248.01 1.393.15 1.469.849.467.614-.882.689-.461.283 1.589-.305 1.533-1.022 3.153-1.595 3.6-.572.446-1.24 2.611-1.483 4.811-.392 3.532-.348 3.696.368 1.4.447-1.43 1.161-2.6 1.589-2.6.427 0 .777-.72.777-1.6 0-2.431 2.246-1.918 2.627.6.278 1.837.343 1.738.391-.6.068-3.263-2.383-10.769-3.236-9.915M55.2 176.057c0 1.014-1.999 3.143-2.95 3.143-.366 0-1.115.72-1.664 1.6-1.552 2.485-.544 1.916 3.543-2 2.517-2.412 3.314-3.6 2.414-3.6-.739 0-1.343.386-1.343.857m100.944 2.043c-.079 1.815.081 4.425.356 5.8.599 2.996 2.7 3.385 2.7.5 0-1.211-.456-2-1.156-2-.804 0-1.248-1.158-1.456-3.8l-.3-3.8-.144 3.3m148.451.401c.451 1.726 2.605 2.05 2.605.392 0-.608-.674-1.283-1.499-1.498-1.152-.302-1.408-.046-1.106 1.106m-57.302.899c-.058 1.381-.54 2.2-1.293 2.2-.838 0-1.2.844-1.2 2.8 0 1.903.369 2.8 1.151 2.8 1.246 0 2.499-5.859 1.819-8.506-.266-1.034-.413-.816-.477.706m-132.093.914c0 .613.54 1.322 1.2 1.575.66.254 1.2 1.166 1.2 2.029 0 .862-.54 2.108-1.2 2.768-1.518 1.517-1.586 3.812-.097 3.24 2.324-.891 2.322-10.726-.003-10.726-.605 0-1.1.501-1.1 1.114m163.2 2.039c0 1.346.138 2.447.307 2.447.679 0 1.03-4.068.386-4.466-.381-.236-.693.673-.693 2.019m28.063 1c-.035 1.184.272 2.36.682 2.613 1.005.621 2.069-1.209 1.077-1.855-.43-.281-.988-1.051-1.239-1.711-.27-.71-.482-.321-.52.953m73.323-.153c-1.146 1.338-1.175 1.6-.178 1.6.656 0 1.192-.514 1.192-1.141 0-.628.63-1.306 1.4-1.508 1.043-.272 1.088-.389.178-.458-.672-.051-1.839.627-2.592 1.507m-103.253 2.933c-.293.294-.49 1.824-.438 3.4.088 2.675.128 2.718.6.646.651-2.862 3.798-1.097 4.333 2.43.205 1.355.378.752.452-1.581.134-4.207-2.765-7.076-4.947-4.895M375.2 187.6c-.816.983-.761 1.2.302 1.2.714 0 1.298-.54 1.298-1.2 0-.66-.136-1.2-.302-1.2-.166 0-.75.54-1.298 1.2m-292 1.2c0 .44.36.8.8.8.44 0 .8.407.8.906 0 .498 1.26 2.093 2.8 3.546 3.407 3.213 3.778 2.05.4-1.252-1.32-1.29-2.4-2.898-2.4-3.573 0-.675-.54-1.227-1.2-1.227-.66 0-1.2.36-1.2.8m288.667 2.2c-.308.692-7.188 6.855-10.929 9.791-3.682 2.889-3.555 3.119 8.188 14.808 11.124 11.073 12.355 12.833 10.89 15.571-.586 1.095-.601 1.63-.044 1.63.455 0 .828-.54.828-1.2 0-.66.54-1.2 1.2-1.2.66 0 1.2-.708 1.2-1.575 0-1.071-.384-1.428-1.2-1.114-.773.296-1.2-.018-1.2-.883 0-1.507-1.837-3.628-3.143-3.628a.86.86 0 0 1-.857-.857c0-1.108-2.035-3.143-3.143-3.143a.86.86 0 0 1-.857-.857c0-1.108-2.035-3.143-3.143-3.143a.86.86 0 0 1-.857-.857c0-1.108-2.035-3.143-3.143-3.143a.86.86 0 0 1-.857-.857c0-1.108-2.035-3.143-3.143-3.143-.471 0-.857-.9-.857-2 0-1.244.453-2 1.2-2 .66 0 1.2-.39 1.2-.867 0-.476 1.26-2.09 2.8-3.586 1.54-1.495 2.8-2.931 2.8-3.19 0-.796 2.235-2.757 3.143-2.757.471 0 .857-.54.857-1.2 0-1.277-.492-1.594-.933-.6m-293.404 2c-.035 1.21.297 2.2.737 2.2s.8.48.8 1.068c0 1.4 4.438 5.332 6.018 5.332.678 0 1.439.54 1.693 1.2.253.66 1.052 1.172 1.775 1.137.83-.04.945-.212.314-.467-.55-.222-1-.913-1-1.537 0-.623-.72-1.133-1.6-1.133-.88 0-1.6-.36-1.6-.8 0-.44-.54-.8-1.2-.8-.66 0-1.2-.36-1.2-.8 0-.44.44-.8.978-.8s.088-.615-1-1.367c-2.642-1.827-3.629-2.828-4.186-4.247-.272-.693-.492-.272-.529 1.014m34.137 1.478c-1.65 1.692-3 3.316-3 3.611 0 .886-2.71 2.658-4.107 2.686-1.564.03-2.658 3.225-1.104 3.225.572 0 1.247-.54 1.5-1.2.254-.66 1.07-1.2 1.815-1.2 1.388 0 5.896-4.477 5.896-5.856 0-.422.59-1.199 1.31-1.726.721-.526 1.171-1.33 1-1.786-.17-.456-1.66.555-3.31 2.246m45.94 1.322c-.111 3.973.106 5 1.06 5 .667 0 1.2-.711 1.2-1.6 0-.88-.339-1.6-.754-1.6s-.892-1.53-1.06-3.4c-.242-2.684-.336-2.347-.446 1.6m10.388-3.6c-.07.77-.488 1.4-.928 1.4-.44 0-.8 1.08-.8 2.4 0 2.468 1.315 3.274 2.081 1.276.238-.618.284-2.328.103-3.8-.18-1.472-.386-2.046-.456-1.276m139.667.701c.215.825.89 1.499 1.498 1.499 1.658 0 1.334-2.154-.392-2.605-1.152-.302-1.408-.046-1.106 1.106m-76.461 1.999c-.189 4.654.674 8.3 1.966 8.3 1.463 0 1.43-3.735-.04-4.56-.628-.352-1.287-2.08-1.466-3.84l-.325-3.2-.135 3.3m42.266 1.198c0 1.419.197 1.534 1.2.702.66-.548 1.2-1.312 1.2-1.698 0-.386-.54-.702-1.2-.702-.69 0-1.2.722-1.2 1.698m-30.2.299c-1.388 1.577-1.26 4.403.2 4.403.838 0 1.2-.844 1.2-2.8 0-3.151-.019-3.172-1.4-1.603m66.328 1.803c-.096 2.546.173 3.4 1.072 3.4.66 0 1.2-.36 1.2-.8 0-.44-.337-.8-.749-.8s-.895-1.17-1.072-2.6c-.28-2.254-.34-2.147-.451.8m12.672-1.933c0 .733-.54 1.333-1.2 1.333-.833 0-1.2.837-1.2 2.733 0 1.504-.45 2.894-1 3.091-.55.196-.754.622-.453.947 1.016 1.096 2.253-.451 2.253-2.818 0-1.294.336-2.353.746-2.353.901 0 1.994-3.126 1.327-3.794-.26-.26-.473.127-.473.861m-228.936.317c1.907.234 2.54.652 2.225 1.471-.241.63-.09 1.145.336 1.145.426 0 .775-.515.775-1.144 0-.63.81-1.301 1.8-1.491.99-.191-.36-.339-3-.328-2.64.01-3.601.166-2.136.347m186.683 3.041c.139 1.114.573 1.983.964 1.932.39-.052 1.052.387 1.469.975.527.741.619.456.3-.932-.252-1.1-.463-2.45-.469-3-.006-.55-.575-1-1.264-1-.874 0-1.177.612-1 2.025m-77.747 1.2c0 1.306.339 2.375.754 2.375s.892 1.53 1.06 3.4c.225 2.498.344 1.99.446-1.914.107-4.079-.139-5.422-1.06-5.775-.901-.346-1.2.132-1.2 1.914m-5.8-.518c-1.044 1.05-1.366 2.562-1.266 5.95.11 3.692.195 3.952.458 1.389.178-1.734.871-3.555 1.541-4.045.679-.496 1.097-1.735.943-2.795-.263-1.817-.341-1.84-1.676-.499M93 204.2c.189.568 1.658 1 3.4 1s3.211-.432 3.4-1c.235-.705-.769-1-3.4-1s-3.635.295-3.4 1m179.533.333c-.293.294-.479 1.824-.413 3.4.101 2.418.172 2.523.453.667.185-1.222.843-2.2 1.48-2.2.631 0 1.147-.54 1.147-1.2 0-1.218-1.692-1.641-2.667-.667m41.267 1.597c-1.407.567-1.249 2.67.2 2.67.667 0 1.2-.711 1.2-1.6 0-.88-.09-1.572-.2-1.537-.11.035-.65.245-1.2.467m5.52 1.27c-.072 1.323-.578 2.2-1.269 2.2-.704 0-1.263 1.009-1.441 2.6l-.292 2.6-.908-2c-.829-1.824-.913-1.852-.959-.324-.028.922.669 2.328 1.549 3.124 1.564 1.416 1.6 1.397 1.6-.813 0-1.244.567-2.888 1.26-3.653.756-.836 1.124-2.3.92-3.663l-.34-2.271-.12 2.2m-75.969 3.6c-.116 3.844-.428 5-1.351 5-.8 0-1.2.8-1.2 2.4 0 3.335 2.182 3.18 2.812-.2.267-1.43.351-4.76.188-7.4l-.297-4.8-.152 5m-8.823 1.2c-.102 4.324.111 5.4 1.072 5.4.838 0 1.2-.844 1.2-2.8 0-1.54-.337-2.8-.749-2.8s-.895-1.17-1.072-2.6c-.178-1.43-.381-.17-.451 2.8m-67.188-2c-.092 1.716-.548 2.6-1.34 2.6-1.336 0-1.697 3.598-.44 4.375 1.298.802 2.544-2.674 2.224-6.206-.25-2.765-.33-2.903-.444-.769m115.86-1.067c0 .697.336 1.267.747 1.267s.91.99 1.11 2.2c.227 1.376.322 1.025.253-.938-.102-2.919-2.11-5.325-2.11-2.529m-122.646 7.252c.389 4.425.559 4.81 1.793 4.048 1.29-.797 1.049-4.433-.294-4.433-.631 0-1.305-.81-1.498-1.8-.193-.99-.193-.007-.001 2.185m109.846 1.272c0 2.895.133 3.124 1.2 2.057.66-.66 1.2-2.125 1.2-3.257 0-1.295-.444-2.057-1.2-2.057-.87 0-1.2.895-1.2 3.257m-65.6-.857c0 .889.533 1.6 1.2 1.6.857 0 1.238.971 1.334 3.4l.135 3.4.321-3.124c.177-1.718.109-3.968-.15-5-.573-2.285-2.84-2.506-2.84-.276m80 .8c0 .44.54.8 1.2.8.66 0 1.2.42 1.2.933 0 .514.188.745.419.515.23-.231.192-1.011-.086-1.733-.544-1.419-2.733-1.831-2.733-.515m-89.867 1.333c-.293.294-.484 2.364-.424 4.6.06 2.237.265 3.257.456 2.267.19-.99.681-1.8 1.091-1.8.409 0 .744-1.26.744-2.8 0-2.647-.671-3.462-1.867-2.267m-29.333 6.014c0 .522-.748 2.493-1.662 4.382-.915 1.888-1.533 4.072-1.375 4.852.22 1.089.589.821 1.587-1.154 1.375-2.72 2.717-9.027 1.92-9.027-.258 0-.47.426-.47.947m70.931.518c.148.586.269 1.396.269 1.8 0 .404.54.735 1.2.735.66 0 1.2-.54 1.2-1.2 0-.66-.51-1.2-1.133-1.2-.624 0-1.285-.27-1.469-.6-.185-.33-.215-.121-.067.465m-194.131.166c0 .457-1.8 2.707-3.999 5-4.076 4.249-4.948 6.169-2.801 6.169.681 0 1.2-.718 1.2-1.662 0-1.726 4.03-6.338 5.538-6.338.474 0 .862-.561.862-1.247s.36-1.025.8-.753c.44.272.8-.067.8-.753 0-.686-.54-1.247-1.2-1.247-.66 0-1.2.374-1.2.831m244.8 1.194c0 1.086.336 1.975.747 1.975s.897.99 1.08 2.2c.211 1.396.377.842.453-1.514.086-2.646-.225-3.847-1.08-4.175-.867-.333-1.2.087-1.2 1.514m-236.614.375c.549.88 1.452 1.6 2.006 1.6.555 0 1.008.42 1.008.933 0 .514.229.705.508.425.54-.54-2.889-4.521-3.915-4.544-.334-.008-.157.706.393 1.586m217.77 1.889c-.261 1.039-.325 3.109-.143 4.6l.331 2.711.128-3c.089-2.076.497-3 1.328-3 .667 0 1.2-.711 1.2-1.6 0-2.237-2.268-2.006-2.844.289m61.022.52c-1.691 1.975-1.843 3.77-.178 2.105.66-.66 1.2-1.585 1.2-2.057 0-1.485 1.188-.931 2.01.938.435.988 1.471 1.924 2.303 2.081.832.156 2.365 1.205 3.408 2.33 1.042 1.125 2.141 1.798 2.442 1.497.302-.301-.861-1.707-2.584-3.125-1.722-1.418-3.672-3.208-4.333-3.978-1.559-1.817-2.576-1.767-4.268.209M55.2 231.138c0 .982 4.843 5.796 5.529 5.497.296-.129-.827-1.585-2.496-3.235-1.668-1.65-3.033-2.668-3.033-2.262m152 1.995c0 1.137.336 2.067.747 2.067s.908.99 1.106 2.2c.198 1.21.312.428.253-1.737-.11-4.096-2.106-6.493-2.106-2.53m33.6.067c0 2.489-1.366 2.638-1.835.2-.225-1.168-.385-.79-.456 1.076-.074 1.961.4 3.337 1.491 4.324 1.582 1.432 1.6 1.397 1.6-3.076 0-2.488-.18-4.524-.4-4.524-.22 0-.4.9-.4 2m83.489 0c-.253.66-1.01 1.2-1.683 1.2-.672 0-2.074.919-3.114 2.041-2.085 2.25-2.287 2.759-1.092 2.759.44 0 .8-.54.8-1.2 0-.667.711-1.2 1.6-1.2.88 0 1.6-.36 1.6-.8 0-.44.54-.8 1.2-.8.66 0 1.2-.51 1.2-1.133 0-.624.45-1.315 1-1.537.783-.316.778-.417-.025-.467-.564-.035-1.232.477-1.486 1.137m-35.489 1.516c0 .768.453 1.06 1.2.773.912-.35 1.2.152 1.2 2.087 0 1.749.733 3.28 2.338 4.886 2.497 2.496 5.967 3.263 5.151 1.138-.262-.684-1.455-1.2-2.775-1.2-1.695 0-2.314-.385-2.314-1.44 0-.792-.33-1.782-.732-2.2-.403-.418-.853-1.656-1-2.752-.294-2.186-3.068-3.354-3.068-1.292m84.8.884c0 .66.206 1.2.457 1.2.252 0 .997-.54 1.657-1.2 1.067-1.067 1.016-1.2-.457-1.2-.94 0-1.657.52-1.657 1.2m-181.114 1.665c-.267.696-.425 3.846-.352 7 .086 3.656.253 4.575.46 2.535.179-1.76.838-3.488 1.466-3.84 1.542-.865 1.564-6.96.026-6.96-.613 0-1.333.569-1.6 1.265m149.33.284c.069.908.614 1.651 1.213 1.651 1.303 0 .978-2.532-.383-2.985-.556-.185-.902.372-.83 1.334m-310.053 1.278c-1.155 1.585-1.211 1.973-.286 1.973.634 0 1.368-.563 1.632-1.251.264-.688.889-.997 1.389-.688.545.336.768.136.556-.5-.592-1.776-1.78-1.608-3.291.466m31.437.63c0 .739.386 1.343.857 1.343.932 0 3.143 1.969 3.143 2.8 0 .853 2.445 3.022 2.896 2.57.232-.231-1.226-2.138-3.238-4.238-2.442-2.549-3.658-3.372-3.658-2.475m250.911.143c-.271.705-.011 1.2.629 1.2.599 0 1.296-.54 1.549-1.2.271-.705.011-1.2-.629-1.2-.599 0-1.296.54-1.549 1.2m33.712.129c2.647 1.305 3.98 1.094 3.01-.476-.29-.469-1.676-.845-3.08-.835l-2.553.018 2.623 1.293m13.51-.796c-1.014 1.015-.527 1.867 1.067 1.867.88 0 1.6-.334 1.6-.741 0-.408.63-.906 1.4-1.108.77-.201.29-.407-1.067-.458-1.356-.051-2.706.147-3 .44m-94.4.8c-.293.294-.479 2.004-.413 3.8.088 2.398.208 2.682.453 1.067.183-1.21.669-2.2 1.08-2.2.411 0 .747-.72.747-1.6 0-1.594-.852-2.081-1.867-1.067m43.235 1.867c-.23.88-.092 1.6.307 1.6s.725-.51.725-1.133c0-.624.45-1.315 1-1.537.635-.256.523-.427-.307-.467-.718-.035-1.495.657-1.725 1.537m-282.39 1.609c-.758.885-1.378 1.965-1.378 2.4 0 .435-.319.791-.708.791-.878 0-3.563 3.996-3.037 4.522.211.21 1.475-.685 2.81-1.99s2.632-2.169 2.881-1.919c.25.249.454-.656.454-2.013 0-1.357.45-2.648 1-2.87.55-.222.63-.432.178-.467-.452-.035-1.442.661-2.2 1.546m275.955-.276c-1.014 1.015-.527 1.867 1.067 1.867.88 0 1.6-.334 1.6-.741 0-.408.63-.906 1.4-1.108.77-.201.29-.407-1.067-.458-1.356-.051-2.706.147-3 .44m-94.571 2.728c-.293.474.226 1.568 1.153 2.431 1.778 1.657 1.962 1.424 1.181-1.492-.519-1.937-1.478-2.323-2.334-.939M71.2 247.572c0 .675.386 1.228.857 1.228.932 0 3.143 1.969 3.143 2.8 0 .831 2.211 2.8 3.143 2.8.471 0 .857.54.857 1.2 0 .66.54 1.2 1.2 1.2.66 0 1.2.386 1.2.857 0 .932 1.969 3.143 2.8 3.143.831 0 2.8 2.211 2.8 3.143 0 .471.36.857.8.857.44 0 .8.579.8 1.286 0 .814.44 1.116 1.2.825.731-.281 1.2-.002 1.2.714 0 .646.54 1.175 1.2 1.175.66 0 1.2.461 1.2 1.023 0 .563.72 1.543 1.6 2.177.88.634 1.6 1.614 1.6 2.177 0 .562.384 1.023.854 1.023.469 0 2.042 1.26 3.494 2.8 1.453 1.54 3.408 2.8 4.346 2.8.939 0 1.706.386 1.706.857 0 1.108 2.035 3.143 3.143 3.143.471 0 .857.9.857 2 0 1.6.4 2 2 2 1.1 0 2 .386 2 .857 0 .935 1.97 3.143 2.804 3.143.708 0 5.196 4.535 5.196 5.25 0 1.053 2.778 2.699 4.6 2.725 1.055.014 1.8.521 1.8 1.225 0 .66.566 1.2 1.259 1.2 1.957 0 .993-2.762-1.067-3.056-.986-.14-1.792-.59-1.792-1 0-.409-.54-.744-1.2-.744-.66 0-1.2-.305-1.2-.678 0-.373-.701-1.003-1.557-1.4s-8.165-7.226-16.243-15.176c-8.077-7.95-15.331-14.702-16.119-15.004-.788-.303-1.604-1.206-1.814-2.007-.21-.802-1.418-2.07-2.686-2.819-1.267-.748-3.07-2.436-4.006-3.751-.935-1.314-2.747-2.93-4.025-3.591-1.277-.66-2.873-2.264-3.545-3.564-1.476-2.855-4.405-4.742-4.405-2.838m193.76 2.188c-.528.528-.96 1.767-.96 2.753 0 .986-.36 2.015-.8 2.287-.44.272-.8 1.553-.8 2.847 0 1.558-.405 2.353-1.2 2.353-.66 0-1.2.54-1.2 1.2 0 .66-.36 1.2-.8 1.2-.44 0-.8.386-.8.857 0 .961-1.98 3.143-2.851 3.143-.311 0-1.4.9-2.419 2-1.02 1.1-2.591 2-3.492 2-.923 0-1.638.524-1.638 1.2 0 .66.54 1.2 1.2 1.2.66 0 1.2-.36 1.2-.8 0-.44.54-.8 1.2-.8.66 0 1.2-.54 1.2-1.2 0-.747.756-1.2 2-1.2 1.1 0 2-.36 2-.8 0-.44.54-.8 1.2-.8.66 0 1.2-.54 1.2-1.2 0-.66.36-1.2.8-1.2.44 0 .8-.9.8-2 0-1.244.453-2 1.2-2 .747 0 1.2-.756 1.2-2 0-1.1.36-2 .8-2 .44 0 .8-1.26.8-2.8 0-1.956.362-2.8 1.2-2.8.66 0 1.2-.54 1.2-1.2 0-1.447-.933-1.547-2.24-.24m-53.76 6.687c0 1.126.337 1.839.748 1.585.412-.254.894.714 1.072 2.153.224 1.811.363 1.323.452-1.585.099-3.257-.141-4.2-1.072-4.2-.754 0-1.2.761-1.2 2.047m-20.691 2.953c.06 1.87.266 2.585.457 1.588.192-.996.683-1.605 1.091-1.353.409.253.743-.462.743-1.588 0-1.286-.446-2.047-1.2-2.047-.896 0-1.172.863-1.091 3.4M212.8 264c0 .44.54.8 1.2.8.66 0 1.2.42 1.2.933 0 .514.188.745.419.515.23-.231.192-1.011-.086-1.733-.544-1.419-2.733-1.831-2.733-.515m2.4 5.99c0 .289.579 1.103 1.286 1.811 1.182 1.181 1.263 1.166 1-.191-.265-1.367-2.286-2.798-2.286-1.62m-26.667 1.743c-.293.294-.484 1.644-.424 3 .083 1.885.191 2.042.456.667.19-.99.861-1.8 1.491-1.8.629 0 1.144-.54 1.144-1.2 0-1.218-1.692-1.641-2.667-.667m55.756 1.467c-.262.684-1.455 1.2-2.775 1.2-1.524 0-2.314.41-2.314 1.2 0 .66.36 1.2.8 1.2.44 0 .8-.36.8-.8 0-.44.858-.8 1.907-.8 1.234 0 2.054-.565 2.325-1.6.487-1.863-.067-2.161-.743-.4m-25.062 3.8c-.022 1.82.318 2.2 1.973 2.2 1.1 0 2 .36 2 .8 0 .44.72.8 1.6.8 2.353 0 1.948-1.482-.578-2.116-1.198-.301-2.806-1.298-3.574-2.215-1.393-1.667-1.395-1.666-1.421.531m15.173 1c0 .66.36 1.2.8 1.2.44 0 .8-.54.8-1.2 0-.66-.36-1.2-.8-1.2-.44 0-.8.54-.8 1.2m-47 .989c-.55.19-1 1.356-1 2.592 0 1.26-.527 2.45-1.2 2.708-.66.254-1.2 1.168-1.2 2.032 0 .869-.715 1.798-1.6 2.079-.88.279-1.6.82-1.6 1.201 0 .381-.962.807-2.138.946-2.295.271-3.639 2.253-1.529 2.253.697 0 1.267-.36 1.267-.8 0-.44 1.069-.8 2.375-.8 1.782 0 2.26-.299 1.914-1.2-.282-.736.001-1.2.732-1.2.656 0 1.39-.756 1.632-1.68.242-.926.823-1.444 1.293-1.153.532.329.854-.37.854-1.853 0-1.309.401-2.514.891-2.678.491-.163.761-.858.6-1.544-.16-.685-.741-1.092-1.291-.903m40.333-.056c-1.014 1.015-.527 1.867 1.067 1.867.88 0 1.6-.334 1.6-.741 0-.408.63-.906 1.4-1.108.77-.201.29-.407-1.067-.458-1.356-.051-2.706.147-3 .44m-55.346 14.102c-.631 1.548-.138 2.504 1.056 2.048.408-.155.469-1.003.136-1.883-.566-1.492-.647-1.503-1.192-.165M166.4 295.6c-.819.986-.755 1.2.359 1.2.745 0 1.895-.54 2.555-1.2 1.067-1.067 1.027-1.2-.359-1.2-.857 0-2.007.54-2.555 1.2m-4.267.933c-.818.818-.633 2.667.267 2.667.44 0 .8-.51.8-1.133 0-.624.45-1.315 1-1.537.652-.263.56-.426-.267-.467-.696-.035-1.506.177-1.8.47M156 299.6c0 .66.54 1.2 1.2 1.2.66 0 1.2-.334 1.2-.741 0-.408.63-.906 1.4-1.108.77-.201.23-.407-1.2-.458-1.819-.065-2.6.267-2.6 1.107m-5.4.93c-1.358.548-1.273 2.67.107 2.67.608 0 1.295-.72 1.525-1.6.424-1.623.163-1.794-1.632-1.07m-12.789 2.444c1.216.184 3.016.179 4-.011s-.011-.34-2.211-.334c-2.2.006-3.005.161-1.789.345" fill="#b45818"/><path d="M132 105.62c0 1.181 3.954 2.512 6.353 2.138 1.721-.268 1.633-.337-.553-.438-1.725-.08-2.6-.524-2.6-1.32 0-.667-.711-1.2-1.6-1.2-.88 0-1.6.369-1.6.82m-3.4 2.131c-.77.202-1.4.7-1.4 1.108 0 .407-.454.741-1.008.741-.555 0-1.979.9-3.165 2-1.187 1.1-2.472 2-2.857 2-.385 0-1.16.86-1.723 1.912-.563 1.052-1.883 2.372-2.935 2.935-1.052.563-1.912 1.333-1.912 1.711 0 .857-32.25 33.442-33.097 33.442-.734 0-2.903 2.075-2.903 2.776 0 .913-2.787 3.414-5.2 4.666-1.32.684-3.12 2.349-4 3.699-.88 1.35-1.818 2.455-2.084 2.457-.267.001-4.675 4.142-9.796 9.202-10.099 9.977-11.116 10.457-14.12 6.652-1.1-1.393-2.45-2.984-3-3.536-.55-.551-1-1.314-1-1.696 0-.383-1.44-2.101-3.2-3.82-1.76-1.719-3.2-3.518-3.2-3.999 0-.482-2.16-3.152-4.8-5.935-2.64-2.783-4.8-5.377-4.8-5.763 0-.387-.54-.703-1.2-.703-1.42 0-1.863 93.896-.446 94.771.414.257 1.371-.835 2.126-2.426.754-1.591 1.855-3.077 2.446-3.304.591-.227 1.074-.748 1.074-1.158 0-.409 1.44-2.243 3.2-4.075 1.76-1.832 3.2-3.656 3.2-4.055 0-.398.499-.533 1.109-.298.736.282.997-.026.775-.915-.205-.818 1.232-2.962 3.691-5.509 2.214-2.293 4.025-4.543 4.025-5 0-.457.9-.831 2-.831s2-.349 2-.775c0-2.136 10.335 7.141 27.792 24.947C81.57 256.497 87.95 262.4 88.707 262.4c.675 0 1.95 2.973 1.789 4.171-.042.314.433.376 1.057.136.72-.276 6.572 4.917 16.034 14.229 8.194 8.065 15.6 14.989 16.456 15.386.856.397 1.557 1.027 1.557 1.4s.54.678 1.2.678c.66 0 1.2.36 1.2.8 0 .44.349.8.775.8.426 0 .568-.54.314-1.2-.253-.66-.923-1.2-1.489-1.2-.566 0-1.236-.54-1.489-1.2-.254-.66-.976-1.2-1.605-1.2s-9.424-8.19-19.543-18.2c-22.884-22.637-31.92-31.4-32.377-31.4-.195 0-4.996-4.517-10.67-10.039a5070.846 5070.846 0 0 0-12.506-12.14c-2.031-1.949-2.352-2.021-4.4-.991-2.153 1.082-7.364 6.232-7.395 7.308-.008.295-1.812 2.455-4.008 4.8-2.197 2.344-3.997 4.571-4 4.949-.007.666-1.311 2.22-5.72 6.814-1.162 1.211-2.29 2.898-2.507 3.75-.217.852-.436-19.434-.487-45.079l-.093-46.628 2.599 3.028c1.429 1.665 2.798 3.208 3.042 3.428.244.22 1.487 1.84 2.761 3.6 1.275 1.76 3.097 3.92 4.049 4.8.952.88 2.41 2.717 3.24 4.082 5.57 9.161 9.537 10.844 14.421 6.118 1.706-1.65 7.751-7.32 13.435-12.6 5.684-5.28 21.799-21.03 35.812-35 14.012-13.97 26.009-25.4 26.659-25.4.65 0 1.182-.33 1.182-.733 0-.404.99-1.095 2.2-1.537 2.195-.802 1.053-1.072-1.6-.379m15.463 8.421c-.035.754.747 1.764 1.737 2.244 1.527.74 1.607.714.53-.172-.699-.574-1.48-1.584-1.737-2.244-.378-.973-.479-.94-.53.172m42.337-.252c0 .82-5.486 6.48-6.28 6.479-.286 0-.52 1.347-.52 2.993 0 2.082-.354 2.995-1.164 3.001-.895.005-1.113.959-.944 4.136.175 3.298-.074 4.3-1.236 4.976-1.336.777-1.308.848.344.871 1.624.022 1.8-.358 1.8-3.878 0-2.493.433-4.262 1.2-4.898.66-.548 1.2-1.857 1.2-2.909 0-2.835 3.623-8.291 5.507-8.291.388 0 .895-.72 1.125-1.6.23-.88.092-1.6-.307-1.6a.724.724 0 0 0-.725.72m15.453 2.08c.115 1.146.786 1.628 2.364 1.697 1.927.086 1.957.055.242-.248-1.078-.19-2.142-.954-2.364-1.697-.291-.976-.358-.907-.242.248m-54.946 5.012c.5.324 1.088 1.308 1.308 2.188.306 1.226.421 1.086.492-.6.068-1.601-.288-2.197-1.307-2.188-.888.008-1.068.227-.493.6m67.676 1.138c.174.522.745 1.093 1.268 1.267.584.195.763-.171.464-.95-.558-1.454-2.212-1.757-1.732-.317M148 129.897c0 .081.72.764 1.6 1.517 1.225 1.049 1.6 1.113 1.6.271 0-.604-.72-1.287-1.6-1.517-.88-.23-1.6-.352-1.6-.271m76.252 7.64c.082 1.066.688 2.083 1.348 2.261.793.214.892.1.293-.337-.5-.364-1.106-1.381-1.348-2.261-.347-1.262-.409-1.19-.293.337m-48.557 3.834c.613 3.194-.189 6.629-1.547 6.629-.781 0-.944 1.794-.69 7.6.289 6.608.164 7.6-.963 7.6-.712 0-1.295.386-1.295.859 0 .472.63.738 1.4.591 1.191-.228 1.434-1.36 1.629-7.585.164-5.226.564-7.595 1.4-8.289 1.334-1.107 1.573-6.926.36-8.776-.561-.855-.645-.462-.294 1.371m85.198.454c-.051.784-.723 1.664-1.493 1.955-2.126.805-3.4 2.333-3.4 4.077 0 .865-.54 1.779-1.2 2.032-.701.269-1.2 1.468-1.2 2.886 0 1.622-.397 2.425-1.2 2.425-.66 0-1.2.386-1.2.859 0 2.529 2.822.061 3.048-2.666.163-1.956.647-2.993 1.4-2.993.634 0 1.152-.746 1.152-1.657 0-2.569 1.962-3.937 5.743-4.006 3.218-.059 3.308-.118 1.306-.851-1.183-.432-2.311-1.394-2.507-2.136-.318-1.203-.366-1.195-.449.075m13.507 5.946c.66.244 1.658.806 2.218 1.25.762.602.892.475.515-.508-.277-.722-1.276-1.285-2.219-1.25-1.17.043-1.333.204-.514.508m-22.665 12.475c.426 2.651.267 3.103-1.223 3.493-1.885.493-1.949.725-.839 3.061.725 1.527.745 1.52.436-.131-.222-1.192.146-1.854 1.184-2.125 1.654-.433 2.073-4.018.717-6.144-.523-.821-.61-.238-.275 1.846m44.415 2.554c.956 1.1 1.862 2 2.013 2 .151 0-.316-.9-1.037-2-.72-1.1-1.626-2-2.013-2-.386 0 .08.9 1.037 2m-142.364 2c0 1.54.164 2.17.365 1.4.202-.77.202-2.03 0-2.8-.201-.77-.365-.14-.365 1.4m-66.986.425c-1.32 1.082-2.77 1.969-3.222 1.971-1.793.009-5.978 6.177-5.978 8.81 0 .782-.54 1.63-1.2 1.883-.917.352-1.2 1.857-1.2 6.388 0 4.293.331 6.202 1.2 6.923.66.548 1.211 1.762 1.223 2.698.045 3.234 9.808 11.598 12.385 10.61.583-.224 1.258.11 1.501.743.519 1.352 9.682 1.658 10.491.349.272-.44 1.149-.8 1.949-.8s1.903-.54 2.451-1.2c.548-.66 1.52-1.2 2.159-1.2 2.401 0 8.241-7.213 8.241-10.178 0-1.002.36-1.822.8-1.822.44 0 .751-1.17.691-2.6-.092-2.195-.166-2.289-.477-.6-.202 1.1-.84 2.269-1.417 2.598-.576.329-.861 1.315-.632 2.19.264 1.011-.055 1.773-.874 2.088-.71.272-1.291.932-1.291 1.466 0 1.535-4.402 6.058-5.896 6.058-.745 0-1.565.548-1.822 1.219-.344.897-1.152 1.09-3.063.732-1.945-.365-2.718-.169-3.082.781-.659 1.717-6.007 1.738-6.664.027-.34-.887-1.104-1.104-2.673-.759-1.569.345-2.333.128-2.673-.759-.262-.682-1.031-1.241-1.709-1.241-1.58 0-6.018-3.932-6.018-5.332 0-.588-.401-1.068-.891-1.068-.53 0-.751-.95-.546-2.345.26-1.772-.012-2.438-1.11-2.725-1.956-.512-2.181-10.701-.253-11.441.66-.253 1.2-1.347 1.2-2.432 0-1.084.45-2.441 1-3.016.55-.575 1.529-1.809 2.177-2.743.647-.934 1.615-1.698 2.15-1.698.536 0 2.166-1.107 3.624-2.459 2.352-2.184 3.053-2.414 6.249-2.051 2.419.275 3.075.182 2-.284a8.537 8.537 0 0 0-8.8 1.219m11.642-1.268c-.755.478.007.577 2.185.285 2.63-.353 3.451-.17 3.844.855.275.716 1.056 1.303 1.735 1.303 2.287 0 9.988 8.759 9.58 10.896-.232 1.211.012 1.904.669 1.904.569 0 1.19.81 1.38 1.8.304 1.577.361 1.533.456-.353.06-1.184-.251-2.375-.691-2.647-.44-.272-.8-1.373-.8-2.447s-.312-1.953-.694-1.953c-.381 0-1.646-1.44-2.811-3.2-1.165-1.76-2.529-3.2-3.031-3.2-.502 0-2.093-.9-3.535-2-2.669-2.036-6.197-2.565-8.287-1.243M228.8 165.6c0 1.6.4 2.4 1.2 2.4 1.256 0 1.537-1.391.714-3.535-.801-2.089-1.914-1.43-1.914 1.135m-56.991 5.741c.451 7.032-.123 10.259-1.824 10.259-.652 0-1.185.348-1.185.774 0 .466.716.51 1.8.111 2.003-.738 3.056-11.235 1.538-15.334-.488-1.319-.595.039-.329 4.19m177.606-1.12c-.354 1.355-1.055 1.779-2.94 1.779-1.361 0-2.475.36-2.475.8 0 .44-.686.8-1.525.8-1.59 0-12.282 10.459-12.734 12.456-.142.629-.592 1.144-1 1.144-.407 0-.741.551-.741 1.225s-.54 1.432-1.2 1.686c-.66.253-1.2 1.322-1.2 2.375 0 1.111-.472 1.914-1.125 1.914-.701 0-.979.558-.738 1.481.213.814-.181 2.048-.875 2.743-.694.694-1.262 2.199-1.262 3.344s-.467 2.261-1.037 2.48c-.652.25-.923 1.37-.73 3.019.2 1.719-.131 2.985-.964 3.675-.698.58-1.269 2.146-1.269 3.48 0 2.422-.003 2.424-1.724.902L314.152 214l1.412 2.193c1.669 2.594 2.836 2.202 2.836-.955 0-1.277.524-2.468 1.2-2.727.748-.287 1.2-1.507 1.2-3.239 0-1.528.36-3 .8-3.272.44-.272.8-1.509.8-2.749 0-1.24.54-2.703 1.2-3.251.66-.548 1.2-1.651 1.2-2.451s.36-1.677.8-1.949c.44-.272.8-.972.8-1.556 0-3.553 13.79-19.644 16.835-19.644.861 0 1.565-.36 1.565-.8 0-.44 1.091-.8 2.425-.8 2.417 0 3.648-1.381 2.991-3.353-.185-.553-.545-.205-.801.774m7.785-.584l-5.6.554 5.761-.096c4.863-.08 5.818.123 6.125 1.305.271 1.042 1.19 1.4 3.592 1.4 1.775 0 3.45.36 3.722.8.272.44 1.329.8 2.349.8 1.02 0 2.303.54 2.851 1.2.548.66 1.338 1.2 1.755 1.2 5.898 0 2.915 4.176-14.376 20.132-4.187 3.863-5.753 5.847-5.686 7.2.076 1.54.161 1.601.482.346.45-1.758 1.898-3.303 5.825-6.215 1.54-1.141 6.129-5.358 10.197-9.369 4.068-4.012 7.724-7.294 8.125-7.294 1.352 0-.066-3.084-2.09-4.548-1.105-.798-2.484-1.902-3.064-2.452-.579-.55-1.979-1-3.111-1-1.233 0-2.057-.45-2.057-1.124 0-.852-.785-1.018-3.246-.688-2.831.379-3.303.217-3.693-1.277-.246-.941-.856-1.647-1.354-1.57-.499.078-3.427.391-6.507.696M249.709 171.8c-.065 1.078-.627 1.8-1.4 1.8-1.08 0-1.201.599-.741 3.667.709 4.726-.15 9.933-1.638 9.933a1.13 1.13 0 0 0-1.13 1.125c0 1.675 3.047.618 3.644-1.264.273-.861.377-3.649.231-6.195-.174-3.016.102-5.074.79-5.904.582-.701.899-2.104.705-3.118l-.352-1.844-.109 1.8M92 172.592c0 .555-.522 1.008-1.159 1.008-1.24 0-5.241 4.761-5.241 6.236 0 .486-.63 1.251-1.4 1.7-1.25.728-1.208.818.4.84 1.264.017 1.8-.444 1.8-1.548 0-1.642 3.258-5.311 6.241-7.028 2.072-1.193 7.359-1.336 7.359-.2 0 .44.528.8 1.172.8 3.279 0 6.028 4.548 6.028 9.973 0 2.875-.318 5.227-.707 5.227-.388 0-.902.747-1.14 1.659-.239.913-1.181 1.855-2.094 2.094-.912.238-1.659.752-1.659 1.14 0 .389-2.132.707-4.738.707-5.086 0-8.81-2.456-10.512-6.931-.694-1.825-3.15-2.658-3.15-1.069 0 .44.54.8 1.2.8.66 0 1.2.552 1.2 1.227s1.08 2.283 2.4 3.573c1.32 1.29 2.4 2.628 2.4 2.973 0 1.099 11.939.739 12.366-.373.211-.55.845-1.002 1.409-1.005 4.388-.022 5.38-14.285 1.273-18.3-1.403-1.372-2.843-2.495-3.2-2.495-.356 0-.648-.483-.648-1.073 0-.785-1.287-1.055-4.8-1.008-3.292.045-4.8.382-4.8 1.073m107.489 1.41c-.254.661-.246 2.06.017 3.108.303 1.206.04 2.271-.714 2.896-.703.584-1.147 2.181-1.083 3.892.081 2.155.198 2.387.457.902.191-1.1.905-2.432 1.587-2.959.922-.713 1.101-1.703.696-3.861-.342-1.825-.193-3.324.401-4.041.704-.847.71-1.139.023-1.139-.508 0-1.131.541-1.384 1.202m78.111 7.1c0 1.046-.54 2.35-1.2 2.898-.763.633-1.2 2.4-1.2 4.851 0 2.12-.36 4.077-.8 4.349-.44.272-.8 2.106-.8 4.075 0 1.97-.586 4.476-1.302 5.569-.91 1.388-1.182 3.054-.904 5.526.287 2.547.092 3.656-.697 3.959-.819.314-1.057 2-.94 6.646l.156 6.225.28-5.4c.215-4.149.559-5.4 1.483-5.4.999 0 1.11-.823.655-4.846-.495-4.378-.398-4.886 1.008-5.254 1.372-.359 1.515-.966 1.212-5.153-.284-3.93-.127-4.747.915-4.747 1.039 0 1.176-.694.787-3.983-.526-4.439.615-5.693 3.684-4.05.915.489 1.663.559 1.663.154 0-.404-.72-.923-1.6-1.153-1.173-.307-1.6-1.091-1.6-2.94 0-1.478.331-2.318.8-2.028.44.272.8.113.8-.353 0-.466-.54-.847-1.2-.847-.73 0-1.2.745-1.2 1.902m-47.058 2.635c.142.732.708 1.48 1.258 1.663 1.471.49 1.221-1.944-.258-2.512-.877-.336-1.18-.08-1 .849m-74.273 1.055c.089 1.352.645 2.044 1.731 2.154 1.151.117 1.221.049.249-.241-.743-.222-1.522-1.191-1.731-2.154-.319-1.468-.359-1.429-.249.241m13.2 6.242c.22 4.993.026 6.264-1.08 7.073-.742.543-1.101 1.388-.798 1.879.402.65.857.638 1.68-.045 1.214-1.008 1.681-13.903.529-14.62-.33-.206-.479 2.365-.331 5.713m28.317 1.766c0 1.54.164 2.17.365 1.4.202-.77.202-2.03 0-2.8-.201-.77-.365-.14-.365 1.4m47.814 2.8c0 4.089-.256 5.2-1.2 5.2-.66 0-1.2.36-1.2.8 0 .44.72.8 1.6.8 1.458 0 1.6-.533 1.6-6 0-3.3-.18-6-.4-6-.22 0-.4 2.34-.4 5.2m-42.257.453c.141 1.443.733 2.78 1.314 2.971.763.251.986-.382.8-2.277-.141-1.443-.733-2.78-1.314-2.971-.763-.251-.986.382-.8 2.277m-7.657 2.812c-.699 1.821-.576 10.955.163 12.118.344.541.478-1.318.299-4.132-.283-4.446-.105-5.303 1.363-6.561.929-.795 1.689-1.726 1.689-2.068 0-1.176-3.029-.621-3.514.643M158.4 203.2c0 1.6.4 2.4 1.2 2.4.8 0 1.2-.8 1.2-2.4 0-1.6-.4-2.4-1.2-2.4-.8 0-1.2.8-1.2 2.4m85.408 6.129c.482 6.958-.243 11.471-1.844 11.471-.64 0-1.164.36-1.164.8 0 1.305 2.987.909 3.514-.465.697-1.815.493-14.035-.265-15.935-.359-.9-.465.908-.241 4.129m68.392-2.736c.14 1.814.626 2.632 1.616 2.719.901.08.99-.009.247-.243-.643-.203-1.37-1.426-1.616-2.719-.426-2.242-.438-2.231-.247.243m-144.431 3.076c.433 4.52-.718 8.428-2.209 7.506-.418-.258-.76-.063-.76.433 0 .497.81.788 1.8.648 2.046-.291 2.993-7.269 1.506-11.092-.57-1.463-.656-.825-.337 2.505M204.8 214.4c0 .44.54.8 1.2.8.66 0 1.2.42 1.2.933 0 .514.188.745.419.515.23-.231.192-1.011-.086-1.733-.544-1.419-2.733-1.831-2.733-.515m-44.477 4.793c.074 1.907 2.877 3.554 2.877 1.691 0-.459-.513-.637-1.141-.396-.744.285-1.258-.21-1.477-1.425-.316-1.749-.332-1.741-.259.13m33.436 5.407l.159 7 .266-6c.197-4.429.614-6.262 1.594-7 1.195-.9 1.152-1-.425-1-1.683 0-1.747.281-1.594 7m-28.254-2.825c.368 2.221.481 2.334.733.733.164-1.041-.032-2.222-.435-2.625-.444-.444-.562.302-.298 1.892m70.75 5.016a1.956 1.956 0 0 0 1.754 1.754c1.154.118 1.22.052.24-.24-.743-.222-1.532-1.011-1.754-1.754-.292-.98-.358-.914-.24.24m5.511 5.933l-.166 7.524-1.8-1.494-1.8-1.495 1.778 1.926c2.479 2.686 2.721 2.038 2.419-6.483l-.265-7.502-.166 7.524m25.752-5.081c-.282 1.124-.344 3.807-.137 5.961.282 2.932.086 4.029-.776 4.36-.857.329-1.083 1.552-.879 4.774.219 3.454-.009 4.507-1.126 5.203-.827.515-1.4 1.852-1.4 3.266 0 1.316-.36 2.393-.8 2.393-.44 0-.8.82-.8 1.822 0 2.056-1.52 4.489-5.358 8.578-1.445 1.54-2.603 3.16-2.572 3.6.031.44.238.35.46-.2.222-.55.759-1 1.194-1 1.053 0 3.076-2.067 3.076-3.143 0-.471.36-.857.8-.857.44 0 .8-.54.8-1.2 0-.66.54-1.2 1.2-1.2.795 0 1.2-.795 1.2-2.353 0-1.294.36-2.575.8-2.847.44-.272.8-1.37.8-2.44 0-1.071.651-2.353 1.446-2.85 1.18-.737 1.386-1.694 1.118-5.2-.263-3.428-.067-4.397.969-4.795 1.055-.405 1.202-1.223.785-4.364-.618-4.659.085-7.951 1.697-7.951.652 0 1.185-.36 1.185-.8 0-1.817-3.184-.742-3.682 1.243m-101.809.933c-.06.976-.823 3.046-1.695 4.6-.873 1.553-1.25 2.824-.838 2.824 1.211 0 3.382-5.319 2.996-7.341-.348-1.827-.356-1.829-.463-.083m162.937.024c-1.597 1.859-2.389 4.2-1.421 4.2.426 0 .775-.409.775-.908 0-.5.919-1.76 2.041-2.8 1.271-1.178 1.62-1.892.924-1.892-.614 0-1.658.63-2.319 1.4m-136.592 6.499c-1.007 1.881-1.131 14.425-.158 15.96.378.596.503-1.561.286-4.941-.448-6.977.142-10.118 1.9-10.118.688 0 1.109-.428.935-.95-.547-1.639-2.073-1.614-2.963.049m180.746.101c0 .44-.707.8-1.572.8-.864 0-1.957.72-2.428 1.6-.581 1.085-.59 1.6-.028 1.6.455 0 .828-.54.828-1.2 0-.747.756-1.2 2-1.2s2-.453 2-1.2c0-.66-.18-1.2-.4-1.2-.22 0-.4.36-.4.8m-182.886 19.535c-.239.624-.318 4.225-.175 8.002.181 4.77-.018 6.866-.653 6.865-1.206-.003-1.886 1.896-1.886 5.263 0 1.504-.36 2.735-.8 2.735-.44 0-.8 1.26-.8 2.8 0 1.54-.291 2.8-.647 2.8-.355 0-1.705 1.425-3 3.166-1.294 1.741-2.893 3.319-3.553 3.507-.688.196-.432.381.6.434.99.051 1.8-.243 1.8-.653 0-.41.72-.975 1.6-1.254.885-.281 1.6-1.21 1.6-2.079 0-.864.54-1.778 1.2-2.032.669-.257 1.2-1.446 1.2-2.689 0-1.226.509-2.424 1.131-2.663.828-.317 1.012-1.317.688-3.731-.375-2.795-.206-3.359 1.104-3.702 1.422-.371 1.52-1.015 1.216-7.954-.287-6.561-.16-7.55.966-7.55.712 0 1.295-.54 1.295-1.2 0-1.524-2.306-1.576-2.886-.065m25.349 12.979c-.035.943.528 1.942 1.25 2.219.983.377 1.11.247.508-.515-.444-.56-1.006-1.558-1.25-2.218-.304-.819-.465-.656-.508.514M238.4 275.2c0 .44-.887.8-1.972.8-1.153 0-2.327.664-2.828 1.6-.581 1.085-.59 1.6-.028 1.6.455 0 .828-.54.828-1.2 0-.8.8-1.2 2.4-1.2 1.6 0 2.4-.4 2.4-1.2 0-.66-.18-1.2-.4-1.2-.22 0-.4.36-.4.8m-13.143 3.8c.399.33.948.9 1.222 1.267.274.367.717.097.985-.6.35-.912.007-1.267-1.222-1.267-.94 0-1.383.27-.985.6M138.6 302.151c.77.202 2.03.202 2.8 0 .77-.201.14-.365-1.4-.365s-2.17.164-1.4.365" fill="#dc6c1f"/><path d="M128 109.6c0 .44-.532.8-1.182.8-.65 0-12.647 11.43-26.659 25.4-14.013 13.97-30.128 29.72-35.812 35-5.684 5.28-11.729 10.95-13.435 12.6-4.884 4.726-8.851 3.043-14.421-6.118-.83-1.365-2.288-3.202-3.24-4.082-.952-.88-2.774-3.04-4.049-4.8-1.274-1.76-2.517-3.38-2.761-3.6-.244-.22-1.613-1.763-3.042-3.428l-2.599-3.028.093 46.628c.051 25.645.27 45.931.487 45.079.217-.852 1.345-2.539 2.507-3.75 4.409-4.594 5.713-6.148 5.72-6.814.003-.378 1.803-2.605 4-4.949 2.196-2.345 4-4.505 4.008-4.8.031-1.076 5.242-6.226 7.395-7.308 2.048-1.03 2.369-.958 4.4.991 1.204 1.156 6.832 6.619 12.506 12.14 5.674 5.522 10.475 10.039 10.67 10.039.457 0 9.493 8.763 32.377 31.4 10.119 10.01 18.914 18.2 19.543 18.2.629 0 1.351.54 1.605 1.2.253.66.932 1.2 1.508 1.2s1.229.45 1.451 1c.222.55.432-41.93.467-94.4.042-63.109-.208-95.4-.737-95.4-.44 0-.8.36-.8.8m59.519 7c-.278.99-.824 1.8-1.212 1.8-1.884 0-5.507 5.456-5.507 8.291 0 1.052-.54 2.361-1.2 2.909-.767.636-1.2 2.405-1.2 4.898 0 3.391-.213 3.902-1.628 3.902-1.362 0-1.493.253-.8 1.547 1.24 2.318 1.014 7.703-.372 8.853-.903.75-1.2 2.769-1.2 8.173 0 6.426-.162 7.219-1.55 7.582-1.284.336-1.421.743-.8 2.377 1.744 4.588.932 14.638-1.25 15.468-2.08.791-2.576 1.949-1.2 2.8 1.252.774 1.013 13.627-.274 14.695-.59.49-1.358.624-1.706.298-.348-.326-.359 1.207-.024 3.407 1.406 9.234 1.001 14.274-1.188 14.795-1.345.319-1.67.672-1 1.086 1.569.97 1.185 11.59-.524 14.505-1.104 1.883-1.261 3.146-.744 6a857.948 857.948 0 0 1 1.828 10.814c1.234 7.567 3.131 17.804 4.298 23.2 1.151 5.317 3.115 9.101 6.27 12.076l2.996 2.826 3.034-3.286c2.087-2.26 3.034-4.024 3.034-5.651 0-1.301.36-2.365.8-2.365.44 0 .8-1.231.8-2.735 0-3.367.68-5.266 1.886-5.263.64.001.837-2.296.658-7.66-.243-7.248-.165-7.686 1.445-8.107 1.234-.323 1.532-.801 1.084-1.74-2.296-4.819-.811-19.18 1.877-18.148.943.362 1.075.144.567-.938-1.716-3.66-1.327-15.409.51-15.409 1.597 0 1.698-.281 1.217-3.4-1.815-11.769-1.466-16.6 1.199-16.6 1.347 0 1.477-.255.785-1.547-1.321-2.469-1.06-14.865.338-16.025.791-.656 1.008-1.757.676-3.418-.367-1.835-.124-2.717.965-3.514 1.326-.97 1.374-1.545.534-6.48-.507-2.979-1.478-9.016-2.158-13.416-3.191-20.646-9.755-41.973-11.264-36.6m70.281 29.397c-.55.624-1 1.871-1 2.769 0 .919-.525 1.634-1.2 1.634-.844 0-1.2.853-1.2 2.875 0 2.19-.376 2.973-1.581 3.288-1.251.327-1.418.718-.8 1.873 1.279 2.389.945 5.671-.619 6.079-1.164.303-1.354 1.105-1.124 4.752.179 2.854-.099 4.838-.796 5.678-.705.849-.981 2.878-.805 5.921.297 5.161-.307 7.934-1.729 7.934-.676 0-.865 1.941-.664 6.8.273 6.567.222 6.8-1.485 6.8-1.388 0-1.634.301-1.146 1.4 2.218 4.989 1.229 18.6-1.352 18.6-1.31 0-1.527.302-1.008 1.4 1.274 2.693 1.36 17.268.099 16.784-1.112-.427-.289 3.486 1.812 8.616.36.88 1.317 3.322 2.127 5.426.809 2.104 3.061 5.65 5.004 7.88l3.532 4.055 2.503-2.68c3.725-3.99 5.232-6.427 5.232-8.459 0-1.002.36-1.822.8-1.822.44 0 .8-1.036.8-2.302 0-2.588 1.797-4.537 3.365-3.65.831.471.838.374.035-.491-1.376-1.482-1.315-8.686.079-9.221.777-.299.973-1.508.702-4.332-.526-5.471.234-7.989 2.434-8.067.982-.035 1.335-.245.785-.467-1.469-.592-1.381-12.174.097-12.741.789-.303.984-1.412.697-3.959-.278-2.472-.006-4.138.904-5.526.716-1.093 1.302-3.599 1.302-5.569 0-1.969.36-3.803.8-4.075.44-.272.8-2.229.8-4.349 0-2.451.437-4.218 1.2-4.851.66-.548 1.2-1.822 1.2-2.831 0-1.01.384-1.964.853-2.12 2.419-.806-5.609-22.765-10.966-29.996-1.038-1.4-1.887-2.93-1.887-3.4 0-1.272-6.635-.98-7.8.344M97.2 164.028c.44-.016 2.126-.246 3.747-.51 2.392-.39 3.46-.089 5.675 1.601 1.501 1.144 3.14 2.081 3.642 2.081.502 0 1.866 1.44 3.031 3.2 1.165 1.76 2.43 3.2 2.811 3.2.382 0 .694.879.694 1.953s.36 2.175.8 2.447c.44.272.8 3.173.8 6.447 0 3.435-.338 5.953-.8 5.953-.44 0-.8.82-.8 1.822 0 2.965-5.84 10.178-8.241 10.178-.639 0-1.611.54-2.159 1.2-.548.66-1.651 1.2-2.451 1.2s-1.677.36-1.949.8c-.809 1.309-9.972 1.003-10.491-.349-.243-.633-.918-.967-1.501-.743-2.577.988-12.34-7.376-12.385-10.61-.012-.936-.563-2.15-1.223-2.698-.869-.721-1.2-2.63-1.2-6.923 0-4.531.283-6.036 1.2-6.388.66-.253 1.2-1.101 1.2-1.883 0-2.633 4.185-8.801 5.978-8.81.452-.002 1.902-.912 3.222-2.021 2.039-1.715 2.941-1.95 6-1.567 1.98.248 3.96.437 4.4.42m253.062 6.525c-.203 1.431-.847 1.903-2.862 2.098-1.43.138-2.6.588-2.6 1 0 .412-.704.749-1.565.749-3.045 0-16.835 16.091-16.835 19.644 0 .584-.36 1.284-.8 1.556-.44.272-.8 1.149-.8 1.949s-.54 1.903-1.2 2.451c-.66.548-1.2 2.011-1.2 3.251 0 1.24-.36 2.477-.8 2.749-.44.272-.8 1.715-.8 3.207 0 1.493-.485 3.001-1.079 3.353-3.789 2.248-1.743 9.445 4.204 14.783 3.143 2.821 3.22 2.843 4.604 1.314.782-.863 2.045-1.389 2.841-1.181.788.206 1.27.113 1.072-.208-.198-.32.432-1.242 1.399-2.048 2.555-2.129 12.198-10.777 17.759-15.926 2.64-2.445 5.07-4.456 5.4-4.47.33-.013.6-.594.6-1.292 0-.697 2.6-3.667 5.779-6.6 17.291-15.956 20.274-20.132 14.376-20.132-.417 0-1.207-.54-1.755-1.2-.548-.66-1.831-1.2-2.851-1.2s-2.077-.36-2.349-.8c-.272-.44-1.947-.8-3.722-.8-2.402 0-3.321-.358-3.592-1.4-.309-1.189-1.147-1.359-5.559-1.13-3.122.162-5.635-.096-6.299-.647-.879-.729-1.158-.54-1.366.93m-257.807 3.294c-2.927 1.805-6.055 5.411-6.055 6.981 0 1.039-.543 1.572-1.6 1.572-1.173 0-1.6.533-1.6 2 0 1.259.452 2 1.22 2 .671 0 1.539.841 1.93 1.869 1.702 4.475 5.426 6.931 10.512 6.931 2.606 0 4.738-.318 4.738-.707 0-.388.747-.902 1.659-1.14.913-.239 1.855-1.181 2.094-2.094.238-.912.752-1.659 1.14-1.659.389 0 .707-2.352.707-5.227 0-5.425-2.749-9.973-6.028-9.973-.644 0-1.172-.36-1.172-.8 0-1.105-5.654-.919-7.545.247" fill="#eb7422"/><path d="M131 107.743c-2.002.535-2.201 192.257-.2 192.257.66 0 1.2.54 1.2 1.2 0 .875.813 1.168 3 1.08 2.509-.1 2.63-.175.741-.459-5.805-.871-5.341 7.652-5.341-98.128v-94.706l1.719-.45c3.935-1.029 9.372 1.767 9.454 4.863.015.55.387 1 .827 1 .44 0 .8.573.8 1.274 0 .7.72 2.189 1.6 3.308 1.081 1.374 1.6 1.637 1.6.811 0-.672-.54-1.429-1.2-1.682-.66-.254-1.2-1.171-1.2-2.039 0-.868-.36-1.8-.8-2.072-.44-.272-.8-1.013-.8-1.647 0-3.01-6.92-5.808-11.4-4.61m57.8 8.289c0 .457.678 2.167 1.507 3.8 3.908 7.698 6.058 16.91 9.843 42.168 1.808 12.065 2.142 13.161 1.833 6-.269-6.215-1.464-14.791-3.513-25.2-.433-2.2-1.156-5.98-1.607-8.4-.451-2.42-1.136-5.12-1.522-6-.731-1.666-2.383-6.235-3.084-8.527-.256-.839.137-1.467 1.069-1.707.997-.257.762-.41-.726-.473-1.381-.058-2.2-.54-2.2-1.293 0-.66-.36-1.2-.8-1.2-.44 0-.8.374-.8.832m9.2 1.654l-3.2.487 2.902.113c1.596.063 3.35.654 3.898 1.314s1.831 1.2 2.851 1.2 2.077.36 2.349.8c.272.44 1.175.8 2.006.8.831 0 2.483.9 3.67 2 1.187 1.1 2.574 2 3.083 2 1.271 0 7.641 9.171 7.641 11.001 0 1.6 1.436 3.399 2.713 3.399.436 0 .131-.484-.678-1.076-1.084-.792-1.331-1.635-.938-3.2.348-1.383.21-2.124-.394-2.124-1.119 0-2.662-1.896-4.401-5.407-.759-1.533-2.489-3.164-4.197-3.957-1.598-.742-3.193-1.819-3.545-2.393-.352-.574-1.353-1.043-2.225-1.043-.872 0-1.768-.476-1.991-1.057-.255-.666-1.279-.929-2.767-.71-1.76.258-2.517-.033-2.97-1.143-.502-1.232-1.162-1.406-3.807-1.004m-52.4 4.971c0 .645.54 1.379 1.2 1.632.66.254 1.2.266 1.2.029 0-.238-.54-.972-1.2-1.632-1.041-1.041-1.2-1.045-1.2-.029m1.709 5.845c-.105 2.42 1.784 5.072 2.852 4.004.287-.288-.056-.969-.763-1.514-.707-.546-1.441-1.892-1.632-2.992-.301-1.727-.363-1.658-.457.502m2.4 12.32c-.061 1.141.589 2.62 1.491 3.392 1.523 1.304 1.6 1.294 1.6-.222 0-.876-.515-1.592-1.144-1.592-.63 0-1.301-.81-1.491-1.8-.323-1.675-.355-1.659-.456.222m115.891 4.431c0 .69.849 2.4 1.887 3.8 3.939 5.317 7.646 13.813 10.187 23.347 2.761 10.357 2.982 10.914 3.022 7.6.019-1.54-.485-4.24-1.119-6-.634-1.76-1.158-4.015-1.165-5.011-.007-.996-.355-2.436-.773-3.2-.419-.764-1.349-2.829-2.067-4.589-1.563-3.829-1.799-4.303-5.069-10.2-2.356-4.248-2.43-4.6-.974-4.6.867 0 1.799.36 2.071.8.272.44.859.8 1.304.8.446 0 .27-.54-.39-1.2-.66-.66-1.945-1.2-2.857-1.2-.911 0-1.657-.36-1.657-.8 0-.44-.54-.8-1.2-.8-.66 0-1.2.564-1.2 1.253m-114.26 4.2c-.157 3.881.937 6.547 2.688 6.547 1.733 0 1.423-2.148-.378-2.619-1.165-.304-1.626-1.27-1.86-3.893l-.31-3.488-.14 3.453m74.369-1.281c-.072 1.429.438 2.465 1.491 3.028.902.483 1.6.533 1.6.114 0-.409-.512-.939-1.138-1.179-.626-.241-1.297-1.269-1.491-2.286-.318-1.666-.364-1.634-.462.323m50.037 1.119c.234.61 1.085 1.109 1.892 1.109.807 0 1.684.35 1.949.779.717 1.161 5.992 3.508 6.575 2.926.278-.278-.095-.505-.829-.505-.733 0-1.333-.36-1.333-.8 0-.44-.699-.8-1.553-.8s-1.761-.337-2.016-.749c-.881-1.426-5.169-3.219-4.685-1.96m11.454 4.87c0 .254 2.7 3.287 6 6.741 3.3 3.454 6 6.836 6 7.514 0 .679.54 1.441 1.2 1.695.66.253 1.2 1.3 1.2 2.327s.36 2.09.8 2.362c.44.272.8 1.509.8 2.749 0 1.24.54 2.703 1.2 3.251.66.548 1.2 1.822 1.2 2.833 0 1.01.219 2.406.486 3.102.53 1.382 2.714 1.756 2.714.465 0-.44-.54-.8-1.2-.8-.867 0-1.2-.889-1.2-3.2 0-2.133-.333-3.133-1-3-.658.132-1-.827-1-2.801 0-1.867-.378-3-1-3-.55.001-1-.91-1-2.024 0-1.114-.569-2.244-1.264-2.51-.759-.292-1.109-1.081-.875-1.975.243-.932-.032-1.49-.736-1.49-.619 0-1.125-.307-1.125-.683 0-.376-2.52-3.234-5.6-6.35-3.08-3.117-5.6-5.46-5.6-5.206m-59.767 7.039c.03 3.08.362 6.23.738 7 .729 1.489 3.029 1.945 3.029.6 0-.44-.497-.8-1.105-.8-.775 0-1.344-1.849-1.909-6.2l-.805-6.2.052 5.6m-73.74 7.074c-.051.81.627 2.389 1.507 3.508l1.6 2.034v-2.108c0-1.292-.442-2.108-1.141-2.108-.628 0-1.306-.63-1.508-1.4-.332-1.272-.374-1.266-.458.074m76.109 7.326c.009 1.76.172 2.386.364 1.391.191-.995.184-2.435-.016-3.2-.201-.765-.357.049-.348 1.809m-74.443 4.653c-.167 5.731.712 8.547 2.669 8.547 1.719 0 1.43-1.346-.391-1.822-1.338-.35-1.604-1.257-1.841-6.293l-.278-5.885-.159 5.453m47.422-3.853c.339.88.911 3.76 1.271 6.4l.654 4.8-.267-5.474c-.148-3.031-.715-5.887-1.271-6.4-.789-.728-.872-.585-.387.674m27.109 6.393c.087 2.52.447 3.252 1.71 3.472 1.469.256 1.489.191.25-.793-.743-.59-1.512-2.152-1.71-3.472-.254-1.691-.328-1.457-.25.793m49.836.947c-.941.942-.556 1.86.781 1.86 1.124 0 1.252.787.907 5.6-.312 4.361-.162 5.6.678 5.6 1.028 0 1.474 1.146 2.175 5.6.22 1.398.348 1.117.424-.935.13-3.503-.517-5.465-1.803-5.465-.658 0-.848-1.629-.633-5.435.294-5.198-.909-8.444-2.529-6.825m-121.94 9.86c0 1.54.164 2.17.365 1.4.202-.77.202-2.03 0-2.8-.201-.77-.365-.14-.365 1.4m149.477-1.057c-.035.958.419 2.225 1.008 2.814.59.589 1.281 1.605 1.537 2.257.31.789.487.584.529-.614.035-.99-.267-1.8-.67-1.8-.404 0-1.095-.99-1.537-2.2-.703-1.924-.812-1.982-.867-.457m-104.063.171c0 .393.54.922 1.2 1.175.776.298 1.245 1.67 1.328 3.886.117 3.119.158 3.183.459.714.443-3.63-.351-6.489-1.802-6.489-.652 0-1.185.321-1.185.714m28.148 4.221c-.164 5.915.302 7.865 1.879 7.865.581 0 1.22.63 1.422 1.4.275 1.054.388.955.458-.4.057-1.098-.369-1.8-1.092-1.8-1.371 0-1.898-1.864-2.26-8-.254-4.319-.262-4.302-.407.935m-73.608 5.637c-.113 3.039.171 3.938 1.46 4.628 1.277.683 1.6.608 1.6-.372 0-.675-.519-1.228-1.154-1.228-.776 0-1.254-1.113-1.46-3.4l-.306-3.4-.14 3.772m151.953-2.229c-.051.409.255 1.849.679 3.2.425 1.351.972 3.447 1.215 4.657.244 1.21.914 2.2 1.49 2.2.715 0 .93.786.681 2.489-.201 1.368-.049 2.718.339 3 .387.281 1.547 2.237 2.577 4.346s3.412 5.307 5.293 7.107c3.473 3.324 3.179 6.258-.628 6.258-.583 0-1.906.9-2.939 2-1.033 1.1-2.301 2-2.817 2-1.265 0-5.837 2.317-6.414 3.251-.255.412-2.062.749-4.016.749-2.23 0-3.553.357-3.553.96 0 .747-.213.747-.96 0-.528-.528-1.656-.96-2.507-.96-1.975 0-5.331-3.866-5.332-6.143-.001-.958-.541-2.283-1.201-2.943-.699-.698-1.2-2.653-1.2-4.679 0-2.489-.455-3.869-1.6-4.849-1.235-1.058-1.6-1.118-1.6-.264 0 .609.54 1.314 1.2 1.567.842.323 1.2 1.637 1.2 4.4 0 2.764.358 4.077 1.2 4.4.66.254 1.226 1.282 1.258 2.286.101 3.125 2.649 6.6 5.049 6.883 1.203.141 2.385.771 2.626 1.4.597 1.557 2.667 1.45 2.667-.139 0-1.024.711-1.224 3.558-.997 2.866.228 3.63.01 3.925-1.12.203-.773 1.119-1.402 2.042-1.402.921 0 1.675-.36 1.675-.8 0-.44.861-.8 1.914-.8s2.1-.483 2.327-1.074c.227-.591 1.705-1.688 3.286-2.438 1.58-.749 2.873-1.706 2.873-2.126 0-.419.72-.762 1.6-.762 2.385 0 1.947-1.435-1.305-4.268-4.575-3.987-10.137-13.12-9.607-15.773.351-1.752.103-2.279-1.236-2.63-1.452-.379-1.617-.87-1.24-3.683.321-2.387.154-3.246-.629-3.246-.586 0-1.23-.63-1.432-1.4-.201-.77-.407-1.066-.458-.657M205.829 205.2c.006 2.2.161 3.005.345 1.789.184-1.216.179-3.016-.011-4s-.34.011-.334 2.211m77.371.59c0 .682.518 1.438 1.152 1.681.678.26 1.278 1.857 1.46 3.885l.308 3.444.14-3.676c.106-2.78-.25-4.029-1.46-5.124-1.354-1.225-1.6-1.258-1.6-.21m68.4 3.504c-4.045 3.745-8.331 7.604-18.219 16.4-1.41 1.254 2.605 7.171 4.805 7.081.338-.014-.376-.897-1.586-1.962-3.127-2.752-2.847-3.529 3.188-8.857a858.112 858.112 0 0 0 11.248-10.156c7.298-6.726 5.581-7.187 17.784 4.772 10.898 10.68 12.887 14.122 8.78 15.196-.88.23-1.6.737-1.6 1.125 0 .389-.63.718-1.4.732-1.965.036-5.07 2.375-3.153 2.375.744 0 1.353-.36 1.353-.8 0-.44.9-.8 2-.8s2-.336 2-.746.72-.975 1.6-1.254c4.365-1.385 2.279-5.039-9.509-16.654-12.893-12.703-11.216-12.078-17.291-6.452m-192.262 6.041c-.171 5.624.358 7.081 2.548 7.009 1.658-.055 1.662-.077.114-.677-1.291-.5-1.689-1.608-2.062-5.743l-.462-5.124-.138 4.535M204.8 212.8c0 .44.501.8 1.114.8 1.521 0 2.062 1.722 2.22 7.065.112 3.772.19 3.997.461 1.335.558-5.478-.457-10-2.244-10-.853 0-1.551.36-1.551.8m28.909 3.743c-.06.958.373 2.225.962 2.814.59.589 1.281 1.605 1.537 2.257.272.693.492.272.529-1.014.04-1.404-.351-2.2-1.081-2.2-.63 0-1.301-.81-1.491-1.8-.344-1.785-.348-1.785-.456-.057m52.491-.518c1.213.487 1.836 1.45 1.909 2.949.095 1.952.152 1.999.461.382.412-2.151-1.004-4.178-2.868-4.105-.881.034-.72.284.498.774M161.818 228.8c0 1.98.156 2.79.347 1.8.19-.99.19-2.61 0-3.6-.191-.99-.347-.18-.347 1.8m74.403.263c.383 1.151 2.979 1.751 2.979.689 0-.421-.741-.959-1.646-1.196-1.047-.274-1.532-.089-1.333.507m-28.059 1.034c1.022.305 1.438 1.538 1.671 4.954l.31 4.549-.071-4.792c-.063-4.178-.277-4.813-1.672-4.954-1.173-.119-1.237-.054-.238.243m29.552 4.914c-.063 1.436.216 3.236.62 4 .404.764 1.691 4.449 2.86 8.189 1.169 3.74 2.638 7.597 3.265 8.572.628.974 1.141 2.14 1.141 2.591 0 .928 1.79 3.275 4.96 6.505l2.16 2.2-1.76 1.085c-.968.597-2.757 1.591-3.975 2.21-1.558.79-1.918 1.308-1.212 1.744.59.365 1.273.14 1.655-.543.358-.64 1.174-1.164 1.812-1.164.638 0 1.934-.774 2.88-1.72 1.876-1.876 1.94-1.694-2.569-7.201-1.566-1.913-3.493-5.099-4.282-7.079-.788-1.98-1.711-4.152-2.049-4.826-.339-.675-.886-2.475-1.215-4-.329-1.526-1.184-3.854-1.901-5.174-.717-1.32-1.523-3.66-1.79-5.2l-.487-2.8-.113 2.611m-75.765.589c.266 1.32 1.043 6 1.726 10.4.684 4.4 1.563 9.62 1.954 11.6.392 1.98 1.109 6.099 1.595 9.153.486 3.055 1.22 6.181 1.63 6.948.41.767.746 2.142.746 3.057 0 2.064 1.178 4.217 4.837 8.842 2.96 3.741 2.53 6.439-.92 5.775-.695-.134-1.725.312-2.289.991-.563.679-2.06 1.234-3.326 1.234s-2.302.36-2.302.8c0 .44-.831.8-1.847.8s-2.546.529-3.4 1.175c-.854.646-2.522 1.186-3.706 1.2-1.184.014-2.375.385-2.647.825-.272.44-1.347.8-2.39.8-1.043 0-2.409.513-3.036 1.141-.628.627-2.363 1.289-3.857 1.472-2.563.312-2.529.338.597.459 2.391.092 3.452-.231 3.809-1.159.36-.939 1.247-1.198 3.285-.96 1.924.224 2.792.003 2.792-.714 0-.648 1.021-1.039 2.714-1.039 1.675 0 2.891-.46 3.175-1.2.269-.701 1.468-1.2 2.886-1.2 1.334 0 2.425-.36 2.425-.8 0-.44 1.26-.8 2.8-.8 2.045 0 2.8-.349 2.8-1.293 0-.873.49-1.165 1.507-.899.878.229 2.044-.233 2.792-1.107.707-.826 1.881-1.501 2.609-1.501.888 0 .155-1.137-2.226-3.451-4.325-4.203-6.633-10.257-8.291-21.749-.254-1.76-.787-4.46-1.184-6-.396-1.54-1.341-6.926-2.099-11.969-.758-5.043-1.888-10.083-2.51-11.2l-1.133-2.031.484 2.4m178.498-.825c2.032 1.536 3.22 1.552 1.953.025-.548-.66-1.561-1.2-2.251-1.2-1.004 0-.945.234.298 1.175m3.609 2.549c-.051 1.566.249 1.683 3.266 1.278 2.663-.357 3.549-.144 4.472 1.076 1.122 1.485 1.143 1.483.867-.078-.233-1.32-.911-1.6-3.872-1.6-2.415 0-3.767-.392-4.133-1.2-.4-.884-.558-.746-.6.524m23.611-.009c-.762 1.986.078 2.257 1.096.354.492-.919.559-1.669.151-1.669-.409 0-.97.592-1.247 1.315m-7.934.818c-.818.818-.633 2.667.267 2.667.44 0 .71-.445.6-.989-.12-.594 1.079-1.188 3-1.486l3.2-.498-3.267-.113c-1.796-.063-3.506.126-3.8.419M208.8 244.047c0 .466.4.6.889.298 1.135-.701 2.283 1.092 2.299 3.588.006 1.064.235 1.71.508 1.438 1.164-1.164-.566-6.171-2.132-6.171-.86 0-1.564.381-1.564.847m2.4 7.845c0 .985.508 1.708 1.2 1.708.684 0 1.24.775 1.293 1.8.07 1.354.183 1.453.458.401.202-.77-.38-2.349-1.292-3.508-1.569-1.994-1.659-2.016-1.659-.401m2.509 7.908c-.06 1.43.221 2.6.624 2.6.404 0 1.126.99 1.605 2.2l.872 2.2-.469-2.392c-.257-1.316-.763-2.576-1.124-2.8-.361-.224-.823-1.308-1.027-2.408-.315-1.693-.389-1.601-.481.6m2.291 8.055c0 .468.394 1.094.875 1.392.482.297.712 1.398.511 2.447-.221 1.16.015 1.906.605 1.906.533 0 1.797 1.08 2.809 2.4 2.155 2.812 12.12 3.726 13.089 1.2.254-.66 1.372-1.2 2.486-1.2s2.025-.36 2.025-.8c0-.44 1.26-.8 2.8-.8 2.157 0 2.786-.321 2.737-1.4-.038-.836-.226-.997-.467-.4-.222.55-1.278 1-2.348 1-1.943 0-2.394.163-7.387 2.665-5.717 2.865-13.595.989-13.708-3.265-.015-.55-.387-1-.827-1-.44 0-.8-.676-.8-1.502s-.54-1.95-1.2-2.498c-.757-.628-1.2-.682-1.2-.145" fill="#ef9332"/><path d="M131.8 108.554c-2.347.609-2.151 189.095.2 191.446 2.079 2.079 14.534 2.38 16.514.4.66-.66 2.053-1.2 3.096-1.2 1.043 0 2.118-.36 2.39-.8.272-.44 1.463-.811 2.647-.825 1.184-.014 2.852-.554 3.706-1.2.854-.646 2.384-1.175 3.4-1.175s1.847-.36 1.847-.8c0-.44 1.036-.8 2.302-.8s2.763-.555 3.326-1.234c.564-.679 1.594-1.125 2.289-.991 3.45.664 3.88-2.034.92-5.775-3.659-4.625-4.837-6.778-4.837-8.842 0-.915-.336-2.29-.746-3.057-.41-.767-1.144-3.893-1.63-6.948-.486-3.054-1.203-7.173-1.595-9.153-3.237-16.387-4.474-30.625-2.936-33.8.529-1.093.327-1.4-.922-1.4-2.615 0-3.743-8.315-1.657-12.212.77-1.44.644-1.886-.8-2.845-1.924-1.278-2.578-13.833-.886-16.996.648-1.21.567-1.547-.372-1.547-2.25 0-3.083-3.18-2.65-10.118.317-5.077.153-6.852-.696-7.557-1.306-1.084-1.566-10.749-.31-11.525 1.237-.765.944-3.6-.372-3.6-1.986 0-3.055-3.167-2.59-7.67.339-3.293.172-4.308-.77-4.67-.941-.361-1.146-1.587-.936-5.596.226-4.327.033-5.28-1.228-6.066-1.194-.743-1.41-1.576-1.07-4.117.31-2.307.116-3.304-.703-3.618-.622-.239-1.131-1.432-1.131-2.651 0-1.219-.54-2.664-1.2-3.212-.66-.548-1.2-1.672-1.2-2.498 0-.826-.36-1.502-.8-1.502-.44 0-.812-.45-.827-1-.081-3.065-5.77-5.886-9.773-4.846m60.438 11.246c.702 2.313 2.355 6.894 3.103 8.6.386.88 1.071 3.58 1.522 6 .451 2.42 1.174 6.2 1.607 8.4 1.896 9.633 3.24 18.863 3.611 24.8.22 3.52.832 7.263 1.359 8.319 1.107 2.213 1.27 10.647.268 13.881-.546 1.763-.429 2.2.59 2.2 2.187 0 2.95 14.399.986 18.6-.51 1.09-.293 1.4.981 1.4 2.564 0 3.455 10.657 1.347 16.095-.346.892.032 1.434 1.217 1.744 1.791.469 2.004 6.765.39 11.561-.497 1.476-.312 1.8 1.024 1.8 1.865 0 2.956 3.332 2.147 6.557-.324 1.29-.064 2.317.759 3 .816.678 1.251 2.371 1.251 4.874 0 2.11.396 3.968.879 4.129.484.161.972 1.471 1.086 2.912.113 1.44.617 3.03 1.12 3.533.503.503.915 1.563.915 2.355s.36 1.44.8 1.44c.44 0 .812.45.827 1 .113 4.254 7.991 6.13 13.708 3.265 5.001-2.506 5.445-2.665 7.454-2.665 1.106 0 2.011-.278 2.011-.618 0-.34 1.35-1.319 3-2.176 1.65-.857 3.792-2.049 4.76-2.648l1.76-1.09-2.16-2.2c-3.17-3.23-4.96-5.577-4.96-6.505 0-.451-.513-1.617-1.141-2.591-.627-.975-2.096-4.832-3.265-8.572-1.169-3.74-2.456-7.425-2.86-8.189-.975-1.845-.931-5.148.094-7.064.654-1.222.566-1.547-.42-1.547-1.703 0-3.021-3.813-2.422-7.009.355-1.89.117-3.003-.849-3.969-1.116-1.116-1.273-2.461-.928-7.982.33-5.291.191-6.64-.682-6.64-2.08 0-2.478-9.046-.708-16.088.427-1.701.204-2.172-1.208-2.541-1.822-.476-2.183-11.56-.495-15.171.474-1.012.312-1.4-.583-1.4-2.486 0-3.841-8.984-2.233-14.807.673-2.438.564-2.916-.831-3.663-1.379-.738-1.567-1.516-1.337-5.529.216-3.772-.001-4.838-1.132-5.543-.77-.479-1.4-1.606-1.4-2.504 0-1.941-6.311-11.154-7.641-11.154-.509 0-1.896-.9-3.083-2-1.187-1.1-2.839-2-3.67-2s-1.734-.36-2.006-.8c-.272-.44-1.329-.8-2.349-.8-1.02 0-2.303-.54-2.851-1.2-1.554-1.872-9.936-1.693-9.362.2m78.265 31.2c3.27 5.897 3.506 6.371 5.069 10.2.718 1.76 1.648 3.825 2.067 4.589.418.764.766 2.204.773 3.2.006.996.568 3.409 1.248 5.362.68 1.954 1.137 4.703 1.016 6.111-.121 1.407.259 3.137.845 3.843.734.884.963 2.907.735 6.49-.247 3.865-.069 5.205.691 5.205 1.35 0 2.158 3.412 1.609 6.794-.303 1.867-.064 3.018.769 3.71.849.704 1.129 2.129.942 4.783-.212 3.008.038 3.97 1.225 4.711 1.197.746 1.395 1.534 1.004 3.982-.367 2.297-.192 3.165.708 3.511.822.315 1.196 1.611 1.196 4.141 0 2.206.481 4.163 1.2 4.882.66.66 1.2 1.985 1.201 2.943.001 2.277 3.357 6.143 5.332 6.143.851 0 1.979.432 2.507.96.747.747.96.747.96 0 0-.603 1.323-.96 3.553-.96 1.954 0 3.761-.337 4.016-.749.577-.934 5.149-3.251 6.414-3.251.516 0 1.784-.9 2.817-2 1.033-1.1 2.356-2 2.939-2 3.807 0 4.101-2.934.628-6.258-1.881-1.8-4.263-4.998-5.293-7.107-1.03-2.109-2.19-4.065-2.577-4.346-.388-.282-.54-1.632-.339-3 .249-1.703.034-2.489-.681-2.489-.576 0-1.246-.99-1.49-2.2-.243-1.21-.79-3.306-1.215-4.657-.424-1.351-.772-3.447-.772-4.657s-.571-2.771-1.269-3.469c-1.219-1.22-1.204-3.03.052-6.017.409-.973.222-1.4-.612-1.4-1.353 0-2.171-1.646-2.171-4.367 0-1.011-.54-2.285-1.2-2.833-.66-.548-1.2-2.011-1.2-3.251 0-1.24-.36-2.477-.8-2.749-.44-.272-.8-1.335-.8-2.362 0-1.027-.54-2.074-1.2-2.327-.66-.254-1.2-1.002-1.2-1.664 0-1.363-12.467-14.913-13.12-14.261-.522.523-5.832-1.937-6.493-3.007-.265-.429-1.142-.779-1.949-.779-.807 0-1.674-.54-1.927-1.2-.254-.66-1.171-1.2-2.039-1.2-.868 0-1.8-.36-2.072-.8-.272-.44-1.204-.8-2.071-.8-1.456 0-1.382.352.974 4.6m80.533 60.8a858.112 858.112 0 0 1-11.248 10.156c-2.963 2.616-5.388 5.199-5.388 5.739 0 1.237 4.603 5.896 5.862 5.932 1.166.033 4.538 2.788 4.538 3.707 0 .373 1.644.547 3.653.387 3.168-.252 3.711-.067 4.093 1.394.638 2.438 6.266 2.455 6.903.021.373-1.429.959-1.632 4.144-1.436 2.04.126 3.957-.116 4.259-.536.779-1.084 5.659-3.564 7.013-3.564.624 0 1.135-.318 1.135-.707 0-.388.72-.895 1.6-1.125 4.107-1.074 2.118-4.516-8.78-15.196-12.203-11.959-10.486-11.498-17.784-4.772" fill="#f2a83e"/></g></svg>
