<?xml version="1.0" encoding="utf-8"?>
<!-- Generator: Adobe Illustrator 22.1.0, SVG Export Plug-In . SVG Version: 6.00 Build 0)  -->
<svg version="1.1" id="Layer_1" xmlns="http://www.w3.org/2000/svg" xmlns:xlink="http://www.w3.org/1999/xlink" x="0px" y="0px"
	 viewBox="0 0 110.7 110.7" style="enable-background:new 0 0 110.7 110.7;" xml:space="preserve">
<style type="text/css">
	.st0{fill:#FFA700;}
	.st1{fill:#631AB3;}
</style>
<g>
	<path class="st0" d="M55.4,110.7C24.8,110.7,0,85.9,0,55.4S24.8,0,55.4,0s55.4,24.8,55.4,55.4S85.9,110.7,55.4,110.7z M55.4,2.9
		C26.4,2.9,2.9,26.5,2.9,55.4s23.5,52.5,52.5,52.5s52.5-23.5,52.5-52.5S84.3,2.9,55.4,2.9z"/>
	<g>
		<g>
			<path class="st1" d="M55.4,65c-2.1,0-20.8-0.2-20.8-7.1s18.7-7.1,20.8-7.1s20.8,0.2,20.8,7.1S57.5,65,55.4,65z M39.2,57.9
				c1.5,1.1,7.1,2.8,16.1,2.8S70,59,71.5,57.9c-1.5-1.1-7.1-2.8-16.1-2.8S40.8,56.8,39.2,57.9z M71.9,58.2L71.9,58.2L71.9,58.2z"/>
			<path class="st1" d="M55.4,74.3c-2.1,0-20.8-0.2-20.8-7.1c0-1.2,1-2.2,2.2-2.2c1.1,0,2,0.8,2.2,1.9c0.9,1.1,6.6,3,16.4,3
				s15.5-2,16.4-3c0.1-1.1,1.1-1.9,2.2-1.9c1.2,0,2.2,1,2.2,2.2C76.2,74.1,57.5,74.3,55.4,74.3z"/>
			<path class="st1" d="M55.4,85.5c-2.1,0-20.8-0.2-20.8-7.1V57.9c0-1.2,1-2.2,2.2-2.2s2.2,1,2.2,2.2v20.2c1,1.1,6.7,3,16.4,3
				s15.4-1.9,16.4-3V57.9c0-1.2,1-2.2,2.2-2.2s2.2,1,2.2,2.2v20.5C76.2,85.3,57.5,85.5,55.4,85.5z"/>
		</g>
		<g>
			<polygon class="st1" points="46.2,37.2 64.5,37.2 55.4,48.2 			"/>
			<path class="st1" d="M55.4,43.9c-1.2,0-2.2-1-2.2-2.2V27.5c0-1.2,1-2.2,2.2-2.2s2.2,1,2.2,2.2v14.3
				C57.6,42.9,56.6,43.9,55.4,43.9z"/>
		</g>
	</g>
</g>
</svg>
