<?xml version="1.0" encoding="utf-8"?>
<!-- Generator: Adobe Illustrator 22.1.0, SVG Export Plug-In . SVG Version: 6.00 Build 0)  -->
<svg version="1.1" id="Layer_1" xmlns="http://www.w3.org/2000/svg" xmlns:xlink="http://www.w3.org/1999/xlink" x="0px" y="0px"
	 viewBox="0 0 110.7 110.7" style="enable-background:new 0 0 110.7 110.7;" xml:space="preserve">
<style type="text/css">
	.st0{fill:#FFA700;}
	.st1{fill:#631AB3;}
</style>
<g>
	<path class="st0" d="M56.2,111.1c-30.5,0-55.4-24.8-55.4-55.4c0-30.5,24.8-55.4,55.4-55.4c30.5,0,55.4,24.8,55.4,55.4
		C111.6,86.3,86.7,111.1,56.2,111.1z M56.2,3.3C27.3,3.3,3.8,26.8,3.8,55.8c0,28.9,23.5,52.5,52.5,52.5c28.9,0,52.5-23.5,52.5-52.5
		C108.7,26.8,85.1,3.3,56.2,3.3z"/>
	<g>
		<path class="st1" d="M80.3,78.3H31.4c-0.6,0-1.2-0.3-1.5-0.9s-0.4-1.2-0.1-1.8l23.6-48.9c0.3-0.6,0.9-1,1.6-1c0.7,0,1.3,0.4,1.6,1
			l25.2,48.9c0.3,0.6,0.3,1.2-0.1,1.8C81.5,77.9,80.9,78.3,80.3,78.3z M34.3,74.6h43l-22.2-43L34.3,74.6z"/>
		<g>
			<path class="st1" d="M55.8,69.2c-0.6,0-1.1-0.2-1.5-0.6c-0.4-0.4-0.6-0.9-0.6-1.5c0-0.6,0.2-1.1,0.6-1.5c0.4-0.4,0.9-0.6,1.5-0.6
				c0.6,0,1.1,0.2,1.5,0.6c0.4,0.4,0.6,0.9,0.6,1.5c0,0.6-0.2,1.1-0.6,1.5C56.9,69,56.4,69.2,55.8,69.2z M54.7,63.3l-0.5-5.6
				l-0.1-8.8h3.5l-0.1,8.8L57,63.3H54.7z"/>
		</g>
	</g>
</g>
</svg>
