<?xml version="1.0" encoding="utf-8"?>
<!-- Generator: Adobe Illustrator 22.1.0, SVG Export Plug-In . SVG Version: 6.00 Build 0)  -->
<svg version="1.1" id="Layer_1" xmlns="http://www.w3.org/2000/svg" xmlns:xlink="http://www.w3.org/1999/xlink" x="0px" y="0px"
	 viewBox="0 0 110.7 110.7" style="enable-background:new 0 0 110.7 110.7;" xml:space="preserve">
<style type="text/css">
	.st0{fill:#FFA700;}
	.st1{fill:#631AB3;}
</style>
<g>
	<path class="st0" d="M56.4,111.3C25.8,111.3,1,86.4,1,55.9S25.8,0.5,56.4,0.5c30.5,0,55.4,24.8,55.4,55.4S86.9,111.3,56.4,111.3z
		 M56.4,3.4C27.4,3.4,3.9,27,3.9,55.9c0,28.9,23.5,52.5,52.5,52.5c28.9,0,52.5-23.5,52.5-52.5C108.8,27,85.3,3.4,56.4,3.4z"/>
	<g>
		<g>
			<path class="st1" d="M41,58.1H21.3c-1.2,0-2.2-1-2.2-2.2s1-2.2,2.2-2.2H41c1.2,0,2.2,1,2.2,2.2S42.2,58.1,41,58.1z"/>
			<path class="st1" d="M46.9,68.3c-6.8,0-12.4-5.6-12.4-12.4S40,43.5,46.9,43.5V68.3z"/>
		</g>
		<g>
			<g>
				<path class="st1" d="M90.6,58.1h-19c-1.2,0-2.2-1-2.2-2.2s1-2.2,2.2-2.2h19c1.2,0,2.2,1,2.2,2.2S91.9,58.1,90.6,58.1z"/>
				<path class="st1" d="M69.5,53H59.3c-1.2,0-2.2-1-2.2-2.2c0-1.2,1-2.2,2.2-2.2h10.2c1.2,0,2.2,1,2.2,2.2C71.7,52,70.7,53,69.5,53
					z"/>
				<path class="st1" d="M69.5,63.2H59.3c-1.2,0-2.2-1-2.2-2.2c0-1.2,1-2.2,2.2-2.2h10.2c1.2,0,2.2,1,2.2,2.2
					C71.7,62.2,70.7,63.2,69.5,63.2z"/>
			</g>
			<path class="st1" d="M65.8,43.5c6.8,0,12.4,5.6,12.4,12.4s-5.6,12.4-12.4,12.4V43.5z"/>
		</g>
	</g>
</g>
</svg>
