<?xml version="1.0" encoding="utf-8"?>
<!-- Generator: Adobe Illustrator 22.1.0, SVG Export Plug-In . SVG Version: 6.00 Build 0)  -->
<svg version="1.1" id="Layer_1" xmlns="http://www.w3.org/2000/svg" xmlns:xlink="http://www.w3.org/1999/xlink" x="0px" y="0px"
	 viewBox="0 0 110.7 110.7" style="enable-background:new 0 0 110.7 110.7;" xml:space="preserve">
<style type="text/css">
	.st0{fill:#FFA700;}
	.st1{fill:#631AB3;}
	.st2{fill:none;stroke:#631AB3;stroke-width:5;stroke-linecap:round;stroke-linejoin:round;stroke-miterlimit:10;}
</style>
<g>
	<path class="st0" d="M56.3,111.3c-30.5,0-55.4-24.8-55.4-55.4S25.8,0.5,56.3,0.5c30.5,0,55.4,24.8,55.4,55.4S86.8,111.3,56.3,111.3
		z M56.3,3.4C27.4,3.4,3.8,27,3.8,55.9s23.5,52.5,52.5,52.5c28.9,0,52.5-23.5,52.5-52.5S85.2,3.4,56.3,3.4z"/>
	<path class="st1" d="M55.7,73.8c-11.3,0-20.4-9.2-20.4-20.4s9.2-20.4,20.4-20.4s20.4,9.2,20.4,20.4S67,73.8,55.7,73.8z M55.7,37.3
		c-8.9,0-16.1,7.2-16.1,16.1s7.2,16.1,16.1,16.1s16.1-7.2,16.1-16.1S64.6,37.3,55.7,37.3z"/>
	<path class="st1" d="M72.5,85.5c-0.8,0-1.5-0.4-1.9-1.1l-8-13.9c-0.6-1-0.2-2.4,0.8-3c1-0.6,2.4-0.2,3,0.8l8,13.9
		c0.6,1,0.2,2.4-0.8,3C73.2,85.4,72.9,85.5,72.5,85.5z"/>
	<polyline class="st2" points="55,43.9 55,54.8 61.9,58.8 	"/>
</g>
</svg>
