<?xml version="1.0" encoding="utf-8"?>
<!-- Generator: Adobe Illustrator 22.1.0, SVG Export Plug-In . SVG Version: 6.00 Build 0)  -->
<svg version="1.1" id="Layer_1" xmlns="http://www.w3.org/2000/svg" xmlns:xlink="http://www.w3.org/1999/xlink" x="0px" y="0px"
	 viewBox="0 0 110.7 110.7" style="enable-background:new 0 0 110.7 110.7;" xml:space="preserve">
<style type="text/css">
	.st0{fill:#FFA700;}
	.st1{fill:#631AB3;}
</style>
<g>
	<path class="st0" d="M55.9,111.1c-30.5,0-55.4-24.8-55.4-55.4c0-30.5,24.8-55.4,55.4-55.4c30.5,0,55.4,24.8,55.4,55.4
		C111.3,86.3,86.4,111.1,55.9,111.1z M55.9,3.3C27,3.3,3.4,26.8,3.4,55.8c0,28.9,23.5,52.5,52.5,52.5c28.9,0,52.5-23.5,52.5-52.5
		C108.3,26.8,84.8,3.3,55.9,3.3z"/>
	<path class="st1" d="M61,88.1c-4.6,0-9-1.7-12.3-5c-3.5-3.4-5.5-8-5.5-12.9c0-1,0.8-1.8,1.8-1.8s1.8,0.8,1.8,1.8
		c0,3.9,1.5,7.5,4.4,10.2c2.8,2.7,6.5,4.1,10.4,3.9c7.6-0.3,13.7-6.9,13.7-14.7v-1.3h-3.8c-1,0-1.8-0.8-1.8-1.8v-2.6h-2.3
		c-1.9,0-3.5-1.6-3.5-3.5v-0.1h-2.3c-1.9,0-3.5-1.6-3.5-3.5V40.6c0-0.7-0.6-1.3-1.3-1.3c-0.7,0-1.3,0.6-1.3,1.3v27
		c0,1-0.8,1.8-1.8,1.8c-1,0-1.8-0.8-1.8-1.8v-27c0-2.7,2.2-5,5-5s5,2.2,5,5v16.2H64c1.9,0,3.5,1.6,3.5,3.5v0.1h2.3
		c1.9,0,3.5,1.6,3.5,3.5v0.9h2.2c1.9,0,3.4,1.5,3.4,3.4v1.6c0,9.9-7.6,18-17.2,18.3C61.5,88.1,61.2,88.1,61,88.1z"/>
	<path class="st1" d="M42.9,54.6c-1.6,0-2.8-0.4-3.5-1.1c-0.8-0.7-1.1-2.1-1.1-4.1c0-0.7,0-1.2,0.1-1.7c0-0.5,0.1-1,0.1-1.5
		c0-0.5,0.1-0.9,0.1-1.4c0-0.5,0.1-1,0.1-1.6c0-0.3-0.1-0.6-0.2-0.9c-0.1-0.3-0.3-0.6-0.5-0.9c-0.2-0.3-0.6-0.5-1-0.6
		c-0.4-0.2-0.9-0.2-1.5-0.3v-3.1c0.6,0,1.1-0.1,1.5-0.3c0.4-0.2,0.7-0.4,1-0.6c0.2-0.3,0.4-0.5,0.5-0.9c0.1-0.3,0.2-0.6,0.2-0.9
		c0-0.6,0-1.1-0.1-1.6c0-0.5-0.1-0.9-0.1-1.4c0-0.5-0.1-1-0.1-1.5c0-0.5-0.1-1.1-0.1-1.7c0-2,0.4-3.3,1.1-4.1
		c0.8-0.7,1.9-1.1,3.5-1.1h2.3v2.8h-0.7c-0.8,0-1.3,0.2-1.5,0.5c-0.3,0.4-0.4,1-0.4,2c0,1,0,2,0.1,2.9c0,0.9,0.1,1.9,0.1,3.1
		c0,1.4-0.2,2.4-0.7,3c-0.4,0.6-1.1,1-2,1.3V39c0.9,0.2,1.6,0.6,2,1.3c0.4,0.6,0.7,1.6,0.7,3c0,1.1,0,2.1-0.1,3.1
		c0,0.9-0.1,1.9-0.1,2.9c0,1,0.1,1.7,0.4,2c0.3,0.4,0.8,0.5,1.5,0.5h0.7v2.8H42.9z"/>
</g>
</svg>
