<?xml version="1.0" encoding="utf-8"?>
<!-- Generator: Adobe Illustrator 22.1.0, SVG Export Plug-In . SVG Version: 6.00 Build 0)  -->
<svg version="1.1" id="Layer_1" xmlns="http://www.w3.org/2000/svg" xmlns:xlink="http://www.w3.org/1999/xlink" x="0px" y="0px"
	 viewBox="0 0 194 194" style="enable-background:new 0 0 194 194;" xml:space="preserve">
<style type="text/css">
	.st0{opacity:0.2;}
	.st1{fill:none;stroke:#FFFFFF;stroke-width:4;stroke-miterlimit:10;stroke-dasharray:5.969,5.969;}
	.st2{fill:none;stroke:#F69F0D;stroke-width:4;stroke-miterlimit:10;}
	.st3{fill:#631AB3;}
	
		.st4{fill:none;stroke:#631AB3;stroke-width:3;stroke-linecap:square;stroke-linejoin:bevel;stroke-miterlimit:10;stroke-dasharray:2,8;}
</style>
<g transform="translate(-984 -1793)">
	<g transform="translate(984 1793)">
		<g class="st0">
			<circle class="st1" cx="97" cy="97" r="95"/>
		</g>
		<circle class="st2" cx="97" cy="97" r="73.9"/>
	</g>
</g>
<path class="st3" d="M114.5,38c-7.2,0-13,5.8-13,13s13,27,13,27s13-19.8,13-27S121.7,38,114.5,38z M114.5,60.2
	c-5.1,0-9.2-4.1-9.2-9.2s4.1-9.2,9.2-9.2s9.2,4.1,9.2,9.2S119.6,60.2,114.5,60.2z"/>
<path class="st4" d="M46.5,133c0,0,2-31.5,34.5-31.5S113.5,84,113.5,84"/>
</svg>
