<?xml version="1.0" encoding="UTF-8" standalone="no"?>
<!DOCTYPE svg PUBLIC "-//W3C//DTD SVG 1.1//EN" "http://www.w3.org/Graphics/SVG/1.1/DTD/svg11.dtd">
<svg width="100%" height="100%" viewBox="0 0 2542 904" version="1.1" xmlns="http://www.w3.org/2000/svg" xmlns:xlink="http://www.w3.org/1999/xlink" xml:space="preserve" style="fill-rule:evenodd;clip-rule:evenodd;stroke-linejoin:round;stroke-miterlimit:1.41421;">
    <path id="path188" d="M591.8,462.4C590.8,352.3 681.8,299.4 685.9,296.8C634.7,221.9 555.1,211.7 526.7,210.5C459,203.6 394.5,250.4 360.1,250.4C325.7,250.4 272.7,211.5 216.5,212.6C142.6,213.7 74.5,255.5 36.4,321.7C-40.3,454.7 16.8,652 91.6,760.1C128.2,812.9 171.7,872.4 229,870.2C284.2,868 305,834.5 371.6,834.5C438.2,834.5 457,870.2 515.2,869.1C574.5,867.9 612.1,815.1 648.4,762.1C690.3,700.8 707.6,641.4 708.6,638.3C707.3,637.8 593,594 591.8,462.4" style="fill:rgb(201,201,201);fill-rule:nonzero;"/>
    <path id="path190" d="M482.3,139C512.7,102.2 533.2,51 527.6,0C483.8,1.8 430.8,29.2 399.4,66C371.3,98.5 346.6,150.6 353.3,200.6C402,204.4 451.9,175.7 482.3,139" style="fill:rgb(201,201,201);fill-rule:nonzero;"/>
    <path d="M975.7,570.7L925.3,723.4L860.5,723.4L1025.4,238L1101,238L1266.6,723.4L1199.6,723.4L1147.7,570.7L975.7,570.7ZM1134.9,521.7L1087.4,382C1076.6,350.3 1069.4,321.5 1062.2,293.4L1060.8,293.4C1053.6,322.2 1045.7,351.7 1036.3,381.3L988.8,521.7L1134.9,521.7Z" style="fill:rgb(201,201,201);fill-rule:nonzero;"/>
    <g>
        <path d="M1315.7,488.6C1315.7,444 1314.3,407.9 1312.8,374.8L1369.7,374.8L1372.6,434.6L1374,434.6C1399.9,392.1 1441,366.9 1497.9,366.9C1582.2,366.9 1645.5,438.2 1645.5,544.1C1645.5,669.4 1569.2,731.3 1487.1,731.3C1441,731.3 1400.7,711.1 1379.8,676.6L1378.4,676.6L1378.4,866L1315.7,866L1315.7,488.6ZM1378.3,581.5C1378.3,590.9 1379.7,599.5 1381.2,607.4C1392.7,651.3 1430.9,681.6 1476.3,681.6C1543.3,681.6 1582.2,626.9 1582.2,546.9C1582.2,477 1545.5,417.3 1478.5,417.3C1435.3,417.3 1395,448.3 1382.7,495.8C1380.5,503.7 1378.4,513.1 1378.4,521.7L1378.4,581.5L1378.3,581.5Z" style="fill:rgb(201,201,201);fill-rule:nonzero;"/>
        <path d="M1711,488.6C1711,444 1709.6,407.9 1708.1,374.8L1765,374.8L1767.9,434.6L1769.3,434.6C1795.2,392.1 1836.3,366.9 1893.2,366.9C1977.5,366.9 2040.8,438.2 2040.8,544.1C2040.8,669.4 1964.5,731.3 1882.4,731.3C1836.3,731.3 1796,711.1 1775.1,676.6L1773.7,676.6L1773.7,866L1711,866L1711,488.6ZM1773.7,581.5C1773.7,590.9 1775.1,599.5 1776.6,607.4C1788.1,651.3 1826.3,681.6 1871.7,681.6C1938.7,681.6 1977.6,626.9 1977.6,546.9C1977.6,477 1940.9,417.3 1873.9,417.3C1830.7,417.3 1790.4,448.3 1778.1,495.8C1775.9,503.7 1773.8,513.1 1773.8,521.7L1773.8,581.5L1773.7,581.5Z" style="fill:rgb(201,201,201);fill-rule:nonzero;"/>
        <rect x="2106.4" y="212.1" width="63.4" height="511.3" style="fill:rgb(201,201,201);fill-rule:nonzero;"/>
        <path d="M2297.2,560.6C2298.6,646.3 2353.4,681.6 2416.7,681.6C2462.1,681.6 2489.4,673.7 2513.2,663.6L2524,709C2501.7,719.1 2463.5,730.6 2408.1,730.6C2300.8,730.6 2236.7,660 2236.7,554.9C2236.7,449.8 2298.6,366.9 2400.2,366.9C2514,366.9 2544.2,467 2544.2,531.1C2544.2,544.1 2542.8,554.1 2542,560.6L2297.2,560.6L2297.2,560.6ZM2483,515.2C2483.7,474.9 2466.4,412.2 2395.1,412.2C2331,412.2 2302.9,471.3 2297.9,515.2L2483,515.2Z" style="fill:rgb(201,201,201);fill-rule:nonzero;"/>
    </g>
</svg>
