<?xml version="1.0" encoding="utf-8"?>
<!-- Generator: Adobe Illustrator 22.1.0, SVG Export Plug-In . SVG Version: 6.00 Build 0)  -->
<svg version="1.1" id="Layer_1" xmlns="http://www.w3.org/2000/svg" xmlns:xlink="http://www.w3.org/1999/xlink" x="0px" y="0px"
	 viewBox="0 0 100 32" style="enable-background:new 0 0 100 32;" xml:space="preserve">
<style type="text/css">
	.st0{fill:#C9C9C9;}
</style>
<path class="st0" d="M19.3,16.6h-8.4c-0.2,0-0.4,0.2-0.4,0.4c0,0,0,0,0,0v4.1c0,0.2,0.2,0.4,0.4,0.4c0,0,0,0,0,0h3.3v5.1
	c-0.9,0.2-1.8,0.3-2.8,0.2c-2.4,0-5.7-0.9-5.7-8.2c0-7.4,3.5-8.4,6.8-8.4c1.6-0.1,3.3,0.2,4.8,0.8c0.2,0,0.4-0.1,0.5-0.3
	c0,0,0-0.1,0-0.1l0.9-4c0-0.1,0-0.2-0.1-0.3C18.2,6.1,16.2,5,11.4,5C5.7,5,0,7.4,0,18.9S6.6,32,12.1,32c2.6,0.1,5.2-0.6,7.4-2
	c0.1-0.1,0.1-0.2,0.1-0.3V17C19.7,16.8,19.5,16.6,19.3,16.6C19.3,16.6,19.3,16.6,19.3,16.6z"/>
<path class="st0" d="M62.6,6.4c0-0.2-0.2-0.4-0.4-0.4c0,0,0,0,0,0h-4.7c-0.2,0-0.4,0.2-0.4,0.4c0,0,0,0,0,0v9.1h-7.4V6.4
	c0-0.2-0.2-0.4-0.4-0.4c0,0,0,0,0,0h-4.7c-0.2,0-0.4,0.2-0.4,0.4c0,0,0,0,0,0v24.8c0,0.2,0.2,0.4,0.4,0.4c0,0,0,0,0,0h4.7
	c0.2,0,0.4-0.2,0.4-0.4c0,0,0,0,0,0V20.6h7.4v10.6c0,0.2,0.2,0.4,0.4,0.4c0,0,0,0,0,0h4.7c0.2,0,0.4-0.2,0.4-0.4c0,0,0,0,0,0
	L62.6,6.4L62.6,6.4z"/>
<g transform="translate(22.077 1.555)">
	<path class="st0" d="M6.1,8.1c0-1.7-1.4-3-3.1-3c-1.7,0-3,1.4-3,3.1c0,1.7,1.4,3,3.1,3C4.7,11.2,6.1,9.8,6.1,8.1z"/>
	<path class="st0" d="M5.8,24.4V12.9c0-0.2-0.2-0.4-0.4-0.4c0,0,0,0,0,0H0.7c-0.2,0-0.4,0.2-0.4,0.4v16.4c0,0.5,0.3,0.6,0.7,0.6h4.2
		c0.5,0,0.6-0.2,0.6-0.6V24.4z"/>
</g>
<path class="st0" d="M80.6,14.1h-4.7c-0.2,0-0.4,0.2-0.4,0.4c0,0,0,0,0,0v12.1c-0.9,0.6-1.9,0.9-2.9,0.9c-1.7,0-2.1-0.8-2.1-2.4
	V14.5c0-0.2-0.2-0.4-0.4-0.4c0,0,0,0,0,0h-4.8c-0.2,0-0.4,0.2-0.4,0.4c0,0,0,0,0,0v11.4c0,4.9,2.7,6.1,6.5,6.1
	c2-0.1,3.9-0.6,5.6-1.7c0,0.3,0.1,0.7,0.2,1c0.1,0.1,0.2,0.2,0.3,0.2h3c0.2,0,0.4-0.2,0.4-0.4c0,0,0,0,0,0V14.5
	C80.9,14.3,80.8,14.2,80.6,14.1C80.6,14.1,80.6,14.1,80.6,14.1z"/>
<path class="st0" d="M93.4,13.6c-1.6,0-3.1,0.4-4.5,1.2V6.4c0-0.2-0.2-0.4-0.4-0.4c0,0,0,0,0,0h-4.7c-0.2,0-0.4,0.2-0.4,0.4
	c0,0,0,0,0,0v24.8c0,0.2,0.2,0.4,0.4,0.4c0,0,0,0,0,0h3.3c0.1,0,0.3-0.1,0.3-0.2c0.1-0.4,0.2-0.8,0.2-1.1c1.6,1.3,3.6,1.9,5.6,1.8
	c4.3,0,6.8-2.2,6.8-9.8C100,14.6,96.1,13.6,93.4,13.6z M91.6,27.5c-1,0-1.9-0.3-2.7-0.8v-7.9c0.7-0.4,1.6-0.7,2.4-0.8
	c1.7-0.1,3.3,0.4,3.3,4.4C94.6,26.7,93.8,27.6,91.6,27.5L91.6,27.5z"/>
<path class="st0" d="M41.5,14.1h-3.6V9.4c0-0.2-0.1-0.3-0.3-0.3h-4.8c-0.2,0-0.3,0.1-0.3,0.2v4.9c0,0-2.4,0.6-2.6,0.6
	c-0.2,0.1-0.3,0.2-0.3,0.4v3.1c0,0.2,0.2,0.4,0.4,0.4c0,0,0,0,0,0h2.5V26c0,5.4,3.8,6,6.4,6c1,0,1.9-0.2,2.8-0.5
	c0.1-0.1,0.2-0.2,0.2-0.4v-3.4c0-0.2-0.2-0.4-0.4-0.4c-0.2,0-0.8,0.1-1.3,0.1c-1.8,0-2.3-0.8-2.3-1.9v-7h3.6c0.2,0,0.4-0.2,0.4-0.4
	c0,0,0,0,0,0v-3.8C41.8,14.3,41.7,14.1,41.5,14.1z"/>
</svg>
