<svg width="338" height="164" viewBox="0 0 338 164" xmlns="http://www.w3.org/2000/svg"><title>Graph</title><g fill="none" fill-rule="evenodd"><rect stroke-opacity=".135" stroke="#58729E" fill="#FFF" width="338" height="164" rx="3"/><path d="M28 8.5V144h1V8h-1v.5zm7 0V144h1V8h-1v.5zm7 0V144h1V8h-1v.5zm7 0V144h1V8h-1v.5zm7 0V144h1V8h-1v.5zm7 0V144h1V8h-1v.5zm7 0V144h1V8h-1v.5zm7 0V144h1V8h-1v.5zm7 0V144h1V8h-1v.5zm7 0V144h1V8h-1v.5zm7 0V144h1V8h-1v.5zm7 0V144h1V8h-1v.5zm7 0V144h1V8h-1v.5zm7 0V144h1V8h-1v.5zm7 .082v135.5h1v-136h-1v.5zm7 0v135.5h1v-136h-1v.5zm7 0v135.5h1v-136h-1v.5zm7 0v135.5h1v-136h-1v.5zm7 0v135.5h1v-136h-1v.5zm7 0v135.5h1v-136h-1v.5zm7 0v135.5h1v-136h-1v.5zm7 0v135.5h1v-136h-1v.5zm7 0v135.5h1v-136h-1v.5zm7 0v135.5h1v-136h-1v.5zm7 0v135.5h1v-136h-1v.5zm7 0v135.5h1v-136h-1v.5zm7 0v135.5h1v-136h-1v.5zm7 0v135.5h1v-136h-1v.5zm7-.082V144h1V8h-1v.5zm7 0V144h1V8h-1v.5zm7 0V144h1V8h-1v.5zm7 0V144h1V8h-1v.5zm7 0V144h1V8h-1v.5zm7 0V144h1V8h-1v.5zm7 0V144h1V8h-1v.5zm7 0V144h1V8h-1v.5zm7 0V144h1V8h-1v.5zm7 0V144h1V8h-1v.5zm7 0V144h1V8h-1v.5zm7 0V144h1V8h-1v.5zm7 0V144h1V8h-1v.5zm7 0V144h1V8h-1v.5zm7 0V144h1V8h-1v.5z" stroke-opacity=".254" stroke="#D8DEE8" stroke-linecap="square"/><path d="M79.045 144.67c59.1-20.58 16.638-97.916 85.24-111.193 23.906-4.627 31.514 46.914 62.266 52.585 13.99 2.58 24.086-31.986 46.47-23.974 22.385 8.012 53.3-3.527 53.3-3.527" stroke="#3060B0"/><path d="M21.494 132.912c10.044-1.183 19.197-64.613 59.192-63.94 18.145.306 39.468 41.056 60.902 45.618 18.617 3.962 36.723-9.096 57.824-10.806 28.66-2.321 56.799 5.495 56.799 5.495s18.174 2.932 30.637 16.006c12.463 13.074 37.75 13.317 37.75 13.317" stroke="#F06B72"/><path d="M158.863 144.082c31.398-3.384 51.13 4.147 88.563-9.86 15.24-5.701 25.62-20.721 38.629-24.859 8.63-2.745 17.185-.548 23.99 0 8.13.655 13.916-4.01 13.916-4.01" stroke="#F6A623"/><path d="M21.5 7.5v137m302 0h-302" stroke="#D8DEE8" stroke-linecap="square"/><text font-family="Roboto" font-size="10" fill="#555F66"><tspan x="153.498" y="157">time</tspan></text><text transform="rotate(-90 10.5 81.5)" font-family="Roboto" font-size="10" fill="#555F66"><tspan x="-1.817" y="85">bytes</tspan></text><text font-family="Roboto" font-size="7" fill="#555F66"><tspan x="318.125" y="52">Go</tspan></text><text font-family="Roboto" font-size="7" fill="#555F66"><tspan x="290.19" y="100">JavaScript</tspan></text><text font-family="Roboto" font-size="7" fill="#555F66"><tspan x="310.519" y="133">PHP</tspan></text></g></svg>