<svg xmlns="http://www.w3.org/2000/svg" viewBox="0 0 674 389.93" enable-background="new 0 0 674 389.93"><path d="M34.3,0h635.79c2.16,0,3.91,1.75,3.91,3.91v386.03H30.4V3.91C30.4,1.75,32.15,0,34.3,0z" fill="#e1c5f2"/><path d="M33.04,0h638.32c1.46,0,2.64,1.18,2.64,2.64v18.32H30.4V2.64C30.4,1.18,31.58,0,33.04,0z" fill="#8719cb"/><path fill="#fff" fill-opacity=".2" d="m436.77 265.1h15.93v27.62h-15.93z"/><g fill="#8719cb"><path fill-opacity=".1" d="m436.77 292.72h15.93v28.73h-15.93z"/><path fill-opacity=".2" d="m436.77 321.44h15.93v31.49h-15.93z"/><path fill-opacity=".5" d="m436.77 352.93h15.93v22.64h-15.93z"/></g><path fill="#fff" fill-opacity=".2" d="m462.78 248.65h15.93v31.73h-15.93z"/><g fill="#8719cb"><path fill-opacity=".1" d="m462.78 280.38h15.93v33h-15.93z"/><path fill-opacity=".2" d="m462.78 313.38h15.93v36.18h-15.93z"/><path fill-opacity=".5" d="m462.78 349.56h15.93v26.01h-15.93z"/></g><path fill="#fff" fill-opacity=".2" d="m488.79 241.09h15.93v33.62h-15.93z"/><g fill="#8719cb"><path fill-opacity=".1" d="m488.79 274.71h15.93v34.97h-15.93z"/><path fill-opacity=".2" d="m488.79 309.68h15.93v38.33h-15.93z"/><path fill-opacity=".5" d="m488.79 348.01h15.93v27.56h-15.93z"/></g><path fill="#fff" fill-opacity=".2" d="m514.8 258.73h15.93v29.21h-15.93z"/><g fill="#8719cb"><path fill-opacity=".1" d="m514.8 287.94h15.93v30.38h-15.93z"/><path fill-opacity=".2" d="m514.8 318.32h15.93v33.3h-15.93z"/><path fill-opacity=".5" d="m514.8 351.62h15.93v23.94h-15.93z"/></g><path fill="#fff" fill-opacity=".2" d="m540.81 292.72h15.93v20.71h-15.93z"/><g fill="#8719cb"><path fill-opacity=".1" d="m540.81 313.43h15.93v21.54h-15.93z"/><path fill-opacity=".2" d="m540.81 334.97h15.93v23.61h-15.93z"/><path fill-opacity=".5" d="m540.81 358.59h15.93v16.98h-15.93z"/></g><path fill="#fff" fill-opacity=".2" d="m566.82 299.79h15.93v18.95h-15.93z"/><g fill="#8719cb"><path fill-opacity=".1" d="m566.82 318.73h15.93v19.7h-15.93z"/><path fill-opacity=".2" d="m566.82 338.44h15.93v21.6h-15.93z"/><path fill-opacity=".5" d="m566.82 360.04h15.93v15.53h-15.93z"/></g><path fill="#fff" fill-opacity=".2" d="m592.83 288.96h15.93v21.65h-15.93z"/><g fill="#8719cb"><path fill-opacity=".1" d="m592.83 310.61h15.93v22.52h-15.93z"/><path fill-opacity=".2" d="m592.83 333.13h15.93v24.69h-15.93z"/><path fill-opacity=".5" d="m592.83 357.82h15.93v17.75h-15.93z"/></g><path fill="#fff" fill-opacity=".2" d="m618.84 299.79h15.93v18.95h-15.93z"/><g fill="#8719cb"><path fill-opacity=".1" d="m618.84 318.73h15.93v19.7h-15.93z"/><path fill-opacity=".2" d="m618.84 338.44h15.93v21.6h-15.93z"/><path fill-opacity=".5" d="m618.84 360.04h15.93v15.53h-15.93z"/></g><path fill="#fff" fill-opacity=".2" d="m644.85 288.96h15.93v21.65h-15.93z"/><g fill="#8719cb"><path fill-opacity=".1" d="m644.85 310.61h15.93v22.52h-15.93z"/><path fill-opacity=".2" d="m644.85 333.13h15.93v24.69h-15.93z"/><path fill-opacity=".5" d="m644.85 357.82h15.93v17.75h-15.93z"/></g><path fill="#fff" fill-opacity=".2" d="m201.41 279.58h15.93v24h-15.93z"/><g fill="#8719cb"><path fill-opacity=".1" d="m201.41 303.58h15.93v24.96h-15.93z"/><path fill-opacity=".2" d="m201.41 328.54h15.93v27.36h-15.93z"/><path fill-opacity=".5" d="m201.41 355.9h15.93v19.67h-15.93z"/></g><path fill="#fff" fill-opacity=".2" d="m227.42 265.29h15.93v27.57h-15.93z"/><g fill="#8719cb"><path fill-opacity=".1" d="m227.42 292.86h15.93v28.67h-15.93z"/><path fill-opacity=".2" d="m227.42 321.54h15.93v31.43h-15.93z"/><path fill-opacity=".5" d="m227.42 352.97h15.93v22.6h-15.93z"/></g><path fill="#fff" fill-opacity=".2" d="m253.43 258.73h15.93v29.21h-15.93z"/><g fill="#8719cb"><path fill-opacity=".1" d="m253.43 287.94h15.93v30.38h-15.93z"/><path fill-opacity=".2" d="m253.43 318.32h15.93v33.3h-15.93z"/><path fill-opacity=".5" d="m253.43 351.62h15.93v23.94h-15.93z"/></g><path fill="#fff" fill-opacity=".2" d="m279.44 274.05h15.93v25.38h-15.93z"/><g fill="#8719cb"><path fill-opacity=".1" d="m279.44 299.43h15.93v26.4h-15.93z"/><path fill-opacity=".2" d="m279.44 325.83h15.93v28.94h-15.93z"/><path fill-opacity=".5" d="m279.44 354.76h15.93v20.8h-15.93z"/></g><path fill="#fff" fill-opacity=".2" d="m305.45 303.58h15.93v18h-15.93z"/><g fill="#8719cb"><path fill-opacity=".1" d="m305.45 321.58h15.93v18.72h-15.93z"/><path fill-opacity=".2" d="m305.45 340.3h15.93v20.52h-15.93z"/><path fill-opacity=".5" d="m305.45 360.82h15.93v14.75h-15.93z"/></g><path fill="#fff" fill-opacity=".2" d="m331.46 309.73h15.93v16.46h-15.93z"/><g fill="#8719cb"><path fill-opacity=".1" d="m331.46 326.19h15.93v17.12h-15.93z"/><path fill-opacity=".2" d="m331.46 343.31h15.93v18.77h-15.93z"/><path fill-opacity=".5" d="m331.46 362.07h15.93v13.49h-15.93z"/></g><path fill="#fff" fill-opacity=".2" d="m357.47 300.32h15.93v18.81h-15.93z"/><g fill="#8719cb"><path fill-opacity=".1" d="m357.47 319.13h15.93v19.57h-15.93z"/><path fill-opacity=".2" d="m357.47 338.7h15.93v21.45h-15.93z"/><path fill-opacity=".5" d="m357.47 360.15h15.93v15.42h-15.93z"/></g><path fill="#fff" fill-opacity=".2" d="m383.48 309.73h15.93v16.46h-15.93z"/><g fill="#8719cb"><path fill-opacity=".1" d="m383.48 326.19h15.93v17.12h-15.93z"/><path fill-opacity=".2" d="m383.48 343.31h15.93v18.77h-15.93z"/><path fill-opacity=".5" d="m383.48 362.07h15.93v13.49h-15.93z"/></g><path fill="#fff" fill-opacity=".2" d="m409.49 300.32h15.93v75.25h-15.93z"/><g fill="#8719cb"><path fill-opacity=".1" d="m409.49 319.13h15.93v19.57h-15.93z"/><path fill-opacity=".2" d="m409.49 338.7h15.93v21.45h-15.93z"/><path fill-opacity=".5" d="m409.49 360.15h15.93v15.42h-15.93z"/></g><path fill="#fff" fill-opacity=".2" d="m44.64 211.74h15.93v40.96h-15.93z"/><g fill="#8719cb"><path fill-opacity=".1" d="m44.64 252.7h15.93v42.6h-15.93z"/><path fill-opacity=".2" d="m44.64 295.3h15.93v46.7h-15.93z"/><path fill-opacity=".5" d="m44.64 341.99h15.93v33.57h-15.93z"/></g><path fill="#fff" fill-opacity=".2" d="m70.65 259.4h15.93v29.04h-15.93z"/><g fill="#8719cb"><path fill-opacity=".1" d="m70.65 288.44h15.93v30.21h-15.93z"/><path fill-opacity=".2" d="m70.65 318.65h15.93v33.11h-15.93z"/><path fill-opacity=".5" d="m70.65 351.76h15.93v23.81h-15.93z"/></g><path fill="#fff" fill-opacity=".2" d="m96.66 269.31h15.93v26.57h-15.93z"/><g fill="#8719cb"><path fill-opacity=".1" d="m96.66 295.88h15.93v27.63h-15.93z"/><path fill-opacity=".2" d="m96.66 323.51h15.93v30.29h-15.93z"/><path fill-opacity=".5" d="m96.66 353.79h15.93v21.77h-15.93z"/></g><path fill="#fff" fill-opacity=".2" d="m122.67 254.13h15.93v30.36h-15.93z"/><g fill="#8719cb"><path fill-opacity=".1" d="m122.67 284.49h15.93v31.58h-15.93z"/><path fill-opacity=".2" d="m122.67 316.07h15.93v34.61h-15.93z"/><path fill-opacity=".5" d="m122.67 350.68h15.93v24.88h-15.93z"/></g><path fill="#fff" fill-opacity=".2" d="m148.68 269.31h15.93v26.57h-15.93z"/><g fill="#8719cb"><path fill-opacity=".1" d="m148.68 295.88h15.93v27.63h-15.93z"/><path fill-opacity=".2" d="m148.68 323.51h15.93v30.29h-15.93z"/><path fill-opacity=".5" d="m148.68 353.79h15.93v21.77h-15.93z"/></g><path fill="#fff" fill-opacity=".2" d="m174.69 254.13h15.93v30.36h-15.93z"/><g fill="#8719cb"><path fill-opacity=".1" d="m174.69 284.49h15.93v31.58h-15.93z"/><path fill-opacity=".2" d="m174.69 316.07h15.93v34.61h-15.93z"/><path fill-opacity=".5" d="m174.69 350.68h15.93v24.88h-15.93z"/></g><path fill="#fff" fill-opacity=".5" d="m435.18 200.21h225.6v22.01h-225.6z"/><g opacity=".8" fill="#8719cb"><path d="m446.01 214.6v-7.92h2.76c.81 0 1.5.17 2.07.5.57.33.99.8 1.26 1.38.27.59.41 1.28.41 2.07 0 1.21-.32 2.18-.96 2.89s-1.57 1.07-2.78 1.07h-2.76zm1.44-1.28h1.26c.77 0 1.35-.23 1.73-.7.38-.47.57-1.13.57-1.99s-.19-1.52-.57-1.99c-.38-.47-.96-.7-1.73-.7h-1.26v5.38"/><path d="m459.12 211.71l-.02.34h-4.22c.03.5.18.89.48 1.15.29.27.65.4 1.08.4.3 0 .57-.07.8-.22.23-.14.41-.35.53-.62l1.26.21c-.19.54-.51.97-.97 1.28-.46.3-1 .46-1.6.46-.89 0-1.6-.26-2.13-.77-.53-.52-.8-1.23-.8-2.13 0-.9.27-1.62.8-2.14s1.23-.78 2.08-.78c.39 0 .75.06 1.08.17s.61.29.86.51c.24.23.44.52.57.88.12.37.19.79.2 1.26m-2.72-1.83c-.4 0-.73.1-.98.31-.26.21-.43.52-.5.94h2.83c-.04-.41-.18-.72-.42-.93-.24-.22-.55-.32-.93-.32"/><path d="m463.79 209h1.46l-2.35 5.6h-1.19l-2.33-5.6h1.45l1.48 4.03 1.48-4.03"/><path d="m471.11 211.71l-.02.34h-4.22c.03.5.18.89.48 1.15.29.27.65.4 1.08.4.3 0 .57-.07.8-.22.23-.14.41-.35.53-.62l1.26.21c-.19.54-.51.97-.97 1.28-.46.3-1 .46-1.6.46-.89 0-1.6-.26-2.13-.77-.53-.52-.8-1.23-.8-2.13 0-.9.27-1.62.8-2.14s1.23-.78 2.08-.78c.39 0 .75.06 1.08.17s.61.29.86.51c.24.23.44.52.57.88.13.37.2.79.2 1.26m-2.71-1.83c-.4 0-.73.1-.98.31-.26.21-.43.52-.5.94h2.83c-.04-.41-.18-.72-.42-.93-.25-.22-.56-.32-.93-.32"/><path d="m472.42 214.6v-8.49h1.39v8.49h-1.39"/><path d="m480.25 213.92c-.56.53-1.28.79-2.16.79s-1.6-.26-2.16-.79-.83-1.23-.83-2.13c0-.89.28-1.59.83-2.12s1.27-.79 2.16-.79 1.6.26 2.16.79.83 1.23.83 2.12c0 .9-.28 1.61-.83 2.13m-2.18-.32c.48 0 .88-.17 1.18-.5s.46-.77.46-1.31c0-.54-.15-.97-.46-1.3s-.7-.5-1.18-.5c-.47 0-.85.17-1.15.5-.3.33-.45.77-.45 1.3 0 .54.15.98.45 1.31.3.33.68.5 1.15.5"/><path d="m485.54 208.89c.36 0 .71.07 1.03.2.32.13.61.32.85.57s.43.55.58.92c.14.37.21.78.21 1.22s-.07.85-.21 1.22c-.14.37-.33.68-.58.92-.24.25-.53.44-.85.57s-.67.2-1.03.2c-.39 0-.75-.08-1.07-.24s-.56-.38-.73-.67v3.54h-1.38v-8.34h1.32l.04.85c.16-.3.41-.54.73-.71.32-.17.68-.25 1.09-.25m-.3 4.68c.45 0 .83-.16 1.14-.48.3-.32.46-.75.46-1.28s-.15-.96-.46-1.28c-.3-.32-.68-.48-1.14-.48-.46 0-.84.17-1.14.5-.31.33-.46.75-.46 1.26 0 .52.15.94.46 1.27.3.33.68.49 1.14.49"/><path d="m494.67 211.71l-.02.34h-4.22c.03.5.18.89.48 1.15.29.27.65.4 1.08.4.3 0 .57-.07.8-.22.23-.14.41-.35.53-.62l1.26.21c-.19.54-.51.97-.97 1.28-.46.3-1 .46-1.6.46-.89 0-1.6-.26-2.13-.77-.53-.52-.8-1.23-.8-2.13 0-.9.27-1.62.8-2.14s1.23-.78 2.08-.78c.39 0 .75.06 1.08.17s.61.29.86.51c.24.23.44.52.57.88.12.37.2.79.2 1.26m-2.72-1.83c-.4 0-.73.1-.98.31-.26.21-.43.52-.5.94h2.83c-.04-.41-.18-.72-.42-.93-.24-.22-.55-.32-.93-.32"/><path d="m497.3 209.92c.14-.27.38-.5.72-.69.34-.19.7-.29 1.09-.29v1.25c-.6 0-1.04.12-1.33.36-.28.24-.43.65-.43 1.24v2.81h-1.39v-5.6h1.33v.92z"/><path d="m502.02 214.71c-.64 0-1.17-.13-1.59-.4s-.68-.65-.78-1.16l1.17-.33c.07.31.22.53.43.68.21.15.47.22.78.22.25 0 .47-.05.64-.16s.26-.27.26-.5c0-.12-.03-.22-.09-.31-.06-.09-.15-.16-.28-.22s-.25-.11-.37-.15c-.11-.04-.28-.09-.49-.15-.21-.06-.39-.11-.51-.16-.16-.05-.3-.1-.42-.15-.12-.05-.24-.12-.37-.21-.13-.09-.23-.18-.31-.29s-.15-.23-.2-.38-.08-.32-.08-.51c0-.54.2-.95.59-1.23s.9-.42 1.53-.42c.57 0 1.05.12 1.44.36.39.24.63.61.72 1.12l-1.08.25c-.14-.52-.5-.79-1.08-.79-.24 0-.45.05-.61.15s-.25.25-.25.44c0 .05.01.11.02.15.01.05.04.09.07.13.04.04.07.08.1.11s.08.06.14.09.12.06.16.07.11.04.2.07c.09.03.16.04.21.06.05.01.13.03.23.06s.18.05.23.06c.21.06.38.11.53.16.15.05.31.12.48.22s.32.2.43.32c.11.12.2.27.27.45.08.19.11.39.11.62 0 .24-.04.46-.12.66s-.19.36-.33.49c-.14.13-.3.24-.49.33-.19.09-.39.15-.61.19s-.44.06-.68.06"/><path d="m515.43 209h1.43l-1.95 5.61h-1.27l-1.37-3.9-1.38 3.9h-1.29l-1.91-5.61h1.43l1.23 3.85 1.38-3.85h1.06l1.39 3.84 1.25-3.84"/><path d="m519.18 209.92c.14-.27.38-.5.72-.69.34-.19.7-.29 1.09-.29v1.25c-.6 0-1.04.12-1.33.36-.28.24-.43.65-.43 1.24v2.81h-1.39v-5.6h1.33v.92z"/><path d="m522.69 208c-.23 0-.42-.08-.59-.24s-.24-.36-.24-.58c0-.23.08-.42.24-.58s.36-.24.59-.24c.22 0 .42.08.58.24s.24.35.24.58c0 .22-.08.42-.25.58s-.35.24-.57.24m-.71 6.6v-5.6h1.39v5.6h-1.39"/><path d="m527.11 214.6c-.52 0-.92-.15-1.21-.44-.29-.29-.43-.71-.43-1.24v-2.86h-1.11v-1.06h.38c.31 0 .53-.07.67-.22.14-.15.21-.41.21-.78v-.82h1.25v1.82h1.19v1.07h-1.19v2.71c0 .25.06.45.18.57.12.13.29.19.51.19h.5v1.06h-.95"/><path d="m530.05 208c-.23 0-.42-.08-.59-.24s-.24-.36-.24-.58c0-.23.08-.42.24-.58s.36-.24.59-.24c.22 0 .42.08.58.24s.24.35.24.58c0 .22-.08.42-.25.58s-.35.24-.57.24m-.71 6.6v-5.6h1.39v5.6h-1.39"/><path d="m535.57 208.89c.64 0 1.14.17 1.5.51.36.34.54.82.54 1.43v3.77h-1.38v-3.47c0-.38-.1-.67-.3-.85-.2-.18-.46-.27-.77-.27-.38 0-.68.11-.93.34s-.36.59-.37 1.07v3.17h-1.38v-5.59h1.38v.65c.4-.51.97-.76 1.71-.76"/><path d="m543.17 209h1.32v5.22c0 1.01-.25 1.77-.76 2.27-.51.5-1.22.75-2.13.75-1.44 0-2.38-.58-2.83-1.73l1.14-.5c.16.39.38.67.64.86.26.19.6.28 1 .28.52 0 .9-.16 1.16-.48s.39-.77.39-1.36v-.77c-.17.26-.41.47-.74.63-.32.16-.67.24-1.05.24-.71 0-1.32-.26-1.81-.78-.5-.52-.74-1.18-.74-2 0-.41.07-.78.21-1.13.14-.35.32-.64.56-.87.23-.23.51-.42.82-.55.31-.13.64-.2.99-.2.4 0 .76.09 1.08.26.32.17.56.4.72.68l.03-.82m-2.62 3.81c.3.31.67.47 1.11.47s.81-.16 1.11-.48c.3-.32.45-.71.45-1.16s-.15-.85-.45-1.16-.67-.48-1.11-.48c-.45 0-.82.16-1.12.47-.3.31-.45.7-.45 1.18.01.46.16.85.46 1.16"/><path d="m552.87 214.71c-.57 0-1.1-.1-1.59-.29-.49-.19-.92-.46-1.27-.81-.36-.35-.64-.78-.84-1.29-.2-.51-.3-1.08-.3-1.69 0-.81.17-1.53.53-2.15.35-.62.83-1.09 1.43-1.42s1.29-.49 2.06-.49c.85 0 1.6.21 2.25.61.65.41 1.12.97 1.41 1.69l-1.33.5c-.2-.47-.5-.83-.91-1.09-.41-.26-.88-.39-1.42-.39-.37 0-.71.06-1.02.19-.32.12-.59.3-.82.53s-.42.52-.55.87c-.13.35-.2.73-.2 1.15 0 .84.24 1.51.73 2 .49.49 1.11.74 1.85.74.53 0 1-.13 1.42-.39.41-.26.72-.62.91-1.09l1.33.5c-.29.72-.76 1.29-1.41 1.7s-1.41.62-2.26.62"/><path d="m561.47 214.71c-.77 0-1.45-.16-2.06-.49s-1.08-.8-1.43-1.43c-.35-.62-.53-1.34-.53-2.16s.17-1.53.53-2.15c.35-.62.83-1.09 1.43-1.42s1.29-.49 2.06-.49c.76 0 1.45.16 2.05.49s1.08.8 1.43 1.42c.35.62.53 1.34.53 2.15s-.17 1.53-.53 2.16c-.35.62-.83 1.1-1.43 1.43s-1.28.49-2.05.49m-1.85-2.07c.49.49 1.11.74 1.85.74s1.37-.25 1.85-.74c.49-.49.73-1.16.73-2.01 0-.84-.24-1.5-.73-2-.49-.49-1.11-.74-1.85-.74-.37 0-.71.06-1.02.19-.32.12-.59.3-.82.53s-.42.52-.55.87c-.13.35-.2.73-.2 1.15.01.85.25 1.52.74 2.01"/><path d="m571.21 210.43c1.01.27 1.52.93 1.52 1.97 0 .67-.21 1.21-.62 1.6-.42.4-1.01.59-1.78.59h-3.2v-7.92h2.51c.8 0 1.42.19 1.86.58.44.38.67.91.67 1.57 0 .37-.08.69-.24.96s-.41.5-.72.65m-1.56-2.54h-1.13v2.1h1.24c.34 0 .61-.1.8-.3.19-.2.28-.46.28-.77 0-.31-.1-.55-.31-.74-.21-.2-.5-.29-.88-.29m.42 5.47c.42 0 .74-.11.96-.32.21-.21.32-.48.32-.79 0-.33-.11-.6-.33-.82-.22-.22-.55-.32-.99-.32h-1.51v2.25h1.55"/><path d="m577.67 214.71c-.77 0-1.45-.16-2.06-.49s-1.08-.8-1.43-1.43c-.35-.62-.53-1.34-.53-2.16s.17-1.53.53-2.15c.35-.62.83-1.09 1.43-1.42s1.29-.49 2.06-.49c.76 0 1.45.16 2.05.49s1.08.8 1.43 1.42c.35.62.53 1.34.53 2.15s-.17 1.53-.53 2.16c-.35.62-.83 1.1-1.43 1.43s-1.29.49-2.05.49m-1.86-2.07c.49.49 1.11.74 1.85.74s1.37-.25 1.85-.74c.49-.49.73-1.16.73-2.01 0-.84-.24-1.5-.73-2-.49-.49-1.11-.74-1.85-.74-.37 0-.71.06-1.02.19-.32.12-.59.3-.82.53s-.42.52-.55.87c-.13.35-.2.73-.2 1.15.01.85.25 1.52.74 2.01"/><path d="m584.76 213.32h2.57v1.28h-4.01v-7.92h1.44v6.64"/><path d="m594.58 208.89c.36 0 .71.07 1.03.2.32.13.61.32.85.57s.43.55.58.92c.14.37.21.78.21 1.22s-.07.85-.21 1.22c-.14.37-.33.68-.58.92-.24.25-.53.44-.85.57s-.67.2-1.03.2c-.39 0-.75-.08-1.07-.24s-.56-.38-.73-.67v3.54h-1.38v-8.34h1.32l.04.85c.16-.3.41-.54.73-.71.32-.17.69-.25 1.09-.25m-.3 4.68c.45 0 .83-.16 1.14-.48.3-.32.46-.75.46-1.28s-.15-.96-.46-1.28c-.3-.32-.68-.48-1.14-.48-.46 0-.84.17-1.14.5-.31.33-.46.75-.46 1.26 0 .52.15.94.46 1.27.3.33.68.49 1.14.49"/><path d="m603.71 211.71l-.02.34h-4.22c.03.5.18.89.48 1.15.29.27.65.4 1.08.4.3 0 .57-.07.8-.22.23-.14.41-.35.53-.62l1.26.21c-.19.54-.51.97-.97 1.28-.46.3-1 .46-1.6.46-.89 0-1.6-.26-2.13-.77-.53-.52-.8-1.23-.8-2.13 0-.9.27-1.62.8-2.14s1.23-.78 2.08-.78c.39 0 .75.06 1.08.17s.61.29.86.51c.24.23.44.52.57.88.13.37.2.79.2 1.26m-2.71-1.83c-.4 0-.73.1-.98.31-.26.21-.43.52-.5.94h2.83c-.04-.41-.18-.72-.42-.93-.25-.22-.56-.32-.93-.32"/><path d="m606.34 209.92c.14-.27.38-.5.72-.69.34-.19.7-.29 1.09-.29v1.25c-.6 0-1.04.12-1.33.36-.28.24-.43.65-.43 1.24v2.81h-1.39v-5.6h1.33v.92z"/><path d="m614.08 214.6c-.52 0-.92-.15-1.21-.44-.29-.29-.43-.71-.43-1.24v-2.86h-1.11v-1.06h.38c.31 0 .53-.07.67-.22.14-.15.21-.41.21-.78v-.82h1.25v1.82h1.19v1.07h-1.19v2.71c0 .25.06.45.18.57.12.13.29.19.51.19h.5v1.06h-.95"/><path d="m621.43 211.71l-.02.34h-4.22c.03.5.18.89.48 1.15.29.27.65.4 1.08.4.3 0 .57-.07.8-.22.23-.14.41-.35.53-.62l1.26.21c-.19.54-.51.97-.97 1.28-.46.3-1 .46-1.6.46-.89 0-1.6-.26-2.13-.77-.53-.52-.8-1.23-.8-2.13 0-.9.27-1.62.8-2.14s1.23-.78 2.08-.78c.39 0 .75.06 1.08.17s.61.29.86.51c.24.23.44.52.57.88.13.37.2.79.2 1.26m-2.71-1.83c-.4 0-.73.1-.98.31-.26.21-.43.52-.5.94h2.83c-.04-.41-.18-.72-.42-.93-.25-.22-.55-.32-.93-.32"/><path d="m627.16 213.03c0 .64.05 1.11.14 1.42v.15h-1.31l-.13-.63c-.2.25-.46.43-.79.56-.32.12-.66.18-1.01.18-.23 0-.45-.03-.65-.08-.2-.06-.38-.14-.55-.26-.17-.12-.3-.28-.39-.49-.09-.21-.14-.45-.14-.72 0-.28.05-.52.14-.73s.24-.38.43-.51.4-.24.63-.33c.23-.08.5-.16.83-.23l.93-.19c.19-.04.32-.1.4-.17s.12-.17.12-.3c0-.15-.03-.28-.09-.4-.06-.11-.14-.2-.24-.26s-.21-.1-.33-.13c-.12-.03-.24-.04-.38-.04-.68 0-1.07.3-1.16.91l-1.23-.23c.22-1.1 1.04-1.65 2.46-1.65.24 0 .46.02.67.05.21.03.41.1.62.19.2.09.38.21.52.35.14.14.26.33.35.57.09.24.13.52.13.83v2.14zm-2.67.72c.45 0 .79-.15 1.04-.44.25-.29.37-.74.37-1.34l-1.36.35c-.29.06-.51.15-.66.26-.15.11-.22.27-.22.48 0 .22.08.4.23.51.15.12.35.18.6.18"/><path d="m635.15 208.89c.59 0 1.05.15 1.4.46.35.31.52.75.52 1.32v3.93h-1.38v-3.55c0-.34-.09-.6-.27-.78-.18-.17-.4-.26-.68-.26-.32 0-.59.11-.79.32-.2.22-.31.55-.31 1.01v3.26h-1.4v-3.52c0-.35-.09-.62-.27-.8s-.41-.27-.69-.27c-.32 0-.58.11-.79.33-.2.22-.31.58-.31 1.06v3.2h-1.38v-5.6h1.38v.67c.37-.52.9-.79 1.59-.79.39 0 .74.07 1.02.22.29.15.5.36.65.64.39-.57.95-.85 1.71-.85"/></g><path fill="#fff" fill-opacity=".5" d="m202.3 200.21h225.6v22.01h-225.6z"/><g opacity=".8" fill="#8719cb"><path d="m240.39 214.6v-7.92h2.76c.81 0 1.5.17 2.07.5.57.33.99.8 1.26 1.38.27.59.41 1.28.41 2.07 0 1.21-.32 2.18-.96 2.89s-1.57 1.07-2.78 1.07h-2.76zm1.44-1.28h1.26c.77 0 1.35-.23 1.73-.7.38-.47.57-1.13.57-1.99s-.19-1.52-.57-1.99c-.38-.47-.96-.7-1.73-.7h-1.26v5.38"/><path d="m253.5 211.71l-.02.34h-4.22c.03.5.18.89.48 1.15.29.27.65.4 1.08.4.3 0 .57-.07.8-.22.23-.14.41-.35.53-.62l1.26.21c-.19.54-.51.97-.97 1.28-.46.3-1 .46-1.6.46-.89 0-1.6-.26-2.13-.77-.53-.52-.8-1.23-.8-2.13 0-.9.27-1.62.8-2.14s1.23-.78 2.08-.78c.39 0 .75.06 1.08.17s.61.29.86.51c.24.23.44.52.57.88.12.37.19.79.2 1.26m-2.72-1.83c-.4 0-.73.1-.98.31-.26.21-.43.52-.5.94h2.83c-.04-.41-.18-.72-.42-.93-.24-.22-.55-.32-.93-.32"/><path d="m258.17 209h1.46l-2.35 5.6h-1.19l-2.33-5.6h1.45l1.48 4.03 1.48-4.03"/><path d="m265.49 211.71l-.02.34h-4.22c.03.5.18.89.48 1.15.29.27.65.4 1.08.4.3 0 .57-.07.8-.22.23-.14.41-.35.53-.62l1.26.21c-.19.54-.51.97-.97 1.28-.46.3-1 .46-1.6.46-.89 0-1.6-.26-2.13-.77-.53-.52-.8-1.23-.8-2.13 0-.9.27-1.62.8-2.14s1.23-.78 2.08-.78c.39 0 .75.06 1.08.17s.61.29.86.51c.24.23.44.52.57.88.13.37.2.79.2 1.26m-2.71-1.83c-.4 0-.73.1-.98.31-.26.21-.43.52-.5.94h2.83c-.04-.41-.18-.72-.42-.93-.25-.22-.55-.32-.93-.32"/><path d="m266.8 214.6v-8.49h1.39v8.49h-1.39"/><path d="m274.63 213.92c-.56.53-1.28.79-2.16.79s-1.6-.26-2.16-.79-.83-1.23-.83-2.13c0-.89.28-1.59.83-2.12s1.27-.79 2.16-.79 1.6.26 2.16.79.83 1.23.83 2.12c0 .9-.28 1.61-.83 2.13m-2.18-.32c.48 0 .88-.17 1.18-.5s.46-.77.46-1.31c0-.54-.15-.97-.46-1.3s-.7-.5-1.18-.5c-.47 0-.85.17-1.15.5-.3.33-.45.77-.45 1.3 0 .54.15.98.45 1.31.3.33.69.5 1.15.5"/><path d="m279.92 208.89c.36 0 .71.07 1.03.2.32.13.61.32.85.57s.43.55.58.92c.14.37.21.78.21 1.22s-.07.85-.21 1.22c-.14.37-.33.68-.58.92-.24.25-.53.44-.85.57s-.67.2-1.03.2c-.39 0-.75-.08-1.07-.24s-.56-.38-.73-.67v3.54h-1.38v-8.34h1.32l.04.85c.16-.3.41-.54.73-.71.32-.17.69-.25 1.09-.25m-.3 4.68c.45 0 .83-.16 1.14-.48.3-.32.46-.75.46-1.28s-.15-.96-.46-1.28c-.3-.32-.68-.48-1.14-.48-.46 0-.84.17-1.14.5-.31.33-.46.75-.46 1.26 0 .52.15.94.46 1.27.3.33.68.49 1.14.49"/><path d="m289.05 211.71l-.02.34h-4.22c.03.5.18.89.48 1.15.29.27.65.4 1.08.4.3 0 .57-.07.8-.22.23-.14.41-.35.53-.62l1.26.21c-.19.54-.51.97-.97 1.28-.46.3-1 .46-1.6.46-.89 0-1.6-.26-2.13-.77-.53-.52-.8-1.23-.8-2.13 0-.9.27-1.62.8-2.14s1.23-.78 2.08-.78c.39 0 .75.06 1.08.17s.61.29.86.51c.24.23.44.52.57.88.13.37.2.79.2 1.26m-2.71-1.83c-.4 0-.73.1-.98.31-.26.21-.43.52-.5.94h2.83c-.04-.41-.18-.72-.42-.93-.25-.22-.56-.32-.93-.32"/><path d="m291.68 209.92c.14-.27.38-.5.72-.69.34-.19.7-.29 1.09-.29v1.25c-.6 0-1.04.12-1.33.36-.28.24-.43.65-.43 1.24v2.81h-1.39v-5.6h1.33v.92z"/><path d="m296.4 214.71c-.64 0-1.17-.13-1.59-.4s-.68-.65-.78-1.16l1.17-.33c.07.31.22.53.43.68.21.15.47.22.78.22.25 0 .47-.05.64-.16s.26-.27.26-.5c0-.12-.03-.22-.09-.31-.06-.09-.15-.16-.28-.22s-.25-.11-.37-.15c-.11-.04-.28-.09-.49-.15-.21-.06-.39-.11-.51-.16-.16-.05-.3-.1-.42-.15-.12-.05-.24-.12-.37-.21-.13-.09-.23-.18-.31-.29s-.15-.23-.2-.38-.08-.32-.08-.51c0-.54.2-.95.59-1.23s.9-.42 1.53-.42c.57 0 1.05.12 1.44.36.39.24.63.61.72 1.12l-1.08.25c-.14-.52-.5-.79-1.08-.79-.24 0-.45.05-.61.15s-.25.25-.25.44c0 .05.01.11.02.15.01.05.04.09.07.13.04.04.07.08.1.11s.08.06.14.09.12.06.16.07.11.04.2.07c.09.03.16.04.21.06.05.01.13.03.23.06s.18.05.23.06c.21.06.38.11.53.16.15.05.31.12.48.22s.32.2.43.32c.11.12.2.27.27.45.08.19.11.39.11.62 0 .24-.04.46-.12.66s-.19.36-.33.49c-.14.13-.3.24-.49.33-.19.09-.39.15-.61.19s-.44.06-.68.06"/><path d="m309.81 209h1.43l-1.95 5.61h-1.27l-1.37-3.9-1.38 3.9h-1.29l-1.91-5.61h1.43l1.23 3.85 1.38-3.85h1.06l1.39 3.84 1.25-3.84"/><path d="m313.56 209.92c.14-.27.38-.5.72-.69.34-.19.7-.29 1.09-.29v1.25c-.6 0-1.04.12-1.33.36-.28.24-.43.65-.43 1.24v2.81h-1.39v-5.6h1.33v.92z"/><path d="m317.07 208c-.23 0-.42-.08-.59-.24s-.24-.36-.24-.58c0-.23.08-.42.24-.58s.36-.24.59-.24c.22 0 .42.08.58.24s.24.35.24.58c0 .22-.08.42-.25.58s-.35.24-.57.24m-.7 6.6v-5.6h1.39v5.6h-1.39"/><path d="m321.49 214.6c-.52 0-.92-.15-1.21-.44-.29-.29-.43-.71-.43-1.24v-2.86h-1.11v-1.06h.38c.31 0 .53-.07.67-.22.14-.15.21-.41.21-.78v-.82h1.25v1.82h1.19v1.07h-1.19v2.71c0 .25.06.45.18.57.12.13.29.19.51.19h.5v1.06h-.95"/><path d="m324.43 208c-.23 0-.42-.08-.59-.24s-.24-.36-.24-.58c0-.23.08-.42.24-.58s.36-.24.59-.24c.22 0 .42.08.58.24s.24.35.24.58c0 .22-.08.42-.25.58s-.35.24-.57.24m-.71 6.6v-5.6h1.39v5.6h-1.39"/><path d="m329.96 208.89c.64 0 1.14.17 1.5.51.36.34.54.82.54 1.43v3.77h-1.38v-3.47c0-.38-.1-.67-.3-.85-.2-.18-.46-.27-.77-.27-.38 0-.68.11-.93.34s-.36.59-.37 1.07v3.17h-1.38v-5.59h1.38v.65c.39-.51.96-.76 1.71-.76"/><path d="m337.55 209h1.32v5.22c0 1.01-.25 1.77-.76 2.27-.51.5-1.22.75-2.13.75-1.44 0-2.38-.58-2.83-1.73l1.14-.5c.16.39.38.67.64.86.26.19.6.28 1 .28.52 0 .9-.16 1.16-.48s.39-.77.39-1.36v-.77c-.17.26-.41.47-.74.63-.32.16-.67.24-1.05.24-.71 0-1.32-.26-1.81-.78-.5-.52-.74-1.18-.74-2 0-.41.07-.78.21-1.13.14-.35.32-.64.56-.87.23-.23.51-.42.82-.55.31-.13.64-.2.99-.2.4 0 .76.09 1.08.26.32.17.56.4.72.68l.03-.82m-2.61 3.81c.3.31.67.47 1.11.47s.81-.16 1.11-.48c.3-.32.45-.71.45-1.16s-.15-.85-.45-1.16-.67-.48-1.11-.48c-.45 0-.82.16-1.12.47-.3.31-.45.7-.45 1.18 0 .46.15.85.46 1.16"/><path d="m346.74 208.89c.36 0 .71.07 1.03.2.32.13.61.32.85.57s.43.55.58.92c.14.37.21.78.21 1.22s-.07.85-.21 1.22c-.14.37-.33.68-.58.92-.24.25-.53.44-.85.57s-.67.2-1.03.2c-.39 0-.75-.08-1.07-.24s-.56-.38-.73-.67v3.54h-1.38v-8.34h1.32l.04.85c.16-.3.41-.54.73-.71.32-.17.68-.25 1.09-.25m-.31 4.68c.45 0 .83-.16 1.14-.48.3-.32.46-.75.46-1.28s-.15-.96-.46-1.28c-.3-.32-.68-.48-1.14-.48-.46 0-.84.17-1.14.5-.31.33-.46.75-.46 1.26 0 .52.15.94.46 1.27.31.33.69.49 1.14.49"/><path d="m355.87 211.71l-.02.34h-4.22c.03.5.18.89.48 1.15.29.27.65.4 1.08.4.3 0 .57-.07.8-.22.23-.14.41-.35.53-.62l1.26.21c-.19.54-.51.97-.97 1.28-.46.3-1 .46-1.6.46-.89 0-1.6-.26-2.13-.77-.53-.52-.8-1.23-.8-2.13 0-.9.27-1.62.8-2.14s1.23-.78 2.08-.78c.39 0 .75.06 1.08.17s.61.29.86.51c.24.23.44.52.57.88.12.37.19.79.2 1.26m-2.72-1.83c-.4 0-.73.1-.98.31-.26.21-.43.52-.5.94h2.83c-.04-.41-.18-.72-.42-.93-.24-.22-.55-.32-.93-.32"/><path d="m358.5 209.92c.14-.27.38-.5.72-.69.34-.19.7-.29 1.09-.29v1.25c-.6 0-1.04.12-1.33.36-.28.24-.43.65-.43 1.24v2.81h-1.39v-5.6h1.33v.92z"/><path d="m364.25 214.6v-8.49h1.39v8.49h-1.39"/><path d="m371.8 213.03c0 .64.05 1.11.14 1.42v.15h-1.31l-.13-.63c-.2.25-.46.43-.79.56-.32.12-.66.18-1.01.18-.23 0-.45-.03-.65-.08-.2-.06-.38-.14-.55-.26-.17-.12-.3-.28-.39-.49-.09-.21-.14-.45-.14-.72 0-.28.05-.52.14-.73s.24-.38.43-.51.4-.24.63-.33c.23-.08.5-.16.83-.23l.93-.19c.19-.04.32-.1.4-.17s.12-.17.12-.3c0-.15-.03-.28-.09-.4-.06-.11-.14-.2-.24-.26s-.21-.1-.33-.13c-.12-.03-.24-.04-.38-.04-.68 0-1.07.3-1.16.91l-1.23-.23c.22-1.1 1.04-1.65 2.46-1.65.24 0 .46.02.67.05.21.03.41.1.62.19.2.09.38.21.52.35.14.14.26.33.35.57.09.24.13.52.13.83v2.14zm-2.67.72c.45 0 .79-.15 1.04-.44.25-.29.37-.74.37-1.34l-1.36.35c-.29.06-.51.15-.66.26-.15.11-.22.27-.22.48 0 .22.08.4.23.51.16.12.36.18.6.18"/><path d="m376.55 208.89c.64 0 1.14.17 1.5.51.36.34.54.82.54 1.43v3.77h-1.38v-3.47c0-.38-.1-.67-.3-.85-.2-.18-.46-.27-.77-.27-.38 0-.68.11-.93.34s-.36.59-.37 1.07v3.17h-1.38v-5.59h1.38v.65c.4-.51.97-.76 1.71-.76"/><path d="m384.15 209h1.32v5.22c0 1.01-.25 1.77-.76 2.27-.51.5-1.22.75-2.13.75-1.44 0-2.38-.58-2.83-1.73l1.14-.5c.16.39.38.67.64.86.26.19.6.28 1 .28.52 0 .9-.16 1.16-.48s.39-.77.39-1.36v-.77c-.17.26-.41.47-.74.63-.32.16-.67.24-1.05.24-.71 0-1.32-.26-1.81-.78-.5-.52-.74-1.18-.74-2 0-.41.07-.78.21-1.13.14-.35.32-.64.56-.87.23-.23.51-.42.82-.55.31-.13.64-.2.99-.2.4 0 .76.09 1.08.26.32.17.56.4.72.68l.03-.82m-2.62 3.81c.3.31.67.47 1.11.47s.81-.16 1.11-.48c.3-.32.45-.71.45-1.16s-.15-.85-.45-1.16-.67-.48-1.11-.48c-.45 0-.82.16-1.12.47-.3.31-.45.7-.45 1.18.01.46.16.85.46 1.16"/><path d="m390.85 209h1.38v5.6h-1.31l-.04-.69c-.19.26-.43.46-.73.59-.3.14-.64.21-1.01.21-.64 0-1.14-.17-1.5-.51-.36-.34-.53-.82-.53-1.43v-3.77h1.38v3.47c0 .38.1.66.3.84.2.18.46.27.78.27.38 0 .68-.11.92-.34.24-.23.36-.59.36-1.07v-3.17"/><path d="m398.4 213.03c0 .64.05 1.11.14 1.42v.15h-1.31l-.13-.63c-.2.25-.46.43-.79.56-.32.12-.66.18-1.01.18-.23 0-.45-.03-.65-.08-.2-.06-.38-.14-.55-.26-.17-.12-.3-.28-.39-.49-.09-.21-.14-.45-.14-.72 0-.28.05-.52.14-.73s.24-.38.43-.51.4-.24.63-.33c.23-.08.5-.16.83-.23l.93-.19c.19-.04.32-.1.4-.17s.12-.17.12-.3c0-.15-.03-.28-.09-.4-.06-.11-.14-.2-.24-.26s-.21-.1-.33-.13c-.12-.03-.24-.04-.38-.04-.68 0-1.07.3-1.16.91l-1.23-.23c.22-1.1 1.04-1.65 2.46-1.65.24 0 .46.02.67.05.21.03.41.1.62.19.2.09.38.21.52.35.14.14.26.33.35.57.09.24.13.52.13.83v2.14zm-2.67.72c.45 0 .79-.15 1.04-.44.25-.29.37-.74.37-1.34l-1.36.35c-.29.06-.51.15-.66.26-.15.11-.22.27-.22.48 0 .22.08.4.23.51.16.12.36.18.6.18"/><path d="m403.85 209h1.32v5.22c0 1.01-.25 1.77-.76 2.27-.51.5-1.22.75-2.13.75-1.44 0-2.38-.58-2.83-1.73l1.14-.5c.16.39.38.67.64.86.26.19.6.28 1 .28.52 0 .9-.16 1.16-.48s.39-.77.39-1.36v-.77c-.17.26-.41.47-.74.63-.32.16-.67.24-1.05.24-.71 0-1.32-.26-1.81-.78-.5-.52-.74-1.18-.74-2 0-.41.07-.78.21-1.13.14-.35.32-.64.56-.87.23-.23.51-.42.82-.55.31-.13.64-.2.99-.2.4 0 .76.09 1.08.26.32.17.56.4.72.68l.03-.82m-2.62 3.81c.3.31.67.47 1.11.47s.81-.16 1.11-.48c.3-.32.45-.71.45-1.16s-.15-.85-.45-1.16-.67-.48-1.11-.48c-.45 0-.82.16-1.12.47-.3.31-.45.7-.45 1.18.01.46.16.85.46 1.16"/><path d="m412.07 211.71l-.02.34h-4.22c.03.5.18.89.48 1.15.29.27.65.4 1.08.4.3 0 .57-.07.8-.22.23-.14.41-.35.53-.62l1.26.21c-.19.54-.51.97-.97 1.28-.46.3-1 .46-1.6.46-.89 0-1.6-.26-2.13-.77-.53-.52-.8-1.23-.8-2.13 0-.9.27-1.62.8-2.14s1.23-.78 2.08-.78c.39 0 .75.06 1.08.17s.61.29.86.51c.24.23.44.52.57.88.12.37.19.79.2 1.26m-2.72-1.83c-.4 0-.73.1-.98.31-.26.21-.43.52-.5.94h2.83c-.04-.41-.18-.72-.42-.93-.24-.22-.55-.32-.93-.32"/></g><g fill="#fff"><g opacity=".6"><path d="m652.5 287.91h.63v1.05h-.63z"/><path d="m653.13 285.83h-.63v-2.09h.63v2.09m0-4.17h-.63v-2.09h.63v2.09m0-4.17h-.63v-2.09h.63v2.09m0-4.17h-.63v-2.09h.63v2.09m0-4.18h-.63v-2.09h.63v2.09m0-4.17h-.63v-2.09h.63v2.09m0-4.17h-.63v-2.09h.63v2.09m0-4.17h-.63v-2.09h.63v2.09m0-4.17h-.63v-2.09h.63v2.09m0-4.17h-.63v-2.09h.63v2.09m0-4.17h-.63v-2.09h.63v2.09m0-4.17h-.63v-2.09h.63v2.09m0-4.17h-.63v-2.09h.63v2.09m0-4.17h-.63v-2.09h.63v2.09m0-4.17h-.63v-2.09h.63v2.09"/><path d="m652.5 222.22h.63v1.05h-.63z"/></g><g opacity=".6"><path d="m626.49 298.38h.63v1.05h-.63z"/><path d="m627.12 296.24h-.63v-2.15h.63v2.15m0-4.29h-.63v-2.15h.63v2.15m0-4.3h-.63v-2.15h.63v2.15m0-4.29h-.63v-2.15h.63v2.15m0-4.29h-.63v-2.15h.63v2.15m0-4.29h-.63v-2.15h.63v2.15m0-4.3h-.63v-2.15h.63v2.15m0-4.29h-.63v-2.15h.63v2.15m0-4.29h-.63v-2.15h.63v2.15m0-4.29h-.63v-2.15h.63v2.15m0-4.29h-.63v-2.15h.63v2.15m0-4.3h-.63v-2.15h.63v2.15m0-4.29h-.63v-2.15h.63v2.15m0-4.29h-.63v-2.15h.63v2.15m0-4.29h-.63v-2.15h.63v2.15m0-4.3h-.63v-2.15h.63v2.15m0-4.29h-.63v-2.15h.63v2.15"/><path d="m626.49 222.22h.63v1.05h-.63z"/></g><g opacity=".6"><path d="m600.48 287.91h.63v1.05h-.63z"/><path d="m601.11 285.83h-.63v-2.09h.63v2.09m0-4.17h-.63v-2.09h.63v2.09m0-4.17h-.63v-2.09h.63v2.09m0-4.17h-.63v-2.09h.63v2.09m0-4.18h-.63v-2.09h.63v2.09m0-4.17h-.63v-2.09h.63v2.09m0-4.17h-.63v-2.09h.63v2.09m0-4.17h-.63v-2.09h.63v2.09m0-4.17h-.63v-2.09h.63v2.09m0-4.17h-.63v-2.09h.63v2.09m0-4.17h-.63v-2.09h.63v2.09m0-4.17h-.63v-2.09h.63v2.09m0-4.17h-.63v-2.09h.63v2.09m0-4.17h-.63v-2.09h.63v2.09m0-4.17h-.63v-2.09h.63v2.09"/><path d="m600.48 222.22h.63v1.05h-.63z"/></g><g opacity=".6"><path d="m574.47 298.38h.63v1.05h-.63z"/><path d="m575.1 296.24h-.63v-2.15h.63v2.15m0-4.29h-.63v-2.15h.63v2.15m0-4.3h-.63v-2.15h.63v2.15m0-4.29h-.63v-2.15h.63v2.15m0-4.29h-.63v-2.15h.63v2.15m0-4.29h-.63v-2.15h.63v2.15m0-4.3h-.63v-2.15h.63v2.15m0-4.29h-.63v-2.15h.63v2.15m0-4.29h-.63v-2.15h.63v2.15m0-4.29h-.63v-2.15h.63v2.15m0-4.29h-.63v-2.15h.63v2.15m0-4.3h-.63v-2.15h.63v2.15m0-4.29h-.63v-2.15h.63v2.15m0-4.29h-.63v-2.15h.63v2.15m0-4.29h-.63v-2.15h.63v2.15m0-4.3h-.63v-2.15h.63v2.15m0-4.29h-.63v-2.15h.63v2.15"/><path d="m574.47 222.22h.63v1.05h-.63z"/></g><g opacity=".6"><path d="m548.46 291.67h.63v1.05h-.63z"/><path d="m549.09 289.6h-.63v-2.07h.63v2.07m0-4.15h-.63v-2.07h.63v2.07m0-4.15h-.63v-2.07h.63v2.07m0-4.14h-.63v-2.07h.63v2.07m0-4.15h-.63v-2.07h.63v2.07m0-4.14h-.63v-2.07h.63v2.07m0-4.15h-.63v-2.07h.63v2.07m0-4.14h-.63v-2.07h.63v2.07m0-4.15h-.63v-2.07h.63v2.07m0-4.14h-.63v-2.07h.63v2.07m0-4.15h-.63v-2.07h.63v2.07m0-4.14h-.63v-2.07h.63v2.07m0-4.15h-.63v-2.07h.63v2.07m0-4.14h-.63v-2.07h.63v2.07m0-4.15h-.63v-2.07h.63v2.07m0-4.15h-.63v-2.07h.63v2.07"/><path d="m548.46 222.22h.63v1.05h-.63z"/></g><g opacity=".6"><path d="m522.45 257.68h.63v1.05h-.63z"/><path d="m523.08 255.65h-.63v-2.02h.63v2.02m0-4.05h-.63v-2.02h.63v2.02m0-4.04h-.63v-2.02h.63v2.02m0-4.05h-.63v-2.02h.63v2.02m0-4.05h-.63v-2.02h.63v2.02m0-4.05h-.63v-2.02h.63v2.02m0-4.04h-.63v-2.02h.63v2.02m0-4.05h-.63v-2.02h.63v2.02"/><path d="m522.45 222.22h.63v1.05h-.63z"/></g><g opacity=".6"><path d="m496.44 240.04h.63v1.05h-.63z"/><path d="m497.07 238.18h-.63v-1.86h.63v1.86m0-3.73h-.63v-1.86h.63v1.86m0-3.73h-.63v-1.86h.63v1.86m0-3.72h-.63v-1.86h.63v1.86"/><path d="m496.44 222.22h.63v1.05h-.63z"/></g><g opacity=".6"><path d="m470.43 247.6h.63v1.05h-.63z"/><path d="m471.06 245.39h-.63v-2.21h.63v2.21m0-4.43h-.63v-2.21h.63v2.21m0-4.42h-.63v-2.21h.63v2.21m0-4.42h-.63v-2.21h.63v2.21m0-4.43h-.63v-2.21h.63v2.21"/><path d="m470.43 222.22h.63v1.05h-.63z"/></g><g opacity=".6"><path d="m444.42 264.67h.63v1.05h-.63z"/><path d="m445.05 262.49h-.63v-2.18h.63v2.18m0-4.35h-.63v-2.18h.63v2.18m0-4.36h-.63v-2.18h.63v2.18m0-4.36h-.63v-2.18h.63v2.18m0-4.36h-.63v-2.18h.63v2.18m0-4.36h-.63v-2.18h.63v2.18m0-4.36h-.63v-2.18h.63v2.18m0-4.35h-.63v-2.18h.63v2.18m0-4.36h-.63v-2.18h.63v2.18"/><path d="m444.42 222.22h.63v1.05h-.63z"/></g><g opacity=".6"><path d="m418.41 298.38h.63v1.05h-.63z"/><path d="m419.04 296.24h-.63v-2.15h.63v2.15m0-4.29h-.63v-2.15h.63v2.15m0-4.3h-.63v-2.15h.63v2.15m0-4.29h-.63v-2.15h.63v2.15m0-4.29h-.63v-2.15h.63v2.15m0-4.29h-.63v-2.15h.63v2.15m0-4.3h-.63v-2.15h.63v2.15m0-4.29h-.63v-2.15h.63v2.15m0-4.29h-.63v-2.15h.63v2.15m0-4.29h-.63v-2.15h.63v2.15m0-4.29h-.63v-2.15h.63v2.15m0-4.3h-.63v-2.15h.63v2.15m0-4.29h-.63v-2.15h.63v2.15m0-4.29h-.63v-2.15h.63v2.15m0-4.29h-.63v-2.15h.63v2.15m0-4.3h-.63v-2.15h.63v2.15m0-4.29h-.63v-2.15h.63v2.15"/><path d="m418.41 222.22h.63v1.05h-.63z"/></g><g opacity=".6"><path d="m392.4 308.17h.63v1.05h-.63z"/><path d="m393.03 306.1h-.63v-2.07h.63v2.07m0-4.14h-.63v-2.07h.63v2.07m0-4.14h-.63v-2.07h.63v2.07m0-4.14h-.63v-2.07h.63v2.07m0-4.14h-.63v-2.07h.63v2.07m0-4.14h-.63v-2.07h.63v2.07m0-4.15h-.63v-2.07h.63v2.07m0-4.14h-.63v-2.07h.63v2.07m0-4.14h-.63v-2.07h.63v2.07m0-4.14h-.63v-2.07h.63v2.07m0-4.14h-.63v-2.07h.63v2.07m0-4.15h-.63v-2.07h.63v2.07m0-4.14h-.63v-2.07h.63v2.07m0-4.14h-.63v-2.07h.63v2.07m0-4.14h-.63v-2.07h.63v2.07m0-4.14h-.63v-2.07h.63v2.07m0-4.14h-.63v-2.07h.63v2.07m0-4.15h-.63v-2.07h.63v2.07m0-4.14h-.63v-2.07h.63v2.07m0-4.14h-.63v-2.07h.63v2.07"/><path d="m392.4 222.22h.63v1.05h-.63z"/></g><g opacity=".6"><path d="m366.38 299.27h.63v1.05h-.63z"/><path d="m367.02 297.22h-.63v-2.05h.63v2.05m0-4.11h-.63v-2.05h.63v2.05m0-4.11h-.63v-2.05h.63v2.05m0-4.11h-.63v-2.05h.63v2.05m0-4.11h-.63v-2.05h.63v2.05m0-4.1h-.63v-2.05h.63v2.05m0-4.11h-.63v-2.05h.63v2.05m0-4.11h-.63v-2.05h.63v2.05m0-4.11h-.63v-2.05h.63v2.05m0-4.11h-.63v-2.05h.63v2.05m0-4.1h-.63v-2.05h.63v2.05m0-4.11h-.63v-2.05h.63v2.05m0-4.11h-.63v-2.05h.63v2.05m0-4.11h-.63v-2.05h.63v2.05m0-4.11h-.63v-2.05h.63v2.05m0-4.11h-.63v-2.05h.63v2.05m0-4.1h-.63v-2.05h.63v2.05m0-4.11h-.63v-2.05h.63v2.05"/><path d="m366.38 222.22h.63v1.05h-.63z"/></g><g opacity=".6"><path d="m340.37 308.68h.63v1.05h-.63z"/><path d="m341 306.59h-.63v-2.08h.63v2.08m0-4.16h-.63v-2.08h.63v2.08m0-4.17h-.63v-2.08h.63v2.08m0-4.16h-.63v-2.08h.63v2.08m0-4.17h-.63v-2.08h.63v2.08m0-4.17h-.63v-2.08h.63v2.08m0-4.16h-.63v-2.08h.63v2.08m0-4.17h-.63v-2.08h.63v2.08m0-4.17h-.63v-2.08h.63v2.08m0-4.16h-.63v-2.08h.63v2.08m0-4.17h-.63v-2.08h.63v2.08m0-4.16h-.63v-2.08h.63v2.08m0-4.17h-.63v-2.08h.63v2.08m0-4.17h-.63v-2.08h.63v2.08m0-4.16h-.63v-2.08h.63v2.08m0-4.17h-.63v-2.08h.63v2.08m0-4.17h-.63v-2.08h.63v2.08m0-4.16h-.63v-2.08h.63v2.08m0-4.17h-.63v-2.08h.63v2.08m0-4.16h-.63v-2.08h.63v2.08"/><path d="m340.37 222.22h.63v1.05h-.63z"/></g><path d="m84.48 50.03h-35.21c-1.16 0-2.1-.94-2.1-2.1v-7.33c0-1.16.94-2.1 2.1-2.1h35.21c1.16 0 2.1.94 2.1 2.1v7.33c0 1.16-.94 2.1-2.1 2.1"/></g><g fill="#8719cb"><path d="m185.38 50.03h-86.63c-1.16 0-2.1-.94-2.1-2.1v-7.33c0-1.16.94-2.1 2.1-2.1h86.63c1.16 0 2.1.94 2.1 2.1v7.33c0 1.16-.94 2.1-2.1 2.1" fill-opacity=".2"/><path d="m185.38 68.06h-86.63c-1.16 0-2.1-.94-2.1-2.1v-7.33c0-1.16.94-2.1 2.1-2.1h86.63c1.16 0 2.1.94 2.1 2.1v7.33c0 1.16-.94 2.1-2.1 2.1" fill-opacity=".1"/></g><g opacity=".3" fill="#fff"><path fill-opacity=".2" d="m234.17 81.76h418.24"/><path d="m651.36 82.07h-2.1v-.63h2.1v.63m-4.19 0h-2.1v-.63h2.1v.63m-4.19 0h-2.1v-.63h2.1v.63m-4.2 0h-2.1v-.63h2.1v.63m-4.19 0h-2.1v-.63h2.1v.63m-4.19 0h-2.1v-.63h2.1v.63m-4.19 0h-2.1v-.63h2.1v.63m-4.2 0h-2.1v-.63h2.1v.63m-4.19 0h-2.1v-.63h2.1v.63m-4.19 0h-2.1v-.63h2.1v.63m-4.2 0h-2.1v-.63h2.1v.63m-4.19 0h-2.1v-.63h2.1v.63m-4.19 0h-2.1v-.63h2.1v.63m-4.19 0h-2.1v-.63h2.1v.63m-4.2 0h-2.1v-.63h2.1v.63m-4.19 0h-2.1v-.63h2.1v.63m-4.19 0h-2.1v-.63h2.1v.63m-4.2 0h-2.1v-.63h2.1v.63m-4.19 0h-2.1v-.63h2.1v.63m-4.19 0h-2.1v-.63h2.1v.63m-4.19 0h-2.1v-.63h2.1v.63m-4.2 0h-2.1v-.63h2.1v.63m-4.19 0h-2.1v-.63h2.1v.63m-4.19 0h-2.1v-.63h2.1v.63m-4.2 0h-2.1v-.63h2.1v.63m-4.19 0h-2.1v-.63h2.1v.63m-4.19 0h-2.1v-.63h2.1v.63m-4.19 0h-2.1v-.63h2.1v.63m-4.2 0h-2.1v-.63h2.1v.63m-4.19 0h-2.1v-.63h2.1v.63m-4.19 0h-2.1v-.63h2.1v.63m-4.2 0h-2.1v-.63h2.1v.63m-4.19 0h-2.1v-.63h2.1v.63m-4.19 0h-2.1v-.63h2.1v.63m-4.19 0h-2.1v-.63h2.1v.63m-4.2 0h-2.1v-.63h2.1v.63m-4.19 0h-2.1v-.63h2.1v.63m-4.19 0h-2.1v-.63h2.1v.63m-4.2 0h-2.1v-.63h2.1v.63m-4.19 0h-2.1v-.63h2.1v.63m-4.19 0h-2.1v-.63h2.1v.63m-4.19 0h-2.1v-.63h2.1v.63m-4.2 0h-2.1v-.63h2.1v.63m-4.19 0h-2.1v-.63h2.1v.63m-4.19 0h-2.1v-.63h2.1v.63m-4.19 0h-2.1v-.63h2.1v.63m-4.2 0h-2.1v-.63h2.1v.63m-4.19 0h-2.1v-.63h2.1v.63m-4.19 0h-2.1v-.63h2.1v.63m-4.2 0h-2.1v-.63h2.1v.63m-4.19 0h-2.1v-.63h2.1v.63m-4.19 0h-2.1v-.63h2.1v.63m-4.19 0h-2.1v-.63h2.1v.63m-4.2 0h-2.1v-.63h2.1v.63m-4.19 0h-2.1v-.63h2.1v.63m-4.19 0h-2.1v-.63h2.1v.63m-4.2 0h-2.1v-.63h2.1v.63m-4.19 0h-2.1v-.63h2.1v.63m-4.19 0h-2.1v-.63h2.1v.63m-4.19 0h-2.1v-.63h2.1v.63m-4.2 0h-2.1v-.63h2.1v.63m-4.19 0h-2.1v-.63h2.1v.63m-4.19 0h-2.1v-.63h2.1v.63m-4.2 0h-2.1v-.63h2.1v.63m-4.19 0h-2.1v-.63h2.1v.63m-4.19 0h-2.1v-.63h2.1v.63m-4.19 0h-2.1v-.63h2.1v.63m-4.2 0h-2.1v-.63h2.1v.63m-4.19 0h-2.1v-.63h2.1v.63m-4.19 0h-2.1v-.63h2.1v.63m-4.2 0h-2.1v-.63h2.1v.63m-4.19 0h-2.1v-.63h2.1v.63m-4.19 0h-2.1v-.63h2.1v.63m-4.19 0h-2.1v-.63h2.1v.63m-4.2 0h-2.09v-.63h2.1v.63zm-4.19 0h-2.1v-.63h2.1v.63m-4.19 0h-2.1v-.63h2.1v.63m-4.2 0h-2.1v-.63h2.1v.63m-4.19 0h-2.1v-.63h2.1v.63m-4.19 0h-2.1v-.63h2.1v.63m-4.19 0h-2.1v-.63h2.1v.63m-4.2 0h-2.1v-.63h2.1v.63m-4.19 0h-2.1v-.63h2.1v.63m-4.19 0h-2.1v-.63h2.1v.63m-4.2 0h-2.1v-.63h2.1v.63m-4.19 0h-2.1v-.63h2.1v.63m-4.19 0h-2.1v-.63h2.1v.63m-4.19 0h-2.1v-.63h2.1v.63m-4.2 0h-2.1v-.63h2.1v.63m-4.19 0h-2.1v-.63h2.1v.63m-4.19 0h-2.1v-.63h2.1v.63m-4.2 0h-2.1v-.63h2.1v.63m-4.19 0h-2.1v-.63h2.1v.63m-4.19 0h-2.1v-.63h2.1v.63m-4.19 0h-2.1v-.63h2.1v.63m-4.2 0h-2.1v-.63h2.1v.63m-4.19 0h-2.1v-.63h2.1v.63m-4.19 0h-2.1v-.63h2.1v.63m-4.2 0h-2.1v-.63h2.1v.63m-4.19 0h-2.1v-.63h2.1v.63"/></g><g fill="#fff"><g opacity=".3"><path fill-opacity=".2" d="m234.17 113.21h418.24"/><path d="m651.36 113.52h-2.1v-.63h2.1v.63m-4.19 0h-2.1v-.63h2.1v.63m-4.19 0h-2.1v-.63h2.1v.63m-4.2 0h-2.1v-.63h2.1v.63m-4.19 0h-2.1v-.63h2.1v.63m-4.19 0h-2.1v-.63h2.1v.63m-4.19 0h-2.1v-.63h2.1v.63m-4.2 0h-2.1v-.63h2.1v.63m-4.19 0h-2.1v-.63h2.1v.63m-4.19 0h-2.1v-.63h2.1v.63m-4.2 0h-2.1v-.63h2.1v.63m-4.19 0h-2.1v-.63h2.1v.63m-4.19 0h-2.1v-.63h2.1v.63m-4.19 0h-2.1v-.63h2.1v.63m-4.2 0h-2.1v-.63h2.1v.63m-4.19 0h-2.1v-.63h2.1v.63m-4.19 0h-2.1v-.63h2.1v.63m-4.2 0h-2.1v-.63h2.1v.63m-4.19 0h-2.1v-.63h2.1v.63m-4.19 0h-2.1v-.63h2.1v.63m-4.19 0h-2.1v-.63h2.1v.63m-4.2 0h-2.1v-.63h2.1v.63m-4.19 0h-2.1v-.63h2.1v.63m-4.19 0h-2.1v-.63h2.1v.63m-4.2 0h-2.1v-.63h2.1v.63m-4.19 0h-2.1v-.63h2.1v.63m-4.19 0h-2.1v-.63h2.1v.63m-4.19 0h-2.1v-.63h2.1v.63m-4.2 0h-2.1v-.63h2.1v.63m-4.19 0h-2.1v-.63h2.1v.63m-4.19 0h-2.1v-.63h2.1v.63m-4.2 0h-2.1v-.63h2.1v.63m-4.19 0h-2.1v-.63h2.1v.63m-4.19 0h-2.1v-.63h2.1v.63m-4.19 0h-2.1v-.63h2.1v.63m-4.2 0h-2.1v-.63h2.1v.63m-4.19 0h-2.1v-.63h2.1v.63m-4.19 0h-2.1v-.63h2.1v.63m-4.2 0h-2.1v-.63h2.1v.63m-4.19 0h-2.1v-.63h2.1v.63m-4.19 0h-2.1v-.63h2.1v.63m-4.19 0h-2.1v-.63h2.1v.63m-4.2 0h-2.1v-.63h2.1v.63m-4.19 0h-2.1v-.63h2.1v.63m-4.19 0h-2.1v-.63h2.1v.63m-4.19 0h-2.1v-.63h2.1v.63m-4.2 0h-2.1v-.63h2.1v.63m-4.19 0h-2.1v-.63h2.1v.63m-4.19 0h-2.1v-.63h2.1v.63m-4.2 0h-2.1v-.63h2.1v.63m-4.19 0h-2.1v-.63h2.1v.63m-4.19 0h-2.1v-.63h2.1v.63m-4.19 0h-2.1v-.63h2.1v.63m-4.2 0h-2.1v-.63h2.1v.63m-4.19 0h-2.1v-.63h2.1v.63m-4.19 0h-2.1v-.63h2.1v.63m-4.2 0h-2.1v-.63h2.1v.63m-4.19 0h-2.1v-.63h2.1v.63m-4.19 0h-2.1v-.63h2.1v.63m-4.19 0h-2.1v-.63h2.1v.63m-4.2 0h-2.1v-.63h2.1v.63m-4.19 0h-2.1v-.63h2.1v.63m-4.19 0h-2.1v-.63h2.1v.63m-4.2 0h-2.1v-.63h2.1v.63m-4.19 0h-2.1v-.63h2.1v.63m-4.19 0h-2.1v-.63h2.1v.63m-4.19 0h-2.1v-.63h2.1v.63m-4.2 0h-2.1v-.63h2.1v.63m-4.19 0h-2.1v-.63h2.1v.63m-4.19 0h-2.1v-.63h2.1v.63m-4.2 0h-2.1v-.63h2.1v.63m-4.19 0h-2.1v-.63h2.1v.63m-4.19 0h-2.1v-.63h2.1v.63m-4.19 0h-2.1v-.63h2.1v.63m-4.2 0h-2.09v-.63h2.1v.63zm-4.19 0h-2.1v-.63h2.1v.63m-4.19 0h-2.1v-.63h2.1v.63m-4.2 0h-2.1v-.63h2.1v.63m-4.19 0h-2.1v-.63h2.1v.63m-4.19 0h-2.1v-.63h2.1v.63m-4.19 0h-2.1v-.63h2.1v.63m-4.2 0h-2.1v-.63h2.1v.63m-4.19 0h-2.1v-.63h2.1v.63m-4.19 0h-2.1v-.63h2.1v.63m-4.2 0h-2.1v-.63h2.1v.63m-4.19 0h-2.1v-.63h2.1v.63m-4.19 0h-2.1v-.63h2.1v.63m-4.19 0h-2.1v-.63h2.1v.63m-4.2 0h-2.1v-.63h2.1v.63m-4.19 0h-2.1v-.63h2.1v.63m-4.19 0h-2.1v-.63h2.1v.63m-4.2 0h-2.1v-.63h2.1v.63m-4.19 0h-2.1v-.63h2.1v.63m-4.19 0h-2.1v-.63h2.1v.63m-4.19 0h-2.1v-.63h2.1v.63m-4.2 0h-2.1v-.63h2.1v.63m-4.19 0h-2.1v-.63h2.1v.63m-4.19 0h-2.1v-.63h2.1v.63m-4.2 0h-2.1v-.63h2.1v.63m-4.19 0h-2.1v-.63h2.1v.63"/></g><g opacity=".3"><path fill-opacity=".2" d="m234.17 144.65h418.24"/><path d="m651.36 144.97h-2.1v-.63h2.1v.63m-4.19 0h-2.1v-.63h2.1v.63m-4.19 0h-2.1v-.63h2.1v.63m-4.2 0h-2.1v-.63h2.1v.63m-4.19 0h-2.1v-.63h2.1v.63m-4.19 0h-2.1v-.63h2.1v.63m-4.19 0h-2.1v-.63h2.1v.63m-4.2 0h-2.1v-.63h2.1v.63m-4.19 0h-2.1v-.63h2.1v.63m-4.19 0h-2.1v-.63h2.1v.63m-4.2 0h-2.1v-.63h2.1v.63m-4.19 0h-2.1v-.63h2.1v.63m-4.19 0h-2.1v-.63h2.1v.63m-4.19 0h-2.1v-.63h2.1v.63m-4.2 0h-2.1v-.63h2.1v.63m-4.19 0h-2.1v-.63h2.1v.63m-4.19 0h-2.1v-.63h2.1v.63m-4.2 0h-2.1v-.63h2.1v.63m-4.19 0h-2.1v-.63h2.1v.63m-4.19 0h-2.1v-.63h2.1v.63m-4.19 0h-2.1v-.63h2.1v.63m-4.2 0h-2.1v-.63h2.1v.63m-4.19 0h-2.1v-.63h2.1v.63m-4.19 0h-2.1v-.63h2.1v.63m-4.2 0h-2.1v-.63h2.1v.63m-4.19 0h-2.1v-.63h2.1v.63m-4.19 0h-2.1v-.63h2.1v.63m-4.19 0h-2.1v-.63h2.1v.63m-4.2 0h-2.1v-.63h2.1v.63m-4.19 0h-2.1v-.63h2.1v.63m-4.19 0h-2.1v-.63h2.1v.63m-4.2 0h-2.1v-.63h2.1v.63m-4.19 0h-2.1v-.63h2.1v.63m-4.19 0h-2.1v-.63h2.1v.63m-4.19 0h-2.1v-.63h2.1v.63m-4.2 0h-2.1v-.63h2.1v.63m-4.19 0h-2.1v-.63h2.1v.63m-4.19 0h-2.1v-.63h2.1v.63m-4.2 0h-2.1v-.63h2.1v.63m-4.19 0h-2.1v-.63h2.1v.63m-4.19 0h-2.1v-.63h2.1v.63m-4.19 0h-2.1v-.63h2.1v.63m-4.2 0h-2.1v-.63h2.1v.63m-4.19 0h-2.1v-.63h2.1v.63m-4.19 0h-2.1v-.63h2.1v.63m-4.19 0h-2.1v-.63h2.1v.63m-4.2 0h-2.1v-.63h2.1v.63m-4.19 0h-2.1v-.63h2.1v.63m-4.19 0h-2.1v-.63h2.1v.63m-4.2 0h-2.1v-.63h2.1v.63m-4.19 0h-2.1v-.63h2.1v.63m-4.19 0h-2.1v-.63h2.1v.63m-4.19 0h-2.1v-.63h2.1v.63m-4.2 0h-2.1v-.63h2.1v.63m-4.19 0h-2.1v-.63h2.1v.63m-4.19 0h-2.1v-.63h2.1v.63m-4.2 0h-2.1v-.63h2.1v.63m-4.19 0h-2.1v-.63h2.1v.63m-4.19 0h-2.1v-.63h2.1v.63m-4.19 0h-2.1v-.63h2.1v.63m-4.2 0h-2.1v-.63h2.1v.63m-4.19 0h-2.1v-.63h2.1v.63m-4.19 0h-2.1v-.63h2.1v.63m-4.2 0h-2.1v-.63h2.1v.63m-4.19 0h-2.1v-.63h2.1v.63m-4.19 0h-2.1v-.63h2.1v.63m-4.19 0h-2.1v-.63h2.1v.63m-4.2 0h-2.1v-.63h2.1v.63m-4.19 0h-2.1v-.63h2.1v.63m-4.19 0h-2.1v-.63h2.1v.63m-4.2 0h-2.1v-.63h2.1v.63m-4.19 0h-2.1v-.63h2.1v.63m-4.19 0h-2.1v-.63h2.1v.63m-4.19 0h-2.1v-.63h2.1v.63m-4.2 0h-2.09v-.63h2.1v.63zm-4.19 0h-2.1v-.63h2.1v.63m-4.19 0h-2.1v-.63h2.1v.63m-4.2 0h-2.1v-.63h2.1v.63m-4.19 0h-2.1v-.63h2.1v.63m-4.19 0h-2.1v-.63h2.1v.63m-4.19 0h-2.1v-.63h2.1v.63m-4.2 0h-2.1v-.63h2.1v.63m-4.19 0h-2.1v-.63h2.1v.63m-4.19 0h-2.1v-.63h2.1v.63m-4.2 0h-2.1v-.63h2.1v.63m-4.19 0h-2.1v-.63h2.1v.63m-4.19 0h-2.1v-.63h2.1v.63m-4.19 0h-2.1v-.63h2.1v.63m-4.2 0h-2.1v-.63h2.1v.63m-4.19 0h-2.1v-.63h2.1v.63m-4.19 0h-2.1v-.63h2.1v.63m-4.2 0h-2.1v-.63h2.1v.63m-4.19 0h-2.1v-.63h2.1v.63m-4.19 0h-2.1v-.63h2.1v.63m-4.19 0h-2.1v-.63h2.1v.63m-4.2 0h-2.1v-.63h2.1v.63m-4.19 0h-2.1v-.63h2.1v.63m-4.19 0h-2.1v-.63h2.1v.63m-4.2 0h-2.1v-.63h2.1v.63m-4.19 0h-2.1v-.63h2.1v.63"/></g><g opacity=".3"><path fill-opacity=".2" d="m234.17 176.1h418.24"/><path d="m651.36 176.41h-2.1v-.63h2.1v.63m-4.19 0h-2.1v-.63h2.1v.63m-4.19 0h-2.1v-.63h2.1v.63m-4.2 0h-2.1v-.63h2.1v.63m-4.19 0h-2.1v-.63h2.1v.63m-4.19 0h-2.1v-.63h2.1v.63m-4.19 0h-2.1v-.63h2.1v.63m-4.2 0h-2.1v-.63h2.1v.63m-4.19 0h-2.1v-.63h2.1v.63m-4.19 0h-2.1v-.63h2.1v.63m-4.2 0h-2.1v-.63h2.1v.63m-4.19 0h-2.1v-.63h2.1v.63m-4.19 0h-2.1v-.63h2.1v.63m-4.19 0h-2.1v-.63h2.1v.63m-4.2 0h-2.1v-.63h2.1v.63m-4.19 0h-2.1v-.63h2.1v.63m-4.19 0h-2.1v-.63h2.1v.63m-4.2 0h-2.1v-.63h2.1v.63m-4.19 0h-2.1v-.63h2.1v.63m-4.19 0h-2.1v-.63h2.1v.63m-4.19 0h-2.1v-.63h2.1v.63m-4.2 0h-2.1v-.63h2.1v.63m-4.19 0h-2.1v-.63h2.1v.63m-4.19 0h-2.1v-.63h2.1v.63m-4.2 0h-2.1v-.63h2.1v.63m-4.19 0h-2.1v-.63h2.1v.63m-4.19 0h-2.1v-.63h2.1v.63m-4.19 0h-2.1v-.63h2.1v.63m-4.2 0h-2.1v-.63h2.1v.63m-4.19 0h-2.1v-.63h2.1v.63m-4.19 0h-2.1v-.63h2.1v.63m-4.2 0h-2.1v-.63h2.1v.63m-4.19 0h-2.1v-.63h2.1v.63m-4.19 0h-2.1v-.63h2.1v.63m-4.19 0h-2.1v-.63h2.1v.63m-4.2 0h-2.1v-.63h2.1v.63m-4.19 0h-2.1v-.63h2.1v.63m-4.19 0h-2.1v-.63h2.1v.63m-4.2 0h-2.1v-.63h2.1v.63m-4.19 0h-2.1v-.63h2.1v.63m-4.19 0h-2.1v-.63h2.1v.63m-4.19 0h-2.1v-.63h2.1v.63m-4.2 0h-2.1v-.63h2.1v.63m-4.19 0h-2.1v-.63h2.1v.63m-4.19 0h-2.1v-.63h2.1v.63m-4.19 0h-2.1v-.63h2.1v.63m-4.2 0h-2.1v-.63h2.1v.63m-4.19 0h-2.1v-.63h2.1v.63m-4.19 0h-2.1v-.63h2.1v.63m-4.2 0h-2.1v-.63h2.1v.63m-4.19 0h-2.1v-.63h2.1v.63m-4.19 0h-2.1v-.63h2.1v.63m-4.19 0h-2.1v-.63h2.1v.63m-4.2 0h-2.1v-.63h2.1v.63m-4.19 0h-2.1v-.63h2.1v.63m-4.19 0h-2.1v-.63h2.1v.63m-4.2 0h-2.1v-.63h2.1v.63m-4.19 0h-2.1v-.63h2.1v.63m-4.19 0h-2.1v-.63h2.1v.63m-4.19 0h-2.1v-.63h2.1v.63m-4.2 0h-2.1v-.63h2.1v.63m-4.19 0h-2.1v-.63h2.1v.63m-4.19 0h-2.1v-.63h2.1v.63m-4.2 0h-2.1v-.63h2.1v.63m-4.19 0h-2.1v-.63h2.1v.63m-4.19 0h-2.1v-.63h2.1v.63m-4.19 0h-2.1v-.63h2.1v.63m-4.2 0h-2.1v-.63h2.1v.63m-4.19 0h-2.1v-.63h2.1v.63m-4.19 0h-2.1v-.63h2.1v.63m-4.2 0h-2.1v-.63h2.1v.63m-4.19 0h-2.1v-.63h2.1v.63m-4.19 0h-2.1v-.63h2.1v.63m-4.19 0h-2.1v-.63h2.1v.63m-4.2 0h-2.09v-.63h2.1v.63zm-4.19 0h-2.1v-.63h2.1v.63m-4.19 0h-2.1v-.63h2.1v.63m-4.2 0h-2.1v-.63h2.1v.63m-4.19 0h-2.1v-.63h2.1v.63m-4.19 0h-2.1v-.63h2.1v.63m-4.19 0h-2.1v-.63h2.1v.63m-4.2 0h-2.1v-.63h2.1v.63m-4.19 0h-2.1v-.63h2.1v.63m-4.19 0h-2.1v-.63h2.1v.63m-4.2 0h-2.1v-.63h2.1v.63m-4.19 0h-2.1v-.63h2.1v.63m-4.19 0h-2.1v-.63h2.1v.63m-4.19 0h-2.1v-.63h2.1v.63m-4.2 0h-2.1v-.63h2.1v.63m-4.19 0h-2.1v-.63h2.1v.63m-4.19 0h-2.1v-.63h2.1v.63m-4.2 0h-2.1v-.63h2.1v.63m-4.19 0h-2.1v-.63h2.1v.63m-4.19 0h-2.1v-.63h2.1v.63m-4.19 0h-2.1v-.63h2.1v.63m-4.2 0h-2.1v-.63h2.1v.63m-4.19 0h-2.1v-.63h2.1v.63m-4.19 0h-2.1v-.63h2.1v.63m-4.2 0h-2.1v-.63h2.1v.63m-4.19 0h-2.1v-.63h2.1v.63"/></g><path fill-opacity=".5" d="m229.56 38.87h432.02v22.01h-432.02z"/></g><g opacity=".8" fill="#8719cb"><path d="m244.54 53.37c-.95 0-1.66-.24-2.1-.72-.45-.48-.67-1.21-.67-2.18l1.41-.07c0 .3.02.55.06.75.04.2.1.38.2.54.1.16.24.27.42.35.18.07.41.11.69.11.44 0 .78-.12 1.03-.35s.37-.55.37-.93c0-.41-.12-.72-.36-.94-.24-.22-.55-.33-.93-.33h-.34v-1.09h.32c.29 0 .53-.1.72-.31s.29-.46.29-.77c0-.31-.11-.55-.32-.72-.21-.18-.49-.27-.82-.27-.22 0-.4.04-.55.11s-.26.18-.34.31c-.08.14-.13.28-.16.43s-.04.33-.04.53l-1.4-.06c0-.81.22-1.44.65-1.87.43-.43 1.04-.65 1.82-.65.7 0 1.29.2 1.75.6.46.4.69.89.69 1.48 0 .39-.1.73-.31 1.02-.21.29-.45.5-.72.62.41.11.75.34 1.03.67s.41.77.41 1.31c0 .74-.26 1.33-.77 1.77-.51.44-1.19.66-2.03.66"/><path d="m250.08 48.58c.14-.27.38-.5.72-.69.34-.19.7-.29 1.09-.29v1.25c-.6 0-1.04.12-1.33.36-.28.24-.43.66-.43 1.24v2.81h-1.39v-5.6h1.33v.92z"/><path d="m256.87 44.77h1.38v8.49h-1.31l-.04-.84c-.16.3-.41.54-.73.71s-.69.26-1.1.26c-.36 0-.71-.07-1.03-.2-.33-.14-.61-.33-.85-.57-.24-.25-.43-.55-.58-.92-.14-.37-.21-.77-.21-1.22 0-.44.07-.85.21-1.22.14-.37.33-.68.58-.92.24-.25.53-.44.85-.58.32-.14.67-.2 1.03-.2.39 0 .75.08 1.07.24.32.16.57.38.73.67v-3.7m-2.63 6.98c.3.32.68.48 1.14.48s.84-.17 1.14-.49c.3-.33.46-.75.46-1.27 0-.52-.15-.94-.46-1.27-.31-.33-.69-.49-1.14-.49-.46 0-.84.16-1.14.48-.3.32-.46.75-.46 1.28s.16.96.46 1.28"/><path d="m266.37 45.34c.74 0 1.33.24 1.79.73.45.48.68 1.08.68 1.79 0 .72-.23 1.31-.68 1.78-.45.47-1.05.7-1.79.7h-1.76v2.92h-1.44v-7.92h3.2m-.24 3.79c.42 0 .75-.12.97-.35.22-.23.33-.55.33-.95 0-.39-.11-.7-.34-.93-.23-.24-.55-.35-.97-.35h-1.53v2.58h1.54"/><path d="m274.24 51.69c0 .64.05 1.11.14 1.42v.15h-1.31l-.13-.63c-.2.25-.46.43-.79.56-.32.12-.66.19-1.01.19-.23 0-.45-.03-.65-.09s-.38-.14-.55-.26c-.17-.12-.3-.28-.39-.49-.09-.21-.14-.45-.14-.72 0-.28.05-.52.14-.73.1-.21.24-.38.43-.51.19-.13.4-.24.63-.33.23-.08.5-.16.83-.23l.93-.19c.19-.04.32-.1.4-.17s.12-.17.12-.3c0-.15-.03-.28-.09-.4s-.14-.2-.24-.26c-.1-.06-.21-.1-.33-.13-.12-.03-.24-.04-.38-.04-.68 0-1.07.3-1.16.91l-1.23-.23c.22-1.1 1.04-1.65 2.46-1.65.24 0 .46.02.67.05.21.03.41.1.62.19.2.09.38.21.52.35s.26.34.35.58c.09.24.13.52.13.83v2.13zm-2.67.73c.45 0 .79-.15 1.04-.44.25-.29.37-.74.37-1.34l-1.36.35c-.29.06-.51.15-.66.26-.15.11-.22.27-.22.48 0 .23.08.4.23.51.16.12.36.18.6.18"/><path d="m277.22 48.58c.14-.27.38-.5.72-.69.34-.19.7-.29 1.09-.29v1.25c-.6 0-1.04.12-1.33.36-.28.24-.43.66-.43 1.24v2.81h-1.39v-5.6h1.33v.92z"/><path d="m282.34 53.26c-.52 0-.92-.15-1.21-.44-.29-.29-.43-.71-.43-1.24v-2.86h-1.11v-1.07h.38c.31 0 .53-.07.67-.22.14-.15.21-.41.21-.78v-.82h1.25v1.82h1.19v1.07h-1.19v2.71c0 .25.06.44.18.57.12.13.29.19.51.19h.5v1.06h-.95z"/><path d="m288.36 47.66h1.43l-3.39 8.24h-1.4l1.23-2.84-2.26-5.4h1.51l1.41 3.89 1.47-3.89"/><path d="m293.9 53.26v-7.92h1.44v7.92h-1.44"/><path d="m303.64 47.55c.59 0 1.05.15 1.4.46s.52.75.52 1.32v3.93h-1.38v-3.55c0-.34-.09-.6-.27-.78-.18-.17-.4-.26-.68-.26-.32 0-.59.11-.79.32-.2.22-.31.55-.31 1.01v3.26h-1.4v-3.52c0-.35-.09-.62-.27-.8s-.41-.27-.69-.27c-.32 0-.58.11-.79.33-.2.22-.31.58-.31 1.06v3.2h-1.38v-5.6h1.38v.67c.37-.52.9-.79 1.59-.79.39 0 .74.07 1.02.22.29.15.5.36.65.64.39-.56.96-.85 1.71-.85"/><path d="m310.39 47.55c.36 0 .71.07 1.03.2.32.13.61.32.85.57s.43.55.58.92c.14.37.21.78.21 1.22 0 .45-.07.85-.21 1.22-.14.37-.33.68-.58.92s-.53.44-.85.57c-.32.13-.67.2-1.03.2-.39 0-.75-.08-1.07-.24s-.56-.38-.73-.67v3.54h-1.38v-8.36h1.32l.04.85c.16-.3.41-.54.73-.71s.68-.23 1.09-.23m-.31 4.68c.45 0 .83-.16 1.14-.48.3-.32.46-.75.46-1.28 0-.53-.15-.96-.46-1.28-.3-.32-.68-.48-1.14-.48-.46 0-.84.17-1.14.49-.31.33-.46.75-.46 1.26 0 .52.15.94.46 1.27.31.34.69.5 1.14.5"/><path d="m319.05 52.58c-.56.53-1.28.79-2.16.79s-1.6-.26-2.16-.79-.83-1.24-.83-2.13c0-.89.28-1.59.83-2.12s1.27-.79 2.16-.79 1.6.26 2.16.79.83 1.23.83 2.12c.01.9-.27 1.61-.83 2.13m-2.17-.32c.48 0 .88-.17 1.18-.5.3-.33.46-.77.46-1.31 0-.54-.15-.97-.46-1.3-.3-.33-.7-.5-1.18-.5-.47 0-.85.17-1.15.5-.3.33-.45.77-.45 1.3 0 .54.15.98.45 1.31.3.34.68.5 1.15.5"/><path d="m322.5 48.58c.14-.27.38-.5.72-.69.34-.19.7-.29 1.09-.29v1.25c-.6 0-1.04.12-1.33.36-.28.24-.43.66-.43 1.24v2.81h-1.39v-5.6h1.33v.92z"/><path d="m327.62 53.26c-.52 0-.92-.15-1.21-.44-.29-.29-.43-.71-.43-1.24v-2.86h-1.11v-1.07h.38c.31 0 .53-.07.67-.22.14-.15.21-.41.21-.78v-.82h1.25v1.82h1.19v1.07h-1.19v2.71c0 .25.06.44.18.57.12.13.29.19.51.19h.5v1.06h-.95z"/><path d="m331.76 53.37c-.64 0-1.17-.13-1.59-.4-.42-.27-.68-.65-.78-1.16l1.17-.33c.07.31.22.53.43.68.21.15.47.22.78.22.25 0 .47-.05.64-.15s.26-.27.26-.5c0-.12-.03-.22-.09-.31-.06-.09-.15-.16-.28-.22s-.25-.11-.37-.15c-.11-.04-.28-.09-.49-.15-.21-.06-.39-.11-.51-.16-.16-.05-.3-.1-.42-.15-.12-.05-.24-.12-.37-.21-.13-.09-.23-.18-.31-.29-.08-.1-.15-.23-.2-.38-.05-.15-.08-.32-.08-.51 0-.54.2-.95.59-1.23.39-.28.9-.42 1.53-.42.57 0 1.05.12 1.44.36.39.24.63.61.72 1.11l-1.08.25c-.14-.52-.5-.79-1.08-.79-.24 0-.45.05-.61.15s-.25.25-.25.44c0 .06.01.11.02.15.01.05.04.09.07.13s.07.08.1.1c.03.03.08.06.14.09s.12.06.16.07.11.04.2.07c.09.03.16.04.21.06.05.01.13.03.23.06s.18.05.23.06c.21.06.38.11.53.16.15.05.31.12.48.22.18.1.32.2.43.32.11.12.2.27.27.45.08.18.11.39.11.62 0 .24-.04.46-.12.66s-.19.36-.33.49c-.14.13-.3.24-.49.33-.19.09-.39.15-.61.19-.21.05-.44.07-.68.07"/><path d="m338.17 50.9v-1.16h3.96v1.16h-3.96"/><path d="m348.47 51.98h2.57v1.28h-4.01v-7.92h1.44v6.64"/><path d="m356.59 51.69c0 .64.05 1.11.14 1.42v.15h-1.31l-.13-.63c-.2.25-.46.43-.79.56-.32.12-.66.19-1.01.19-.23 0-.45-.03-.65-.09s-.38-.14-.55-.26c-.17-.12-.3-.28-.39-.49-.09-.21-.14-.45-.14-.72 0-.28.05-.52.14-.73.1-.21.24-.38.43-.51.19-.13.4-.24.63-.33.23-.08.5-.16.83-.23l.93-.19c.19-.04.32-.1.4-.17s.12-.17.12-.3c0-.15-.03-.28-.09-.4s-.14-.2-.24-.26c-.1-.06-.21-.1-.33-.13-.12-.03-.24-.04-.38-.04-.68 0-1.07.3-1.16.91l-1.23-.23c.22-1.1 1.04-1.65 2.46-1.65.24 0 .46.02.67.05.21.03.41.1.62.19.2.09.38.21.52.35s.26.34.35.58c.09.24.13.52.13.83v2.13zm-2.67.73c.45 0 .79-.15 1.04-.44.25-.29.37-.74.37-1.34l-1.36.35c-.29.06-.51.15-.66.26-.15.11-.22.27-.22.48 0 .23.08.4.23.51.16.12.36.18.6.18"/><path d="m360.15 53.37c-.64 0-1.17-.13-1.59-.4-.42-.27-.68-.65-.78-1.16l1.17-.33c.07.31.22.53.43.68.21.15.47.22.78.22.25 0 .47-.05.64-.15s.26-.27.26-.5c0-.12-.03-.22-.09-.31-.06-.09-.15-.16-.28-.22s-.25-.11-.37-.15c-.11-.04-.28-.09-.49-.15-.21-.06-.39-.11-.51-.16-.16-.05-.3-.1-.42-.15-.12-.05-.24-.12-.37-.21-.13-.09-.23-.18-.31-.29-.08-.1-.15-.23-.2-.38-.05-.15-.08-.32-.08-.51 0-.54.2-.95.59-1.23.39-.28.9-.42 1.53-.42.57 0 1.05.12 1.44.36.39.24.63.61.72 1.11l-1.08.25c-.14-.52-.5-.79-1.08-.79-.24 0-.45.05-.61.15s-.25.25-.25.44c0 .06.01.11.02.15.01.05.04.09.07.13s.07.08.1.1c.03.03.08.06.14.09s.12.06.16.07.11.04.2.07c.09.03.16.04.21.06.05.01.13.03.23.06s.18.05.23.06c.21.06.38.11.53.16.15.05.31.12.48.22.18.1.32.2.43.32.11.12.2.27.27.45.08.18.11.39.11.62 0 .24-.04.46-.12.66s-.19.36-.33.49c-.14.13-.3.24-.49.33-.19.09-.39.15-.61.19-.21.05-.44.07-.68.07"/><path d="m365.63 53.26c-.52 0-.92-.15-1.21-.44-.29-.29-.43-.71-.43-1.24v-2.86h-1.11v-1.07h.38c.31 0 .53-.07.67-.22.14-.15.21-.41.21-.78v-.82h1.25v1.82h1.19v1.07h-1.19v2.71c0 .25.06.44.18.57.12.13.29.19.51.19h.5v1.06h-.95z"/><path d="m373.09 48.14c1 0 1.75.21 2.25.64.5.43.74 1.05.74 1.87 0 .82-.25 1.48-.76 1.98-.5.5-1.17.75-1.99.75-.37 0-.73-.06-1.06-.17-.33-.11-.63-.27-.88-.48-.25-.21-.46-.47-.61-.79s-.22-.67-.22-1.06c0-.11.01-.24.03-.4l1.38-.08c-.03.17-.04.3-.04.38 0 .44.13.76.4.98.27.22.59.33.97.33.43 0 .78-.13 1.02-.39s.37-.6.37-1.02c0-.93-.6-1.4-1.81-1.4h-2.05l.38-3.95h4.51v1.24h-3.28l-.15 1.55h.8z"/><path d="m383.98 47.66h1.43l-3.39 8.24h-1.4l1.23-2.84-2.26-5.4h1.51l1.41 3.89 1.47-3.89"/><path d="m391.27 50.37l-.02.34h-4.22c.03.5.18.89.48 1.15.29.27.65.4 1.08.4.3 0 .57-.07.8-.22.23-.14.41-.35.53-.62l1.26.2c-.19.55-.51.97-.97 1.28-.46.31-1 .46-1.6.46-.89 0-1.6-.26-2.13-.77-.53-.52-.8-1.23-.8-2.13 0-.9.27-1.62.8-2.14s1.23-.78 2.08-.78c.39 0 .75.06 1.08.17.33.12.61.29.86.51.24.23.44.52.57.88.13.38.2.8.2 1.27m-2.71-1.83c-.4 0-.73.1-.98.31-.26.21-.43.52-.5.94h2.83c-.04-.41-.18-.72-.42-.93-.25-.21-.55-.32-.93-.32"/><path d="m397 51.69c0 .64.05 1.11.14 1.42v.15h-1.31l-.13-.63c-.2.25-.46.43-.79.56-.32.12-.66.19-1.01.19-.23 0-.45-.03-.65-.09s-.38-.14-.55-.26c-.17-.12-.3-.28-.39-.49-.09-.21-.14-.45-.14-.72 0-.28.05-.52.14-.73.1-.21.24-.38.43-.51.19-.13.4-.24.63-.33.23-.08.5-.16.83-.23l.93-.19c.19-.04.32-.1.4-.17s.12-.17.12-.3c0-.15-.03-.28-.09-.4s-.14-.2-.24-.26c-.1-.06-.21-.1-.33-.13-.12-.03-.24-.04-.38-.04-.68 0-1.07.3-1.16.91l-1.23-.23c.22-1.1 1.04-1.65 2.46-1.65.24 0 .46.02.67.05.21.03.41.1.62.19.2.09.38.21.52.35s.26.34.35.58c.09.24.13.52.13.83v2.13zm-2.67.73c.45 0 .79-.15 1.04-.44.25-.29.37-.74.37-1.34l-1.36.35c-.29.06-.51.15-.66.26-.15.11-.22.27-.22.48 0 .23.08.4.23.51.15.12.35.18.6.18"/><path d="m399.98 48.58c.14-.27.38-.5.72-.69.34-.19.7-.29 1.09-.29v1.25c-.6 0-1.04.12-1.33.36-.28.24-.43.66-.43 1.24v2.81h-1.39v-5.6h1.33v.92z"/><path d="m404.69 53.37c-.64 0-1.17-.13-1.59-.4-.42-.27-.68-.65-.78-1.16l1.17-.33c.07.31.22.53.43.68.21.15.47.22.78.22.25 0 .47-.05.64-.15s.26-.27.26-.5c0-.12-.03-.22-.09-.31-.06-.09-.15-.16-.28-.22s-.25-.11-.37-.15c-.11-.04-.28-.09-.49-.15-.21-.06-.39-.11-.51-.16-.16-.05-.3-.1-.42-.15-.12-.05-.24-.12-.37-.21-.13-.09-.23-.18-.31-.29-.08-.1-.15-.23-.2-.38-.05-.15-.08-.32-.08-.51 0-.54.2-.95.59-1.23.39-.28.9-.42 1.53-.42.57 0 1.05.12 1.44.36.39.24.63.61.72 1.11l-1.08.25c-.14-.52-.5-.79-1.08-.79-.24 0-.45.05-.61.15s-.25.25-.25.44c0 .06.01.11.02.15.01.05.04.09.07.13s.07.08.1.1c.03.03.08.06.14.09s.12.06.16.07.11.04.2.07c.09.03.16.04.21.06.05.01.13.03.23.06s.18.05.23.06c.21.06.38.11.53.16.15.05.31.12.48.22.18.1.32.2.43.32.11.12.2.27.27.45.08.18.11.39.11.62 0 .24-.04.46-.12.66s-.19.36-.33.49c-.14.13-.3.24-.49.33-.19.09-.39.15-.61.19-.21.05-.43.07-.68.07"/></g><g fill="#8719cb"><path opacity=".1" d="m654.27 176.82l-80.77-84.92-33.6 60.91-38.05-46.51-35.47 29.21-52.09-39.59-29.71 55.16-23.55-44.96-22.64 8.23-54.4-29.29-45.61 26.95-1.07-1.8 46.63-27.56 54.62 29.41 23.48-8.54 22.57 43.09 28.99-53.85 52.73 40.07 35.81-29.49 37.42 45.74 33.48-60.69 82.75 86.99z"/><g fill-opacity=".5"><circle cx="237.84" cy="111.11" r="4.19"/><circle cx="283.96" cy="83.86" r="4.19"/><circle cx="338.47" cy="113.21" r="4.19"/><circle cx="361.53" cy="104.82" r="4.19"/><circle cx="384.59" cy="148.85" r="4.19"/><circle cx="413.94" cy="94.34" r="4.19"/><circle cx="466.35" cy="134.17" r="4.19"/><circle cx="501.99" cy="104.82" r="4.19"/><circle cx="539.73" cy="150.94" r="4.19"/><circle cx="655.03" cy="176.1" r="4.19"/><circle cx="573.27" cy="90.15" r="4.19"/></g><path opacity=".1" d="m654.51 156.05l-44.02-25.16-49.84-18.68-43.69 12.49-50.12 10.44-17.69 15.48-14.98-38.52-72.98-6.26-22.71-14.44-18.68 12.46-82.22-21.08.52-2.03 81.31 20.84 19.05-12.69 23.42 14.9 73.77 6.32 14.37 36.95 15.85-13.87.27-.05 50.32-10.49 44.28-12.65 50.64 18.99 44.17 25.23z"/><g fill-opacity=".5"><circle cx="237.84" cy="81.76" r="4.19"/><circle cx="319.6" cy="102.72" r="4.19"/><circle cx="338.47" cy="90.15" r="4.19"/><circle cx="434.91" cy="111.11" r="4.19"/><circle cx="449.58" cy="148.85" r="4.19"/><circle cx="516.67" cy="123.69" r="4.19"/><circle cx="560.69" cy="111.11" r="4.19"/><circle cx="655.03" cy="155.14" r="4.19"/><circle cx="611.01" cy="129.98" r="4.19"/></g><path opacity=".1" d="m327.73 177.15v-2.1h64.98l43.78-7.25 29.86-11.62 46.36.03 50.16 11.46 19.97-7.4 26.43 14.92-1.03 1.82-25.58-14.43-19.65 7.27-50.65-11.57h-45.81l-29.61 11.57-44.06 7.28z"/><g fill-opacity=".5"><circle cx="608.76" cy="176.1" r="4.19"/><circle cx="582.75" cy="161.42" r="4.19"/><circle cx="512.48" cy="157.23" r="4.19"/><circle cx="466.35" cy="157.23" r="4.19"/><circle cx="438.86" cy="167.71" r="4.19"/><circle cx="391.45" cy="176.1" r="4.19"/></g></g><path d="M337.52,309.22H6.29V124.74h328.19c1.68,0,3.05,1.36,3.05,3.05V309.22z" fill="#fde5cb"/><path d="M331.23,302.93H0V120.78c0-1.29,1.04-2.33,2.33-2.33h327.42c0.82,0,1.49,0.67,1.49,1.49V302.93z" fill="#e1c5f2"/><path d="M331.23,140.46H0v-19.37c0-1.46,1.18-2.64,2.64-2.64h328.6V140.46z" fill="#fff"/><g fill="#8719cb"><path d="m16.21 124.92h1.43v7.92h-1.62l-3.76-5.92v5.92h-1.43v-7.92h1.61l3.77 5.88v-5.88"/><path d="m23.25 127.24h1.38v5.6h-1.31l-.04-.69c-.19.26-.43.46-.73.59-.3.14-.64.21-1.01.21-.64 0-1.14-.17-1.5-.51-.36-.34-.53-.82-.53-1.43v-3.77h1.38v3.47c0 .38.1.66.3.84.2.18.46.27.78.27.38 0 .68-.11.92-.34.24-.23.36-.59.36-1.07v-3.17"/><path d="m32.72 127.13c.59 0 1.05.15 1.4.46s.52.75.52 1.32v3.93h-1.38v-3.55c0-.34-.09-.6-.27-.78-.18-.17-.4-.26-.68-.26-.32 0-.59.11-.79.32-.2.22-.31.55-.31 1.01v3.26h-1.4v-3.52c0-.35-.09-.62-.27-.8s-.41-.27-.69-.27c-.32 0-.58.11-.79.33-.2.22-.31.58-.31 1.06v3.2h-1.38v-5.6h1.38v.67c.37-.52.9-.79 1.59-.79.39 0 .74.07 1.02.22.29.15.5.36.65.64.39-.57.95-.85 1.71-.85"/><path d="m39.47 127.13c.37 0 .71.07 1.03.2.32.14.61.33.85.58.24.25.43.55.58.92.14.37.21.77.21 1.22 0 .44-.07.85-.21 1.22-.14.37-.33.68-.57.92s-.53.44-.85.57c-.32.14-.67.2-1.03.2-.41 0-.77-.08-1.1-.25-.33-.17-.57-.41-.73-.71l-.04.83h-1.32v-8.49h1.38l.01 3.69c.17-.29.41-.51.73-.67.31-.15.66-.23 1.06-.23m-.32 4.68c.46 0 .84-.16 1.14-.48.31-.32.46-.75.46-1.28s-.15-.96-.46-1.28c-.31-.32-.69-.48-1.14-.48-.45 0-.83.16-1.13.49s-.46.75-.46 1.27c0 .52.15.94.46 1.27.3.32.68.49 1.13.49"/><path d="m48.59 129.95l-.02.34h-4.22c.03.5.18.89.48 1.15.29.27.65.4 1.08.4.3 0 .57-.07.8-.22.23-.14.41-.35.53-.62l1.26.2c-.19.55-.51.97-.97 1.28-.46.31-1 .46-1.6.46-.89 0-1.6-.26-2.13-.77-.53-.52-.8-1.23-.8-2.13 0-.9.27-1.62.8-2.14.53-.52 1.23-.78 2.08-.78.39 0 .75.06 1.08.17.33.12.61.29.86.51.24.23.44.52.57.88.13.38.2.79.2 1.27m-2.71-1.83c-.4 0-.73.1-.98.31-.26.21-.43.52-.5.94h2.83c-.04-.41-.18-.72-.42-.93-.25-.22-.56-.32-.93-.32"/><path d="m51.22 128.16c.14-.27.38-.5.72-.69.34-.19.7-.29 1.09-.29v1.25c-.6 0-1.04.12-1.33.36-.28.24-.43.66-.43 1.24v2.81h-1.39v-5.6h1.33v.92z"/><path d="m61.66 132.16c-.56.53-1.28.79-2.16.79s-1.6-.26-2.16-.79-.83-1.24-.83-2.13c0-.89.28-1.59.83-2.12.55-.52 1.27-.79 2.16-.79s1.6.26 2.16.79c.55.52.83 1.23.83 2.12 0 .9-.27 1.61-.83 2.13m-2.17-.32c.48 0 .88-.17 1.18-.5.3-.33.46-.77.46-1.31 0-.54-.15-.97-.46-1.3-.3-.33-.7-.5-1.18-.5-.47 0-.85.17-1.15.5-.3.33-.45.77-.45 1.3 0 .54.15.98.45 1.31.29.33.68.5 1.15.5"/><path d="m66.75 125.46c-.01 0-.02 0-.03 0-.11 0-.19 0-.24 0-.05 0-.13.01-.23.02-.1.01-.18.03-.23.05-.06.02-.12.06-.19.11-.07.05-.13.11-.16.18-.04.07-.07.16-.1.26-.03.11-.04.23-.04.37v.78h1.23v1.07h-1.23v4.53h-1.38v-4.53h-1.09v-1.07h1.09v-.79c0-.36.04-.66.13-.92.09-.26.2-.46.35-.61.14-.15.33-.27.57-.36.23-.09.47-.14.71-.17.24-.03.52-.04.86-.04v1.12z"/><path d="m74.29 132.95c-.75 0-1.43-.16-2.02-.49-.6-.32-1.07-.8-1.41-1.42s-.52-1.34-.52-2.15c0-.82.17-1.54.53-2.17.35-.62.83-1.1 1.43-1.43s1.29-.49 2.06-.49c.76 0 1.43.16 2.03.48.6.32 1.07.78 1.42 1.38l-1.27.67c-.22-.42-.52-.74-.9-.95s-.81-.32-1.29-.32c-.75 0-1.37.25-1.85.74-.48.49-.72 1.18-.72 2.05 0 .87.24 1.55.72 2.06.48.51 1.12.76 1.9.76.6 0 1.12-.16 1.54-.48.43-.32.69-.79.79-1.41h-2.33v-1.17h3.7v4.22h-1.14v-1.23c-.26.43-.62.76-1.07.99-.45.24-.98.36-1.6.36"/><path d="m84.4 132.16c-.56.53-1.28.79-2.16.79s-1.6-.26-2.16-.79-.83-1.24-.83-2.13c0-.89.28-1.59.83-2.12.55-.52 1.27-.79 2.16-.79s1.6.26 2.16.79c.55.52.83 1.23.83 2.12.01.9-.27 1.61-.83 2.13m-2.17-.32c.48 0 .88-.17 1.18-.5.3-.33.46-.77.46-1.31 0-.54-.15-.97-.46-1.3-.3-.33-.7-.5-1.18-.5-.47 0-.85.17-1.15.5-.3.33-.45.77-.45 1.3 0 .54.15.98.45 1.31.3.33.68.5 1.15.5"/><path d="m89.82 126.45c0-.36.04-.66.13-.92.09-.26.2-.46.35-.61.14-.15.33-.27.57-.36.23-.09.47-.14.71-.17.24-.03.52-.04.86-.04v1.12c-.01 0-.02 0-.03 0-.11 0-.19 0-.24 0-.05 0-.13.01-.23.02-.1.01-.18.03-.23.05-.06.02-.12.06-.19.11-.07.05-.13.11-.16.18-.04.07-.07.16-.1.26-.03.11-.04.23-.04.37v.78h1.23v1.07h-1.25v4.53h-1.38v-4.53h-1.09v-1.07h1.09v-.79m4.29-.21c-.23 0-.42-.08-.59-.24s-.24-.36-.24-.58c0-.23.08-.42.24-.58.16-.16.36-.24.59-.24.23 0 .42.08.58.24.16.16.24.35.24.58 0 .22-.08.42-.25.58s-.35.24-.57.24m-.71 6.6v-5.6h1.39v5.6h-1.39"/><path d="m96.54 132.84v-8.49h1.39v8.49h-1.39"/><path d="m104.83 129.95l-.02.34h-4.22c.03.5.18.89.48 1.15.29.27.65.4 1.08.4.3 0 .57-.07.8-.22.23-.14.41-.35.53-.62l1.26.2c-.19.55-.51.97-.97 1.28-.46.31-1 .46-1.6.46-.89 0-1.6-.26-2.13-.77-.53-.52-.8-1.23-.8-2.13 0-.9.27-1.62.8-2.14.53-.52 1.23-.78 2.08-.78.39 0 .75.06 1.08.17.33.12.61.29.86.51.24.23.44.52.57.88.13.38.2.79.2 1.27m-2.71-1.83c-.4 0-.73.1-.98.31-.26.21-.43.52-.5.94h2.83c-.04-.41-.18-.72-.42-.93-.25-.22-.56-.32-.93-.32"/><path d="m108.04 132.95c-.64 0-1.17-.13-1.59-.4-.42-.27-.68-.65-.78-1.16l1.17-.33c.07.31.22.53.43.68.21.15.47.22.78.22.25 0 .47-.05.64-.15s.26-.27.26-.5c0-.12-.03-.22-.09-.31-.06-.09-.15-.16-.28-.22s-.25-.11-.37-.15c-.11-.04-.28-.09-.49-.15-.21-.06-.39-.11-.51-.16-.16-.05-.3-.1-.42-.15-.12-.05-.24-.12-.37-.21-.13-.09-.23-.18-.31-.29-.08-.1-.15-.23-.2-.38-.05-.15-.08-.32-.08-.51 0-.54.2-.95.59-1.23.39-.28.9-.42 1.53-.42.57 0 1.05.12 1.44.36.39.24.63.61.72 1.11l-1.08.25c-.14-.52-.5-.79-1.08-.79-.24 0-.45.05-.61.15s-.25.25-.25.44c0 .06.01.11.02.15.01.05.04.09.07.13s.07.08.1.1c.03.03.08.06.14.09s.12.06.16.07.11.04.2.07c.09.03.16.04.21.06.05.01.13.03.23.06s.18.05.23.06c.21.06.38.11.53.16.15.05.31.12.48.22.18.1.32.2.43.32.11.12.2.27.27.45.08.18.11.39.11.62 0 .24-.04.46-.12.66s-.19.36-.33.49c-.14.13-.3.24-.49.33-.19.09-.39.15-.61.19-.21.05-.43.07-.68.07"/><path d="m121.59 132.84h-1.59l-.56-.71c-.77.55-1.63.82-2.56.82-.8 0-1.44-.2-1.95-.6-.5-.4-.75-.95-.75-1.67 0-.23.03-.44.09-.64.06-.2.14-.37.24-.52s.24-.32.43-.48c.19-.17.38-.32.57-.45.19-.13.44-.3.75-.49l-.03-.03c-.28-.37-.48-.68-.6-.93s-.18-.5-.18-.74c0-.5.2-.89.59-1.18.37-.27.85-.41 1.43-.41.62 0 1.11.15 1.49.44s.57.68.57 1.16c0 .35-.12.68-.36.98-.24.3-.63.62-1.18.95l1.55 1.95c.45-.66.67-1.34.67-2.05h1.25c0 .55-.1 1.09-.3 1.61-.2.53-.48 1-.83 1.43l1.26 1.56m-4.66-1.04c.64 0 1.24-.2 1.77-.61l-1.76-2.24c-.22.14-.39.24-.51.32-.12.08-.25.17-.4.29s-.25.22-.33.32c-.07.1-.13.21-.18.34-.05.13-.08.27-.08.42 0 .38.13.66.4.86.29.21.65.3 1.09.3m.04-5.88c-.13.13-.2.29-.2.5 0 .14.04.28.1.41.07.13.2.32.39.57l.11.13c.62-.38.93-.76.93-1.14 0-.2-.08-.36-.22-.49s-.34-.18-.56-.18c-.23 0-.41.07-.55.2"/><path d="m126.04 132.84v-8.49h1.39v8.49h-1.39"/><path d="m129.88 126.24c-.23 0-.42-.08-.59-.24s-.24-.36-.24-.58c0-.23.08-.42.24-.58.16-.16.36-.24.59-.24.22 0 .42.08.58.24.16.16.24.35.24.58 0 .22-.08.42-.25.58s-.34.24-.57.24m-.7 6.6v-5.6h1.39v5.6h-1.39"/><path d="m135.41 127.13c.64 0 1.14.17 1.5.51.36.34.54.82.54 1.43v3.77h-1.38v-3.47c0-.38-.1-.67-.3-.85-.2-.18-.46-.27-.77-.27-.38 0-.68.11-.93.34s-.36.59-.37 1.07v3.17h-1.38v-5.6h1.38v.65c.4-.5.97-.75 1.71-.75"/><path d="m144.24 129.95l-.02.34h-4.22c.03.5.18.89.48 1.15.29.27.65.4 1.08.4.3 0 .57-.07.8-.22.23-.14.41-.35.53-.62l1.26.2c-.19.55-.51.97-.97 1.28-.46.31-1 .46-1.6.46-.89 0-1.6-.26-2.13-.77-.53-.52-.8-1.23-.8-2.13 0-.9.27-1.62.8-2.14.53-.52 1.23-.78 2.08-.78.39 0 .75.06 1.08.17.33.12.61.29.86.51.24.23.44.52.57.88.12.38.19.79.2 1.27m-2.72-1.83c-.4 0-.73.1-.98.31-.26.21-.43.52-.5.94h2.83c-.04-.41-.18-.72-.42-.93-.24-.22-.55-.32-.93-.32"/><path d="m147.45 132.95c-.64 0-1.17-.13-1.59-.4-.42-.27-.68-.65-.78-1.16l1.17-.33c.07.31.22.53.43.68.21.15.47.22.78.22.25 0 .47-.05.64-.15s.26-.27.26-.5c0-.12-.03-.22-.09-.31-.06-.09-.15-.16-.28-.22s-.25-.11-.37-.15c-.11-.04-.28-.09-.49-.15-.21-.06-.39-.11-.51-.16-.16-.05-.3-.1-.42-.15-.12-.05-.24-.12-.37-.21-.13-.09-.23-.18-.31-.29-.08-.1-.15-.23-.2-.38-.05-.15-.08-.32-.08-.51 0-.54.2-.95.59-1.23.39-.28.9-.42 1.53-.42.57 0 1.05.12 1.44.36.39.24.63.61.72 1.11l-1.08.25c-.14-.52-.5-.79-1.08-.79-.24 0-.45.05-.61.15s-.25.25-.25.44c0 .06.01.11.02.15.01.05.04.09.07.13s.07.08.1.1c.03.03.08.06.14.09s.12.06.16.07.11.04.2.07c.09.03.16.04.21.06.05.01.13.03.23.06s.18.05.23.06c.21.06.38.11.53.16.15.05.31.12.48.22.18.1.32.2.43.32.11.12.2.27.27.45.08.18.11.39.11.62 0 .24-.04.46-.12.66s-.19.36-.33.49c-.14.13-.3.24-.49.33-.19.09-.39.15-.61.19-.21.05-.44.07-.68.07"/><path d="m158.57 132.16c-.56.53-1.28.79-2.16.79s-1.6-.26-2.16-.79-.83-1.24-.83-2.13c0-.89.28-1.59.83-2.12.55-.52 1.27-.79 2.16-.79s1.6.26 2.16.79c.55.52.83 1.23.83 2.12.01.9-.27 1.61-.83 2.13m-2.17-.32c.48 0 .88-.17 1.18-.5.3-.33.46-.77.46-1.31 0-.54-.15-.97-.46-1.3-.3-.33-.7-.5-1.18-.5-.47 0-.85.17-1.15.5-.3.33-.45.77-.45 1.3 0 .54.15.98.45 1.31.3.33.68.5 1.15.5"/><path d="m163.66 125.46c-.01 0-.02 0-.03 0-.11 0-.19 0-.24 0-.05 0-.13.01-.23.02-.1.01-.18.03-.23.05-.06.02-.12.06-.19.11-.07.05-.13.11-.16.18-.04.07-.07.16-.1.26-.03.11-.04.23-.04.37v.78h1.23v1.07h-1.23v4.53h-1.38v-4.53h-1.09v-1.07h1.09v-.79c0-.36.04-.66.13-.92.09-.26.2-.46.35-.61.14-.15.33-.27.57-.36.23-.09.47-.14.71-.17.24-.03.52-.04.86-.04v1.12z"/><path d="m170.04 132.94c-.86 0-1.56-.27-2.11-.81-.55-.54-.82-1.24-.82-2.11 0-.87.27-1.57.82-2.1.55-.53 1.25-.8 2.11-.8.69 0 1.27.17 1.75.52.48.35.79.84.93 1.47l-1.28.15c-.1-.34-.27-.6-.52-.78s-.55-.27-.9-.27c-.46 0-.83.17-1.12.5-.29.33-.43.77-.43 1.3 0 .54.14.98.43 1.31.29.33.66.49 1.12.49.35 0 .65-.09.9-.27s.42-.44.52-.78l1.28.16c-.14.63-.46 1.12-.94 1.47-.48.38-1.06.55-1.74.55"/><path d="m178.64 132.16c-.56.53-1.28.79-2.16.79s-1.6-.26-2.16-.79-.83-1.24-.83-2.13c0-.89.28-1.59.83-2.12.55-.52 1.27-.79 2.16-.79s1.6.26 2.16.79c.55.52.83 1.23.83 2.12 0 .9-.27 1.61-.83 2.13m-2.17-.32c.48 0 .88-.17 1.18-.5.3-.33.46-.77.46-1.31 0-.54-.15-.97-.46-1.3-.3-.33-.7-.5-1.18-.5-.47 0-.85.17-1.15.5-.3.33-.45.77-.45 1.3 0 .54.15.98.45 1.31.29.33.68.5 1.15.5"/><path d="m184.78 124.35h1.38v8.49h-1.31l-.04-.84c-.16.3-.41.54-.73.71s-.69.26-1.1.26c-.36 0-.71-.07-1.03-.2-.33-.14-.61-.33-.85-.57-.24-.25-.43-.55-.58-.92-.14-.37-.21-.77-.21-1.22 0-.44.07-.85.21-1.22.14-.37.33-.68.58-.92.24-.25.53-.44.85-.58.32-.14.67-.2 1.03-.2.39 0 .75.08 1.07.24.32.16.57.38.73.67v-3.7m-2.63 6.98c.3.32.68.48 1.14.48s.84-.17 1.14-.49c.3-.33.46-.75.46-1.27 0-.52-.15-.94-.46-1.27-.31-.33-.69-.49-1.14-.49-.46 0-.84.16-1.14.48-.3.32-.46.75-.46 1.28s.15.95.46 1.28"/><path d="m193.06 129.95l-.02.34h-4.22c.03.5.18.89.48 1.15.29.27.65.4 1.08.4.3 0 .57-.07.8-.22.23-.14.41-.35.53-.62l1.26.2c-.19.55-.51.97-.97 1.28-.46.31-1 .46-1.6.46-.89 0-1.6-.26-2.13-.77-.53-.52-.8-1.23-.8-2.13 0-.9.27-1.62.8-2.14.53-.52 1.23-.78 2.08-.78.39 0 .75.06 1.08.17.33.12.61.29.86.51.24.23.44.52.57.88.13.38.2.79.2 1.27m-2.71-1.83c-.4 0-.73.1-.98.31-.26.21-.43.52-.5.94h2.83c-.04-.41-.18-.72-.42-.93-.25-.22-.56-.32-.93-.32"/></g><g opacity=".6" fill="#fff"><path d="m11.53 156.92h1.05v.63h-1.05z"/><path d="m309.23 157.55h-2.09v-.63h2.09v.63m-4.18 0h-2.09v-.63h2.09v.63m-4.18 0h-2.09v-.63h2.09v.63m-4.17 0h-2.09v-.63h2.09v.63m-4.18 0h-2.09v-.63h2.09v.63m-4.18 0h-2.09v-.63h2.09v.63m-4.18 0h-2.09v-.63h2.09v.63m-4.18 0h-2.09v-.63h2.09v.63m-4.18 0h-2.09v-.63h2.09v.63m-4.17 0h-2.09v-.63h2.09v.63m-4.18 0h-2.09v-.63h2.09v.63m-4.18 0h-2.09v-.63h2.09v.63m-4.18 0h-2.09v-.63h2.09v.63m-4.18 0h-2.09v-.63h2.09v.63m-4.17 0h-2.09v-.63h2.09v.63m-4.18 0h-2.09v-.63h2.09v.63m-4.18 0h-2.09v-.63h2.09v.63m-4.18 0h-2.09v-.63h2.09v.63m-4.18 0h-2.09v-.63h2.09v.63m-4.18 0h-2.09v-.63h2.09v.63m-4.17 0h-2.09v-.63h2.09v.63m-4.18 0h-2.09v-.63h2.09v.63m-4.18 0h-2.09v-.63h2.09v.63m-4.18 0h-2.09v-.63h2.09v.63m-4.18 0h-2.09v-.63h2.09v.63m-4.17 0h-2.09v-.63h2.09v.63m-4.18 0h-2.09v-.63h2.09v.63m-4.18 0h-2.09v-.63h2.09v.63m-4.18 0h-2.09v-.63h2.09v.63m-4.18 0h-2.09v-.63h2.09v.63m-4.17 0h-2.09v-.63h2.09v.63m-4.18 0h-2.09v-.63h2.09v.63m-4.18 0h-2.09v-.63h2.09v.63m-4.18 0h-2.09v-.63h2.09v.63m-4.18 0h-2.09v-.63h2.09v.63m-4.18 0h-2.09v-.63h2.09v.63m-4.17 0h-2.09v-.63h2.09v.63m-4.18 0h-2.09v-.63h2.09v.63m-4.18 0h-2.09v-.63h2.09v.63m-4.18 0h-2.09v-.63h2.09v.63m-4.18 0h-2.09v-.63h2.09v.63m-4.18 0h-2.09v-.63h2.09v.63m-4.17 0h-2.09v-.63h2.09v.63m-4.18 0h-2.09v-.63h2.09v.63m-4.18 0h-2.09v-.63h2.09v.63m-4.18 0h-2.09v-.63h2.09v.63m-4.18 0h-2.09v-.63h2.09v.63m-4.18 0h-2.09v-.63h2.09v.63m-4.17 0h-2.09v-.63h2.09v.63m-4.18 0h-2.09v-.63h2.09v.63m-4.18 0h-2.09v-.63h2.09v.63m-4.18 0h-2.09v-.63h2.09v.63m-4.18 0h-2.09v-.63h2.09v.63m-4.17 0h-2.09v-.63h2.09v.63m-4.18 0h-2.09v-.63h2.09v.63m-4.18 0h-2.09v-.63h2.09v.63m-4.18 0h-2.09v-.63h2.09v.63m-4.18 0h-2.09v-.63h2.09v.63m-4.17 0h-2.09v-.63h2.09v.63m-4.18 0h-2.09v-.63h2.09v.63m-4.18 0h-2.09v-.63h2.09v.63m-4.18 0h-2.09v-.63h2.09v.63m-4.18 0h-2.09v-.63h2.09v.63m-4.18 0h-2.09v-.63h2.09v.63m-4.17 0h-2.09v-.63h2.09v.63m-4.18 0h-2.09v-.63h2.09v.63m-4.18 0h-2.09v-.63h2.09v.63m-4.18 0h-2.09v-.63h2.09v.63m-4.18 0h-2.09v-.63h2.09v.63m-4.17 0h-2.09v-.63h2.09v.63m-4.18 0h-2.09v-.63h2.09v.63"/><path d="m311.32 156.92h1.05v.63h-1.05z"/></g><g fill="#fff"><g opacity=".6"><path d="m11.53 196.75h1.05v.63h-1.05z"/><path d="m309.23 197.38h-2.09v-.63h2.09v.63m-4.18 0h-2.09v-.63h2.09v.63m-4.18 0h-2.09v-.63h2.09v.63m-4.17 0h-2.09v-.63h2.09v.63m-4.18 0h-2.09v-.63h2.09v.63m-4.18 0h-2.09v-.63h2.09v.63m-4.18 0h-2.09v-.63h2.09v.63m-4.18 0h-2.09v-.63h2.09v.63m-4.18 0h-2.09v-.63h2.09v.63m-4.17 0h-2.09v-.63h2.09v.63m-4.18 0h-2.09v-.63h2.09v.63m-4.18 0h-2.09v-.63h2.09v.63m-4.18 0h-2.09v-.63h2.09v.63m-4.18 0h-2.09v-.63h2.09v.63m-4.17 0h-2.09v-.63h2.09v.63m-4.18 0h-2.09v-.63h2.09v.63m-4.18 0h-2.09v-.63h2.09v.63m-4.18 0h-2.09v-.63h2.09v.63m-4.18 0h-2.09v-.63h2.09v.63m-4.18 0h-2.09v-.63h2.09v.63m-4.17 0h-2.09v-.63h2.09v.63m-4.18 0h-2.09v-.63h2.09v.63m-4.18 0h-2.09v-.63h2.09v.63m-4.18 0h-2.09v-.63h2.09v.63m-4.18 0h-2.09v-.63h2.09v.63m-4.17 0h-2.09v-.63h2.09v.63m-4.18 0h-2.09v-.63h2.09v.63m-4.18 0h-2.09v-.63h2.09v.63m-4.18 0h-2.09v-.63h2.09v.63m-4.18 0h-2.09v-.63h2.09v.63m-4.17 0h-2.09v-.63h2.09v.63m-4.18 0h-2.09v-.63h2.09v.63m-4.18 0h-2.09v-.63h2.09v.63m-4.18 0h-2.09v-.63h2.09v.63m-4.18 0h-2.09v-.63h2.09v.63m-4.18 0h-2.09v-.63h2.09v.63m-4.17 0h-2.09v-.63h2.09v.63m-4.18 0h-2.09v-.63h2.09v.63m-4.18 0h-2.09v-.63h2.09v.63m-4.18 0h-2.09v-.63h2.09v.63m-4.18 0h-2.09v-.63h2.09v.63m-4.18 0h-2.09v-.63h2.09v.63m-4.17 0h-2.09v-.63h2.09v.63m-4.18 0h-2.09v-.63h2.09v.63m-4.18 0h-2.09v-.63h2.09v.63m-4.18 0h-2.09v-.63h2.09v.63m-4.18 0h-2.09v-.63h2.09v.63m-4.18 0h-2.09v-.63h2.09v.63m-4.17 0h-2.09v-.63h2.09v.63m-4.18 0h-2.09v-.63h2.09v.63m-4.18 0h-2.09v-.63h2.09v.63m-4.18 0h-2.09v-.63h2.09v.63m-4.18 0h-2.09v-.63h2.09v.63m-4.17 0h-2.09v-.63h2.09v.63m-4.18 0h-2.09v-.63h2.09v.63m-4.18 0h-2.09v-.63h2.09v.63m-4.18 0h-2.09v-.63h2.09v.63m-4.18 0h-2.09v-.63h2.09v.63m-4.17 0h-2.09v-.63h2.09v.63m-4.18 0h-2.09v-.63h2.09v.63m-4.18 0h-2.09v-.63h2.09v.63m-4.18 0h-2.09v-.63h2.09v.63m-4.18 0h-2.09v-.63h2.09v.63m-4.18 0h-2.09v-.63h2.09v.63m-4.17 0h-2.09v-.63h2.09v.63m-4.18 0h-2.09v-.63h2.09v.63m-4.18 0h-2.09v-.63h2.09v.63m-4.18 0h-2.09v-.63h2.09v.63m-4.18 0h-2.09v-.63h2.09v.63m-4.17 0h-2.09v-.63h2.09v.63m-4.18 0h-2.09v-.63h2.09v.63"/><path d="m311.32 196.75h1.05v.63h-1.05z"/></g><g opacity=".6"><path d="m11.53 236.58h1.05v.63h-1.05z"/><path d="m309.23 237.21h-2.09v-.63h2.09v.63m-4.18 0h-2.09v-.63h2.09v.63m-4.18 0h-2.09v-.63h2.09v.63m-4.17 0h-2.09v-.63h2.09v.63m-4.18 0h-2.09v-.63h2.09v.63m-4.18 0h-2.09v-.63h2.09v.63m-4.18 0h-2.09v-.63h2.09v.63m-4.18 0h-2.09v-.63h2.09v.63m-4.18 0h-2.09v-.63h2.09v.63m-4.17 0h-2.09v-.63h2.09v.63m-4.18 0h-2.09v-.63h2.09v.63m-4.18 0h-2.09v-.63h2.09v.63m-4.18 0h-2.09v-.63h2.09v.63m-4.18 0h-2.09v-.63h2.09v.63m-4.17 0h-2.09v-.63h2.09v.63m-4.18 0h-2.09v-.63h2.09v.63m-4.18 0h-2.09v-.63h2.09v.63m-4.18 0h-2.09v-.63h2.09v.63m-4.18 0h-2.09v-.63h2.09v.63m-4.18 0h-2.09v-.63h2.09v.63m-4.17 0h-2.09v-.63h2.09v.63m-4.18 0h-2.09v-.63h2.09v.63m-4.18 0h-2.09v-.63h2.09v.63m-4.18 0h-2.09v-.63h2.09v.63m-4.18 0h-2.09v-.63h2.09v.63m-4.17 0h-2.09v-.63h2.09v.63m-4.18 0h-2.09v-.63h2.09v.63m-4.18 0h-2.09v-.63h2.09v.63m-4.18 0h-2.09v-.63h2.09v.63m-4.18 0h-2.09v-.63h2.09v.63m-4.17 0h-2.09v-.63h2.09v.63m-4.18 0h-2.09v-.63h2.09v.63m-4.18 0h-2.09v-.63h2.09v.63m-4.18 0h-2.09v-.63h2.09v.63m-4.18 0h-2.09v-.63h2.09v.63m-4.18 0h-2.09v-.63h2.09v.63m-4.17 0h-2.09v-.63h2.09v.63m-4.18 0h-2.09v-.63h2.09v.63m-4.18 0h-2.09v-.63h2.09v.63m-4.18 0h-2.09v-.63h2.09v.63m-4.18 0h-2.09v-.63h2.09v.63m-4.18 0h-2.09v-.63h2.09v.63m-4.17 0h-2.09v-.63h2.09v.63m-4.18 0h-2.09v-.63h2.09v.63m-4.18 0h-2.09v-.63h2.09v.63m-4.18 0h-2.09v-.63h2.09v.63m-4.18 0h-2.09v-.63h2.09v.63m-4.18 0h-2.09v-.63h2.09v.63m-4.17 0h-2.09v-.63h2.09v.63m-4.18 0h-2.09v-.63h2.09v.63m-4.18 0h-2.09v-.63h2.09v.63m-4.18 0h-2.09v-.63h2.09v.63m-4.18 0h-2.09v-.63h2.09v.63m-4.17 0h-2.09v-.63h2.09v.63m-4.18 0h-2.09v-.63h2.09v.63m-4.18 0h-2.09v-.63h2.09v.63m-4.18 0h-2.09v-.63h2.09v.63m-4.18 0h-2.09v-.63h2.09v.63m-4.17 0h-2.09v-.63h2.09v.63m-4.18 0h-2.09v-.63h2.09v.63m-4.18 0h-2.09v-.63h2.09v.63m-4.18 0h-2.09v-.63h2.09v.63m-4.18 0h-2.09v-.63h2.09v.63m-4.18 0h-2.09v-.63h2.09v.63m-4.17 0h-2.09v-.63h2.09v.63m-4.18 0h-2.09v-.63h2.09v.63m-4.18 0h-2.09v-.63h2.09v.63m-4.18 0h-2.09v-.63h2.09v.63m-4.18 0h-2.09v-.63h2.09v.63m-4.17 0h-2.09v-.63h2.09v.63m-4.18 0h-2.09v-.63h2.09v.63"/><path d="m311.32 236.58h1.05v.63h-1.05z"/></g><g opacity=".6"><path d="m11.53 276.41h1.05v.63h-1.05z"/><path d="m309.23 277.04h-2.09v-.63h2.09v.63m-4.18 0h-2.09v-.63h2.09v.63m-4.18 0h-2.09v-.63h2.09v.63m-4.17 0h-2.09v-.63h2.09v.63m-4.18 0h-2.09v-.63h2.09v.63m-4.18 0h-2.09v-.63h2.09v.63m-4.18 0h-2.09v-.63h2.09v.63m-4.18 0h-2.09v-.63h2.09v.63m-4.18 0h-2.09v-.63h2.09v.63m-4.17 0h-2.09v-.63h2.09v.63m-4.18 0h-2.09v-.63h2.09v.63m-4.18 0h-2.09v-.63h2.09v.63m-4.18 0h-2.09v-.63h2.09v.63m-4.18 0h-2.09v-.63h2.09v.63m-4.17 0h-2.09v-.63h2.09v.63m-4.18 0h-2.09v-.63h2.09v.63m-4.18 0h-2.09v-.63h2.09v.63m-4.18 0h-2.09v-.63h2.09v.63m-4.18 0h-2.09v-.63h2.09v.63m-4.18 0h-2.09v-.63h2.09v.63m-4.17 0h-2.09v-.63h2.09v.63m-4.18 0h-2.09v-.63h2.09v.63m-4.18 0h-2.09v-.63h2.09v.63m-4.18 0h-2.09v-.63h2.09v.63m-4.18 0h-2.09v-.63h2.09v.63m-4.17 0h-2.09v-.63h2.09v.63m-4.18 0h-2.09v-.63h2.09v.63m-4.18 0h-2.09v-.63h2.09v.63m-4.18 0h-2.09v-.63h2.09v.63m-4.18 0h-2.09v-.63h2.09v.63m-4.17 0h-2.09v-.63h2.09v.63m-4.18 0h-2.09v-.63h2.09v.63m-4.18 0h-2.09v-.63h2.09v.63m-4.18 0h-2.09v-.63h2.09v.63m-4.18 0h-2.09v-.63h2.09v.63m-4.18 0h-2.09v-.63h2.09v.63m-4.17 0h-2.09v-.63h2.09v.63m-4.18 0h-2.09v-.63h2.09v.63m-4.18 0h-2.09v-.63h2.09v.63m-4.18 0h-2.09v-.63h2.09v.63m-4.18 0h-2.09v-.63h2.09v.63m-4.18 0h-2.09v-.63h2.09v.63m-4.17 0h-2.09v-.63h2.09v.63m-4.18 0h-2.09v-.63h2.09v.63m-4.18 0h-2.09v-.63h2.09v.63m-4.18 0h-2.09v-.63h2.09v.63m-4.18 0h-2.09v-.63h2.09v.63m-4.18 0h-2.09v-.63h2.09v.63m-4.17 0h-2.09v-.63h2.09v.63m-4.18 0h-2.09v-.63h2.09v.63m-4.18 0h-2.09v-.63h2.09v.63m-4.18 0h-2.09v-.63h2.09v.63m-4.18 0h-2.09v-.63h2.09v.63m-4.17 0h-2.09v-.63h2.09v.63m-4.18 0h-2.09v-.63h2.09v.63m-4.18 0h-2.09v-.63h2.09v.63m-4.18 0h-2.09v-.63h2.09v.63m-4.18 0h-2.09v-.63h2.09v.63m-4.17 0h-2.09v-.63h2.09v.63m-4.18 0h-2.09v-.63h2.09v.63m-4.18 0h-2.09v-.63h2.09v.63m-4.18 0h-2.09v-.63h2.09v.63m-4.18 0h-2.09v-.63h2.09v.63m-4.18 0h-2.09v-.63h2.09v.63m-4.17 0h-2.09v-.63h2.09v.63m-4.18 0h-2.09v-.63h2.09v.63m-4.18 0h-2.09v-.63h2.09v.63m-4.18 0h-2.09v-.63h2.09v.63m-4.18 0h-2.09v-.63h2.09v.63m-4.17 0h-2.09v-.63h2.09v.63m-4.18 0h-2.09v-.63h2.09v.63"/><path d="m311.32 276.41h1.05v.63h-1.05z"/></g><path d="m47.17 267.29c-.22 0-.45-.07-.64-.22l-35.64-27.25c-.46-.35-.55-1.01-.2-1.47.35-.46 1.01-.55 1.47-.2l34.84 26.65 32.9-39.07c.2-.23.49-.37.79-.37.28-.01.6.12.8.35l15.76 17.73 22.36-42.68c.17-.32.5-.54.86-.56.36-.02.71.14.93.44l44.87 63.22 14.07-48.23c.12-.43.51-.73.95-.75.44-.03.86.24 1.02.65l13.76 33.42 24.15-52.33c.15-.33.46-.55.82-.6.34-.04.71.1.94.37l28.56 34.68 64.18-74.53c.38-.44 1.04-.49 1.48-.11.44.38.49 1.04.11 1.48l-64.99 75.47c-.2.24-.47.37-.81.36-.31 0-.6-.14-.8-.38l-28.29-34.35-24.46 52.99c-.18.38-.58.59-.97.61-.42-.01-.79-.26-.95-.65l-13.54-32.87-13.84 47.44c-.11.39-.44.67-.83.74-.4.06-.8-.1-1.03-.43l-45.13-63.59-22.27 42.51c-.16.31-.46.51-.8.55-.32.04-.68-.09-.91-.34l-15.97-17.96-32.76 38.91c-.2.25-.49.37-.79.37"/></g><g fill="#8719cb"><circle cx="11.53" cy="238.99" r="4.19"/><circle cx="47.17" cy="266.25" r="4.19"/><circle cx="80.71" cy="226.41" r="4.19"/><circle cx="97.48" cy="245.28" r="4.19"/><circle cx="120.54" cy="201.26" r="4.19"/><circle cx="166.67" cy="266.25" r="4.19"/><circle cx="181.34" cy="215.93" r="4.19"/><circle cx="196.02" cy="251.57" r="4.19"/><circle cx="221.17" cy="197.06" r="4.19"/><circle cx="315.51" cy="157.23" r="4.19"/><circle cx="250.52" cy="232.7" r="4.19"/></g><path d="m11.53 261c-.47 0-.9-.32-1.02-.79-.14-.56.2-1.13.76-1.27l50.31-12.58c.29-.07.59-.02.84.14l18.2 12.13 16.17-14.15c.12-.1.26-.18.41-.22l45.74-12.48 20.75-31.12c.17-.25.43-.42.73-.46.3-.04.6.05.83.25l16.64 14.56 24.54 10.22 26.81-14.44c.15-.08.32-.12.5-.12h33.21l47.95-33.36c.47-.33 1.13-.21 1.46.26.33.47.21 1.13-.26 1.46l-48.22 33.54c-.17.12-.38.19-.6.19h-33.28l-27 14.58c-.28.15-.61.17-.9.04l-25.16-10.48c-.1-.04-.2-.1-.29-.18l-15.87-13.89-20.3 30.45c-.14.21-.35.36-.6.43l-45.89 12.52-16.59 14.52c-.36.31-.88.34-1.27.08l-18.48-12.32-49.86 12.47c-.09.01-.18.02-.26.02" fill="#fff"/><g fill="#8719cb"><circle cx="11.53" cy="259.96" r="4.19"/><circle cx="61.84" cy="247.38" r="4.19"/><circle cx="80.71" cy="259.96" r="4.19"/><circle cx="97.48" cy="245.28" r="4.19"/><circle cx="143.6" cy="232.7" r="4.19"/><circle cx="164.57" cy="201.26" r="4.19"/><circle cx="181.34" cy="215.93" r="4.19"/><circle cx="206.5" cy="226.41" r="4.19"/><circle cx="233.75" cy="211.74" r="4.19"/><circle cx="315.51" cy="178.2" r="4.19"/><circle cx="267.29" cy="211.74" r="4.19"/></g></svg>