<svg width="45" height="45" viewBox="0 0 45 45" xmlns="http://www.w3.org/2000/svg"><title>Hire</title><g fill="none" fill-rule="evenodd"><circle fill="#4F5D73" cx="22.5" cy="22.5" r="22.5"/><path d="M29.531 16.063V13.25H15.47v2.813h-4.22v2.812a4.218 4.218 0 0 0 5.484 4.025 7.032 7.032 0 0 0 4.36 2.864v4.36h-1.407a2.812 2.812 0 0 0-2.812 2.812h11.25a2.812 2.812 0 0 0-2.813-2.812h-1.406v-4.36a7.036 7.036 0 0 0 4.36-2.864 4.218 4.218 0 0 0 5.484-4.025v-2.813h-4.219zM15.47 21.425a2.553 2.553 0 0 1-2.55-2.55v-1.406h2.55v1.406c0 .883.163 1.728.46 2.506-.15.027-.304.042-.46.042v.002zm16.612-2.55a2.553 2.553 0 0 1-3.01 2.507c.297-.779.46-1.622.46-2.506V17.47h2.55v1.406-.001z" fill="#FFF"/></g></svg>