<svg width="78" height="78" viewBox="0 0 78 78" xmlns="http://www.w3.org/2000/svg"><title>Oval 19 Copy 2 + trophy</title><g fill="none" fill-rule="evenodd"><circle fill="#506079" cx="39" cy="39" r="39"/><path d="M50.438 28.375V24H28.561v4.375H22v4.375a6.562 6.562 0 0 0 8.531 6.26 10.939 10.939 0 0 0 6.782 4.457v6.78h-2.188a4.374 4.374 0 0 0-4.375 4.376h17.5a4.374 4.374 0 0 0-4.375-4.375h-2.188v-6.781a10.944 10.944 0 0 0 6.782-4.456A6.562 6.562 0 0 0 57 32.75v-4.376h-6.563zm-21.876 8.34a3.971 3.971 0 0 1-3.965-3.965v-2.188h3.965v2.188c0 1.374.254 2.688.716 3.898a4.065 4.065 0 0 1-.715.066v.002zm25.841-3.965a3.971 3.971 0 0 1-4.68 3.9c.46-1.212.715-2.524.715-3.898v-2.187h3.965v2.187-.002z" fill="#FFF"/></g></svg>