<?xml version="1.0" encoding="utf-8"?>
<!-- Generator: Adobe Illustrator 23.0.3, SVG Export Plug-In . SVG Version: 6.00 Build 0)  -->
<svg version="1.1" id="Layer_1" xmlns="http://www.w3.org/2000/svg" xmlns:xlink="http://www.w3.org/1999/xlink" x="0px" y="0px"
	 viewBox="0 0 716.25 1482.27" style="enable-background:new 0 0 716.25 1482.27;" xml:space="preserve">
<style type="text/css">
	.st0{fill:none;stroke:#CCCCCC;stroke-linecap:round;stroke-linejoin:round;stroke-dasharray:8,6;}
	.st1{fill:#A5A5A5;}
	.st2{fill:none;stroke:#A5A5A5;stroke-miterlimit:10;}
	.st3{fill:url(#SVGID_1_);}
	.st4{fill:url(#SVGID_2_);}
	.st5{fill:#FFFFFF;}
	.st6{fill:url(#SVGID_3_);}
	.st7{fill:url(#SVGID_4_);}
	.st8{opacity:0.8;fill:#FFFFFF;}
	.st9{fill:url(#SVGID_5_);}
	.st10{fill:url(#SVGID_6_);}
	.st11{fill:url(#SVGID_7_);}
	.st12{fill:url(#SVGID_8_);}
	.st13{fill-rule:evenodd;clip-rule:evenodd;fill:#FFFFFF;}
	.st14{fill-rule:evenodd;clip-rule:evenodd;fill:#A5A5A5;}
	.st15{fill:#00B491;}
	.st16{font-family:'CerebriSans-SemiBold';}
	.st17{font-size:40px;}
	.st18{fill:url(#SVGID_9_);}
	.st19{font-size:19.9647px;}
	.st20{opacity:0.5;}
	.st21{fill:url(#SVGID_10_);}
	.st22{fill:url(#SVGID_11_);}
	.st23{font-size:15.4626px;}
	.st24{fill:none;stroke:#F4F4F4;stroke-width:3;stroke-miterlimit:10;}
	.st25{fill:url(#SVGID_12_);}
	.st26{fill:url(#SVGID_13_);}
	.st27{fill:#8719CB;}
	.st28{fill:#400D9A;}
	.st29{fill:url(#SVGID_14_);}
	.st30{fill:none;stroke:#0174B0;stroke-miterlimit:10;stroke-dasharray:5,5;}
	.st31{fill:none;stroke:#FFFFFF;stroke-miterlimit:10;}
	.st32{fill:#F89C30;}
	.st33{fill:url(#SVGID_15_);}
	.st34{fill:#E5E5E5;}
	.st35{fill:url(#SVGID_16_);}
	.st36{fill:url(#SVGID_17_);}
	.st37{fill:url(#SVGID_18_);}
	.st38{fill:url(#SVGID_19_);}
	.st39{fill:url(#SVGID_20_);}
	.st40{fill:url(#SVGID_21_);}
	.st41{fill:none;stroke:#F15F5F;stroke-miterlimit:10;stroke-dasharray:5,5;}
	.st42{fill:url(#SVGID_22_);}
	.st43{opacity:0.6;}
</style>
<path class="st0" d="M715.75,743.73H0.5"/>
<polygon class="st1" points="32.52,1026.83 41.32,1035.63 32.52,1043.83 32.52,1035.33 "/>
<polyline class="st2" points="40.82,250.7 14.09,250.7 14.09,1035.24 35.02,1035.24 "/>
<polygon class="st1" points="675.89,1238.83 667.09,1247.63 675.89,1255.83 675.89,1247.33 "/>
<polyline class="st2" points="670.59,462.7 697.32,462.7 697.32,1247.24 673.39,1247.24 "/>
<g>
	
		<linearGradient id="SVGID_1_" gradientUnits="userSpaceOnUse" x1="542.6317" y1="57.2609" x2="658.9982" y2="57.2609" gradientTransform="matrix(1 0 0 1 0 79.9979)">
		<stop  offset="0" style="stop-color:#8719CB"/>
		<stop  offset="0.2218" style="stop-color:#8218C8"/>
		<stop  offset="0.4725" style="stop-color:#7516BE"/>
		<stop  offset="0.7364" style="stop-color:#5E12AF"/>
		<stop  offset="1" style="stop-color:#400D9A"/>
	</linearGradient>
	<path class="st3" d="M542.63,109.74v41.65c0,7.39,26.05,13.39,58.18,13.39c32.13,0,58.18-5.99,58.18-13.39v-41.65H542.63z"/>
	
		<linearGradient id="SVGID_2_" gradientUnits="userSpaceOnUse" x1="542.6317" y1="29.7415" x2="658.9982" y2="29.7415" gradientTransform="matrix(1 0 0 1 0 79.9979)">
		<stop  offset="0" style="stop-color:#400D9A"/>
		<stop  offset="0.2238" style="stop-color:#5811AB"/>
		<stop  offset="0.5199" style="stop-color:#7215BC"/>
		<stop  offset="0.7877" style="stop-color:#8218C7"/>
		<stop  offset="1" style="stop-color:#8719CB"/>
	</linearGradient>
	<ellipse class="st4" cx="600.81" cy="109.74" rx="58.18" ry="13.39"/>
	<g>
		<path class="st5" d="M607.87,137.13c-1.04,0-1.88,0.84-1.88,1.88c0,0.24,0.05,0.47,0.13,0.69l-3.86,2.8
			c-0.24-0.2-0.53-0.34-0.84-0.4v-4.29c0.87-0.16,1.53-0.93,1.53-1.84c0-1.04-0.84-1.88-1.88-1.88s-1.88,0.84-1.88,1.88
			c0,0.83,0.54,1.54,1.29,1.78v4.41c-0.75,0.25-1.29,0.95-1.29,1.78c0,0.83,0.54,1.54,1.29,1.78v4.41
			c-0.75,0.25-1.29,0.95-1.29,1.78c0,1.04,0.84,1.88,1.88,1.88s1.88-0.84,1.88-1.88c0-0.92-0.66-1.68-1.53-1.84v-4.29
			c0.87-0.16,1.53-0.93,1.53-1.84c0-0.24-0.05-0.47-0.13-0.69l3.86-2.8c0.33,0.27,0.74,0.43,1.2,0.43c1.04,0,1.88-0.84,1.88-1.88
			C609.75,137.97,608.91,137.13,607.87,137.13z"/>
		<path class="st5" d="M595.11,134.01l-2.82-0.41c-0.26-0.04-0.47,0.14-0.47,0.4v8.45l-1.76-0.26c-0.26-0.04-0.47,0.14-0.47,0.4
			v1.99c0,0.26,0.21,0.5,0.47,0.54l1.64,0.24v8.21c0,0.26,0.21,0.5,0.47,0.54l2.35,0.35c0.26,0.04,0.47-0.14,0.47-0.4
			s-0.21-0.5-0.47-0.54l-1.88-0.28v-8.21c0-0.26-0.21-0.5-0.47-0.54l-1.64-0.24v-1.06l1.76,0.26c0.26,0.04,0.47-0.14,0.47-0.4v-8.45
			l2.35,0.35c0.26,0.04,0.47-0.14,0.47-0.4C595.58,134.29,595.37,134.05,595.11,134.01z"/>
		<path class="st5" d="M610.13,134.01l2.82-0.41c0.26-0.04,0.47,0.14,0.47,0.4v8.45l1.76-0.26c0.26-0.04,0.47,0.14,0.47,0.4v1.99
			c0,0.26-0.21,0.5-0.47,0.54l-1.64,0.24v8.21c0,0.26-0.21,0.5-0.47,0.54l-2.35,0.35c-0.26,0.04-0.47-0.14-0.47-0.4
			s0.21-0.5,0.47-0.54l1.88-0.28v-8.21c0-0.26,0.21-0.5,0.47-0.54l1.64-0.24v-1.06l-1.76,0.26c-0.26,0.04-0.47-0.14-0.47-0.4v-8.45
			l-2.35,0.35c-0.26,0.04-0.47-0.14-0.47-0.4C609.66,134.29,609.87,134.05,610.13,134.01z"/>
	</g>
</g>
<g>
	
		<linearGradient id="SVGID_3_" gradientUnits="userSpaceOnUse" x1="379.5877" y1="57.2609" x2="495.9542" y2="57.2609" gradientTransform="matrix(1 0 0 1 0 79.9979)">
		<stop  offset="0" style="stop-color:#8719CB"/>
		<stop  offset="0.2218" style="stop-color:#8218C8"/>
		<stop  offset="0.4725" style="stop-color:#7516BE"/>
		<stop  offset="0.7364" style="stop-color:#5E12AF"/>
		<stop  offset="1" style="stop-color:#400D9A"/>
	</linearGradient>
	<path class="st6" d="M379.59,109.74v41.65c0,7.39,26.05,13.39,58.18,13.39s58.18-5.99,58.18-13.39v-41.65H379.59z"/>
	
		<linearGradient id="SVGID_4_" gradientUnits="userSpaceOnUse" x1="379.5877" y1="29.7415" x2="495.9542" y2="29.7415" gradientTransform="matrix(1 0 0 1 0 79.9979)">
		<stop  offset="0" style="stop-color:#400D9A"/>
		<stop  offset="0.2238" style="stop-color:#5811AB"/>
		<stop  offset="0.5199" style="stop-color:#7215BC"/>
		<stop  offset="0.7877" style="stop-color:#8218C7"/>
		<stop  offset="1" style="stop-color:#8719CB"/>
	</linearGradient>
	<ellipse class="st7" cx="437.77" cy="109.74" rx="58.18" ry="13.39"/>
	<g>
		<g id="Blue_1_">
			<path class="st8" d="M428.88,134.49c-0.39-0.01-0.72,0.31-0.72,0.7c0,0.04,0,0.08,0.01,0.12l3.03,18.39
				c0.08,0.46,0.48,0.81,0.95,0.81h14.53c0.35,0,0.66-0.25,0.71-0.6l3.03-18.59c0.06-0.39-0.2-0.76-0.59-0.82
				c-0.04-0.01-0.08-0.01-0.12-0.01L428.88,134.49z M441.63,147.78h-4.64l-1.26-6.56h7.02L441.63,147.78z"/>
			<path class="st5" d="M449.45,141.22h-6.7l-1.12,6.56h-4.64l-5.48,6.5c0.17,0.15,0.39,0.23,0.62,0.24h14.53
				c0.35,0,0.66-0.25,0.71-0.6L449.45,141.22z"/>
		</g>
	</g>
</g>
<g>
	
		<linearGradient id="SVGID_5_" gradientUnits="userSpaceOnUse" x1="216.5437" y1="57.2609" x2="332.9102" y2="57.2609" gradientTransform="matrix(1 0 0 1 0 79.9979)">
		<stop  offset="0" style="stop-color:#8719CB"/>
		<stop  offset="0.2218" style="stop-color:#8218C8"/>
		<stop  offset="0.4725" style="stop-color:#7516BE"/>
		<stop  offset="0.7364" style="stop-color:#5E12AF"/>
		<stop  offset="1" style="stop-color:#400D9A"/>
	</linearGradient>
	<path class="st9" d="M216.54,109.74v41.65c0,7.39,26.05,13.39,58.18,13.39s58.18-5.99,58.18-13.39v-41.65H216.54z"/>
	
		<linearGradient id="SVGID_6_" gradientUnits="userSpaceOnUse" x1="216.5437" y1="29.7415" x2="332.9102" y2="29.7415" gradientTransform="matrix(1 0 0 1 0 79.9979)">
		<stop  offset="0" style="stop-color:#400D9A"/>
		<stop  offset="0.2238" style="stop-color:#5811AB"/>
		<stop  offset="0.5199" style="stop-color:#7215BC"/>
		<stop  offset="0.7877" style="stop-color:#8218C7"/>
		<stop  offset="1" style="stop-color:#8719CB"/>
	</linearGradient>
	<ellipse class="st10" cx="274.73" cy="109.74" rx="58.18" ry="13.39"/>
	<path class="st5" d="M287.47,144.93l-1.28-3.94c-0.01-0.04-0.02-0.07-0.03-0.11l-2.58-7.93c-0.14-0.42-0.54-0.7-0.98-0.7
		c-0.44,0-0.83,0.28-0.97,0.7l-2.46,7.56h-7.75l-2.46-7.56c-0.13-0.42-0.52-0.7-0.96-0.7H268c-0.44,0-0.84,0.28-0.97,0.7l-2.58,7.94
		c0,0.01-0.01,0.01-0.01,0.02l-1.31,4.02c-0.2,0.6,0.02,1.27,0.53,1.64l11.29,8.21c0.2,0.15,0.48,0.15,0.68,0l11.29-8.2
		C287.45,146.2,287.66,145.54,287.47,144.93 M270.59,141.67l3.15,9.69l-7.56-9.69 M276.87,151.36l3.02-9.29l0.13-0.4h4.41
		l-6.84,8.76 M282.61,133.7l2.21,6.81h-4.43 M278.8,141.67l-2.19,6.75l-1.31,4.02l-3.5-10.77 M268,133.7l2.22,6.81h-4.42
		 M264.35,145.64c-0.11-0.08-0.15-0.22-0.11-0.35l0.97-2.98l7.12,9.13 M286.26,145.64l-7.98,5.79l0.03-0.03l7.09-9.09l0.97,2.98
		C286.41,145.42,286.37,145.56,286.26,145.64"/>
</g>
<g>
	
		<linearGradient id="SVGID_7_" gradientUnits="userSpaceOnUse" x1="53.4997" y1="57.2609" x2="169.8662" y2="57.2609" gradientTransform="matrix(1 0 0 1 0 79.9979)">
		<stop  offset="0" style="stop-color:#8719CB"/>
		<stop  offset="0.2218" style="stop-color:#8218C8"/>
		<stop  offset="0.4725" style="stop-color:#7516BE"/>
		<stop  offset="0.7364" style="stop-color:#5E12AF"/>
		<stop  offset="1" style="stop-color:#400D9A"/>
	</linearGradient>
	<path class="st11" d="M53.5,109.74v41.65c0,7.39,26.05,13.39,58.18,13.39s58.18-5.99,58.18-13.39v-41.65H53.5z"/>
	
		<linearGradient id="SVGID_8_" gradientUnits="userSpaceOnUse" x1="53.4997" y1="29.7415" x2="169.8662" y2="29.7415" gradientTransform="matrix(1 0 0 1 0 79.9979)">
		<stop  offset="0" style="stop-color:#400D9A"/>
		<stop  offset="0.2238" style="stop-color:#5811AB"/>
		<stop  offset="0.5199" style="stop-color:#7215BC"/>
		<stop  offset="0.7877" style="stop-color:#8218C7"/>
		<stop  offset="1" style="stop-color:#8719CB"/>
	</linearGradient>
	<ellipse class="st12" cx="111.68" cy="109.74" rx="58.18" ry="13.39"/>
	<g>
		<path class="st13" d="M111.86,134.41c-5.99,0-10.84,4.85-10.84,10.84c0,4.79,3.11,8.85,7.41,10.29c0.54,0.1,0.74-0.24,0.74-0.52
			c0-0.26-0.01-0.94-0.01-1.84c-3.02,0.66-3.65-1.45-3.65-1.45c-0.49-1.25-1.2-1.59-1.2-1.59c-0.98-0.67,0.07-0.66,0.07-0.66
			c1.09,0.08,1.66,1.12,1.66,1.12c0.97,1.66,2.54,1.18,3.15,0.9c0.1-0.7,0.38-1.18,0.69-1.45c-2.41-0.27-4.94-1.2-4.94-5.36
			c0-1.18,0.42-2.15,1.12-2.91c-0.11-0.27-0.48-1.38,0.11-2.87c0,0,0.91-0.29,2.98,1.11c0.86-0.24,1.79-0.36,2.71-0.36
			c0.92,0,1.85,0.12,2.71,0.36c2.07-1.4,2.98-1.11,2.98-1.11c0.59,1.49,0.22,2.59,0.11,2.87c0.69,0.76,1.11,1.73,1.11,2.91
			c0,4.16-2.53,5.08-4.95,5.35c0.39,0.33,0.74,1,0.74,2.01c0,1.45-0.01,2.62-0.01,2.97c0,0.29,0.2,0.63,0.75,0.52
			c4.3-1.44,7.41-5.5,7.41-10.28C122.7,139.27,117.85,134.41,111.86,134.41z"/>
	</g>
</g>
<g>
	<path class="st1" d="M460.71,693.22v-12.33h-1.87v12.4c0,2.92,1.84,4.51,4.53,4.19v-1.78
		C461.95,695.76,460.71,695.25,460.71,693.22L460.71,693.22z M468.97,695.94c-2.11,0-3.84-1.87-3.84-4.17
		c0-2.34,1.74-4.26,3.84-4.26c2.13,0,3.86,1.92,3.86,4.26C472.83,694.07,471.1,695.94,468.97,695.94L468.97,695.94z M468.97,685.7
		c-3.24,0-5.75,2.72-5.75,6.07c0,3.3,2.51,6,5.75,6c3.26,0,5.75-2.7,5.75-6C474.72,688.42,472.23,685.7,468.97,685.7L468.97,685.7z
		 M497.52,685.99h-2.77l-5.22,5.15v-10.26h-1.89v16.59h1.89v-3.7l2.2-2.14l3.91,5.84h2.29l-4.82-7.18L497.52,685.99L497.52,685.99z
		 M498.63,690.54c0.49-1.96,2.15-3.12,3.73-3.12c1.66,0,3.22,1.25,3.69,3.12H498.63L498.63,690.54L498.63,690.54z M502.37,685.7
		c-3.18,0-5.75,2.72-5.75,6.04c0,3.37,2.57,6,5.86,6c2.64,0,4.6-1.38,5.4-3.83h-2c-0.62,1.34-1.77,2.12-3.4,2.12
		c-1.88,0-3.71-1.41-3.95-3.79h9.61C508.16,688.16,505.32,685.7,502.37,685.7L502.37,685.7z M510.94,687.29V686h-1.82v11.48H511
		v-6.65c0-2.3,1.69-3.34,3.66-3.23v-1.87C513.36,685.57,511.8,686.06,510.94,687.29L510.94,687.29z"/>
	<path class="st1" d="M481,685.7c-0.85,0-1.64,0.19-2.35,0.52l1.21,1.48c0.36-0.13,0.75-0.2,1.14-0.2c2.13,0,3.86,1.92,3.86,4.26
		c0,2.3-1.74,4.17-3.86,4.17c-2.11,0-3.84-1.87-3.84-4.17c0-1.41,0.63-2.65,1.58-3.43l-1.18-1.44c-1.41,1.11-2.31,2.88-2.31,4.88
		c0,3.3,2.51,6,5.75,6c3.26,0,5.75-2.7,5.75-6C486.75,688.42,484.27,685.7,481,685.7L481,685.7z M477.82,683.59
		c0,0.47-0.2,0.9-0.52,1.2l0.82,1.01c0.61-0.54,0.99-1.33,0.99-2.21c0-0.65-0.21-1.25-0.56-1.73l-0.99,0.85
		C477.73,682.97,477.82,683.27,477.82,683.59L477.82,683.59z M476.17,685.25c-0.91,0-1.65-0.75-1.65-1.66
		c0-0.92,0.74-1.66,1.65-1.66c0.32,0,0.62,0.09,0.88,0.25l1.01-0.87c-0.51-0.43-1.17-0.68-1.88-0.68c-1.63,0-2.95,1.33-2.95,2.96
		c0,1.64,1.32,2.96,2.95,2.96c0.41,0,0.8-0.08,1.16-0.24l-0.89-1.09C476.35,685.24,476.26,685.25,476.17,685.25L476.17,685.25z
		 M481.33,678.14c0.69,0,1.24,0.56,1.24,1.25c0,0.69-0.56,1.25-1.24,1.25c-0.36,0-0.68-0.15-0.91-0.4l-0.73,0.64
		c0.4,0.45,0.99,0.74,1.64,0.74c1.22,0,2.21-1,2.21-2.22c0-1.22-0.99-2.22-2.21-2.22c-0.72,0-1.35,0.35-1.76,0.88l0.96,0.39
		C480.75,678.26,481.03,678.14,481.33,678.14L481.33,678.14z M480.09,679.39c0-0.22,0.06-0.42,0.16-0.6l-0.91-0.37
		c-0.14,0.29-0.23,0.63-0.23,0.98c0,0.38,0.1,0.74,0.26,1.05l0.77-0.67C480.12,679.65,480.09,679.52,480.09,679.39L480.09,679.39z
		 M476.69,679c0.64,0,1.17-0.41,1.38-0.98l-0.6-0.24c-0.11,0.33-0.42,0.57-0.78,0.57c-0.46,0-0.83-0.37-0.83-0.83
		c0-0.46,0.37-0.83,0.83-0.83c0.45,0,0.82,0.36,0.83,0.82l0.62,0.25c0.01-0.08,0.03-0.16,0.03-0.24c0-0.82-0.66-1.48-1.47-1.48
		c-0.82,0-1.48,0.67-1.48,1.48C475.22,678.34,475.88,679,476.69,679L476.69,679z"/>
</g>
<g>
	<path class="st1" d="M351.39,696.37L351.39,696.37c-0.73,0-1.32-0.59-1.32-1.32v-3.49c0-0.73,0.59-1.32,1.32-1.32l0,0
		c0.73,0,1.32,0.59,1.32,1.32v3.49C352.71,695.78,352.12,696.37,351.39,696.37z M356.62,696.24v-6.04c0-0.73-0.59-1.32-1.32-1.32
		l0,0c-0.73,0-1.32,0.59-1.32,1.32v6.04c0,0.73,0.59,1.32,1.32,1.32l0,0C356.03,697.56,356.62,696.97,356.62,696.24z M360.52,697.58
		v-8.64c0-0.73-0.59-1.32-1.32-1.32l0,0c-0.73,0-1.32,0.59-1.32,1.32v8.64c0,0.73,0.59,1.32,1.32,1.32l0,0
		C359.93,698.9,360.52,698.31,360.52,697.58z M364.43,698.82v-11.26c0-0.73-0.59-1.32-1.32-1.32l0,0c-0.73,0-1.32,0.59-1.32,1.32
		v11.26c0,0.73,0.59,1.32,1.32,1.32l0,0C363.84,700.14,364.43,699.55,364.43,698.82z M370.22,684.6l-17.64-5.15
		c-0.13-0.04-0.26-0.06-0.39-0.06c-0.74,0-1.39,0.6-1.39,1.39v8.33h1.05v-8.33c0-0.22,0.18-0.35,0.35-0.35
		c0.03,0,0.07,0.01,0.1,0.01l17.64,5.15c0.15,0.04,0.25,0.18,0.25,0.33v11.11c0,0.22-0.18,0.35-0.35,0.35c-0.03,0-0.07,0-0.1-0.01
		l-4.02-1.17v1.09l3.73,1.09c0.13,0.04,0.26,0.06,0.39,0.06c0.74,0,1.39-0.6,1.39-1.39v-11.11
		C371.23,685.31,370.82,684.77,370.22,684.6z M381.46,684.4c0.69-0.12,1.6-0.21,2.76-0.21c1.42,0,2.46,0.33,3.12,0.93
		c0.61,0.53,0.97,1.34,0.97,2.33c0,1.01-0.3,1.8-0.86,2.38c-0.76,0.81-2,1.22-3.4,1.22c-0.43,0-0.83-0.02-1.16-0.1v4.46h-1.44V684.4
		z M382.9,689.77c0.31,0.08,0.71,0.12,1.19,0.12c1.73,0,2.79-0.84,2.79-2.38c0-1.47-1.04-2.18-2.63-2.18
		c-0.63,0-1.11,0.05-1.35,0.12V689.77z M397.02,691.34c0,2.96-2.05,4.25-3.98,4.25c-2.16,0-3.83-1.59-3.83-4.11
		c0-2.68,1.75-4.25,3.96-4.25C395.47,687.23,397.02,688.89,397.02,691.34z M390.68,691.42c0,1.75,1.01,3.07,2.43,3.07
		c1.39,0,2.43-1.31,2.43-3.11c0-1.35-0.68-3.07-2.4-3.07C391.42,688.32,390.68,689.9,390.68,691.42z M399.32,687.41l1.06,4.06
		c0.23,0.89,0.45,1.72,0.59,2.54h0.05c0.18-0.81,0.45-1.67,0.71-2.53l1.31-4.08h1.22l1.24,4c0.3,0.96,0.53,1.8,0.71,2.61h0.05
		c0.13-0.81,0.35-1.65,0.61-2.59l1.14-4.01h1.44l-2.58,8h-1.32l-1.22-3.82c-0.28-0.89-0.51-1.69-0.71-2.63h-0.03
		c-0.2,0.96-0.45,1.78-0.73,2.64l-1.29,3.8h-1.32l-2.41-8H399.32z M411.55,691.67c0.03,1.97,1.29,2.78,2.74,2.78
		c1.04,0,1.67-0.18,2.21-0.41l0.25,1.04c-0.51,0.23-1.39,0.5-2.66,0.5c-2.46,0-3.93-1.62-3.93-4.03s1.42-4.31,3.75-4.31
		c2.61,0,3.3,2.3,3.3,3.77c0,0.3-0.03,0.53-0.05,0.68H411.55z M415.81,690.63c0.02-0.93-0.38-2.36-2.02-2.36
		c-1.47,0-2.11,1.35-2.23,2.36H415.81z M419.02,689.9c0-0.94-0.02-1.75-0.07-2.49h1.27l0.05,1.57h0.07
		c0.36-1.07,1.24-1.75,2.21-1.75c0.17,0,0.28,0.02,0.41,0.05v1.37c-0.15-0.03-0.3-0.05-0.5-0.05c-1.02,0-1.75,0.78-1.95,1.87
		c-0.03,0.2-0.07,0.43-0.07,0.68v4.26h-1.44V689.9z M427.97,684.42c0.63-0.13,1.62-0.23,2.63-0.23c1.44,0,2.36,0.25,3.06,0.81
		c0.58,0.43,0.93,1.09,0.93,1.97c0,1.07-0.71,2.02-1.88,2.45v0.03c1.06,0.26,2.3,1.14,2.3,2.79c0,0.96-0.38,1.69-0.94,2.23
		c-0.78,0.71-2.03,1.04-3.85,1.04c-0.99,0-1.75-0.07-2.23-0.13V684.42z M429.41,688.98h1.31c1.52,0,2.41-0.79,2.41-1.87
		c0-1.31-0.99-1.82-2.45-1.82c-0.66,0-1.04,0.05-1.27,0.1V688.98z M429.41,694.31c0.28,0.05,0.69,0.07,1.21,0.07
		c1.49,0,2.86-0.55,2.86-2.16c0-1.52-1.31-2.15-2.87-2.15h-1.19V694.31z M438.36,684.27v11.14h-1.44v-11.14H438.36z"/>
</g>
<g>
	<polygon class="st1" points="223.21,687.61 220.07,687.61 220.07,684.2 218.84,684.2 218.84,687.61 215.7,687.61 215.7,688.83 
		218.84,688.83 218.84,692.24 220.07,692.24 220.07,688.83 223.21,688.83 	"/>
	<polygon class="st1" points="216.9,693.19 214.09,693.19 214.09,690.13 213.02,690.13 213.02,693.19 210.21,693.19 210.21,694.12 
		213.02,694.12 213.02,697.17 214.09,697.17 214.09,694.12 216.9,694.12 	"/>
	<polygon class="st1" points="228.7,682.26 225.89,682.26 225.89,679.19 224.82,679.19 224.82,682.26 222.01,682.26 222.01,683.19 
		224.82,683.19 224.82,686.23 225.89,686.23 225.89,683.19 228.7,683.19 	"/>
	<polygon class="st1" points="221.83,696.58 219.93,696.58 219.93,694.45 219.02,694.45 219.02,696.58 217.11,696.58 217.11,697.4 
		219.02,697.4 219.02,699.53 219.93,699.53 219.93,697.4 221.83,697.4 	"/>
	<polygon class="st1" points="216.9,682.26 214.05,682.26 214.05,679.19 213.05,679.19 213.05,682.26 210.21,682.26 210.21,683.16 
		213.05,683.16 213.05,686.23 214.05,686.23 214.05,683.16 216.9,683.16 	"/>
	<polygon class="st1" points="230.86,687.81 228.95,687.81 228.95,685.68 228.04,685.68 228.04,687.81 226.13,687.81 226.13,688.63 
		228.04,688.63 228.04,690.76 228.95,690.76 228.95,688.63 230.86,688.63 	"/>
	<polygon class="st14" points="228.7,693.19 225.89,693.19 225.89,690.13 224.82,690.13 224.82,693.19 222.01,693.19 222.01,694.12 
		224.82,694.12 224.82,697.17 225.89,697.17 225.89,694.12 228.7,694.12 	"/>
	<polygon class="st1" points="219.13,677.01 219.13,679.1 217.24,679.1 217.24,679.73 219.13,679.73 219.13,681.82 219.81,681.82 
		219.81,679.73 221.7,679.73 221.7,679.1 219.81,679.1 219.81,677.01 	"/>
	<polygon class="st1" points="212.48,687.89 210.59,687.89 210.59,685.84 209.92,685.84 209.92,687.89 208.03,687.89 208.03,688.55 
		209.92,688.54 209.92,690.6 210.59,690.6 210.59,688.53 212.48,688.52 	"/>
	<g>
		<path class="st14" d="M241.14,699.89c0.23,0.14,0.48,0.21,0.75,0.21c0.54,0,0.85-0.25,0.85-0.64c0-0.24-0.09-0.42-0.28-0.54
			c-0.16-0.1-0.34-0.16-0.54-0.23c-0.2-0.07-0.29-0.15-0.29-0.24c0-0.11,0.11-0.17,0.32-0.17c0.2,0,0.43,0.08,0.7,0.22v-0.44
			c-0.25-0.12-0.5-0.18-0.73-0.18c-0.5,0-0.81,0.26-0.81,0.62c0,0.39,0.27,0.57,0.81,0.76c0.19,0.07,0.29,0.11,0.29,0.24
			c0,0.13-0.11,0.19-0.32,0.19c-0.24,0-0.46-0.1-0.74-0.27V699.89z"/>
		<path class="st14" d="M251.74,698.98c0,0.32,0.12,0.6,0.34,0.81c0.22,0.21,0.49,0.31,0.83,0.31c0.34,0,0.62-0.1,0.84-0.31
			c0.22-0.21,0.34-0.48,0.34-0.81c0-0.32-0.12-0.6-0.34-0.81c-0.22-0.21-0.5-0.31-0.84-0.31c-0.34,0-0.62,0.1-0.83,0.31
			C251.85,698.38,251.74,698.66,251.74,698.98 M252.29,698.98c0-0.39,0.26-0.66,0.62-0.66c0.36,0,0.62,0.27,0.62,0.66
			c0,0.39-0.26,0.66-0.62,0.66C252.55,699.64,252.29,699.37,252.29,698.98"/>
		<polygon class="st14" points="263.66,700.06 264.2,700.06 264.2,699.17 265,699.17 265,698.77 264.2,698.77 264.2,698.3 
			265.05,698.3 265.05,697.9 263.66,697.9 		"/>
		<polygon class="st14" points="275.13,700.06 275.7,700.06 275.7,698.3 276.42,698.3 276.42,697.9 274.42,697.9 274.42,698.3 
			275.13,698.3 		"/>
		<polygon class="st14" points="286,700.08 286.22,700.08 286.71,698.73 287.19,700.08 287.42,700.08 288.29,697.9 287.73,697.9 
			287.31,699.08 286.89,697.9 286.53,697.9 286.1,699.07 285.68,697.9 285.12,697.9 		"/>
		<path class="st14" d="M296.45,700.06h0.58l0.17-0.42h0.93l0.16,0.42h0.57l-0.84-2.16h-0.62L296.45,700.06z M297.35,699.27
			l0.33-0.82l0.3,0.82H297.35z"/>
		<path class="st14" d="M307.61,700.06h0.54v-0.88c0.02,0,0.04,0,0.06,0c0.21,0,0.31,0.07,0.39,0.26l0.28,0.62h0.61l-0.34-0.74
			c-0.06-0.14-0.15-0.23-0.26-0.27c0.26-0.12,0.38-0.28,0.38-0.52c0-0.43-0.28-0.63-0.86-0.63h-0.79V700.06z M308.41,698.78h-0.26
			v-0.5h0.26c0.19,0,0.3,0.09,0.3,0.25C308.71,698.7,308.61,698.78,308.41,698.78"/>
		<polygon class="st14" points="318.44,700.06 319.91,700.06 319.91,699.65 318.98,699.65 318.98,699.14 319.85,699.14 
			319.85,698.74 318.98,698.74 318.98,698.3 319.89,698.3 319.89,697.9 318.44,697.9 		"/>
		<path class="st14" d="M268.77,686.46c0.74-0.29,1.4-0.38,1.83-0.38c2.11,0,3.53,1.48,3.53,3.81c0,2.41-1.5,3.82-4.14,3.82
			c-0.92,0-1.81-0.18-2.76-0.5l-0.04-10.66h1.58V686.46z M270.15,692.26c1.47,0,2.32-0.85,2.32-2.35c0-1.48-0.85-2.37-2.18-2.37
			c-0.58,0-1.12,0.2-1.53,0.38v4.07C269.26,692.17,269.71,692.26,270.15,692.26"/>
		<rect x="280.69" y="681.06" class="st14" width="1.56" height="13.99"/>
		<path class="st14" d="M290.88,689.06h3.59c-0.04-0.95-0.55-1.45-1.47-1.51C292.08,687.49,291.19,688.08,290.88,689.06
			 M292.65,693.74c-2.41-0.23-3.58-1.93-3.51-3.93c0.07-2.17,1.47-3.7,3.61-3.7c2.24,0,3.54,1.66,3.43,4.11h-5.4
			c0.13,1.36,0.94,2,2.06,2.08c0.93,0.07,2.23-0.14,2.94-0.58v1.49C294.85,693.66,293.88,693.86,292.65,693.74"/>
		<path class="st14" d="M319.35,692.51c0.99,0,1.66-0.5,1.66-1.64v-4.63h1.58v4.82c0,1.61-1.25,2.6-3.24,2.6
			c-1.99,0-3.24-0.98-3.24-2.6v-4.82h1.58v4.63C317.69,692,318.36,692.51,319.35,692.51"/>
		<path class="st14" d="M256.8,693.71c-2.64,0.01-4.14-1.41-4.14-3.82c0-2.32,1.43-3.81,3.53-3.81c0.71,0,1.3,0.16,1.83,0.5v-0.53
			h1.58l-0.04,7.16C258.89,693.5,257.8,693.71,256.8,693.71 M256.64,692.26c0.36-0.01,0.8-0.03,1.35-0.17l0.03-4.04
			c-0.51-0.35-0.99-0.51-1.52-0.51c-1.33,0-2.18,0.89-2.18,2.37C254.32,691.41,255.16,692.28,256.64,692.26"/>
		<path class="st14" d="M306.67,693.71c-2.64,0.01-4.14-1.41-4.14-3.82c0-2.32,1.42-3.81,3.53-3.81c0.71,0,1.3,0.16,1.83,0.5v-0.53
			h1.58l-0.05,7.16C308.77,693.5,307.67,693.71,306.67,693.71 M306.52,692.26c0.31,0,0.79-0.03,1.35-0.17l0.03-4.04
			c-0.51-0.35-0.99-0.51-1.52-0.51c-1.33,0-2.18,0.89-2.18,2.37C304.19,691.41,305.04,692.26,306.52,692.26"/>
	</g>
	<g>
		<polygon class="st1" points="240.91,683.06 242.48,683.06 242.48,687.5 246.7,687.5 246.7,688.95 242.48,688.95 242.48,693.76 
			240.91,693.76 240.91,688.95 236.69,688.95 236.69,687.5 240.91,687.5 		"/>
		<path class="st1" d="M325.19,686.18c0.51,0,0.92,0.42,0.92,0.94c0,0.53-0.41,0.94-0.92,0.94c-0.51,0-0.93-0.41-0.93-0.94
			C324.25,686.6,324.67,686.18,325.19,686.18L325.19,686.18z M325.18,686.33c-0.41,0-0.75,0.35-0.75,0.79
			c0,0.45,0.34,0.79,0.75,0.79c0.42,0,0.75-0.35,0.75-0.79C325.93,686.68,325.6,686.33,325.18,686.33L325.18,686.33z M325.01,687.66
			h-0.17v-1.04c0.09-0.01,0.17-0.03,0.3-0.03c0.16,0,0.26,0.03,0.33,0.08c0.06,0.05,0.1,0.12,0.1,0.22c0,0.14-0.09,0.22-0.2,0.25
			v0.01c0.09,0.02,0.15,0.1,0.17,0.25c0.03,0.16,0.05,0.22,0.07,0.26h-0.17c-0.03-0.03-0.05-0.13-0.07-0.27
			c-0.03-0.13-0.09-0.18-0.23-0.18h-0.12V687.66z M325.01,687.08h0.12c0.14,0,0.25-0.05,0.25-0.18c0-0.09-0.07-0.18-0.25-0.18
			c-0.05,0-0.09,0-0.12,0.01V687.08z"/>
	</g>
</g>
<text transform="matrix(1 0 0 1 208.0224 33.9943)" class="st15 st16 st17">CODE AS DATA</text>
<linearGradient id="SVGID_9_" gradientUnits="userSpaceOnUse" x1="191.2817" y1="418.4409" x2="525.6838" y2="84.0387">
	<stop  offset="0" style="stop-color:#00B491"/>
	<stop  offset="0.9988" style="stop-color:#0174B0"/>
	<stop  offset="1" style="stop-color:#05A799"/>
</linearGradient>
<path class="st18" d="M660.26,281.76H56.7c-2.81,0-5.09-2.28-5.09-5.09v-50.86c0-2.81,2.28-5.09,5.09-5.09h603.56
	c2.81,0,5.09,2.28,5.09,5.09v50.86C665.35,279.48,663.07,281.76,660.26,281.76z"/>
<text transform="matrix(1 0 0 1 255.5097 257.5177)" class="st5 st16 st19">Data Retrieval &amp; Processing</text>
<polygon class="st1" points="119.93,177.1 111.13,185.9 102.94,177.1 "/>
<polygon class="st1" points="282.75,177.1 273.95,185.9 265.75,177.1 "/>
<polygon class="st1" points="365.17,548.88 356.37,557.68 348.17,548.88 "/>
<polygon class="st1" points="447.57,177.1 438.77,185.9 430.57,177.1 "/>
<polygon class="st1" points="612.38,177.1 603.58,185.9 595.38,177.1 "/>
<g class="st20">
	<g>
		<g>
			<g>
				<path class="st5" d="M223.81,256.6c-1.31,0-12.98-0.12-12.98-4.43s11.67-4.43,12.98-4.43c1.31,0,12.98,0.12,12.98,4.43
					S225.13,256.6,223.81,256.6z M213.7,252.17c0.94,0.69,4.43,1.75,10.05,1.75c5.62,0,9.18-1.06,10.11-1.75
					c-0.94-0.69-4.43-1.75-10.05-1.75C218.2,250.42,214.7,251.48,213.7,252.17z M234.11,252.35L234.11,252.35L234.11,252.35z"/>
				<path class="st5" d="M223.81,262.4c-1.31,0-12.98-0.12-12.98-4.43c0-0.75,0.62-1.37,1.37-1.37c0.69,0,1.25,0.5,1.37,1.19
					c0.56,0.69,4.12,1.87,10.24,1.87c6.12,0,9.68-1.25,10.24-1.87c0.06-0.69,0.69-1.19,1.37-1.19c0.75,0,1.37,0.62,1.37,1.37
					C236.8,262.28,225.13,262.4,223.81,262.4z"/>
				<path class="st5" d="M223.81,269.4c-1.31,0-12.98-0.12-12.98-4.43v-12.8c0-0.75,0.62-1.37,1.37-1.37s1.37,0.62,1.37,1.37v12.61
					c0.62,0.69,4.18,1.87,10.24,1.87c6.05,0,9.61-1.19,10.24-1.87v-12.61c0-0.75,0.62-1.37,1.37-1.37s1.37,0.62,1.37,1.37v12.8
					C236.8,269.27,225.13,269.4,223.81,269.4z"/>
			</g>
			<g>
				<polygon class="st5" points="218.07,239.25 229.49,239.25 223.81,246.11 				"/>
				<path class="st5" d="M223.81,243.43c-0.75,0-1.37-0.62-1.37-1.37v-8.86c0-0.75,0.62-1.37,1.37-1.37c0.75,0,1.37,0.62,1.37,1.37
					v8.93C225.19,242.8,224.56,243.43,223.81,243.43z"/>
			</g>
		</g>
	</g>
</g>
<linearGradient id="SVGID_10_" gradientUnits="userSpaceOnUse" x1="191.2817" y1="789.9521" x2="525.6838" y2="455.5499">
	<stop  offset="0" style="stop-color:#8719CB"/>
	<stop  offset="0.2218" style="stop-color:#8218C8"/>
	<stop  offset="0.4725" style="stop-color:#7516BE"/>
	<stop  offset="0.7364" style="stop-color:#5E12AF"/>
	<stop  offset="1" style="stop-color:#400D9A"/>
</linearGradient>
<path class="st21" d="M660.26,653.27H56.7c-2.81,0-5.09-2.28-5.09-5.09v-50.86c0-2.81,2.28-5.09,5.09-5.09h603.56
	c2.81,0,5.09,2.28,5.09,5.09v50.86C665.35,650.99,663.07,653.27,660.26,653.27z"/>
<text transform="matrix(1 0 0 1 340.5097 629.0289)" class="st5 st16 st19">Insights</text>
<text transform="matrix(1 0 0 1 525.3154 725.2124)" class="st5 st16 st19">Insights</text>
<g>
	<linearGradient id="SVGID_11_" gradientUnits="userSpaceOnUse" x1="49.191" y1="462.6876" x2="193.9146" y2="462.6876">
		<stop  offset="0" style="stop-color:#00B491"/>
		<stop  offset="0.9988" style="stop-color:#0174B0"/>
		<stop  offset="1" style="stop-color:#05A799"/>
	</linearGradient>
	<path class="st22" d="M187.58,509.88H55.53c-3.5,0-6.34-2.84-6.34-6.34v-81.7c0-3.5,2.84-6.34,6.34-6.34h132.05
		c3.5,0,6.34,2.84,6.34,6.34v81.7C193.91,507.04,191.08,509.88,187.58,509.88z"/>
	<text transform="matrix(1 0 0 1 85.8973 481.9283)"><tspan x="0" y="0" class="st5 st16 st23">Universal</tspan><tspan x="8.54" y="16.26" class="st5 st16 st23">Syntax</tspan></text>
	<g class="st20">
		<path class="st5" d="M115.82,430.41h8.9v6.47h-8.9V430.41z"/>
		<path class="st5" d="M95.97,441.94h8.9v6.47h-8.9V441.94z"/>
		<path class="st5" d="M109.5,441.94h8.9v6.47h-8.9V441.94z"/>
		<path class="st5" d="M123.02,441.94h8.9v6.47h-8.9V441.94z"/>
		<path class="st5" d="M117.04,453.62h8.9v6.47h-8.9V453.62z"/>
		<path class="st5" d="M102.25,454.1h8.9v6.47h-8.9V454.1z"/>
		<path class="st5" d="M130.56,453.62h8.9v6.47h-8.9V453.62z"/>
		<polygon class="st5" points="100.45,442.57 99.47,442.57 99.47,438.24 119.32,438.24 119.32,436.69 120.3,436.69 120.3,439.22 
			100.45,439.22 		"/>
		<rect x="113.34" y="438.73" class="st5" width="0.97" height="3.65"/>
		<polygon class="st5" points="128.13,442.38 127.16,442.38 127.16,439.22 119.81,439.22 119.81,438.24 128.13,438.24 		"/>
		<path class="st5" d="M135.92,441.94h8.9v6.47h-8.9V441.94z"/>
		<polygon class="st5" points="141.03,442.38 140.05,442.38 140.05,439.22 121.32,439.22 121.32,438.24 141.03,438.24 		"/>
		<polygon class="st5" points="121.51,454.1 120.54,454.1 120.54,450.36 127.16,450.36 127.16,447.78 128.13,447.78 128.13,451.33 
			121.51,451.33 		"/>
		<polygon class="st5" points="135.82,454.25 134.85,454.25 134.85,451.33 127.64,451.33 127.64,450.36 135.82,450.36 		"/>
		<polygon class="st5" points="107.21,454.88 106.24,454.88 106.24,451.67 99.62,451.67 99.62,448.12 100.59,448.12 100.59,450.7 
			107.21,450.7 		"/>
	</g>
</g>
<line class="st24" x1="676.29" y1="645.69" x2="676.29" y2="662.43"/>
<g>
	<linearGradient id="SVGID_12_" gradientUnits="userSpaceOnUse" x1="360.056" y1="462.6876" x2="504.7796" y2="462.6876">
		<stop  offset="0" style="stop-color:#00B491"/>
		<stop  offset="0.9988" style="stop-color:#0174B0"/>
		<stop  offset="1" style="stop-color:#05A799"/>
	</linearGradient>
	<path class="st25" d="M498.44,509.88H366.39c-3.5,0-6.34-2.84-6.34-6.34v-81.7c0-3.5,2.84-6.34,6.34-6.34h132.05
		c3.5,0,6.34,2.84,6.34,6.34v81.7C504.78,507.04,501.94,509.88,498.44,509.88z"/>
	<text transform="matrix(1 0 0 1 390.0736 481.9283)"><tspan x="0" y="0" class="st5 st16 st23">Distributed</tspan><tspan x="0.9" y="16.26" class="st5 st16 st23">Processing</tspan></text>
</g>
<g>
	<linearGradient id="SVGID_13_" gradientUnits="userSpaceOnUse" x1="204.6235" y1="462.6876" x2="349.3471" y2="462.6876">
		<stop  offset="0" style="stop-color:#00B491"/>
		<stop  offset="0.9988" style="stop-color:#0174B0"/>
		<stop  offset="1" style="stop-color:#05A799"/>
	</linearGradient>
	<path class="st26" d="M343.01,509.88H210.96c-3.5,0-6.34-2.84-6.34-6.34v-81.7c0-3.5,2.84-6.34,6.34-6.34h132.05
		c3.5,0,6.34,2.84,6.34,6.34v81.7C349.35,507.04,346.51,509.88,343.01,509.88z"/>
	<text transform="matrix(1 0 0 1 249.4349 481.9283)"><tspan x="0" y="0" class="st5 st16 st23">History</tspan><tspan x="-3.83" y="16.26" class="st5 st16 st23">Analysis</tspan></text>
	<g class="st20">
		<g>
			<path class="st5" d="M273.75,454.65c-7.14,0-12.88-5.81-12.88-12.88c0-7.07,5.81-12.88,12.88-12.88
				c7.07,0,12.88,5.81,12.88,12.88S280.89,454.65,273.75,454.65z M273.75,431.6c-5.62,0-10.17,4.55-10.17,10.17
				c0,5.62,4.55,10.17,10.17,10.17c5.62,0,10.17-4.55,10.17-10.17C283.92,436.15,279.37,431.6,273.75,431.6z"/>
			<path class="st5" d="M284.36,462.04c-0.51,0-0.95-0.25-1.2-0.69l-5.05-8.78c-0.38-0.63-0.13-1.52,0.51-1.89
				c0.63-0.38,1.52-0.13,1.89,0.51l5.05,8.78c0.38,0.63,0.13,1.52-0.51,1.89C284.8,461.98,284.61,462.04,284.36,462.04z"/>
			<g>
				<path class="st5" d="M277.67,446.54c-0.23,0-0.47-0.06-0.68-0.18l-4.36-2.53c-0.42-0.24-0.68-0.69-0.68-1.18v-6.88
					c0-0.75,0.61-1.36,1.36-1.36c0.75,0,1.36,0.61,1.36,1.36v6.1l3.68,2.13c0.65,0.38,0.87,1.21,0.5,1.86
					C278.6,446.3,278.14,446.54,277.67,446.54z"/>
			</g>
		</g>
	</g>
</g>
<g>
	<g>
		<path class="st27" d="M338.32,366.77c-1.47,0-2.63-0.41-3.54-1.24c-0.87-0.83-1.32-1.88-1.32-3.16v-7.04
			c0-1.05-0.08-1.88-0.23-2.41s-0.38-0.94-0.72-1.24c-0.34-0.3-0.9-0.56-1.66-0.87v-2.41c0.75-0.26,1.32-0.56,1.66-0.87
			c0.34-0.3,0.6-0.72,0.72-1.24c0.15-0.53,0.23-1.35,0.23-2.41v-7c0-1.28,0.45-2.37,1.32-3.2c0.87-0.83,2.03-1.24,3.54-1.24h1.92
			v2.97h-1.13c-0.53,0-0.98,0.19-1.28,0.53c-0.3,0.38-0.45,0.87-0.45,1.58V344c0,0.6-0.04,1.09-0.08,1.54
			c-0.04,0.41-0.15,0.87-0.3,1.32c-0.15,0.45-0.38,0.83-0.64,1.17c-0.26,0.34-0.64,0.64-1.09,0.9c-0.45,0.3-1.02,0.53-1.66,0.75
			c0.64,0.19,1.2,0.45,1.66,0.75c0.45,0.3,0.83,0.6,1.09,0.9s0.49,0.72,0.64,1.17s0.26,0.87,0.3,1.32c0.04,0.41,0.08,0.94,0.08,1.51
			v6.55c0,0.72,0.15,1.24,0.41,1.54c0.26,0.34,0.72,0.49,1.32,0.49h1.13v2.97h-1.92V366.77z"/>
		<path class="st27" d="M354.58,332.44h4.22v25.93h-3.99l-0.11-2.56c-0.49,0.94-1.24,1.66-2.22,2.18c-0.98,0.53-2.11,0.79-3.35,0.79
			c-1.13,0-2.18-0.23-3.16-0.64c-0.98-0.41-1.84-1.02-2.6-1.77s-1.32-1.69-1.77-2.82c-0.45-1.13-0.64-2.37-0.64-3.73
			s0.23-2.6,0.64-3.73c0.45-1.13,1.02-2.07,1.77-2.82c0.75-0.75,1.62-1.35,2.6-1.77c0.98-0.41,2.03-0.64,3.16-0.64
			c1.2,0,2.3,0.26,3.27,0.75c0.98,0.49,1.73,1.17,2.22,2.07v-11.25H354.58z M346.56,353.75c0.94,0.98,2.11,1.47,3.5,1.47
			c1.39,0,2.56-0.49,3.5-1.51s1.39-2.3,1.39-3.88s-0.45-2.86-1.39-3.88c-0.94-1.02-2.11-1.51-3.46-1.51c-1.39,0-2.56,0.49-3.5,1.47
			c-0.94,0.98-1.39,2.3-1.39,3.91S345.62,352.77,346.56,353.75z"/>
		<path class="st27" d="M363.35,366.77h-1.92v-2.97h1.13c0.6,0,1.05-0.15,1.32-0.49c0.26-0.34,0.41-0.83,0.41-1.54v-6.51
			c0-0.6,0.04-1.09,0.08-1.51c0.04-0.41,0.15-0.87,0.3-1.32c0.15-0.45,0.38-0.83,0.64-1.17c0.26-0.34,0.64-0.64,1.09-0.9
			c0.45-0.3,1.02-0.53,1.66-0.75c-0.64-0.19-1.2-0.45-1.66-0.75c-0.45-0.3-0.83-0.6-1.09-0.9c-0.26-0.3-0.49-0.72-0.64-1.17
			c-0.15-0.45-0.26-0.87-0.3-1.32c-0.04-0.41-0.08-0.94-0.08-1.54v-6.4c0-0.68-0.15-1.2-0.45-1.58c-0.3-0.38-0.72-0.53-1.28-0.53
			h-1.13v-2.97h1.92c1.47,0,2.63,0.41,3.54,1.24c0.87,0.83,1.32,1.88,1.32,3.2v7c0,1.09,0.08,1.88,0.23,2.41s0.38,0.94,0.72,1.24
			c0.34,0.3,0.9,0.6,1.66,0.87v2.41c-0.75,0.26-1.32,0.56-1.66,0.87c-0.34,0.3-0.6,0.72-0.72,1.24c-0.15,0.53-0.23,1.35-0.23,2.41v7
			c0,1.28-0.45,2.33-1.32,3.16C365.99,366.35,364.82,366.77,363.35,366.77z"/>
	</g>
	<g>
		<path class="st28" d="M232.75,358.71c-1.96,0-3.58-0.41-4.86-1.2c-1.28-0.83-2.07-1.99-2.37-3.54l3.58-1.02
			c0.23,0.94,0.64,1.62,1.32,2.07c0.64,0.45,1.43,0.68,2.37,0.68c0.79,0,1.43-0.15,1.96-0.49c0.53-0.3,0.79-0.83,0.79-1.54
			c0-0.38-0.11-0.68-0.26-0.94c-0.19-0.26-0.45-0.49-0.87-0.68c-0.38-0.19-0.75-0.34-1.13-0.45c-0.34-0.11-0.87-0.26-1.51-0.45
			c-0.64-0.19-1.17-0.34-1.58-0.49c-0.49-0.15-0.9-0.3-1.28-0.45c-0.38-0.15-0.75-0.38-1.13-0.64c-0.38-0.26-0.72-0.56-0.98-0.87
			c-0.26-0.3-0.45-0.72-0.6-1.17c-0.15-0.45-0.26-0.98-0.26-1.54c0-1.66,0.6-2.9,1.81-3.76c1.2-0.87,2.75-1.28,4.67-1.28
			c1.73,0,3.2,0.38,4.4,1.09c1.17,0.75,1.92,1.88,2.22,3.39l-3.27,0.75c-0.45-1.58-1.54-2.41-3.27-2.41c-0.75,0-1.35,0.15-1.88,0.45
			c-0.49,0.3-0.75,0.75-0.75,1.35c0,0.15,0.04,0.34,0.08,0.45c0.04,0.15,0.11,0.26,0.23,0.41c0.11,0.11,0.23,0.23,0.3,0.34
			c0.08,0.11,0.26,0.19,0.45,0.26c0.19,0.11,0.34,0.19,0.49,0.23c0.15,0.04,0.34,0.11,0.6,0.19c0.26,0.08,0.49,0.15,0.64,0.19
			c0.15,0.04,0.38,0.11,0.72,0.19c0.3,0.08,0.56,0.15,0.72,0.19c0.64,0.15,1.17,0.34,1.62,0.49s0.94,0.38,1.47,0.68
			s0.98,0.6,1.32,0.98c0.34,0.34,0.6,0.83,0.83,1.39c0.23,0.56,0.34,1.2,0.34,1.88c0,0.75-0.11,1.43-0.38,1.99
			c-0.23,0.6-0.56,1.09-0.98,1.51s-0.94,0.72-1.51,0.98c-0.6,0.26-1.2,0.45-1.84,0.56C234.22,358.64,233.5,358.71,232.75,358.71z"/>
		<path class="st28" d="M257.06,356.31c-1.69,1.62-3.88,2.41-6.59,2.41c-2.67,0-4.89-0.79-6.59-2.41c-1.69-1.62-2.56-3.76-2.56-6.51
			c0-2.71,0.83-4.86,2.56-6.47c1.69-1.58,3.88-2.41,6.59-2.41s4.89,0.79,6.59,2.41c1.69,1.58,2.56,3.76,2.56,6.47
			C259.62,352.54,258.76,354.72,257.06,356.31z M250.44,355.33c1.47,0,2.67-0.49,3.61-1.51c0.94-1.02,1.39-2.33,1.39-3.99
			c0-1.66-0.45-2.97-1.39-3.99c-0.94-1.02-2.15-1.51-3.61-1.51c-1.43,0-2.6,0.49-3.54,1.51c-0.9,1.02-1.39,2.33-1.39,3.99
			c0,1.66,0.45,2.97,1.39,3.99C247.84,354.8,249.01,355.33,250.44,355.33z"/>
		<path class="st28" d="M273.93,341.29h4.22v17.09h-3.99l-0.11-2.11c-0.56,0.79-1.32,1.39-2.22,1.81c-0.9,0.41-1.96,0.64-3.09,0.64
			c-1.96,0-3.5-0.53-4.59-1.54s-1.62-2.48-1.62-4.37v-11.52h4.22v10.61c0,1.17,0.3,2.03,0.9,2.56c0.6,0.56,1.39,0.83,2.37,0.83
			c1.17,0,2.07-0.34,2.82-1.05c0.72-0.72,1.09-1.81,1.13-3.27v-9.67H273.93z"/>
		<path class="st28" d="M286.38,344.07c0.45-0.83,1.17-1.54,2.22-2.11c1.02-0.56,2.15-0.87,3.35-0.9v3.8c-1.84,0-3.2,0.38-4.06,1.09
			c-0.87,0.75-1.32,1.99-1.32,3.8v8.58h-4.25v-17.05h4.06V344.07L286.38,344.07z"/>
		<path class="st28" d="M301.81,358.71c-2.63,0-4.78-0.83-6.44-2.45c-1.69-1.66-2.52-3.8-2.52-6.44s0.83-4.78,2.52-6.4
			c1.69-1.62,3.84-2.45,6.44-2.45c2.11,0,3.88,0.53,5.34,1.58s2.41,2.56,2.86,4.48l-3.91,0.45c-0.3-1.05-0.83-1.84-1.58-2.37
			c-0.75-0.53-1.66-0.83-2.75-0.83c-1.39,0-2.52,0.49-3.42,1.51c-0.87,1.02-1.32,2.33-1.32,3.99c0,1.66,0.45,2.97,1.32,3.99
			c0.87,1.02,2.03,1.51,3.42,1.51c1.05,0,1.99-0.26,2.75-0.83c0.75-0.56,1.28-1.32,1.58-2.37l3.91,0.49
			c-0.45,1.92-1.39,3.42-2.86,4.52C305.65,358.15,303.88,358.71,301.81,358.71z"/>
		<path class="st28" d="M328.88,349.53l-0.08,1.05h-12.91c0.08,1.54,0.56,2.71,1.47,3.54s1.99,1.24,3.31,1.24
			c0.94,0,1.73-0.23,2.45-0.64c0.72-0.45,1.24-1.05,1.62-1.88l3.84,0.64c-0.56,1.66-1.58,2.97-2.97,3.91s-3.05,1.39-4.89,1.39
			c-2.71,0-4.89-0.79-6.51-2.37c-1.62-1.58-2.45-3.76-2.45-6.51c0-2.75,0.83-4.93,2.45-6.51c1.62-1.58,3.76-2.37,6.36-2.37
			c1.2,0,2.3,0.19,3.31,0.53c0.98,0.34,1.88,0.87,2.63,1.58c0.75,0.68,1.32,1.58,1.73,2.71
			C328.65,346.82,328.84,348.1,328.88,349.53z M320.56,343.96c-1.2,0-2.22,0.3-3.01,0.94s-1.32,1.58-1.54,2.86h8.66
			c-0.11-1.24-0.53-2.18-1.28-2.82C322.67,344.3,321.72,343.96,320.56,343.96z"/>
	</g>
	<g>
		<path class="st15" d="M400.8,337h-9.86v8.54h8.66v2.15h-8.66v8.54h9.86v2.15h-12.31v-23.56h12.31V337z"/>
		<path class="st15" d="M411.68,341.74c1.62,0,2.97,0.49,3.95,1.47c0.98,0.98,1.51,2.37,1.51,4.18v10.99h-2.26v-10.5
			c0-1.43-0.34-2.48-1.05-3.16c-0.72-0.68-1.62-1.05-2.71-1.05c-1.24,0-2.26,0.41-3.05,1.2c-0.79,0.79-1.17,1.96-1.17,3.46v10.05
			h-2.3v-16.33h2.3v2.22C407.95,342.57,409.53,341.74,411.68,341.74z"/>
		<path class="st15" d="M434.33,342.04h2.22v15.62c0,2.67-0.68,4.74-2.03,6.25c-1.35,1.51-3.24,2.26-5.68,2.26
			c-1.92,0-3.5-0.41-4.82-1.28c-1.32-0.87-2.3-2.07-2.94-3.69l1.88-1.02c0.98,2.67,2.9,4.03,5.83,4.03c1.77,0,3.12-0.56,4.06-1.69
			c0.94-1.13,1.43-2.71,1.43-4.7v-3.46c-0.53,1.09-1.32,1.96-2.41,2.63c-1.09,0.68-2.3,1.02-3.58,1.02c-1.02,0-1.99-0.19-2.9-0.6
			c-0.9-0.41-1.69-0.98-2.37-1.69c-0.68-0.72-1.2-1.58-1.62-2.6c-0.41-1.02-0.6-2.11-0.6-3.24c0-2.33,0.72-4.25,2.18-5.8
			c1.47-1.54,3.24-2.3,5.31-2.3c1.32,0,2.52,0.34,3.61,1.02s1.88,1.54,2.41,2.67V342.04z M428.69,355.93c1.58,0,2.94-0.6,4.06-1.81
			s1.66-2.63,1.66-4.33c0-1.66-0.56-3.09-1.66-4.33c-1.13-1.2-2.45-1.81-4.06-1.81c-1.58,0-2.9,0.6-4.03,1.77
			c-1.09,1.17-1.66,2.63-1.66,4.37s0.56,3.2,1.66,4.37C425.79,355.36,427.14,355.93,428.69,355.93z"/>
		<path class="st15" d="M443.93,337.22c-0.34,0.34-0.72,0.49-1.2,0.49c-0.49,0-0.87-0.15-1.2-0.49c-0.34-0.34-0.49-0.75-0.49-1.2
			c0-0.49,0.15-0.87,0.49-1.2c0.34-0.34,0.75-0.49,1.2-0.49c0.45,0,0.87,0.15,1.2,0.49c0.34,0.34,0.49,0.72,0.49,1.2
			C444.42,336.47,444.27,336.89,443.93,337.22z M441.56,358.38v-16.33h2.3v16.33H441.56z"/>
		<path class="st15" d="M455.94,341.74c1.62,0,2.97,0.49,3.95,1.47s1.51,2.37,1.51,4.18v10.99h-2.26v-10.5
			c0-1.43-0.34-2.48-1.05-3.16c-0.72-0.68-1.62-1.05-2.71-1.05c-1.24,0-2.26,0.41-3.05,1.2c-0.79,0.79-1.17,1.96-1.17,3.46v10.05
			h-2.3v-16.33h2.3v2.22C452.21,342.57,453.79,341.74,455.94,341.74z"/>
		<path class="st15" d="M480.44,349.83l-0.04,0.68h-12.98c0.04,1.99,0.6,3.54,1.66,4.59c1.09,1.09,2.41,1.62,4.03,1.62
			c1.05,0,2.03-0.3,2.9-0.87c0.87-0.56,1.58-1.35,2.07-2.33l2.03,0.53c-0.6,1.43-1.54,2.56-2.79,3.39
			c-1.24,0.83-2.63,1.24-4.18,1.24c-2.33,0-4.22-0.75-5.68-2.3s-2.22-3.58-2.22-6.21c0-1.32,0.19-2.48,0.6-3.58
			c0.41-1.09,0.94-1.96,1.66-2.67c0.72-0.72,1.54-1.28,2.48-1.66s1.99-0.56,3.12-0.56c2.22,0,3.99,0.72,5.34,2.11
			C479.72,345.24,480.44,347.24,480.44,349.83z M473.02,343.55c-1.47,0-2.71,0.45-3.73,1.32c-1.02,0.9-1.62,2.18-1.84,3.84h10.69
			c-0.11-1.69-0.6-2.97-1.54-3.88C475.7,344,474.49,343.55,473.02,343.55z"/>
	</g>
</g>
<g>
	<linearGradient id="SVGID_14_" gradientUnits="userSpaceOnUse" x1="515.4885" y1="462.6876" x2="660.2121" y2="462.6876">
		<stop  offset="0" style="stop-color:#00B491"/>
		<stop  offset="0.9988" style="stop-color:#0174B0"/>
		<stop  offset="1" style="stop-color:#05A799"/>
	</linearGradient>
	<path class="st29" d="M653.87,509.88H521.83c-3.5,0-6.34-2.84-6.34-6.34v-81.7c0-3.5,2.84-6.34,6.34-6.34h132.05
		c3.5,0,6.34,2.84,6.34,6.34v81.7C660.21,507.04,657.37,509.88,653.87,509.88z"/>
	<text transform="matrix(1 0 0 1 544.8197 496.2672)" class="st5 st16 st23"> SQL + APIs</text>
	<g class="st20">
		<path class="st5" d="M586.78,470.63c-4.6,0-9.25-1.08-9.25-3.15V450.3h18.51v17.19C596.03,469.55,591.38,470.63,586.78,470.63z
			 M578.62,451.39v16.09c0,0.7,2.88,2.05,8.16,2.05s8.16-1.35,8.16-2.05v-16.09H578.62z"/>
		<g>
			<ellipse class="st5" cx="586.78" cy="450.85" rx="8.7" ry="2.6"/>
			<path class="st5" d="M586.78,453.81c-4.4,0-9.07-1.04-9.07-2.96c0-1.92,4.67-2.96,9.07-2.96c4.4,0,9.07,1.04,9.07,2.96
				C595.85,452.77,591.17,453.81,586.78,453.81z M586.78,448.61c-5.17,0-8.34,1.3-8.34,2.23c0,0.93,3.17,2.23,8.34,2.23
				s8.34-1.3,8.34-2.23C595.12,449.91,591.94,448.61,586.78,448.61z"/>
		</g>
		<path class="st5" d="M586.78,459.92c-4.6,0-9.25-1.08-9.25-3.15h1.1c0,0.7,2.88,2.05,8.16,2.05s8.16-1.35,8.16-2.05h1.1
			C596.03,458.84,591.38,459.92,586.78,459.92z"/>
		<path class="st5" d="M586.78,465.4c-4.6,0-9.25-1.08-9.25-3.15h1.1c0,0.7,2.88,2.05,8.16,2.05s8.16-1.35,8.16-2.05h1.1
			C596.03,464.32,591.38,465.4,586.78,465.4z"/>
		<path class="st5" d="M587.29,443.6v6.73c0,0.29-0.22,0.51-0.51,0.51c-0.29,0-0.51-0.22-0.51-0.51v-6.73
			c0-0.29,0.22-0.51,0.51-0.51C587.07,443.09,587.29,443.31,587.29,443.6z"/>
		<path class="st5" d="M589.7,442.21c0,1.61-1.32,2.93-2.93,2.93c-1.61,0-2.93-1.32-2.93-2.93H589.7z"/>
		<path class="st5" d="M587.29,429.85v6.55c0,0.29-0.22,0.51-0.51,0.51c-0.29,0-0.51-0.22-0.51-0.51v-6.55
			c0-0.29,0.22-0.51,0.51-0.51C587.07,429.34,587.29,429.56,587.29,429.85z"/>
		<path class="st5" d="M586.08,436.91v2.38c0,0.29-0.22,0.51-0.51,0.51c-0.29,0-0.51-0.22-0.51-0.51v-2.38
			c0-0.29,0.22-0.51,0.51-0.51C585.86,436.4,586.08,436.65,586.08,436.91z"/>
		<path class="st5" d="M588.5,436.91v2.38c0,0.29-0.22,0.51-0.51,0.51c-0.29,0-0.51-0.22-0.51-0.51v-2.38
			c0-0.29,0.22-0.51,0.51-0.51C588.28,436.4,588.5,436.65,588.5,436.91z"/>
		<path class="st5" d="M583.89,437.79c0-1.61,1.32-2.93,2.93-2.93s2.93,1.32,2.93,2.93H583.89z"/>
	</g>
</g>
<path class="st30" d="M667.61,525.96H44.92c-8.44,0-15.28-6.84-15.28-15.28V214.97c0-8.44,6.84-15.28,15.28-15.28h622.69
	c8.44,0,15.28,6.84,15.28,15.28v295.71C682.89,519.12,676.05,525.96,667.61,525.96z"/>
<g class="st20">
	<path class="st5" d="M313,611.65c-5.05,0-8.65,3.77-9.25,7.77c-0.36,2.68,0.52,5.29,2.32,7.29c1.6,1.68,2.44,3.97,2.44,6.29v3.69
		c0,1.48,1.24,2.68,2.76,2.68h3.53c1.52,0,2.76-1.2,2.76-2.68v-3.69c0-2.4,0.8-4.61,2.32-6.17c1.64-1.68,2.52-3.89,2.52-6.17
		C322.41,615.66,318.13,611.65,313,611.65z M316.16,636.69c0,0.72-0.56,1.28-1.32,1.28h-3.53c-0.72,0-1.32-0.56-1.32-1.28v-1.64
		h6.13L316.16,636.69z M318.85,625.88c-1.8,1.84-2.76,4.37-2.76,7.13v0.64h-6.13v-0.64c0-2.6-1.08-5.25-2.88-7.21
		c-1.6-1.68-2.24-3.89-1.96-6.17c0.52-3.41,3.65-6.57,7.89-6.57c4.41,0,7.97,3.49,7.97,7.65
		C320.97,622.59,320.25,624.43,318.85,625.88L318.85,625.88z"/>
	<path class="st5" d="M312.28,606.12h1.44v3.41h-1.44V606.12z"/>
	<path class="st5" d="M321.77,612.65l1,1.04l2.48-2.4l-1.04-1L321.77,612.65z"/>
	<path class="st5" d="M326.1,621.39h3.53v1.4h-3.53V621.39z"/>
	<path class="st5" d="M296.37,621.39h3.53v1.4h-3.53V621.39z"/>
	<path class="st5" d="M301.74,610.29l-1,1l2.44,2.36l1.04-1L301.74,610.29z"/>
</g>
<polygon class="st1" points="365.17,565.29 356.37,574.09 348.17,565.29 "/>
<g class="st20">
	<path class="st5" d="M445.88,441.37h8.9v6.47h-8.9V441.37z"/>
	<path class="st5" d="M409.57,441.37h8.9v6.47h-8.9V441.37z"/>
	<path class="st5" d="M445.88,427.63h8.9v6.47h-8.9V427.63z"/>
	<path class="st5" d="M445.88,455.51h8.9v6.47h-8.9V455.51z"/>
	<path class="st5" d="M427.62,441.37h8.9v6.47h-8.9V441.37z"/>
	<path class="st5" d="M427.62,427.63h8.9v6.47h-8.9V427.63z"/>
	<path class="st5" d="M427.62,455.51h8.9v6.47h-8.9V455.51z"/>
	<polyline class="st31" points="414.02,441.37 414.02,430.87 427.62,430.87 	"/>
	<polyline class="st31" points="414.02,447.84 414.02,458.74 427.62,458.74 	"/>
	<line class="st31" x1="418.47" y1="444.61" x2="427.62" y2="444.61"/>
	<line class="st31" x1="436.53" y1="430.87" x2="445.88" y2="430.87"/>
	<line class="st31" x1="436.53" y1="444.61" x2="445.88" y2="444.61"/>
	<line class="st31" x1="436.53" y1="458.74" x2="445.88" y2="458.74"/>
</g>
<text transform="matrix(1 0 0 1 230.9506 818.9943)" class="st32 st16 st17">ML ON CODE</text>
<g>
	<g>
		<path class="st27" d="M326.29,1163.78c-1.47,0-2.64-0.41-3.54-1.24c-0.87-0.83-1.32-1.88-1.32-3.16v-7.04
			c0-1.05-0.08-1.88-0.23-2.41s-0.38-0.94-0.72-1.24c-0.34-0.3-0.9-0.57-1.66-0.87v-2.41c0.75-0.26,1.32-0.57,1.66-0.87
			c0.34-0.3,0.6-0.72,0.72-1.24c0.15-0.53,0.23-1.36,0.23-2.41v-7.01c0-1.28,0.45-2.37,1.32-3.2c0.87-0.83,2.03-1.24,3.54-1.24h1.92
			v2.98h-1.13c-0.53,0-0.98,0.19-1.28,0.53c-0.3,0.38-0.45,0.87-0.45,1.58v6.48c0,0.6-0.04,1.09-0.08,1.54
			c-0.04,0.41-0.15,0.87-0.3,1.32c-0.15,0.45-0.38,0.83-0.64,1.17s-0.64,0.64-1.09,0.9c-0.45,0.3-1.02,0.53-1.66,0.75
			c0.64,0.19,1.21,0.45,1.66,0.75c0.45,0.3,0.83,0.6,1.09,0.9c0.26,0.3,0.49,0.72,0.64,1.17c0.15,0.45,0.26,0.87,0.3,1.32
			c0.04,0.41,0.08,0.94,0.08,1.51v6.55c0,0.72,0.15,1.24,0.41,1.54c0.26,0.34,0.72,0.49,1.32,0.49h1.13v2.98h-1.92V1163.78z"/>
		<path class="st27" d="M342.56,1129.43h4.22v25.95h-3.99l-0.11-2.56c-0.49,0.94-1.24,1.66-2.22,2.18s-2.11,0.79-3.35,0.79
			c-1.13,0-2.18-0.23-3.16-0.64c-0.98-0.41-1.85-1.02-2.6-1.77c-0.75-0.75-1.32-1.7-1.77-2.83c-0.45-1.13-0.64-2.37-0.64-3.73
			s0.23-2.6,0.64-3.73c0.45-1.13,1.02-2.07,1.77-2.83c0.75-0.75,1.62-1.36,2.6-1.77s2.03-0.64,3.16-0.64c1.21,0,2.3,0.26,3.28,0.75
			c0.98,0.49,1.73,1.17,2.22,2.07v-11.26H342.56z M334.53,1150.75c0.94,0.98,2.11,1.47,3.5,1.47s2.56-0.49,3.5-1.51
			c0.94-1.02,1.39-2.3,1.39-3.88s-0.45-2.86-1.39-3.88c-0.94-1.02-2.11-1.51-3.47-1.51c-1.39,0-2.56,0.49-3.5,1.47
			c-0.94,0.98-1.39,2.3-1.39,3.92S333.59,1149.77,334.53,1150.75z"/>
		<path class="st27" d="M351.33,1163.78h-1.92v-2.98h1.13c0.6,0,1.05-0.15,1.32-0.49c0.26-0.34,0.41-0.83,0.41-1.54v-6.52
			c0-0.6,0.04-1.09,0.08-1.51c0.04-0.41,0.15-0.87,0.3-1.32c0.15-0.45,0.38-0.83,0.64-1.17c0.26-0.34,0.64-0.64,1.09-0.9
			c0.45-0.3,1.02-0.53,1.66-0.75c-0.64-0.19-1.21-0.45-1.66-0.75c-0.45-0.3-0.83-0.6-1.09-0.9c-0.26-0.34-0.49-0.72-0.64-1.17
			s-0.26-0.87-0.3-1.32c-0.04-0.41-0.08-0.94-0.08-1.54v-6.4c0-0.68-0.15-1.21-0.45-1.58c-0.3-0.38-0.72-0.53-1.28-0.53h-1.13v-2.98
			h1.92c1.47,0,2.64,0.41,3.54,1.24c0.87,0.83,1.32,1.88,1.32,3.2v7.01c0,1.09,0.08,1.88,0.23,2.41s0.38,0.94,0.72,1.24
			c0.34,0.3,0.9,0.6,1.66,0.87v2.41c-0.75,0.26-1.32,0.56-1.66,0.87c-0.34,0.3-0.6,0.72-0.72,1.24c-0.15,0.53-0.23,1.36-0.23,2.41
			v7.01c0,1.28-0.45,2.34-1.32,3.16C353.97,1163.37,352.8,1163.78,351.33,1163.78z"/>
	</g>
	<g>
		<path class="st28" d="M220.63,1155.72c-1.96,0-3.58-0.41-4.86-1.21c-1.28-0.83-2.07-2-2.37-3.54l3.58-1.02
			c0.23,0.94,0.64,1.62,1.32,2.07c0.64,0.45,1.43,0.68,2.37,0.68c0.79,0,1.43-0.15,1.96-0.49c0.53-0.3,0.79-0.83,0.79-1.54
			c0-0.38-0.11-0.68-0.26-0.94c-0.19-0.26-0.45-0.49-0.87-0.68c-0.38-0.19-0.75-0.34-1.13-0.45c-0.34-0.11-0.87-0.26-1.51-0.45
			s-1.17-0.34-1.58-0.49c-0.49-0.15-0.9-0.3-1.28-0.45c-0.38-0.15-0.75-0.38-1.13-0.64s-0.72-0.57-0.98-0.87
			c-0.26-0.3-0.45-0.72-0.6-1.17s-0.26-0.98-0.26-1.54c0-1.66,0.6-2.9,1.81-3.77s2.75-1.28,4.67-1.28c1.73,0,3.2,0.38,4.41,1.09
			c1.17,0.75,1.92,1.88,2.22,3.39l-3.28,0.75c-0.45-1.58-1.54-2.41-3.28-2.41c-0.75,0-1.36,0.15-1.88,0.45
			c-0.49,0.3-0.75,0.75-0.75,1.36c0,0.15,0.04,0.34,0.08,0.45c0.04,0.15,0.11,0.26,0.23,0.41c0.11,0.11,0.23,0.23,0.3,0.34
			c0.08,0.11,0.26,0.19,0.45,0.26c0.19,0.11,0.34,0.19,0.49,0.23c0.15,0.04,0.34,0.11,0.6,0.19s0.49,0.15,0.64,0.19
			c0.15,0.04,0.38,0.11,0.72,0.19c0.3,0.08,0.57,0.15,0.72,0.19c0.64,0.15,1.17,0.34,1.62,0.49c0.45,0.15,0.94,0.38,1.47,0.68
			c0.53,0.3,0.98,0.6,1.32,0.98c0.34,0.34,0.6,0.83,0.83,1.39c0.23,0.57,0.34,1.21,0.34,1.88c0,0.75-0.11,1.43-0.38,2
			c-0.23,0.6-0.57,1.09-0.98,1.51c-0.41,0.41-0.94,0.72-1.51,0.98c-0.6,0.26-1.21,0.45-1.85,0.57
			C222.1,1155.65,221.38,1155.72,220.63,1155.72z"/>
		<path class="st28" d="M244.96,1153.31c-1.7,1.62-3.88,2.41-6.59,2.41c-2.67,0-4.9-0.79-6.59-2.41c-1.7-1.62-2.56-3.77-2.56-6.52
			c0-2.71,0.83-4.86,2.56-6.48c1.7-1.58,3.88-2.41,6.59-2.41c2.71,0,4.9,0.79,6.59,2.41c1.7,1.58,2.56,3.77,2.56,6.48
			C247.52,1149.54,246.66,1151.73,244.96,1153.31z M238.33,1152.33c1.47,0,2.67-0.49,3.62-1.51c0.94-1.02,1.39-2.34,1.39-3.99
			s-0.45-2.98-1.39-3.99c-0.94-1.02-2.15-1.51-3.62-1.51c-1.43,0-2.6,0.49-3.54,1.51c-0.9,1.02-1.39,2.34-1.39,3.99
			s0.45,2.98,1.39,3.99C235.73,1151.8,236.9,1152.33,238.33,1152.33z"/>
		<path class="st28" d="M261.84,1138.28h4.22v17.1h-3.99l-0.11-2.11c-0.57,0.79-1.32,1.39-2.22,1.81c-0.9,0.41-1.96,0.64-3.09,0.64
			c-1.96,0-3.5-0.53-4.6-1.54c-1.09-1.02-1.62-2.49-1.62-4.37v-11.53h4.22v10.62c0,1.17,0.3,2.03,0.9,2.56
			c0.6,0.57,1.39,0.83,2.37,0.83c1.17,0,2.07-0.34,2.83-1.05c0.72-0.72,1.09-1.81,1.13-3.28v-9.68H261.84z"/>
		<path class="st28" d="M274.3,1141.07c0.45-0.83,1.17-1.54,2.22-2.11c1.02-0.57,2.15-0.87,3.35-0.9v3.8c-1.85,0-3.2,0.38-4.07,1.09
			c-0.87,0.75-1.32,2-1.32,3.8v8.59h-4.26v-17.06h4.07V1141.07L274.3,1141.07z"/>
		<path class="st28" d="M289.75,1155.72c-2.64,0-4.78-0.83-6.44-2.45c-1.7-1.66-2.52-3.8-2.52-6.44s0.83-4.78,2.52-6.4
			c1.7-1.62,3.84-2.45,6.44-2.45c2.11,0,3.88,0.53,5.35,1.58c1.47,1.05,2.41,2.56,2.86,4.48l-3.92,0.45
			c-0.3-1.05-0.83-1.85-1.58-2.37s-1.66-0.83-2.75-0.83c-1.39,0-2.52,0.49-3.43,1.51c-0.87,1.02-1.32,2.34-1.32,3.99
			c0,1.66,0.45,2.98,1.32,3.99c0.87,1.02,2.03,1.51,3.43,1.51c1.05,0,2-0.26,2.75-0.83c0.75-0.56,1.28-1.32,1.58-2.37l3.92,0.49
			c-0.45,1.92-1.39,3.43-2.86,4.52C293.59,1155.16,291.82,1155.72,289.75,1155.72z"/>
		<path class="st28" d="M316.83,1146.53l-0.08,1.05h-12.92c0.08,1.54,0.57,2.71,1.47,3.54c0.9,0.83,2,1.24,3.31,1.24
			c0.94,0,1.73-0.23,2.45-0.64c0.72-0.45,1.24-1.05,1.62-1.88l3.84,0.64c-0.57,1.66-1.58,2.98-2.98,3.92
			c-1.39,0.94-3.05,1.39-4.9,1.39c-2.71,0-4.9-0.79-6.52-2.37s-2.45-3.77-2.45-6.52s0.83-4.93,2.45-6.52s3.77-2.37,6.37-2.37
			c1.21,0,2.3,0.19,3.31,0.53c0.98,0.34,1.88,0.87,2.64,1.58c0.75,0.68,1.32,1.58,1.73,2.71
			C316.61,1143.82,316.79,1145.1,316.83,1146.53z M308.51,1140.96c-1.21,0-2.22,0.3-3.01,0.94c-0.79,0.64-1.32,1.58-1.54,2.86h8.66
			c-0.11-1.24-0.53-2.18-1.28-2.83C310.62,1141.3,309.67,1140.96,308.51,1140.96z"/>
	</g>
	<g>
		<path class="st32" d="M378.87,1153.24h8.44v2.15H376.5v-23.58h2.34v21.43H378.87z"/>
		<path class="st32" d="M397.18,1155.72c-1.51,0-2.86-0.34-4.07-1.02c-1.21-0.68-2.15-1.7-2.86-2.98c-0.72-1.32-1.05-2.79-1.05-4.52
			c0-2.56,0.75-4.6,2.26-6.14c1.51-1.54,3.43-2.34,5.73-2.34s4.22,0.79,5.73,2.34s2.26,3.58,2.26,6.14s-0.75,4.63-2.26,6.18
			C401.4,1154.93,399.47,1155.72,397.18,1155.72z M393.11,1151.96c1.09,1.21,2.45,1.81,4.07,1.81c1.62,0,3.01-0.6,4.11-1.81
			c1.09-1.21,1.66-2.79,1.66-4.75c0-1.96-0.57-3.5-1.66-4.71c-1.09-1.21-2.45-1.81-4.11-1.81s-2.98,0.6-4.07,1.81
			c-1.09,1.21-1.62,2.75-1.62,4.71C391.45,1149.17,392.02,1150.75,393.11,1151.96z"/>
		<path class="st32" d="M416.01,1155.72c-1.51,0-2.86-0.34-4.07-1.02c-1.21-0.68-2.15-1.7-2.86-2.98c-0.72-1.32-1.05-2.79-1.05-4.52
			c0-2.56,0.75-4.6,2.26-6.14c1.51-1.54,3.43-2.34,5.73-2.34c2.3,0,4.22,0.79,5.73,2.34s2.26,3.58,2.26,6.14s-0.75,4.63-2.26,6.18
			C420.19,1154.93,418.31,1155.72,416.01,1155.72z M411.9,1151.96c1.09,1.21,2.45,1.81,4.07,1.81c1.62,0,3.01-0.6,4.11-1.81
			s1.66-2.79,1.66-4.75c0-1.96-0.57-3.5-1.66-4.71c-1.09-1.21-2.45-1.81-4.11-1.81c-1.62,0-2.98,0.6-4.07,1.81
			c-1.09,1.21-1.62,2.75-1.62,4.71C410.28,1149.17,410.81,1150.75,411.9,1151.96z"/>
		<path class="st32" d="M438.2,1155.38l-6.52-7.83h-1.43v7.83h-2.3v-25.95h2.3v16.27h1.36l5.88-6.7h2.79l-6.67,7.42l7.61,8.93h-3.01
			V1155.38z"/>
		<path class="st32" d="M449.61,1155.72c-1.51,0-2.86-0.34-4.07-1.02c-1.21-0.68-2.15-1.7-2.86-2.98c-0.72-1.32-1.05-2.79-1.05-4.52
			c0-2.56,0.75-4.6,2.26-6.14c1.51-1.54,3.43-2.34,5.73-2.34c2.3,0,4.22,0.79,5.73,2.34s2.26,3.58,2.26,6.14s-0.75,4.63-2.26,6.18
			C453.79,1154.93,451.91,1155.72,449.61,1155.72z M445.5,1151.96c1.09,1.21,2.45,1.81,4.07,1.81s3.01-0.6,4.11-1.81
			s1.66-2.79,1.66-4.75c0-1.96-0.57-3.5-1.66-4.71c-1.09-1.21-2.45-1.81-4.11-1.81c-1.62,0-2.98,0.6-4.07,1.81
			c-1.09,1.21-1.62,2.75-1.62,4.71C443.85,1149.17,444.41,1150.75,445.5,1151.96z"/>
		<path class="st32" d="M471.53,1139.04h2.26v16.35h-2.18l-0.04-2.26c-0.49,0.83-1.17,1.47-2,1.92s-1.77,0.68-2.83,0.68
			c-1.62,0-2.98-0.49-3.99-1.47c-1.02-0.98-1.54-2.37-1.54-4.18v-11.04h2.3v10.51c0,1.39,0.34,2.45,1.05,3.16
			c0.72,0.72,1.62,1.05,2.75,1.05c1.24,0,2.26-0.41,3.01-1.21s1.17-1.96,1.17-3.43v-10.09H471.53z"/>
		<path class="st32" d="M484.23,1155.38c-1.28,0-2.3-0.38-3.01-1.09c-0.75-0.75-1.13-1.77-1.13-3.09v-10.32h-3.39v-1.85h1.32
			c0.83,0,1.39-0.19,1.73-0.53c0.34-0.34,0.49-0.94,0.49-1.73v-3.24h2.15v5.5h3.92v1.85h-3.96v10.06c0,0.79,0.23,1.43,0.68,1.88
			c0.45,0.45,1.02,0.68,1.73,0.68h1.51v1.88H484.23z"/>
	</g>
</g>
<linearGradient id="SVGID_15_" gradientUnits="userSpaceOnUse" x1="108.867" y1="1119.9409" x2="278.2692" y2="950.5387">
	<stop  offset="0" style="stop-color:#F89C30"/>
	<stop  offset="1" style="stop-color:#F15F5F"/>
</linearGradient>
<path class="st33" d="M330.35,1065.76H56.79c-2.81,0-5.09-2.28-5.09-5.09v-50.86c0-2.81,2.28-5.09,5.09-5.09h273.56
	c2.81,0,5.09,2.28,5.09,5.09v50.86C335.43,1063.48,333.16,1065.76,330.35,1065.76z"/>
<text transform="matrix(1 0 0 1 155.5951 1041.5177)" class="st5 st16 st19">sourced.ml</text>
<polygon class="st1" points="365.25,1333.88 356.45,1342.68 348.25,1333.88 "/>
<polygon class="st1" points="365.25,1350.29 356.45,1359.09 348.25,1350.29 "/>
<polygon class="st1" points="517.98,968.5 526.78,959.7 534.98,968.5 "/>
<polygon class="st1" points="517.98,984.71 526.78,975.91 534.98,984.71 "/>
<polygon class="st1" points="535.28,1077.53 526.48,1086.33 518.28,1077.53 "/>
<polygon class="st34" points="535.28,1055.37 526.48,1064.17 518.28,1055.37 "/>
<polygon class="st1" points="356.84,1027.7 365.64,1036.5 356.84,1044.7 "/>
<linearGradient id="SVGID_16_" gradientUnits="userSpaceOnUse" x1="440.3043" y1="1119.9409" x2="609.7065" y2="950.5387">
	<stop  offset="0" style="stop-color:#F89C30"/>
	<stop  offset="1" style="stop-color:#F15F5F"/>
</linearGradient>
<path class="st35" d="M661.78,1065.76H388.23c-2.81,0-5.09-2.28-5.09-5.09v-50.86c0-2.81,2.28-5.09,5.09-5.09h273.56
	c2.81,0,5.09,2.28,5.09,5.09v50.86C666.87,1063.48,664.59,1065.76,661.78,1065.76z"/>
<text transform="matrix(1 0 0 1 487.0326 1041.5177)" class="st5 st16 st19">ML Models</text>
<linearGradient id="SVGID_17_" gradientUnits="userSpaceOnUse" x1="191.367" y1="1574.952" x2="525.7692" y2="1240.5499">
	<stop  offset="0" style="stop-color:#8719CB"/>
	<stop  offset="0.2218" style="stop-color:#8218C8"/>
	<stop  offset="0.4725" style="stop-color:#7516BE"/>
	<stop  offset="0.7364" style="stop-color:#5E12AF"/>
	<stop  offset="1" style="stop-color:#400D9A"/>
</linearGradient>
<path class="st36" d="M660.35,1438.27H56.79c-2.81,0-5.09-2.28-5.09-5.09v-50.86c0-2.81,2.28-5.09,5.09-5.09h603.56
	c2.81,0,5.09,2.28,5.09,5.09v50.86C665.43,1435.99,663.16,1438.27,660.35,1438.27z"/>
<text transform="matrix(1 0 0 1 273.5951 1414.0291)" class="st5 st16 st19">Assisted Code Review</text>
<linearGradient id="SVGID_18_" gradientUnits="userSpaceOnUse" x1="49.2763" y1="1247.6876" x2="193.9999" y2="1247.6876">
	<stop  offset="0" style="stop-color:#F89C30"/>
	<stop  offset="1" style="stop-color:#F15F5F"/>
</linearGradient>
<path class="st37" d="M187.66,1294.88H55.62c-3.5,0-6.34-2.84-6.34-6.34v-81.7c0-3.5,2.84-6.34,6.34-6.34h132.05
	c3.5,0,6.34,2.84,6.34,6.34v81.7C194,1292.04,191.16,1294.88,187.66,1294.88z"/>
<text transform="matrix(1 0 0 1 99.6478 1266.9283)"><tspan x="0" y="0" class="st5 st16 st23">Code</tspan><tspan x="-15.09" y="16.26" class="st5 st16 st23">Analyzers</tspan></text>
<line class="st24" x1="676.37" y1="1430.69" x2="676.37" y2="1447.43"/>
<linearGradient id="SVGID_19_" gradientUnits="userSpaceOnUse" x1="360.1413" y1="1247.6876" x2="504.8649" y2="1247.6876">
	<stop  offset="0" style="stop-color:#F89C30"/>
	<stop  offset="1" style="stop-color:#F15F5F"/>
</linearGradient>
<path class="st38" d="M498.53,1294.88H366.48c-3.5,0-6.34-2.84-6.34-6.34v-81.7c0-3.5,2.84-6.34,6.34-6.34h132.05
	c3.5,0,6.34,2.84,6.34,6.34v81.7C504.86,1292.04,502.03,1294.88,498.53,1294.88z"/>
<text transform="matrix(1 0 0 1 403.3885 1266.9283)"><tspan x="0" y="0" class="st5 st16 st23">Violation</tspan><tspan x="-6.84" y="16.26" class="st5 st16 st23">Prevention</tspan></text>
<linearGradient id="SVGID_20_" gradientUnits="userSpaceOnUse" x1="204.7088" y1="1247.6876" x2="349.4324" y2="1247.6876">
	<stop  offset="0" style="stop-color:#F89C30"/>
	<stop  offset="1" style="stop-color:#F15F5F"/>
</linearGradient>
<path class="st39" d="M343.09,1294.88H211.05c-3.5,0-6.34-2.84-6.34-6.34v-81.7c0-3.5,2.84-6.34,6.34-6.34h132.05
	c3.5,0,6.34,2.84,6.34,6.34v81.7C349.43,1292.04,346.59,1294.88,343.09,1294.88z"/>
<text transform="matrix(1 0 0 1 234.952 1266.9283)"><tspan x="0" y="0" class="st5 st16 st23">Automated</tspan><tspan x="5.64" y="16.26" class="st5 st16 st23">Checking</tspan></text>
<linearGradient id="SVGID_21_" gradientUnits="userSpaceOnUse" x1="515.5739" y1="1247.6876" x2="660.2974" y2="1247.6876">
	<stop  offset="0" style="stop-color:#F89C30"/>
	<stop  offset="1" style="stop-color:#F15F5F"/>
</linearGradient>
<path class="st40" d="M653.96,1294.88H521.91c-3.5,0-6.34-2.84-6.34-6.34v-81.7c0-3.5,2.84-6.34,6.34-6.34h132.05
	c3.5,0,6.34,2.84,6.34,6.34v81.7C660.3,1292.04,657.46,1294.88,653.96,1294.88z"/>
<path class="st41" d="M667.7,1310.96H45c-8.44,0-15.28-6.84-15.28-15.28v-185.71c0-8.44,6.84-15.28,15.28-15.28H667.7
	c8.44,0,15.28,6.84,15.28,15.28v185.71C682.97,1304.12,676.13,1310.96,667.7,1310.96z"/>
<linearGradient id="SVGID_22_" gradientUnits="userSpaceOnUse" x1="191.6228" y1="1082.5759" x2="526.025" y2="748.1738">
	<stop  offset="0" style="stop-color:#8719CB"/>
	<stop  offset="0.2218" style="stop-color:#8218C8"/>
	<stop  offset="0.4725" style="stop-color:#7516BE"/>
	<stop  offset="0.7364" style="stop-color:#5E12AF"/>
	<stop  offset="1" style="stop-color:#400D9A"/>
</linearGradient>
<path class="st42" d="M660.6,945.89H57.04c-2.81,0-5.09-2.28-5.09-5.09v-50.86c0-2.81,2.28-5.09,5.09-5.09H660.6
	c2.81,0,5.09,2.28,5.09,5.09v50.86C665.69,943.61,663.41,945.89,660.6,945.89z"/>
<text transform="matrix(1 0 0 1 320.851 921.6528)" class="st5 st16 st19">Applications</text>
<g class="st20">
	<g>
		<path class="st5" d="M245.35,1426.34c-2.55,0-5-0.94-6.83-2.78c-1.94-1.89-3.05-4.44-3.05-7.16c0-0.56,0.44-1,1-1
			c0.56,0,1,0.44,1,1c0,2.17,0.83,4.16,2.44,5.66c1.55,1.5,3.61,2.28,5.78,2.17c4.22-0.17,7.61-3.83,7.61-8.16v-0.72h-2.11
			c-0.56,0-1-0.44-1-1v-1.44h-1.28c-1.06,0-1.94-0.89-1.94-1.94v-0.06h-1.28c-1.06,0-1.94-0.89-1.94-1.94v-9
			c0-0.39-0.33-0.72-0.72-0.72c-0.39,0-0.72,0.33-0.72,0.72v14.99c0,0.56-0.44,1-1,1c-0.56,0-1-0.44-1-1v-14.99
			c0-1.5,1.22-2.78,2.78-2.78s2.78,1.22,2.78,2.78v9h1.17c1.06,0,1.94,0.89,1.94,1.94v0.06h1.28c1.06,0,1.94,0.89,1.94,1.94v0.5
			h1.22c1.06,0,1.89,0.83,1.89,1.89v0.89c0,5.5-4.22,10-9.55,10.16C245.62,1426.34,245.46,1426.34,245.35,1426.34z"/>
		<path class="st5" d="M235.3,1407.74c-0.89,0-1.55-0.22-1.94-0.61c-0.44-0.39-0.61-1.17-0.61-2.28c0-0.39,0-0.67,0.06-0.94
			c0-0.28,0.06-0.56,0.06-0.83c0-0.28,0.06-0.5,0.06-0.78c0-0.28,0.06-0.56,0.06-0.89c0-0.17-0.06-0.33-0.11-0.5
			c-0.06-0.17-0.17-0.33-0.28-0.5c-0.11-0.17-0.33-0.28-0.56-0.33c-0.22-0.11-0.5-0.11-0.83-0.17v-1.72c0.33,0,0.61-0.06,0.83-0.17
			c0.22-0.11,0.39-0.22,0.56-0.33c0.11-0.17,0.22-0.28,0.28-0.5c0.06-0.17,0.11-0.33,0.11-0.5c0-0.33,0-0.61-0.06-0.89
			c0-0.28-0.06-0.5-0.06-0.78c0-0.28-0.06-0.56-0.06-0.83c0-0.28-0.06-0.61-0.06-0.94c0-1.11,0.22-1.83,0.61-2.28
			c0.44-0.39,1.06-0.61,1.94-0.61h1.28v1.55h-0.39c-0.44,0-0.72,0.11-0.83,0.28c-0.17,0.22-0.22,0.56-0.22,1.11s0,1.11,0.06,1.61
			c0,0.5,0.06,1.06,0.06,1.72c0,0.78-0.11,1.33-0.39,1.67c-0.22,0.33-0.61,0.56-1.11,0.72v0.06c0.5,0.11,0.89,0.33,1.11,0.72
			c0.22,0.33,0.39,0.89,0.39,1.67c0,0.61,0,1.17-0.06,1.72c0,0.5-0.06,1.06-0.06,1.61s0.06,0.94,0.22,1.11
			c0.17,0.22,0.44,0.28,0.83,0.28h0.39v1.55H235.3z"/>
	</g>
</g>
<g class="st20">
	<path class="st5" d="M111.98,1041.14c-0.61,0-1.1-0.49-1.1-1.1v-9.61h2.23v9.61C113.11,1040.65,112.62,1041.14,111.98,1041.14z"/>
	<path class="st5" d="M119.92,1055.14c-0.61,0-1.1-0.49-1.1-1.1v-15.29h2.23v15.29C121.06,1054.65,120.56,1055.14,119.92,1055.14z"
		/>
	<path class="st5" d="M125.6,1055.14c-0.61,0-1.1-0.49-1.1-1.1v-15.29h2.23v15.29C126.73,1054.65,126.24,1055.14,125.6,1055.14z"/>
	<path class="st5" d="M122.68,1022.38c-3.82,0-6.96,2.76-7.57,6.39h15.13C129.65,1025.14,126.5,1022.38,122.68,1022.38z
		 M120.3,1027.45c-0.91,0-1.66-0.76-1.66-1.66c0-0.91,0.76-1.66,1.66-1.66s1.66,0.76,1.66,1.66
		C121.96,1026.73,121.21,1027.45,120.3,1027.45z M125.11,1027.45c-0.91,0-1.66-0.76-1.66-1.66c0-0.91,0.76-1.66,1.66-1.66
		s1.66,0.76,1.66,1.66C126.73,1026.73,126.01,1027.45,125.11,1027.45z"/>
	<path class="st5" d="M135.51,1030.28h-24.56c0.15,4.05,2.27,7.61,5.45,9.72c3.94,2.99,10.75,2.23,13.24,0.3
		C133.05,1038.23,135.36,1034.56,135.51,1030.28z"/>
	<path class="st5" d="M141.56,1015.41l-1.1,2.69l-1.89,0.11l-1.29-1.4l1.1-2.69c-1.44,0.11-2.72,0.98-3.29,2.42
		c-0.57,1.4-0.26,2.91,0.64,3.97c-0.04,0.08-0.08,0.11-0.08,0.19l-3.44,9.04c-0.38,0.95,0.08,1.97,0.98,2.35
		c0.95,0.38,1.97-0.08,2.35-0.98l3.44-9.04c0.04-0.08,0.04-0.15,0.08-0.19c1.4-0.15,2.65-1.02,3.22-2.42
		C142.81,1018.03,142.51,1016.47,141.56,1015.41L141.56,1015.41z"/>
</g>
<text transform="matrix(1 0 0 1 577.3202 1266.9283)"><tspan x="0" y="0" class="st5 st16 st23">Fix</tspan><tspan x="-30.8" y="16.26" class="st5 st16 st23">Suggestion</tspan></text>
<g class="st20">
	<g>
		<g>
			<path class="st5" d="M451.12,1244.59h-28.82c-0.35,0-0.71-0.18-0.88-0.53c-0.18-0.35-0.24-0.71-0.06-1.06l13.91-28.82
				c0.18-0.35,0.53-0.59,0.94-0.59c0.41,0,0.77,0.24,0.94,0.59l14.85,28.82c0.18,0.35,0.18,0.71-0.06,1.06
				C451.83,1244.35,451.48,1244.59,451.12,1244.59z M424.02,1242.41h25.34l-13.08-25.34L424.02,1242.41z"/>
			<g>
				<path class="st5" d="M436.69,1239.22c-0.35,0-0.65-0.12-0.88-0.35c-0.24-0.24-0.35-0.53-0.35-0.88c0-0.35,0.12-0.65,0.35-0.88
					c0.24-0.24,0.53-0.35,0.88-0.35c0.35,0,0.65,0.12,0.88,0.35s0.35,0.53,0.35,0.88c0,0.35-0.12,0.65-0.35,0.88
					S437.04,1239.22,436.69,1239.22z M436.04,1235.75l-0.29-3.3l-0.06-5.19h2.06l-0.06,5.19l-0.29,3.3H436.04z"/>
			</g>
		</g>
	</g>
</g>
<g class="st20">
	<g>
		<path class="st5" d="M121.62,1240.32c-7.62,0-13.86-6.24-13.86-13.86c0-7.62,6.24-13.86,13.86-13.86s13.86,6.24,13.86,13.86
			C135.48,1234.08,129.3,1240.32,121.62,1240.32z M121.62,1214.57c-6.56,0-11.89,5.33-11.89,11.89c0,6.56,5.33,11.89,11.89,11.89
			c6.56,0,11.89-5.33,11.89-11.89C133.51,1219.9,128.18,1214.57,121.62,1214.57z"/>
		<path class="st5" d="M133.51,1248.53c-0.32,0-0.64-0.16-0.85-0.48l-5.7-9.76c-0.27-0.48-0.11-1.07,0.37-1.33
			c0.48-0.27,1.07-0.11,1.33,0.37l5.65,9.81c0.27,0.48,0.11,1.07-0.37,1.33C133.83,1248.53,133.67,1248.53,133.51,1248.53z"/>
		<path class="st5" d="M121.99,1235.15c-0.85,0-1.49-0.21-1.87-0.59c-0.43-0.37-0.59-1.12-0.59-2.19c0-0.37,0-0.64,0.05-0.91
			c0-0.27,0.05-0.53,0.05-0.8c0-0.27,0.05-0.48,0.05-0.75c0-0.27,0.05-0.53,0.05-0.85c0-0.16-0.05-0.32-0.11-0.48
			s-0.16-0.32-0.27-0.48s-0.32-0.27-0.53-0.32c-0.21-0.11-0.48-0.11-0.8-0.16v-1.65c0.32,0,0.59-0.05,0.8-0.16
			c0.21-0.11,0.37-0.21,0.53-0.32c0.11-0.16,0.21-0.27,0.27-0.48c0.05-0.16,0.11-0.32,0.11-0.48c0-0.32,0-0.59-0.05-0.85
			c0-0.27-0.05-0.48-0.05-0.75c0-0.27-0.05-0.53-0.05-0.8c0-0.27-0.05-0.59-0.05-0.91c0-1.07,0.21-1.76,0.59-2.19
			c0.43-0.37,1.01-0.59,1.87-0.59h1.23v1.49h-0.37c-0.43,0-0.69,0.11-0.8,0.27c-0.16,0.21-0.21,0.53-0.21,1.07s0,1.07,0.05,1.55
			c0,0.48,0.05,1.01,0.05,1.65c0,0.75-0.11,1.28-0.37,1.6c-0.21,0.32-0.59,0.53-1.07,0.69v0.05c0.48,0.11,0.85,0.32,1.07,0.69
			c0.21,0.32,0.37,0.85,0.37,1.6c0,0.59,0,1.12-0.05,1.65c0,0.48-0.05,1.01-0.05,1.55s0.05,0.91,0.21,1.07
			c0.16,0.21,0.43,0.27,0.8,0.27h0.37v1.49H121.99z"/>
	</g>
</g>
<g class="st20">
	<g>
		<path class="st5" d="M611.96,1241.71h-20.09c-0.77,0-1.38-0.61-1.38-1.38v-6.44c0-0.77,0.61-1.38,1.38-1.38
			c0.77,0,1.38,0.61,1.38,1.38v5.06h17.33v-5.29c0-0.77,0.61-1.38,1.38-1.38s1.38,0.61,1.38,1.38v6.75
			C613.42,1241.09,612.73,1241.71,611.96,1241.71z"/>
		<path class="st5" d="M572.24,1242.32c-0.54,0-1-0.31-1.23-0.77l-8.36-17.41c-0.31-0.69-0.08-1.53,0.61-1.84
			c0.69-0.31,1.53-0.08,1.84,0.61l8.36,17.33c0.31,0.69,0.08,1.53-0.61,1.84C572.7,1242.24,572.47,1242.32,572.24,1242.32z"/>
		<g>
			<path class="st5" d="M582.59,1241.63c-0.92,0-1.69-0.15-2.3-0.38c-0.61-0.31-1.15-0.69-1.53-1.15c-0.38-0.46-0.69-1.07-0.84-1.76
				c-0.15-0.69-0.23-1.46-0.23-2.3v-7.36h-2.22v-2.68l2.38-0.15l0.46-4.22h2.99v4.22h3.91v2.84h-3.91v7.36
				c0,1.76,0.69,2.68,2.15,2.68c0.31,0,0.54,0,0.84-0.08c0.31-0.08,0.54-0.15,0.77-0.23l0.61,2.68c-0.38,0.15-0.92,0.31-1.46,0.38
				C583.82,1241.55,583.21,1241.63,582.59,1241.63z"/>
		</g>
	</g>
</g>
<g class="st20">
	<g>
		<path class="st5" d="M264.84,1241.66c-0.89,0-1.55-0.22-1.94-0.61c-0.44-0.39-0.61-1.17-0.61-2.28c0-0.39,0-0.67,0.06-0.94
			c0-0.28,0.06-0.56,0.06-0.83c0-0.28,0.06-0.5,0.06-0.78c0-0.28,0.06-0.56,0.06-0.89c0-0.17-0.06-0.33-0.11-0.5
			c-0.06-0.17-0.17-0.33-0.28-0.5c-0.11-0.17-0.33-0.28-0.56-0.33c-0.22-0.11-0.5-0.11-0.83-0.17v-1.72c0.33,0,0.61-0.06,0.83-0.17
			c0.22-0.11,0.39-0.22,0.56-0.33c0.11-0.17,0.22-0.28,0.28-0.5c0.06-0.17,0.11-0.33,0.11-0.5c0-0.33,0-0.61-0.06-0.89
			c0-0.28-0.06-0.5-0.06-0.78c0-0.28-0.06-0.56-0.06-0.83c0-0.28-0.06-0.61-0.06-0.94c0-1.11,0.22-1.83,0.61-2.28
			c0.44-0.39,1.06-0.61,1.94-0.61h1.28v1.55h-0.39c-0.44,0-0.72,0.11-0.83,0.28c-0.17,0.22-0.22,0.56-0.22,1.11s0,1.11,0.06,1.61
			c0,0.5,0.06,1.06,0.06,1.72c0,0.78-0.11,1.33-0.39,1.67c-0.22,0.33-0.61,0.56-1.11,0.72v0.06c0.5,0.11,0.89,0.33,1.11,0.72
			c0.22,0.33,0.39,0.89,0.39,1.67c0,0.61,0,1.17-0.06,1.72c0,0.5-0.06,1.06-0.06,1.61s0.06,0.94,0.22,1.11
			c0.17,0.22,0.44,0.28,0.83,0.28h0.39v1.55H264.84z"/>
		<g>
			<path class="st5" d="M277.74,1226.69c-2.63,0-4.51,1.96-4.83,4.05c-0.19,1.4,0.27,2.76,1.21,3.8c0.84,0.88,1.27,2.07,1.27,3.28
				v1.92c0,0.77,0.65,1.4,1.44,1.4h1.84c0.79,0,1.44-0.63,1.44-1.4v-1.92c0-1.25,0.42-2.4,1.21-3.22c0.86-0.88,1.32-2.03,1.32-3.22
				C282.66,1228.78,280.42,1226.69,277.74,1226.69z M279.4,1239.76c0,0.38-0.29,0.67-0.69,0.67h-1.84c-0.38,0-0.69-0.29-0.69-0.67
				v-0.86h3.2L279.4,1239.76z M280.8,1234.11c-0.94,0.96-1.44,2.28-1.44,3.72v0.33h-3.2v-0.33c0-1.36-0.56-2.74-1.5-3.76
				c-0.84-0.88-1.17-2.03-1.02-3.22c0.27-1.78,1.9-3.43,4.12-3.43c2.3,0,4.16,1.82,4.16,3.99
				C281.9,1232.4,281.53,1233.36,280.8,1234.11L280.8,1234.11z"/>
			<path class="st5" d="M277.37,1223.81h0.75v1.78h-0.75V1223.81z"/>
			<path class="st5" d="M282.32,1227.22l0.52,0.54l1.3-1.25l-0.54-0.52L282.32,1227.22z"/>
			<path class="st5" d="M284.58,1231.77h1.84v0.73h-1.84V1231.77z"/>
			<path class="st5" d="M269.07,1231.77h1.84v0.73h-1.84V1231.77z"/>
			<path class="st5" d="M271.87,1225.98l-0.52,0.52l1.27,1.23l0.54-0.52L271.87,1225.98z"/>
		</g>
		<path class="st5" d="M290.97,1241.66c0.89,0,1.55-0.22,1.94-0.61c0.44-0.39,0.61-1.17,0.61-2.28c0-0.39,0-0.67-0.06-0.94
			c0-0.28-0.06-0.56-0.06-0.83c0-0.28-0.06-0.5-0.06-0.78c0-0.28-0.06-0.56-0.06-0.89c0-0.17,0.06-0.33,0.11-0.5
			c0.06-0.17,0.17-0.33,0.28-0.5c0.11-0.17,0.33-0.28,0.56-0.33c0.22-0.11,0.5-0.11,0.83-0.17v-1.72c-0.33,0-0.61-0.06-0.83-0.17
			c-0.22-0.11-0.39-0.22-0.56-0.33c-0.11-0.17-0.22-0.28-0.28-0.5c-0.06-0.17-0.11-0.33-0.11-0.5c0-0.33,0-0.61,0.06-0.89
			c0-0.28,0.06-0.5,0.06-0.78c0-0.28,0.06-0.56,0.06-0.83c0-0.28,0.06-0.61,0.06-0.94c0-1.11-0.22-1.83-0.61-2.28
			c-0.44-0.39-1.06-0.61-1.94-0.61h-1.28v1.55h0.39c0.44,0,0.72,0.11,0.83,0.28c0.17,0.22,0.22,0.56,0.22,1.11s0,1.11-0.06,1.61
			c0,0.5-0.06,1.06-0.06,1.72c0,0.78,0.11,1.33,0.39,1.67c0.22,0.33,0.61,0.56,1.11,0.72v0.06c-0.5,0.11-0.89,0.33-1.11,0.72
			c-0.22,0.33-0.39,0.89-0.39,1.67c0,0.61,0,1.17,0.06,1.72c0,0.5,0.06,1.06,0.06,1.61s-0.06,0.94-0.22,1.11
			c-0.17,0.22-0.44,0.28-0.83,0.28h-0.39v1.55H290.97z"/>
	</g>
</g>
<g>
	<path class="st1" d="M366.55,1469.6h-4.68c-0.12,0-0.22,0.1-0.22,0.22v2.29c0,0.12,0.1,0.22,0.22,0.22h1.83v2.84
		c0,0-0.41,0.14-1.54,0.14c-1.34,0-3.21-0.49-3.21-4.6c0-4.11,1.95-4.65,3.77-4.65c1.58,0,2.26,0.28,2.7,0.41
		c0.14,0.04,0.26-0.09,0.26-0.21l0.52-2.21c0-0.06-0.02-0.12-0.08-0.17c-0.18-0.13-1.25-0.73-3.96-0.73c-3.12,0-6.33,1.33-6.33,7.72
		c0,6.39,3.67,7.34,6.76,7.34c2.56,0,4.11-1.09,4.11-1.09c0.06-0.04,0.07-0.12,0.07-0.17v-7.14
		C366.77,1469.7,366.67,1469.6,366.55,1469.6z"/>
	<path class="st1" d="M390.67,1463.92c0-0.12-0.1-0.22-0.22-0.22h-2.64c-0.12,0-0.22,0.1-0.22,0.22c0,0,0,5.09,0,5.09h-4.11v-5.09
		c0-0.12-0.1-0.22-0.22-0.22h-2.64c-0.12,0-0.22,0.1-0.22,0.22v13.79c0,0.12,0.1,0.22,0.22,0.22h2.64c0.12,0,0.22-0.1,0.22-0.22
		v-5.9h4.11c0,0-0.01,5.9-0.01,5.9c0,0.12,0.1,0.22,0.22,0.22h2.64c0.12,0,0.22-0.1,0.22-0.22V1463.92z"/>
	<g>
		<g>
			<path class="st1" d="M371.52,1465.73c0-0.95-0.76-1.72-1.7-1.72c-0.94,0-1.7,0.77-1.7,1.72c0,0.95,0.76,1.72,1.7,1.72
				C370.76,1467.45,371.52,1466.68,371.52,1465.73z"/>
			<path class="st1" d="M371.34,1474.8c0-0.35,0-6.37,0-6.37c0-0.12-0.1-0.22-0.22-0.22h-2.63c-0.12,0-0.23,0.12-0.23,0.25
				c0,0,0,7.66,0,9.12c0,0.27,0.17,0.35,0.38,0.35c0,0,1.12,0,2.37,0c0.26,0,0.32-0.13,0.32-0.35
				C371.34,1477.09,371.34,1475.17,371.34,1474.8z"/>
		</g>
	</g>
	<path class="st1" d="M400.69,1468.24h-2.62c-0.12,0-0.22,0.1-0.22,0.22v6.76c0,0-0.66,0.49-1.61,0.49c-0.94,0-1.19-0.43-1.19-1.35
		c0-0.92,0-5.9,0-5.9c0-0.12-0.1-0.22-0.22-0.22h-2.65c-0.12,0-0.22,0.1-0.22,0.22c0,0,0,3.6,0,6.34c0,2.74,1.53,3.41,3.63,3.41
		c1.72,0,3.12-0.95,3.12-0.95s0.07,0.5,0.1,0.56c0.03,0.06,0.11,0.12,0.19,0.12l1.69-0.01c0.12,0,0.22-0.1,0.22-0.22l0-9.26
		C400.91,1468.34,400.81,1468.24,400.69,1468.24z"/>
	<path class="st1" d="M407.84,1467.93c-1.49,0-2.5,0.66-2.5,0.66v-4.67c0-0.12-0.1-0.22-0.22-0.22h-2.64c-0.12,0-0.22,0.1-0.22,0.22
		v13.79c0,0.12,0.1,0.22,0.22,0.22c0,0,1.83,0,1.83,0c0.08,0,0.15-0.04,0.19-0.12c0.05-0.07,0.11-0.64,0.11-0.64
		s1.08,1.02,3.13,1.02c2.4,0,3.78-1.22,3.78-5.47S409.32,1467.93,407.84,1467.93z M406.8,1475.7c-0.91-0.03-1.52-0.44-1.52-0.44
		v-4.37c0,0,0.61-0.37,1.35-0.44c0.94-0.08,1.85,0.2,1.85,2.45C408.48,1475.27,408.07,1475.74,406.8,1475.7z"/>
	<path class="st1" d="M378.91,1468.22h-1.98c0,0,0-2.61,0-2.61c0-0.1-0.05-0.15-0.17-0.15h-2.69c-0.1,0-0.16,0.05-0.16,0.15v2.7
		c0,0-1.35,0.33-1.44,0.35c-0.09,0.03-0.16,0.11-0.16,0.21v1.7c0,0.12,0.1,0.22,0.22,0.22h1.38c0,0,0,1.77,0,4.08
		c0,3.03,2.13,3.33,3.56,3.33c0.66,0,1.44-0.21,1.57-0.26c0.08-0.03,0.12-0.11,0.12-0.2l0-1.87c0-0.12-0.1-0.22-0.22-0.22
		c-0.12,0-0.41,0.05-0.71,0.05c-0.97,0-1.3-0.45-1.3-1.04c0-0.58,0-3.88,0-3.88h1.98c0.12,0,0.22-0.1,0.22-0.22v-2.12
		C379.13,1468.31,379.03,1468.22,378.91,1468.22z"/>
</g>
<g>
	<path class="st14" d="M332.76,1459.11c-6.56,0-11.87,5.32-11.87,11.88c0,5.25,3.4,9.7,8.12,11.27c0.59,0.11,0.81-0.26,0.81-0.57
		c0-0.28-0.01-1.03-0.02-2.02c-3.3,0.72-4-1.59-4-1.59c-0.54-1.37-1.32-1.74-1.32-1.74c-1.08-0.74,0.08-0.72,0.08-0.72
		c1.19,0.08,1.82,1.22,1.82,1.22c1.06,1.81,2.78,1.29,3.46,0.99c0.11-0.77,0.41-1.29,0.75-1.59c-2.64-0.3-5.41-1.32-5.41-5.87
		c0-1.3,0.46-2.36,1.22-3.19c-0.12-0.3-0.53-1.51,0.12-3.14c0,0,1-0.32,3.27,1.22c0.95-0.26,1.96-0.4,2.97-0.4
		c1.01,0,2.02,0.14,2.97,0.4c2.27-1.54,3.26-1.22,3.26-1.22c0.65,1.63,0.24,2.84,0.12,3.14c0.76,0.83,1.22,1.89,1.22,3.19
		c0,4.56-2.78,5.57-5.42,5.86c0.43,0.37,0.81,1.09,0.81,2.2c0,1.59-0.01,2.87-0.01,3.26c0,0.32,0.21,0.69,0.82,0.57
		c4.71-1.57,8.11-6.02,8.11-11.27C344.64,1464.42,339.32,1459.11,332.76,1459.11z"/>
</g>
<g class="st43">
	<g>
		<path class="st5" d="M286.69,917.23c-0.1,0-0.19-0.02-0.28-0.07l-17.14-9.48c-0.18-0.1-0.29-0.28-0.3-0.48
			c-0.01-0.2,0.09-0.39,0.26-0.51l16.6-11.06c0.18-0.12,0.41-0.13,0.6-0.02l17.14,9.48c0.18,0.1,0.29,0.28,0.3,0.48
			c0.01,0.2-0.09,0.39-0.26,0.51l-16.6,11.06C286.92,917.2,286.81,917.23,286.69,917.23z M270.67,907.12l15.99,8.85l15.51-10.34
			l-15.99-8.85L270.67,907.12z"/>
		<path class="st5" d="M285.22,936.73c-0.1,0-0.19-0.02-0.28-0.07l-15.67-8.7c-0.18-0.1-0.3-0.3-0.3-0.51v-17.37
			c0-0.21,0.11-0.4,0.29-0.5c0.18-0.1,0.4-0.11,0.58-0.01l15.67,8.67c0.18,0.1,0.3,0.3,0.3,0.51v17.41c0,0.21-0.11,0.4-0.29,0.5
			C285.43,936.7,285.33,936.73,285.22,936.73z M270.14,927.1l14.51,8.06v-16.08l-14.51-8.02V927.1z"/>
		<path class="st5" d="M288.05,936.61c-0.09,0-0.19-0.02-0.27-0.07c-0.19-0.1-0.31-0.3-0.31-0.51v-17.37c0-0.19,0.1-0.38,0.26-0.48
			L302.97,908c0.18-0.12,0.41-0.13,0.6-0.03c0.19,0.1,0.31,0.3,0.31,0.51v17.41c0,0.19-0.1,0.38-0.26,0.48l-15.24,10.14
			C288.27,936.58,288.16,936.61,288.05,936.61z M288.63,918.97v15.98l14.08-9.36v-16.01L288.63,918.97z"/>
	</g>
	<g>
		<g>
			<path class="st5" d="M275.13,917.38l-1.24-0.77c-0.12-0.08-0.19-0.04-0.19,0.08v3.71l-0.77-0.46c-0.12-0.08-0.19-0.04-0.19,0.08
				v0.89c0,0.12,0.08,0.27,0.19,0.35l0.74,0.43v3.6c0,0.12,0.08,0.27,0.19,0.35l1.04,0.62c0.12,0.08,0.19,0.04,0.19-0.08
				c0-0.12-0.08-0.27-0.19-0.35l-0.81-0.5v-3.6c0-0.12-0.08-0.27-0.19-0.35l-0.74-0.43v-0.46l0.77,0.46
				c0.12,0.08,0.19,0.04,0.19-0.08v-3.71l1.04,0.62c0.12,0.08,0.19,0.04,0.19-0.08S275.24,917.46,275.13,917.38z"/>
			<path class="st5" d="M275,926.48c-0.06,0-0.13-0.02-0.21-0.07l-1.04-0.61c-0.17-0.12-0.29-0.32-0.29-0.51v-3.49l-0.64-0.37
				c-0.17-0.11-0.29-0.33-0.29-0.52v-0.89c0-0.13,0.05-0.23,0.15-0.28c0.06-0.03,0.18-0.07,0.34,0.04l0.47,0.28v-3.37
				c0-0.13,0.05-0.23,0.15-0.28c0.06-0.03,0.18-0.07,0.34,0.04l1.24,0.77c0.12,0.08,0.32,0.25,0.32,0.47c0,0.13-0.05,0.23-0.15,0.28
				c-0.06,0.03-0.18,0.07-0.34-0.04l-0.74-0.44v3.37c0,0.13-0.05,0.23-0.15,0.28c-0.06,0.03-0.18,0.07-0.34-0.04l-0.47-0.28v0.01
				l0.64,0.37c0.17,0.12,0.29,0.33,0.29,0.52v3.49l0.72,0.45c0.17,0.11,0.29,0.33,0.29,0.51c0,0.13-0.05,0.23-0.15,0.28
				C275.1,926.46,275.06,926.48,275,926.48z M273.85,921.6v3.67c0,0.03,0.01,0.07,0.04,0.11v-3.67
				C273.89,921.69,273.87,921.64,273.85,921.6z M272.92,920.16v0.74c0,0.03,0.02,0.07,0.04,0.11v-0.83L272.92,920.16z
				 M273.89,920.69l0.04,0.02v-3.85l-0.04-0.02V920.69z"/>
		</g>
		<g>
			<path class="st5" d="M279.34,919.82l1.24,0.66c0.12,0.08,0.19,0.19,0.19,0.31v3.71l0.77,0.43c0.12,0.08,0.19,0.19,0.19,0.31v0.89
				c0,0.12-0.08,0.15-0.19,0.08l-0.74-0.39v3.6c0,0.12-0.08,0.15-0.19,0.08l-1.04-0.58c-0.12-0.08-0.19-0.19-0.19-0.31
				c0-0.12,0.08-0.15,0.19-0.08l0.81,0.46v-3.6c0-0.12,0.08-0.15,0.19-0.08l0.74,0.39v-0.46l-0.77-0.43
				c-0.12-0.08-0.19-0.19-0.19-0.31v-3.71l-1.04-0.58c-0.12-0.08-0.19-0.19-0.19-0.31C279.15,919.82,279.23,919.78,279.34,919.82z"
				/>
			<path class="st5" d="M280.73,929.73c-0.06,0-0.13-0.02-0.21-0.07l-1.03-0.57c-0.19-0.13-0.29-0.3-0.29-0.48
				c0-0.13,0.05-0.23,0.15-0.28c0.06-0.03,0.18-0.07,0.34,0.04l0.51,0.29v-3.26c0-0.13,0.05-0.23,0.15-0.28
				c0.06-0.03,0.18-0.07,0.34,0.04l0.43,0.23v-0.03l-0.67-0.37c-0.19-0.13-0.29-0.3-0.29-0.48v-3.6l-0.95-0.53
				c-0.19-0.13-0.29-0.3-0.29-0.48v-0.05l0.02-0.04c0.09-0.17,0.27-0.24,0.47-0.17l0.03,0.01l1.24,0.66c0.19,0.13,0.3,0.3,0.3,0.48
				v3.6l0.67,0.37c0.19,0.13,0.29,0.3,0.29,0.48v0.89c0,0.13-0.05,0.23-0.15,0.28c-0.06,0.03-0.18,0.07-0.34-0.04l-0.43-0.23v3.28
				c0,0.13-0.05,0.23-0.15,0.28C280.83,929.71,280.78,929.73,280.73,929.73z M280.58,929.25l0.04,0.02v-3.72l-0.04-0.02V929.25z
				 M281.51,925.96l0.04,0.02v-0.75c0-0.02-0.01-0.06-0.04-0.09V925.96z M280.54,920.7v3.8c0,0.02,0.01,0.05,0.04,0.09v-3.8
				C280.58,920.76,280.57,920.73,280.54,920.7z"/>
		</g>
	</g>
	<g>
		<g>
			<path class="st5" d="M297.76,917.03l1.12-0.77c0.12-0.08,0.19-0.04,0.19,0.04v3.4l0.7-0.5c0.12-0.08,0.19-0.04,0.19,0.04v0.81
				c0,0.12-0.08,0.23-0.19,0.31l-0.66,0.46v3.33c0,0.12-0.08,0.23-0.19,0.31l-0.93,0.66c-0.12,0.08-0.19,0.04-0.19-0.04
				s0.08-0.23,0.19-0.31l0.77-0.54v-3.33c0-0.12,0.08-0.23,0.19-0.31l0.66-0.46v-0.43l-0.7,0.5c-0.12,0.08-0.19,0.04-0.19-0.04v-3.4
				l-0.93,0.66c-0.12,0.08-0.19,0.04-0.19-0.04C297.6,917.31,297.64,917.11,297.76,917.03z"/>
			<path class="st5" d="M297.88,925.35c-0.06,0-0.11-0.02-0.13-0.03c-0.09-0.05-0.14-0.14-0.14-0.24c0-0.16,0.13-0.37,0.28-0.47
				l0.69-0.48v-3.23c0-0.17,0.1-0.35,0.27-0.46c-0.06,0.01-0.12,0-0.17-0.03c-0.09-0.05-0.14-0.14-0.14-0.24v-3.03l-0.62,0.44
				c-0.18,0.12-0.31,0.07-0.36,0.05c-0.09-0.05-0.14-0.14-0.14-0.24c0-0.1,0.04-0.38,0.24-0.51l1.12-0.77
				c0.18-0.12,0.31-0.07,0.36-0.04c0.09,0.05,0.14,0.14,0.14,0.24v3.03l0.39-0.28c0.18-0.12,0.31-0.07,0.36-0.05
				c0.09,0.05,0.14,0.14,0.14,0.24v0.81c0,0.18-0.1,0.35-0.28,0.47l-0.57,0.4v3.23c0,0.18-0.1,0.35-0.28,0.47l-0.92,0.65
				C298.01,925.34,297.94,925.35,297.88,925.35z"/>
		</g>
		<g>
			<path class="st5" d="M293.89,919.59l-1.12,0.7c-0.12,0.08-0.19,0.19-0.19,0.31v3.4l-0.7,0.46c-0.12,0.08-0.19,0.19-0.19,0.31
				v0.81c0,0.12,0.08,0.15,0.19,0.08l0.66-0.43v3.33c0,0.12,0.08,0.15,0.19,0.08l0.93-0.58c0.12-0.08,0.19-0.19,0.19-0.31
				c0-0.12-0.08-0.15-0.19-0.08l-0.77,0.46v-3.33c0-0.12-0.08-0.15-0.19-0.08l-0.66,0.43v-0.43l0.7-0.46
				c0.12-0.08,0.19-0.19,0.19-0.31v-3.4l0.93-0.58c0.12-0.08,0.19-0.19,0.19-0.31C294.08,919.55,294.01,919.55,293.89,919.59z"/>
			<path class="st5" d="M292.62,928.87c-0.06,0-0.1-0.02-0.13-0.03c-0.1-0.05-0.15-0.15-0.15-0.28v-2.97l-0.36,0.23
				c-0.16,0.11-0.28,0.07-0.34,0.04c-0.1-0.05-0.15-0.15-0.15-0.28v-0.81c0-0.18,0.1-0.35,0.28-0.47l0.61-0.41v-3.3
				c0-0.18,0.1-0.35,0.28-0.47l1.17-0.72c0.06-0.02,0.23-0.08,0.35,0.04c0.04,0.04,0.09,0.12,0.06,0.25
				c-0.01,0.17-0.11,0.33-0.28,0.44l-0.84,0.53v3.3c0,0.18-0.1,0.35-0.28,0.47l-0.12,0.08c0.1-0.02,0.17,0,0.21,0.02
				c0.1,0.05,0.15,0.15,0.15,0.28v2.99l0.48-0.29c0.15-0.1,0.28-0.07,0.34-0.04c0.1,0.05,0.15,0.15,0.15,0.28
				c0,0.18-0.1,0.35-0.28,0.47l-0.93,0.58C292.75,928.86,292.68,928.87,292.62,928.87z"/>
		</g>
	</g>
	<g>
		<g>
			<path class="st5" d="M289.48,901.68l-1.04-0.77c-0.08-0.08-0.27-0.08-0.39,0l-3.87,2.63l-0.66-0.46c-0.08-0.08-0.27-0.08-0.39,0
				l-0.93,0.62c-0.12,0.08-0.15,0.19-0.04,0.27l0.62,0.46l-3.75,2.55c-0.12,0.08-0.15,0.19-0.04,0.27l0.85,0.66
				c0.08,0.08,0.27,0.08,0.39,0c0.12-0.08,0.15-0.19,0.04-0.27l-0.7-0.5l3.75-2.55c0.12-0.08,0.15-0.19,0.04-0.27l-0.62-0.46
				l0.46-0.35l0.66,0.46c0.08,0.08,0.27,0.08,0.39,0l3.87-2.63l0.85,0.66c0.08,0.08,0.27,0.08,0.39,0S289.56,901.75,289.48,901.68z"
				/>
			<path class="st5" d="M280.02,908.16c-0.12,0-0.23-0.03-0.31-0.11l-0.83-0.64c-0.09-0.06-0.15-0.16-0.15-0.27
				c0-0.12,0.07-0.24,0.19-0.32l3.53-2.4l-0.4-0.3c-0.09-0.06-0.15-0.16-0.15-0.27c0-0.12,0.07-0.24,0.19-0.32l0.93-0.62
				c0.17-0.11,0.47-0.13,0.63,0.02l0.52,0.37l3.76-2.56c0.17-0.12,0.48-0.13,0.63,0.02l1.05,0.77c0.06,0.07,0.1,0.15,0.09,0.25
				c-0.01,0.13-0.1,0.27-0.23,0.36c-0.17,0.11-0.47,0.13-0.63-0.02l-0.72-0.56l-3.75,2.55c-0.17,0.12-0.48,0.13-0.63-0.02
				l-0.52-0.36l-0.15,0.11l0.41,0.31c0.09,0.06,0.15,0.16,0.15,0.27c0,0.12-0.07,0.24-0.19,0.32l-3.52,2.4l0.47,0.34
				c0.09,0.06,0.15,0.16,0.15,0.27c0,0.12-0.07,0.24-0.19,0.32C280.26,908.12,280.14,908.16,280.02,908.16z M279.16,907.13
				l0.81,0.62c0.03,0.02,0.1,0.02,0.14,0l-0.87-0.63l3.97-2.7l-0.78-0.58l0.78-0.59l0.77,0.55c0.04,0.03,0.12,0.03,0.17,0l3.98-2.71
				l0.96,0.74c0.03,0.02,0.12,0.02,0.16-0.01c0.02-0.01,0.03-0.03,0.04-0.04l-0.98-0.73c-0.04-0.02-0.12-0.02-0.16,0.01l-3.98,2.71
				l-0.77-0.54c-0.04-0.03-0.12-0.03-0.17,0l-0.91,0.61l0.79,0.59L279.16,907.13z"/>
		</g>
		<g>
			<path class="st5" d="M293.74,904.5l1.12,0.7c0.12,0.08,0.08,0.19-0.04,0.27l-3.87,2.63l0.7,0.43c0.12,0.08,0.08,0.19-0.04,0.27
				l-0.93,0.62c-0.12,0.08-0.31,0.08-0.39,0.04l-0.66-0.43l-3.75,2.55c-0.12,0.08-0.31,0.08-0.39,0.04l-0.93-0.58
				c-0.12-0.08-0.08-0.19,0.04-0.27c0.12-0.08,0.31-0.08,0.39-0.04l0.74,0.46l3.75-2.55c0.12-0.08,0.31-0.08,0.39-0.04l0.66,0.43
				l0.46-0.35l-0.7-0.43c-0.12-0.08-0.08-0.19,0.04-0.27l3.87-2.63l-0.93-0.58c-0.12-0.08-0.08-0.19,0.04-0.27
				C293.46,904.46,293.62,904.42,293.74,904.5z"/>
			<path class="st5" d="M285.64,911.84c-0.09,0-0.17-0.02-0.23-0.05l-0.94-0.59c-0.11-0.07-0.16-0.17-0.16-0.28
				c0-0.12,0.07-0.24,0.19-0.32c0.18-0.12,0.44-0.12,0.58-0.05l0.64,0.41l3.65-2.48c0.18-0.12,0.44-0.12,0.58-0.05l0.56,0.36
				l0.13-0.1l-0.45-0.28c-0.11-0.07-0.16-0.17-0.16-0.28c0-0.12,0.07-0.24,0.19-0.32l3.62-2.46l-0.68-0.42
				c-0.11-0.07-0.16-0.17-0.16-0.28c0-0.12,0.07-0.24,0.19-0.32l0.06-0.03c0.17-0.04,0.39-0.1,0.58,0.02l1.12,0.69
				c0.11,0.07,0.16,0.17,0.16,0.28c0,0.12-0.07,0.24-0.19,0.32l-3.62,2.46l0.44,0.27c0.11,0.07,0.16,0.17,0.16,0.28
				c0,0.12-0.07,0.24-0.19,0.32l-0.93,0.62c-0.17,0.12-0.44,0.12-0.58,0.05l-0.57-0.37l-3.65,2.48
				C285.89,911.81,285.76,911.84,285.64,911.84z M284.74,910.92l0.86,0.54c0.02,0,0.13,0,0.18-0.04l3.86-2.62l0.77,0.5
				c0.01,0,0.12,0,0.17-0.04l0.91-0.6l-0.89-0.54l4.1-2.79l-1.06-0.66c-0.03-0.02-0.09-0.01-0.17,0l1.09,0.68l-4.09,2.78l0.87,0.53
				l-0.8,0.6l-0.77-0.5c-0.02,0-0.12,0-0.17,0.04l-3.86,2.62l-0.84-0.53C284.88,910.89,284.79,910.89,284.74,910.92z"/>
		</g>
	</g>
</g>
<g>
	<g class="st43">
		<path class="st5" d="M456.53,1054.1l13.94-18.5l-13.56-10.92l18.49,5.42l-4.06,5.39l4.04,3.25L456.53,1054.1z M470.96,1036
			l-10.8,14.32l14.21-11.57L470.96,1036z M459.78,1026.18l11.07,8.92l3.5-4.65L459.78,1026.18z"/>
		
			<rect x="449.24" y="1034.14" transform="matrix(0.0158 -0.9999 0.9999 0.0158 -600.3693 1475.9269)" class="st5" width="0.63" height="17.59"/>
		<polygon class="st5" points="458.12,1044.76 439.31,1024.55 458.49,1034.36 458.2,1034.92 442.21,1026.74 458.58,1044.33 		"/>
		<path class="st5" d="M459.3,1053.08l-19.25-10.3l8.93-4.14l-2.66-4.02l-6.84-0.19l5.06-2.51l-3.95-5.96l-1.23,0.01l19.03-9.28
			l17,13.59l-8.08,6.26l8.85,2.2l-19.23,5.03l8.96-6.93l-7.51-1.87l-8.47,3.93L459.3,1053.08z M441.47,1042.82l15.93,8.53
			l-8.06-12.18L441.47,1042.82z M466.67,1037.03l-6.91,5.35l13.84-3.62L466.67,1037.03z M447.09,1034.64l2.47,3.72l7.44-3.45
			L447.09,1034.64z M459.62,1034.63l6.91,1.72l6.93-5.37L459.62,1034.63z M446.67,1034l11.64,0.32l15.88-4.19l-15.89-12.7
			l-16.14,7.87l17.57-0.21l-14.27,7.07L446.67,1034z M442.04,1033.87l3.86,0.11l-1.01-1.52L442.04,1033.87z M441.34,1025.95
			l3.77,5.69l11.86-5.88L441.34,1025.95z"/>
		<polygon class="st5" points="458.12,1052.43 439.21,1033.01 458.49,1042.8 458.2,1043.36 442.31,1035.29 458.57,1051.99 		"/>
		<polygon class="st5" points="440.98,1043.02 440.5,1042.62 456.31,1019.48 440.98,1034.38 440.54,1033.92 460.38,1014.65 
			442.87,1040.27 458.12,1025.21 458.57,1025.66 		"/>
	</g>
	<g>
		<path class="st5" d="M440.76,1022.68c-1.63,0-2.96,1.33-2.96,2.96c0,1.63,1.33,2.96,2.96,2.96c1.63,0,2.96-1.33,2.96-2.96
			C443.72,1024.01,442.39,1022.68,440.76,1022.68z"/>
		<path class="st5" d="M440.76,1031.26c-1.63,0-2.96,1.33-2.96,2.96s1.33,2.96,2.96,2.96c1.63,0,2.96-1.33,2.96-2.96
			S442.39,1031.26,440.76,1031.26z"/>
		<path class="st5" d="M440.76,1039.83c-1.63,0-2.96,1.33-2.96,2.96s1.33,2.96,2.96,2.96c1.63,0,2.96-1.33,2.96-2.96
			S442.39,1039.83,440.76,1039.83z"/>
		<circle class="st5" cx="458.35" cy="1017.07" r="2.96"/>
		<circle class="st5" cx="458.35" cy="1025.64" r="2.96"/>
		<circle class="st5" cx="458.35" cy="1034.22" r="2.96"/>
		<circle class="st5" cx="474.88" cy="1030.28" r="2.96"/>
		<circle class="st5" cx="474.88" cy="1038.86" r="2.96"/>
		<circle class="st5" cx="458.35" cy="1043.22" r="2.96"/>
		<circle class="st5" cx="458.35" cy="1052.21" r="2.96"/>
	</g>
</g>
</svg>
