<svg width="45" height="45" viewBox="0 0 45 45" xmlns="http://www.w3.org/2000/svg"><title>Interview</title><g fill="none" fill-rule="evenodd"><circle fill="#4F5D73" cx="22.5" cy="22.5" r="22.5"/><path d="M11.25 27.133c0 1.058.857 1.915 1.915 1.915h2.872v2.954a.957.957 0 0 0 1.642.67l3.624-3.624h10.532a1.914 1.914 0 0 0 1.915-1.915V15.165a1.914 1.914 0 0 0-1.915-1.915h-18.67a1.914 1.914 0 0 0-1.915 1.915v11.968zm5.745-5.505a1.197 1.197 0 1 1 2.394 0 1.197 1.197 0 0 1-2.394 0zm4.308 0a1.197 1.197 0 1 1 2.395 0 1.197 1.197 0 0 1-2.395 0zm4.309 0a1.197 1.197 0 1 1 2.394 0 1.197 1.197 0 0 1-2.394 0z" fill="#FFF"/></g></svg>