<svg width="40" height="40" viewBox="0 0 40 40" xmlns="http://www.w3.org/2000/svg"><title>Oval 81 + profile-male</title><g fill="none" fill-rule="evenodd"><circle fill="#5686B8" cx="20" cy="20" r="20"/><path d="M10.278 28.768a.28.28 0 0 0 .34-.196c.572-2.135 2.898-2.689 4.288-3.02.348-.083.623-.148.802-.225 1.583-.688 2.1-1.793 2.254-2.6a.278.278 0 0 0-.092-.263c-.824-.711-1.52-1.78-1.959-3.008a.273.273 0 0 0-.057-.095c-.58-.632-.914-1.299-.914-1.83 0-.311.117-.52.381-.677a.278.278 0 0 0 .135-.226c.123-2.83 2.138-5.058 4.61-5.072l.06.003c2.485.035 4.487 2.31 4.559 5.18.002.08.038.154.099.205.174.148.255.334.255.588 0 .445-.237.992-.667 1.54a.29.29 0 0 0-.047.087c-.444 1.41-1.242 2.653-2.188 3.414a.279.279 0 0 0-.099.269c.155.806.67 1.91 2.254 2.6.187.08.478.144.846.223 1.376.298 3.68.797 4.244 2.907a.278.278 0 0 0 .537-.145c-.653-2.437-3.262-3.002-4.663-3.305-.325-.07-.605-.131-.742-.191-1.033-.45-1.67-1.133-1.895-2.037.96-.823 1.762-2.095 2.221-3.52.487-.633.755-1.286.755-1.843 0-.372-.12-.682-.358-.924-.132-3.113-2.354-5.565-5.11-5.604l-.084-.001c-2.707.014-4.938 2.401-5.133 5.46-.348.256-.524.615-.524 1.07 0 .657.371 1.443 1.022 2.164.45 1.235 1.146 2.32 1.975 3.08-.224.906-.86 1.592-1.896 2.042-.134.058-.4.122-.71.195-1.411.336-4.038.96-4.696 3.415-.04.149.048.3.197.34z" stroke="#EFF5FD" stroke-width=".25" fill="#EFF5FD"/></g></svg>