<svg xmlns="http://www.w3.org/2000/svg" viewBox="0 0 135.704 24.483"><defs><style>.a{fill:#c9c9c9;}</style></defs><path class="a" d="M231.775,31.479a7.973,7.973,0,0,1,1.249.045h8.608v3.52h-8.154a36.407,36.407,0,0,0-5.678.545Z" transform="translate(-176.062 -24.325)"/><path class="a" d="M186.412,64.2c.25.318.25.341.5.681,4.452,6.268,10.606,5.655,10.856,5.633v3.52a3.857,3.857,0,0,1-.613.023,16.025,16.025,0,0,1-13.1-7.132c-.136-.182-.136-.182-.25-.341Z" transform="translate(-142.056 -49.619)"/><path class="a" d="M156.69,41.207c-4.315-5.792-7.79-6.109-7.79-6.109V31.6c.522.023,5.087.318,10.288,7.109Z" transform="translate(-115.082 -24.423)"/><path class="a" d="M0,47.629V32.162A17.291,17.291,0,0,1,7.836,30.3a7.873,7.873,0,0,1,5.587,1.862,6.775,6.775,0,0,1,2.021,5.224V47.652H11.333V37.023a3.979,3.979,0,0,0-.136-1.136,2.979,2.979,0,0,0-.5-.954,2.189,2.189,0,0,0-1.226-.749,8.221,8.221,0,0,0-2.18-.25,17.628,17.628,0,0,0-3.18.3V47.652H0Z" transform="translate(0 -23.418)"/><path class="a" d="M79.7,39.117a10.668,10.668,0,0,1,1.84-6.564C82.766,30.918,84.7,30.1,87.354,30.1a6.855,6.855,0,0,1,5.678,2.385,8.992,8.992,0,0,1,1.931,5.882q0,1.431-.068,2.112H83.811a3.658,3.658,0,0,0,1.317,2.975,5.46,5.46,0,0,0,3.021.749,17.3,17.3,0,0,0,5.814-.681L93.986,47c-1.317.613-4.065.727-6.45.727a12.675,12.675,0,0,1-2.135-.182,6.808,6.808,0,0,1-2.067-.772,6.2,6.2,0,0,1-1.84-1.476,6.939,6.939,0,0,1-1.272-2.5A12.088,12.088,0,0,1,79.7,39.117Zm4.111-1.476h6.882a5.907,5.907,0,0,0-1.045-2.975,2.786,2.786,0,0,0-2.407-1.2,3.052,3.052,0,0,0-2.407.977A5.672,5.672,0,0,0,83.811,37.64Z" transform="translate(-61.599 -23.264)"/><rect class="a" width="4.111" height="3.884" transform="translate(57.416 2.067)"/><path class="a" d="M257.365,61.308a1.906,1.906,0,0,1-.454-1.476V52.7H252.8v6.859a5.668,5.668,0,0,0,1.454,4.134,5.309,5.309,0,0,0,4,1.5h.091a6.531,6.531,0,0,0,2.612-.5V61.308a4.833,4.833,0,0,1-1.953.363A2.717,2.717,0,0,1,257.365,61.308Z" transform="translate(-195.384 -40.731)"/><path class="a" d="M301,10.652V7.132h2.907C303.93,2.385,306.042,0,310.266,0a8.584,8.584,0,0,1,1.681.159V3.429c-.409-.045-.727-.068-.909-.068a3,3,0,0,0-2.317.772,4.544,4.544,0,0,0-.7,3h3.929v3.52h-3.929V24.211h-4.111V10.652Z" transform="translate(-232.637)"/><path class="a" d="M364,26.375V2.8h4.111V26.375Z" transform="translate(-281.329 -2.164)"/><path class="a" d="M404.089,45.708A9.326,9.326,0,0,1,402,39.189a9.326,9.326,0,0,1,2.089-6.518,9.05,9.05,0,0,1,11.992,0,9.325,9.325,0,0,1,2.089,6.518,9.325,9.325,0,0,1-2.089,6.518,7.692,7.692,0,0,1-6,2.271A7.772,7.772,0,0,1,404.089,45.708Zm3-10.811c-.659.749-.977,2.18-.977,4.293s.318,3.543.977,4.293a4.594,4.594,0,0,0,6,0c.636-.749.977-2.18.977-4.293s-.318-3.566-.977-4.293a4.594,4.594,0,0,0-6,0Z" transform="translate(-310.698 -23.496)"/><path class="a" d="M483.2,31.4h4.338l3.634,12.31L494.42,31.4h3.52l3.248,12.31,3.634-12.31h4.338l-6.041,17.079h-4.111l-2.816-9.834-2.816,9.834h-4.111Z" transform="translate(-373.456 -24.268)"/><path class="a" d="M128.5,83.4a17.162,17.162,0,0,1-8.426,1.976L119.8,88.9c.068,0,.318.023.749.023a20.808,20.808,0,0,0,8.676-1.953Z" transform="translate(-92.591 -64.458)"/><path class="a" d="M149.475,31.578a12.416,12.416,0,0,0-1.908,0h-.023c-2.816.2-8.063,1.408-12.946,6.95a20.378,20.378,0,0,1-6.882,5.133,20.766,20.766,0,0,1-8.017,5.133c.068,0,.318.023.749.023a22.754,22.754,0,0,0,16.784-7.972c4.065-4.588,5.769-4.928,8.108-5.519a34.754,34.754,0,0,1,4.974-1.976,52.2,52.2,0,0,1,7.745-1.794h-8.585Z" transform="translate(-92.514 -24.378)"/></svg>