<svg width="20" height="16" viewBox="0 0 20 16" xmlns="http://www.w3.org/2000/svg"><title>twitter</title><path d="M20 1.864a7.843 7.843 0 0 1-2.284.624 4 4 0 0 0 1.75-2.2 8.006 8.006 0 0 1-2.527.966A3.979 3.979 0 0 0 14.033 0a3.977 3.977 0 0 0-3.875 4.883 11.294 11.294 0 0 1-8.2-4.159 3.975 3.975 0 0 0-.538 2c0 1.379.7 2.598 1.77 3.311a3.979 3.979 0 0 1-1.804-.496v.049A3.979 3.979 0 0 0 4.58 9.489a3.984 3.984 0 0 1-1.798.068 3.993 3.993 0 0 0 3.715 2.765A7.982 7.982 0 0 1 .602 13.97a11.253 11.253 0 0 0 6.103 1.788c7.318 0 11.322-6.064 11.322-11.322 0-.174-.004-.344-.012-.515A8.01 8.01 0 0 0 20 1.864z" fill="#58729E" fill-rule="evenodd"/></svg>