<svg width="40" height="40" viewBox="0 0 40 40" xmlns="http://www.w3.org/2000/svg"><title>Oval 81 + profile-female</title><g fill="none" fill-rule="evenodd"><circle fill="#5686B8" cx="20" cy="20" r="20"/><path d="M22.344 21.514a.27.27 0 0 0-.236.087.277.277 0 0 0-.07.241c.154.806.67 1.911 2.254 2.6.188.08.478.144.846.224 1.376.297 3.679.796 4.244 2.906a.278.278 0 0 0 .537-.144c-.653-2.437-3.262-3.002-4.663-3.306-.325-.07-.605-.13-.743-.19-.952-.414-1.567-1.028-1.834-1.826 2.646.196 3.844-.858 3.897-.905a.278.278 0 0 0-.05-.448C25 19.881 25 16.867 25 15.733c0-3.175-2.138-5.69-4.878-5.73L20.043 10c-2.78.016-5.043 2.535-5.043 5.616 0 1.135 0 4.15-1.527 5.02a.28.28 0 0 0-.033.461c.077.06 1.771 1.356 3.856.963-.279.765-.885 1.354-1.81 1.756-.134.058-.4.122-.71.195-1.41.336-4.038.96-4.695 3.415a.278.278 0 0 0 .537.144c.571-2.135 2.898-2.688 4.288-3.02.348-.082.623-.148.802-.225 1.584-.688 2.1-1.794 2.254-2.6a.276.276 0 0 0-.089-.259.276.276 0 0 0-.267-.058c-1.504.474-2.894-.177-3.501-.538 1.45-1.215 1.45-4.01 1.45-5.254 0-2.776 2.015-5.046 4.512-5.061l.059.003c2.462.035 4.318 2.259 4.318 5.173 0 1.245 0 4.046 1.457 5.26-.502.287-1.645.751-3.557.522z" stroke="#EFF5FD" stroke-width=".25" fill="#EFF5FD"/></g></svg>