<svg xmlns="http://www.w3.org/2000/svg" viewBox="0 0 194 194"><defs><style>.a{opacity:0.2;}.b,.c{fill:none;stroke-miterlimit:10;stroke-width:4px;}.b{stroke:#fff;stroke-dasharray:5.969 5.969;}.c{stroke:#ffa700;}.d{fill:#fff;}</style></defs><g transform="translate(-984 -1793)"><g transform="translate(984 1793)"><g class="a"><circle class="b" cx="95" cy="95" r="95" transform="translate(2 2)"/></g><circle class="c" cx="73.9" cy="73.9" r="73.9" transform="translate(23.1 23.1)"/></g><path class="d" d="M105,17.5a17.367,17.367,0,0,0-12.895-5.219,18.352,18.352,0,0,0-13.2,5.526,17.666,17.666,0,0,0-4.912,9.825H69.079C65.395,11.667,51.579,0,35,0A35,35,0,1,0,70,35V33.465h3.684A17.666,17.666,0,0,0,78.6,43.289a17.855,17.855,0,0,0,13.2,5.526,17.186,17.186,0,0,0,12.895-5.526,17.673,17.673,0,0,0,5.526-12.895A18.1,18.1,0,0,0,105,17.5ZM63.553,35A28.707,28.707,0,1,1,6.14,35,29.024,29.024,0,0,1,35,6.14,28.647,28.647,0,0,1,62.632,27.325H39.3a2.9,2.9,0,0,0-3.07,3.07V45.746a3.07,3.07,0,0,0,6.14,0V33.465H48.2V45.746a3.07,3.07,0,1,0,6.14,0V33.465h9.211C63.553,34.079,63.553,34.386,63.553,35Zm36.842,3.991a11.871,11.871,0,0,1-17.193,0,12.07,12.07,0,0,1-3.684-7.982v-.921h0a12.6,12.6,0,0,1,3.377-8.6,11.81,11.81,0,0,1,8.9-3.684,11.618,11.618,0,0,1,8.6,3.684,11.618,11.618,0,0,1,3.684,8.6C104.079,33.772,103.158,36.535,100.395,38.991Z" transform="translate(1026 1855)"/></g></svg>