<svg width="96" height="80" viewBox="0 0 96 80" xmlns="http://www.w3.org/2000/svg"><title>docker</title><g fill="none" fill-rule="evenodd"><path d="M14.37 64.738V58.65c0-.8.5-1.443 1.327-1.443h.23c.828 0 1.325.644 1.325 1.443v12.818c0 3.125-1.544 5.612-4.235 7.197a7.953 7.953 0 0 1-4.072 1.11h-.572c-3.126 0-5.61-1.545-7.197-4.234a7.93 7.93 0 0 1-1.11-4.073v-.572c0-3.126 1.544-5.612 4.233-7.2a7.925 7.925 0 0 1 4.074-1.11h.572c2.115 0 3.91.82 5.424 2.152zM2.947 71.181c0 2.258 1.095 3.956 3.073 5.039.8.437 1.669.672 2.581.672 2.217 0 3.86-1.045 4.994-2.923.528-.874.773-1.83.773-2.846 0-1.957-.926-3.485-2.504-4.62a5.38 5.38 0 0 0-3.206-1.032c-2.416 0-4.154 1.22-5.198 3.389a5.296 5.296 0 0 0-.513 2.321zm24.307-8.595h.4c3.34 0 5.881 1.62 7.491 4.537a7.751 7.751 0 0 1 .988 3.773v.572c0 3.125-1.54 5.616-4.236 7.197a7.972 7.972 0 0 1-4.072 1.11h-.57c-3.127 0-5.612-1.545-7.198-4.234a7.932 7.932 0 0 1-1.111-4.073v-.572c0-3.127 1.55-5.604 4.233-7.199a7.89 7.89 0 0 1 4.075-1.111zm-5.425 8.595c0 2.192 1.075 3.804 2.926 4.938.87.532 1.827.773 2.843.773 2.165 0 3.766-1.098 4.88-2.925.531-.872.772-1.83.772-2.844 0-2.038-.982-3.595-2.66-4.723a5.362 5.362 0 0 0-3.05-.929c-2.416 0-4.155 1.22-5.198 3.389a5.286 5.286 0 0 0-.513 2.321zm26.29-5.48c-.435-.203-1.25-.271-1.72-.289-2.409-.09-4.152 1.266-5.174 3.391a5.272 5.272 0 0 0-.515 2.32c0 2.47 1.297 4.199 3.501 5.253.806.385 1.845.457 2.725.457.774 0 1.868-.474 2.555-.8l.12-.056h.532l.06.011c.655.137 1.15.553 1.15 1.258v.286c0 1.755-3.209 2.157-4.433 2.243-4.32.298-7.55-2.074-8.782-6.195a7.466 7.466 0 0 1-.31-2.172v-.57c0-3.127 1.551-5.603 4.233-7.196a7.892 7.892 0 0 1 4.074-1.113h.572c1.536 0 2.952.437 4.22 1.303l.105.072.066.109c.137.227.255.49.255.76v.285c0 .736-.551 1.132-1.216 1.26l-.055.01h-.17c-.43 0-1.408-.446-1.792-.626zm9.353 1.953a301.41 301.41 0 0 1 3.38-3.344c.317-.307 1.516-1.61 1.988-1.61h.517l.059.013c.657.136 1.15.552 1.15 1.26v.284c0 .483-.565 1.043-.876 1.373-.663.702-1.36 1.381-2.038 2.069l-3.483 3.536c1.5 1.504 2.998 3.008 4.486 4.523.412.418.822.84 1.228 1.263.143.151.355.339.475.547.129.196.208.417.208.652v.298l-.017.069c-.162.658-.579 1.188-1.308 1.188h-.23c-.477 0-1.015-.54-1.342-.848-.674-.635-1.324-1.302-1.984-1.95l-2.213-2.174v3.473c0 .8-.501 1.443-1.328 1.443h-.227c-.829 0-1.329-.643-1.329-1.443v-19.57c0-.8.5-1.44 1.329-1.44h.227c.827 0 1.328.64 1.328 1.44v8.948zM93.408 62.7h.287c.865 0 1.442.583 1.442 1.443 0 1.194-1.141 1.499-2.129 1.499-1.295 0-2.531.784-3.424 1.663-1.113 1.098-1.6 2.503-1.6 4.048v6.98c0 .8-.5 1.442-1.328 1.442h-.228c-.828 0-1.328-.642-1.328-1.442v-7.38c0-2.835 1.38-5.149 3.68-6.771a7.93 7.93 0 0 1 4.628-1.481zM72.916 76.533c1.049.367 2.245.314 3.322.127.55-.234 1.958-.849 2.476-.759l.081.014.075.037c.316.153.618.37.78.692.376.754.195 1.512-.546 1.94l-.247.143c-2.735 1.578-5.644 1.36-8.37-.115-1.303-.704-2.3-1.75-3.036-3.025l-.172-.298c-1.756-3.041-1.519-6.24.461-9.131.684-1 1.577-1.772 2.622-2.376l.395-.228c2.575-1.487 5.336-1.385 7.981-.08 1.423.702 2.575 1.748 3.37 3.124l.142.247c.577 1-.17 1.87-.942 2.466-.895.69-1.799 1.522-2.657 2.262-1.913 1.652-3.823 3.307-5.735 4.96zm-2.477-1.739c2.14-1.834 4.28-3.67 6.414-5.513.73-.629 1.53-1.281 2.252-1.943-.58-.731-1.55-1.258-2.373-1.573-1.664-.633-3.304-.42-4.829.46-1.996 1.152-2.846 2.988-2.772 5.272.03.9.272 1.767.75 2.532.167.27.355.524.558.765zM54.88 17.017h8.509v8.697h4.301c1.987 0 4.03-.354 5.912-.991.924-.314 1.962-.75 2.874-1.299-1.201-1.568-1.815-3.548-1.995-5.5-.245-2.654.29-6.11 2.087-8.187l.895-1.034 1.065.856c2.683 2.156 4.94 5.168 5.338 8.602 3.23-.95 7.024-.725 9.872.918l1.168.675-.614 1.2c-2.409 4.7-7.444 6.157-12.367 5.899C74.557 45.2 58.52 53.887 39.074 53.887c-10.046 0-19.263-3.756-24.511-12.67l-.086-.144-.765-1.556c-1.774-3.924-2.364-8.222-1.964-12.516l.12-1.287h7.276v-8.697h8.508V8.508H44.67V0h10.21v17.017z" fill="#364548"/><path d="M82.445 20.234c.57-4.433-2.748-7.916-4.806-9.57-2.37 2.742-2.74 9.927.98 12.952-2.075 1.844-6.45 3.516-10.93 3.516H13.161c-.435 4.676.385 8.982 2.26 12.668l.62 1.135c.393.666.823 1.31 1.286 1.929 2.242.144 4.31.193 6.2.151 3.717-.081 6.75-.52 9.047-1.317a.655.655 0 0 1 .43 1.238c-.307.106-.625.205-.954.3h-.001c-1.81.516-3.75.864-6.254 1.018.15.003-.154.022-.155.022-.085.006-.193.018-.278.023a56.91 56.91 0 0 1-3.136.067c-1.19 0-2.36-.023-3.67-.09l-.033.023c4.543 5.106 11.647 8.17 20.552 8.17 18.846 0 34.83-8.355 41.91-27.11 5.021.515 9.848-.766 12.043-5.052-3.497-2.018-7.994-1.374-10.583-.073" fill="#22A0C8"/><path d="M82.445 20.234c.57-4.433-2.748-7.916-4.806-9.57-2.37 2.742-2.74 9.927.98 12.952-2.075 1.844-6.45 3.516-10.93 3.516H16.39c-.223 7.161 2.435 12.597 7.137 15.883 3.717-.081 6.75-.52 9.047-1.317a.655.655 0 0 1 .43 1.238c-.307.106-.625.205-.954.3h-.001c-1.81.516-3.917.908-6.42 1.063l-.062-.058c6.414 3.29 15.714 3.278 26.376-.817 11.955-4.593 23.08-13.344 30.843-23.352-.117.053-.23.107-.341.162" fill="#37B1D9"/><path d="M13.263 32.813a21.795 21.795 0 0 0 2.158 6.987l.62 1.135c.393.666.823 1.31 1.286 1.929 2.242.144 4.31.193 6.2.151 3.717-.081 6.75-.52 9.047-1.317a.655.655 0 0 1 .43 1.238c-.307.106-.625.205-.954.3h-.001c-1.81.516-3.906.886-6.41 1.04-.085.006-.235.007-.322.012-.984.055-2.037.089-3.125.089-1.188 0-2.404-.023-3.713-.09 4.543 5.107 11.691 8.181 20.596 8.181 16.134 0 30.17-6.124 38.318-19.655h-64.13" fill="#1B81A5"/><path d="M16.88 32.813c.965 4.399 3.283 7.851 6.648 10.202 3.716-.081 6.748-.52 9.046-1.317a.655.655 0 0 1 .43 1.238c-.307.106-.625.205-.954.3h-.001c-1.81.516-3.95.886-6.454 1.04 6.414 3.29 15.686 3.243 26.348-.852 6.45-2.479 12.658-6.167 18.227-10.61H16.88" fill="#1D91B4"/><path d="M20.562 18.435h7.374v7.374h-7.374v-7.374zm.614.614h.582v6.145h-.582V19.05zm1.094 0h.606v6.145h-.605V19.05zm1.117 0h.606v6.145h-.606V19.05zm1.118 0h.605v6.145h-.605V19.05zm1.117 0h.605v6.145h-.605V19.05zm1.117 0h.583v6.145h-.583V19.05zm2.331-9.123h7.375V17.3H29.07V9.926zm.615.615h.581v6.145h-.581V10.54zm1.094 0h.605v6.145h-.605V10.54zm1.117 0h.605v6.145h-.605V10.54zm1.117 0h.605v6.145h-.605V10.54zm1.118 0h.605v6.145h-.605V10.54zm1.117 0h.582v6.145h-.582V10.54z" fill="#23A3C2"/><path d="M29.07 18.435h7.375v7.374H29.07v-7.374zm.615.614h.581v6.145h-.581V19.05zm1.094 0h.605v6.145h-.605V19.05zm1.117 0h.605v6.145h-.605V19.05zm1.117 0h.605v6.145h-.605V19.05zm1.118 0h.605v6.145h-.605V19.05zm1.117 0h.582v6.145h-.582V19.05z" fill="#34BBDE"/><path d="M37.579 18.435h7.374v7.374h-7.374v-7.374zm.614.614h.582v6.145h-.582V19.05zm1.094 0h.605v6.145h-.605V19.05zm1.117 0h.605v6.145h-.605V19.05zm1.118 0h.605v6.145h-.605V19.05zm1.117 0h.606v6.145h-.606V19.05zm1.117 0h.582v6.145h-.582V19.05z" fill="#23A3C2"/><path d="M37.579 9.926h7.374V17.3h-7.374V9.926zm.614.615h.582v6.145h-.582V10.54zm1.094 0h.605v6.145h-.605V10.54zm1.117 0h.605v6.145h-.605V10.54zm1.118 0h.605v6.145h-.605V10.54zm1.117 0h.606v6.145h-.606V10.54zm1.117 0h.582v6.145h-.582V10.54zm2.331 7.894h7.374v7.374h-7.374v-7.374zm.615.614h.581v6.145h-.581V19.05zm1.094 0h.605v6.145h-.605V19.05zm1.117 0h.605v6.145h-.605V19.05zm1.117 0h.606v6.145h-.606V19.05zm1.118 0h.605v6.145h-.605V19.05zm1.117 0h.582v6.145h-.582V19.05z" fill="#34BBDE"/><path d="M46.087 9.926h7.374V17.3h-7.374V9.926zm.615.615h.581v6.145h-.581V10.54zm1.094 0h.605v6.145h-.605V10.54zm1.117 0h.605v6.145h-.605V10.54zm1.117 0h.606v6.145h-.606V10.54zm1.118 0h.605v6.145h-.605V10.54zm1.117 0h.582v6.145h-.582V10.54z" fill="#23A3C2"/><path d="M46.087 1.418h7.374v7.375h-7.374V1.418zm.615.614h.581v6.145h-.581V2.032zm1.094 0h.605v6.145h-.605V2.032zm1.117 0h.605v6.145h-.605V2.032zm1.117 0h.606v6.145h-.606V2.032zm1.118 0h.605v6.145h-.605V2.032zm1.117 0h.582v6.145h-.582V2.032z" fill="#34BBDE"/><path d="M54.595 18.435h7.374v7.374h-7.374v-7.374zm.614.614h.583v6.145h-.582V19.05zm1.094 0h.606v6.145h-.605V19.05zm1.118 0h.605v6.145h-.605V19.05zm1.117 0h.605v6.145h-.605V19.05zm1.118 0h.605v6.145h-.605V19.05zm1.117 0h.582v6.145h-.582V19.05z" fill="#23A3C2"/><path d="M35.983 37.764a2.035 2.035 0 1 1 .054 4.07 2.035 2.035 0 0 1-.054-4.07" fill="#D3ECEC"/><path d="M35.983 38.342c.186 0 .363.035.527.098a.595.595 0 1 0 .819.8 1.457 1.457 0 1 1-1.346-.898M0 33.549h94.633c-2.06-.523-6.519-1.229-5.784-3.93-3.746 4.336-12.782 3.042-15.063.905-2.539 3.683-17.322 2.282-18.353-.587-3.184 3.736-13.048 3.736-16.232 0-1.032 2.87-15.815 4.27-18.354.586-2.28 2.138-11.315 3.432-15.062-.903.735 2.7-3.724 3.406-5.785 3.929" fill="#364548"/><path d="M41.39 52.424c-5.038-2.39-7.803-5.64-9.341-9.188-1.872.534-4.121.875-6.735 1.022-.985.055-2.02.083-3.107.083-1.253 0-2.574-.037-3.96-.11 4.62 4.617 10.304 8.172 20.828 8.237.777 0 1.548-.015 2.316-.044" fill="#BDD9D7"/><path d="M33.92 46.51a17.66 17.66 0 0 1-1.87-3.275c-1.872.535-4.122.876-6.736 1.023 1.796.975 4.363 1.878 8.606 2.251" fill="#D3ECEC"/></g></svg>