<svg width="100" height="100" viewBox="0 0 100 100" xmlns="http://www.w3.org/2000/svg"><title>elasticsearch</title><g fill="none" fill-rule="evenodd"><path d="M99.984 52.497c0-8.406-5.223-15.67-12.977-18.527a29.39 29.39 0 0 0 .49-5.387c0-15.59-12.652-28.24-28.241-28.24a28.013 28.013 0 0 0-22.854 11.753c-2.611-2.04-5.795-3.102-9.141-3.102-8.244 0-15.018 6.693-15.018 15.018 0 1.796.327 3.592.898 5.224C5.305 31.929 0 39.438 0 47.763c0 8.407 5.224 15.753 13.059 18.61a28.773 28.773 0 0 0-.49 5.386c0 15.508 12.651 28.16 28.16 28.16 9.14 0 17.548-4.408 22.853-11.754a15.041 15.041 0 0 0 9.223 3.183c8.243 0 15.018-6.693 15.018-15.018 0-1.795-.327-3.59-.898-5.223 7.672-2.775 13.059-10.284 13.059-18.61z" fill="#FFF"/><path d="M39.096 43.11l22.282 10.204 22.527-19.752c.328-1.64.492-3.307.49-4.98 0-13.874-11.264-25.138-25.14-25.138-8.325 0-16.078 4.081-20.73 10.937L34.77 33.807l4.326 9.304z" fill="#F4BD19"/><path d="M15.997 66.7a25.973 25.973 0 0 0-.49 5.06c0 13.875 11.346 25.22 25.221 25.22 8.407 0 16.161-4.162 20.895-11.019l3.673-19.425-4.98-9.468-22.363-10.202-21.956 19.833z" fill="#3CBEB1"/><path d="M15.834 28.093l15.263 3.591L34.525 14.3c-2.122-1.632-4.652-2.448-7.346-2.448-6.611 0-12.08 5.386-12.08 12.08 0 1.387.246 2.856.735 4.162z" fill="#E9478C"/><path d="M14.528 31.766C7.672 33.97 2.938 40.58 2.938 47.763c0 7.02 4.326 13.305 10.856 15.753L35.26 44.09l-3.918-8.406-16.814-3.918z" fill="#2C458F"/><path d="M65.54 85.88c2.122 1.633 4.653 2.53 7.265 2.53 6.611 0 12.08-5.387 12.08-12.08 0-1.469-.246-2.857-.735-4.162l-15.263-3.591-3.346 17.303z" fill="#95C63D"/><path d="M68.642 64.577l16.814 3.918c6.856-2.285 11.59-8.815 11.59-15.998 0-7.02-4.326-13.222-10.856-15.752L64.153 56.007l4.49 8.57z" fill="#176655"/></g></svg>