<svg width="140" height="50" viewBox="0 0 140 50" xmlns="http://www.w3.org/2000/svg"><title>etcd</title><g fill="none" fill-rule="evenodd"><path d="M19.97 26.184a2.845 2.845 0 1 1-5.688 0 2.845 2.845 0 0 1 5.689 0zm3.68 0a2.845 2.845 0 1 0 5.69 0 2.845 2.845 0 0 0-5.69 0z" fill="#419EDA"/><path d="M43.02 29.272h-.627a8.214 8.214 0 0 1-3.611-.84c.365-2.109.527-4.248.485-6.388a33.063 33.063 0 0 0-4.136-4.903 8.214 8.214 0 0 1 2.913-3.122l.534-.33-.418-.485a21.777 21.777 0 0 0-7.602-5.51l-.577-.252-.146.611a8.194 8.194 0 0 1-2.063 3.743 33.073 33.073 0 0 0-5.956-2.456 32.956 32.956 0 0 0-5.952 2.427 8.175 8.175 0 0 1-2.053-3.733l-.15-.612-.578.253a21.985 21.985 0 0 0-7.607 5.563l-.418.485.534.33a8.204 8.204 0 0 1 2.913 3.107 33.31 33.31 0 0 0-4.136 4.87 33.495 33.495 0 0 0 .485 6.431 8.19 8.19 0 0 1-3.592.835h-.63L0 29.218l.058.627a21.646 21.646 0 0 0 2.913 8.951l.33.524.485-.407a8.184 8.184 0 0 1 3.884-1.816 33.252 33.252 0 0 0 3.3 5.427 33.587 33.587 0 0 0 6.287 1.544 8.17 8.17 0 0 1-.524 4.286l-.228.583.612.136c1.546.343 3.125.517 4.708.52l4.709-.52.612-.136-.238-.583a8.16 8.16 0 0 1-.52-4.296 33.592 33.592 0 0 0 6.262-1.539 33.107 33.107 0 0 0 3.32-5.407 8.204 8.204 0 0 1 3.884 1.815l.486.403.32-.539a21.592 21.592 0 0 0 2.913-8.951l.058-.626-.612.058zm-14.467 7.65a25.422 25.422 0 0 1-13.485 0 25.796 25.796 0 0 1-4.102-12.747 25.67 25.67 0 0 1 4.888-4.65 26.058 26.058 0 0 1 5.962-3.243 26.14 26.14 0 0 1 5.946 3.233 25.864 25.864 0 0 1 4.908 4.68 25.985 25.985 0 0 1-4.117 12.727z" fill="#419EDA"/><path d="M60.947 12.335c7.15 0 11.165 5.131 11.165 13.14.009.868-.05 1.735-.175 2.593H53.005c.345 6.053 3.98 9.86 9.34 9.86a12.66 12.66 0 0 0 6.975-2.19l1.714 3.097a16.68 16.68 0 0 1-9.223 2.883c-7.49.03-13.428-5.46-13.428-14.626 0-9.165 6.166-14.757 12.564-14.757zm7.034 12.621c0-5.708-2.54-8.878-6.918-8.878-3.922 0-7.495 3.228-8.068 8.878H67.981zm9.51-8.068H73.34v-3.572l4.369-.287.577-7.84h3.976v7.84h7.544v3.884h-7.53v15.543c0 3.461 1.098 5.418 4.326 5.418 1.09-.079 2.16-.333 3.17-.753l.922 3.573c-1.665.616-3.416.97-5.19 1.054-5.994 0-8.014-3.806-8.014-9.34v-15.52zm27.786-4.553a11.549 11.549 0 0 1 8.184 3.345l-2.364 3.053c-1.67-1.456-3.398-2.476-5.65-2.476-5.073 0-8.738 4.37-8.738 10.835 0 6.466 3.495 10.724 8.63 10.724 2.651 0 4.904-1.326 6.574-2.826l2.13 3.112a13.874 13.874 0 0 1-9.111 3.646c-7.437 0-13.14-5.34-13.14-14.641-.006-9.413 6.266-14.772 13.485-14.772zm22.136 0c3.228 0 5.34 1.209 7.84 3.228l-.234-4.786V0h4.787v41.044h-3.918l-.403-3.287h-.174c-2.19 2.131-5.19 3.99-8.476 3.99-7.03 0-11.583-5.34-11.583-14.655 0-9.13 5.763-14.757 12.16-14.757zm.46 25.422c2.593 0 4.855-1.267 7.151-3.883V19.252c-2.364-2.13-4.495-2.941-6.796-2.941-4.495 0-8.068 4.32-8.068 10.723-.01 6.69 2.816 10.723 7.714 10.723z" fill="#000"/></g></svg>