<svg width="79" height="70" viewBox="0 0 79 70" xmlns="http://www.w3.org/2000/svg"><title>google-cloud</title><g fill="none" fill-rule="evenodd"><path d="M25.04 58.481L11.242 34.585 25.04 10.688h27.593L66.43 34.585 52.633 58.48H25.04" fill="#CAC9C2"/><path d="M39.297 45.493c-5.93 0-10.754-4.825-10.754-10.755 0-5.93 4.824-10.754 10.754-10.754s10.754 4.824 10.754 10.754-4.824 10.755-10.754 10.755" fill="#FFF"/><path d="M60.932 2.676C60.086 1.211 58.011.014 56.32.014h-34c-1.69 0-3.766 1.198-4.612 2.662L7.774 19.884c-.078 1.111.126 2.273.616 3.121l6.725 11.498 12.004-20.74h37.945c.897 0 1.902.34 2.775.876L60.932 2.676" fill="#5072AA"/><path d="M8.206 19.13l-.435.754c-.078 1.111.126 2.273.616 3.121l6.725 11.498 3.578-6.18L8.206 19.13" fill="#4D6796"/><path d="M23.196 8.853a2.077 2.077 0 0 1-2.074-2.074 2.077 2.077 0 0 1 2.074-2.075 2.077 2.077 0 0 1 2.076 2.075 2.077 2.077 0 0 1-2.076 2.074zm34-2.074a1.921 1.921 0 1 1-3.842.048 1.921 1.921 0 0 1 3.842-.048z" fill="#FFF"/><path d="M77.932 32.121L67.84 14.64c-.873-.536-1.878-.875-2.775-.875H51.38l11.831 20.853L44.48 67.712c-.412.714-1.117 1.363-1.926 1.842H56.32c1.691 0 3.767-1.198 4.612-2.662l17-29.445c.846-1.465.846-3.861 0-5.326" fill="#CC4232"/><path d="M68.295 15.423l-.453-.784c-.872-.536-1.877-.875-2.775-.875H51.384l3.562 6.277 13.349-4.618" fill="#B23F33"/><path d="M55.275 64.468a2.077 2.077 0 0 1-2.075-2.075 2.077 2.077 0 0 1 2.075-2.075 2.077 2.077 0 0 1 2.075 2.075 2.077 2.077 0 0 1-2.075 2.075m16.148-27.655a2.077 2.077 0 0 1-2.075-2.075 2.077 2.077 0 0 1 2.075-2.075 2.077 2.077 0 0 1 2.075 2.075 2.077 2.077 0 0 1-2.075 2.075" fill="#FFF"/><g><path d="M27.381 55.475L8.39 23.005c-.49-.849-.694-2.01-.616-3.122L.708 32.121c-.845 1.465-.845 3.86 0 5.325l17 29.445c.846 1.465 2.921 2.663 4.612 2.663h20.234c.81-.48 1.514-1.129 1.926-1.843l6.926-12.236H27.381" fill="#ECB02A"/><path d="M41.403 69.554h1.177c.81-.479 1.514-1.128 1.926-1.842l6.927-12.237h-7.376l-2.654 14.079" fill="#C79732"/><path d="M23.196 64.468a2.077 2.077 0 0 1-2.074-2.075 2.077 2.077 0 0 1 2.074-2.075 2.077 2.077 0 0 1 2.076 2.075 2.077 2.077 0 0 1-2.076 2.075M7.02 36.813a2.077 2.077 0 0 1-2.075-2.075 2.077 2.077 0 0 1 2.075-2.075 2.077 2.077 0 0 1 2.075 2.075 2.077 2.077 0 0 1-2.075 2.075" fill="#FFF"/></g></g></svg>