<svg width="83" height="112" viewBox="0 0 83 112" xmlns="http://www.w3.org/2000/svg"><title>golang</title><g fill="none" fill-rule="evenodd"><path d="M1.957 60.556c.158 3.263 3.408 1.753 4.88.733 1.398-.968 1.807-.163 1.93-2.075.08-1.256.224-2.512.153-3.773-2.113-.192-4.412.312-6.144 1.575-.892.65-2.566 2.725-.819 3.54" stroke="#000" fill="#F6D2A2"/><path d="M1.957 60.556c.473-.177.975-.302 1.296-.73" stroke="#000" stroke-width="2" fill="#C6B198"/><path d="M9.469 21.685C-2.987 18.173 6.275 2.282 16.277 8.818L9.47 21.685zM64.809 7.626c9.859-6.945 18.768 8.723 7.31 12.665l-7.31-12.665z" stroke="#000" fill="#6AD7E5"/><path d="M66.93 100.713c2.504 1.554 7.081 6.253 3.324 8.53-3.61 3.315-5.63-3.637-8.798-4.6 1.365-1.858 3.094-3.553 5.473-3.93z" stroke="#000" fill="#F6D2A2"/><path d="M70.254 109.244c-.557-1.11-.744-2.407-1.673-3.302" stroke="#000"/><path d="M22.19 106.023c-2.94.456-4.594 3.115-7.044 4.466-2.31 1.38-3.193-.442-3.4-.812-.363-.166-.332.154-.89-.41-2.141-3.388 2.23-5.864 4.506-7.547 3.17-.643 5.156 2.113 6.828 4.303z" stroke="#000" fill="#F6D2A2"/><path d="M11.746 109.677c.112-1.292 1.132-2.156 1.619-3.248" stroke="#000"/><path d="M9.989 17.296c-1.644-.871-2.85-2.055-1.844-3.961.93-1.765 2.66-1.573 4.303-.702l-2.46 4.663zM69.523 15.64c1.643-.873 2.849-2.056 1.844-3.963-.931-1.764-2.66-1.572-4.303-.7l2.459 4.662z" fill="#000"/><path d="M80.834 60.142c-.157 3.263-3.408 1.753-4.88.733-1.397-.969-1.806-.164-1.929-2.075-.08-1.256-.224-2.512-.153-3.773 2.113-.192 4.411.312 6.144 1.574.892.65 2.565 2.726.818 3.54" stroke="#000" fill="#F6D2A2"/><path d="M80.834 60.142c-.473-.177-.974-.302-1.295-.731" stroke="#000" fill="#C6B198"/><path d="M40.148 1.026c12.47 0 24.159 1.788 30.252 13.802 5.47 13.467 3.525 27.988 4.359 42.22.716 12.22 2.305 26.339-3.348 37.664-5.948 11.914-20.808 14.911-33.052 14.472-9.617-.345-21.234-3.491-26.662-12.303-6.367-10.337-3.353-25.707-2.89-37.21.548-13.624-3.68-27.29.783-40.623C14.22 5.218 26.708 2.092 40.148 1.026" stroke="#000" fill="#6AD7E5"/><path d="M42.35 17.813c2.238 13.051 23.511 9.6 20.456-3.563-2.74-11.803-21.201-8.536-20.457 3.563M16.927 19.924c2.902 11.362 21.042 8.453 20.359-2.945-.82-13.65-23.133-11.016-20.359 2.945M44.916 33.474c.01 1.697.384 3.602.064 5.407-.432.819-1.28.905-2.01 1.236a2.959 2.959 0 0 1-2.264-1.771c-.26-2.06.096-4.056.162-6.117l4.048 1.245z" stroke="#000" fill="#FFF"/><g transform="translate(18.765 14.672)"><ellipse fill="#000" cx="3.165" cy="3.398" rx="3.063" ry="3.327"/><ellipse fill="#FFF" cx="4.559" cy="4.149" rx=".722" ry=".846"/></g><g transform="translate(44.38 13.844)"><ellipse fill="#000" cx="3.217" cy="3.398" rx="3.012" ry="3.327"/><ellipse fill="#FFF" cx="4.587" cy="4.149" rx=".71" ry=".846"/></g><path d="M36.162 33.29c-1.337 3.248.745 9.743 4.372 4.952-.26-2.06.096-4.055.162-6.116l-4.534 1.163z" stroke="#000" fill="#FFF"/><path d="M36.62 27.034c-2.492.213-4.528 3.183-3.233 5.533 1.715 3.112 5.544-.275 7.928.042 2.745.056 4.993 2.91 7.197.516 2.452-2.663-1.055-5.256-3.796-6.416l-8.097.325z" stroke="#231F20" fill="#F6D2A2"/><path d="M36.306 26.904c-.185-4.328 8.043-4.869 9.015-1.246.97 3.614-8.61 4.453-9.015 1.246-.324-2.561 0 0 0 0z" fill="#000"/></g></svg>