<svg width="186" height="40" viewBox="0 0 186 40" xmlns="http://www.w3.org/2000/svg"><title>jupyter</title><g transform="translate(0 .063)" fill="none" fill-rule="evenodd"><path d="M42.427 25.787c0 5.493-.427 7.306-1.574 8.613-.986 1.093-2.64 1.6-4.56 1.76l.427 3.28c2.213 0 5.253-.747 7.093-2.613 2.027-2.08 2.747-4.987 2.747-9.44v-20.8H42.4v19.2h.027zm31.12-2.507c0 2.373.053 4.453.186 6.24h-3.706l-.24-3.733h-.107c-1.093 1.84-3.493 4.266-7.573 4.266-3.6 0-7.92-2-7.92-10.053V6.587H58.4V19.28c0 4.347 1.333 7.307 5.12 7.307 2.8 0 4.747-1.947 5.493-3.787.24-.613.374-1.387.374-2.133V6.587h4.16V23.28zm7.866-9.2c0-2.933-.106-5.307-.186-7.493h3.733l.187 3.92h.106c1.707-2.8 4.4-4.454 8.16-4.454 5.547 0 9.707 4.694 9.707 11.654 0 8.24-5.013 12.32-10.427 12.32-3.04 0-5.68-1.334-7.066-3.6h-.107V38.88h-4.133v-24.8h.026zm4.134 6.107c0 .613.106 1.173.186 1.706.747 2.88 3.28 4.88 6.24 4.88 4.4 0 6.96-3.6 6.96-8.853 0-4.587-2.426-8.533-6.826-8.533-2.854 0-5.494 2.026-6.294 5.173-.133.533-.293 1.147-.293 1.707v3.92h.027zm24.96-13.6l5.013 13.546a71.327 71.327 0 0 1 1.467 4.694h.106c.427-1.387.907-3.12 1.467-4.774l4.56-13.466h4.4l-6.267 16.346c-2.986 7.867-5.013 11.894-7.866 14.347-2.027 1.787-4.08 2.507-5.12 2.693l-1.04-3.493c1.04-.32 2.426-.987 3.653-2.027 1.147-.906 2.56-2.506 3.493-4.64.187-.426.32-.746.32-.986s-.106-.56-.293-1.094l-8.48-21.12h4.587v-.026zM138.48 0v6.587h5.973V9.76h-5.973v12.373c0 2.854.8 4.454 3.12 4.454 1.093 0 1.893-.134 2.427-.294l.186 3.12c-.8.32-2.08.56-3.706.56-1.947 0-3.494-.613-4.507-1.76-1.173-1.226-1.6-3.28-1.6-5.973V9.76h-3.547V6.587h3.547V1.093L138.48 0zm13.627 18.827c.106 5.626 3.706 7.946 7.866 7.946 2.987 0 4.774-.533 6.347-1.173l.72 2.987c-1.467.666-3.973 1.413-7.627 1.413-7.066 0-11.28-4.64-11.28-11.547 0-6.906 4.08-12.373 10.747-12.373 7.493 0 9.467 6.587 9.467 10.8 0 .853-.107 1.52-.134 1.947h-16.106zm12.24-2.987c.053-2.64-1.094-6.773-5.787-6.773-4.213 0-6.053 3.893-6.4 6.773h12.187zm10.133-2.08c0-2.693-.053-5.013-.187-7.147h3.654l.133 4.507h.187c1.04-3.067 3.546-5.013 6.346-5.013.48 0 .8.053 1.174.133v3.92c-.427-.107-.854-.133-1.414-.133-2.933 0-5.013 2.213-5.6 5.36-.106.56-.186 1.226-.186 1.946v12.214h-4.134V13.76h.027z" fill="#414042"/><ellipse fill="#6D6E71" cx="23.333" cy="2.48" rx="1.893" ry="1.893"/><path d="M13.627 27.76C7.84 27.76 2.773 25.68.16 22.587c2 5.52 7.28 9.466 13.467 9.466a14.29 14.29 0 0 0 13.466-9.466c-2.64 3.093-7.68 5.173-13.466 5.173zm0-20.027c5.786 0 10.853 2.08 13.466 5.174-2-5.52-7.28-9.467-13.466-9.467A14.29 14.29 0 0 0 .16 12.907c2.613-3.094 7.653-5.174 13.467-5.174z" fill="#F37625"/><circle fill="#939598" cx="3.92" cy="33.787" r="2.293"/><circle fill="#58595B" cx="1.68" cy="5.067" r="1.387"/></g></svg>