<?xml version="1.0" encoding="UTF-8" standalone="no"?>
<svg width="186px" height="40px" viewBox="0 0 186 40" version="1.1" xmlns="http://www.w3.org/2000/svg" xmlns:xlink="http://www.w3.org/1999/xlink" xmlns:sketch="http://www.bohemiancoding.com/sketch/ns">
    <!-- Generator: Sketch 3.4.2 (15857) - http://www.bohemiancoding.com/sketch -->
    <title>jupyter</title>
    <desc>Created with Sketch.</desc>
    <defs></defs>
    <g id="source{d}" stroke="none" stroke-width="1" fill="none" fill-rule="evenodd" sketch:type="MSPage">
        <g id="Stack" sketch:type="MSArtboardGroup" transform="translate(-227.000000, -1588.000000)">
            <g id="jupyter" sketch:type="MSLayerGroup" transform="translate(227.000000, 1588.062500)">
                <g id="Layer_1" sketch:type="MSShapeGroup">
                    <g id="Group" transform="translate(36.266667, 0.000000)" fill="#414042">
                        <path d="M6.16,25.7866667 C6.16,31.28 5.73333333,33.0933333 4.58666667,34.4 C3.6,35.4933333 1.94666667,36 0.0266666667,36.16 L0.453333333,39.44 C2.66666667,39.44 5.70666667,38.6933333 7.54666667,36.8266667 C9.57333333,34.7466667 10.2933333,31.84 10.2933333,27.3866667 L10.2933333,6.58666667 L6.13333333,6.58666667 L6.13333333,25.7866667 L6.16,25.7866667 Z" id="Shape"></path>
                        <path d="M37.28,23.28 C37.28,25.6533333 37.3333333,27.7333333 37.4666667,29.52 L33.76,29.52 L33.52,25.7866667 L33.4133333,25.7866667 C32.32,27.6266667 29.92,30.0533333 25.84,30.0533333 C22.24,30.0533333 17.92,28.0533333 17.92,20 L17.92,6.58666667 L22.1333333,6.58666667 L22.1333333,19.28 C22.1333333,23.6266667 23.4666667,26.5866667 27.2533333,26.5866667 C30.0533333,26.5866667 32,24.64 32.7466667,22.8 C32.9866667,22.1866667 33.12,21.4133333 33.12,20.6666667 L33.12,6.58666667 L37.28,6.58666667 L37.28,23.28 L37.28,23.28 Z" id="Shape"></path>
                        <path d="M45.1466667,14.08 C45.1466667,11.1466667 45.04,8.77333333 44.96,6.58666667 L48.6933333,6.58666667 L48.88,10.5066667 L48.9866667,10.5066667 C50.6933333,7.70666667 53.3866667,6.05333333 57.1466667,6.05333333 C62.6933333,6.05333333 66.8533333,10.7466667 66.8533333,17.7066667 C66.8533333,25.9466667 61.84,30.0266667 56.4266667,30.0266667 C53.3866667,30.0266667 50.7466667,28.6933333 49.36,26.4266667 L49.2533333,26.4266667 L49.2533333,38.88 L45.12,38.88 L45.12,14.08 L45.1466667,14.08 Z M49.28,20.1866667 C49.28,20.8 49.3866667,21.36 49.4666667,21.8933333 C50.2133333,24.7733333 52.7466667,26.7733333 55.7066667,26.7733333 C60.1066667,26.7733333 62.6666667,23.1733333 62.6666667,17.92 C62.6666667,13.3333333 60.24,9.38666667 55.84,9.38666667 C52.9866667,9.38666667 50.3466667,11.4133333 49.5466667,14.56 C49.4133333,15.0933333 49.2533333,15.7066667 49.2533333,16.2666667 L49.2533333,20.1866667 L49.28,20.1866667 Z" id="Shape"></path>
                        <path d="M74.24,6.58666667 L79.2533333,20.1333333 C79.7866667,21.6533333 80.3466667,23.44 80.72,24.8266667 L80.8266667,24.8266667 C81.2533333,23.44 81.7333333,21.7066667 82.2933333,20.0533333 L86.8533333,6.58666667 L91.2533333,6.58666667 L84.9866667,22.9333333 C82,30.8 79.9733333,34.8266667 77.12,37.28 C75.0933333,39.0666667 73.04,39.7866667 72,39.9733333 L70.96,36.48 C72,36.16 73.3866667,35.4933333 74.6133333,34.4533333 C75.76,33.5466667 77.1733333,31.9466667 78.1066667,29.8133333 C78.2933333,29.3866667 78.4266667,29.0666667 78.4266667,28.8266667 C78.4266667,28.5866667 78.32,28.2666667 78.1333333,27.7333333 L69.6533333,6.61333333 L74.24,6.61333333 L74.24,6.58666667 Z" id="Shape"></path>
                        <path d="M102.213333,0 L102.213333,6.58666667 L108.186667,6.58666667 L108.186667,9.76 L102.213333,9.76 L102.213333,22.1333333 C102.213333,24.9866667 103.013333,26.5866667 105.333333,26.5866667 C106.426667,26.5866667 107.226667,26.4533333 107.76,26.2933333 L107.946667,29.4133333 C107.146667,29.7333333 105.866667,29.9733333 104.24,29.9733333 C102.293333,29.9733333 100.746667,29.36 99.7333333,28.2133333 C98.56,26.9866667 98.1333333,24.9333333 98.1333333,22.24 L98.1333333,9.76 L94.5866667,9.76 L94.5866667,6.58666667 L98.1333333,6.58666667 L98.1333333,1.09333333 L102.213333,0 L102.213333,0 Z" id="Shape"></path>
                        <path d="M115.84,18.8266667 C115.946667,24.4533333 119.546667,26.7733333 123.706667,26.7733333 C126.693333,26.7733333 128.48,26.24 130.053333,25.6 L130.773333,28.5866667 C129.306667,29.2533333 126.8,30 123.146667,30 C116.08,30 111.866667,25.36 111.866667,18.4533333 C111.866667,11.5466667 115.946667,6.08 122.613333,6.08 C130.106667,6.08 132.08,12.6666667 132.08,16.88 C132.08,17.7333333 131.973333,18.4 131.946667,18.8266667 L115.84,18.8266667 L115.84,18.8266667 Z M128.08,15.84 C128.133333,13.2 126.986667,9.06666667 122.293333,9.06666667 C118.08,9.06666667 116.24,12.96 115.893333,15.84 L128.08,15.84 L128.08,15.84 Z" id="Shape"></path>
                        <path d="M138.213333,13.76 C138.213333,11.0666667 138.16,8.74666667 138.026667,6.61333333 L141.68,6.61333333 L141.813333,11.12 L142,11.12 C143.04,8.05333333 145.546667,6.10666667 148.346667,6.10666667 C148.826667,6.10666667 149.146667,6.16 149.52,6.24 L149.52,10.16 C149.093333,10.0533333 148.666667,10.0266667 148.106667,10.0266667 C145.173333,10.0266667 143.093333,12.24 142.506667,15.3866667 C142.4,15.9466667 142.32,16.6133333 142.32,17.3333333 L142.32,29.5466667 L138.186667,29.5466667 L138.186667,13.76 L138.213333,13.76 Z" id="Shape"></path>
                    </g>
                    <ellipse id="Oval" fill="#6D6E71" cx="23.3333333" cy="2.48" rx="1.89333333" ry="1.89333333"></ellipse>
                    <g id="Group" transform="translate(0.000000, 3.200000)" fill="#F37625">
                        <path d="M13.6266667,24.56 C7.84,24.56 2.77333333,22.48 0.16,19.3866667 C2.16,24.9066667 7.44,28.8533333 13.6266667,28.8533333 C19.84,28.8533333 25.12,24.9066667 27.0933333,19.3866667 C24.4533333,22.48 19.4133333,24.56 13.6266667,24.56 L13.6266667,24.56 Z" id="Shape"></path>
                        <path d="M13.6266667,4.53333333 C19.4133333,4.53333333 24.48,6.61333333 27.0933333,9.70666667 C25.0933333,4.18666667 19.8133333,0.24 13.6266667,0.24 C7.41333333,0.24 2.13333333,4.18666667 0.16,9.70666667 C2.77333333,6.61333333 7.81333333,4.53333333 13.6266667,4.53333333 L13.6266667,4.53333333 Z" id="Shape"></path>
                    </g>
                    <circle id="Oval" fill="#939598" cx="3.92" cy="33.7866667" r="2.29333333"></circle>
                    <circle id="Oval" fill="#58595B" cx="1.68" cy="5.06666667" r="1.38666667"></circle>
                </g>
            </g>
        </g>
    </g>
</svg>