<svg width="160" height="41" viewBox="0 0 160 41" xmlns="http://www.w3.org/2000/svg"><title>MongoDB-Logo-Reg</title><g fill="none" fill-rule="evenodd"><path d="M9.128 30.145c-.208 2.651-.508 4.584-.802 5.261l-.117-.082c.74 1.722.667 4.668.667 4.668l1.08.36c-9.96-40.425-.22-2.86.087-4.241a2.64 2.64 0 0 1 .558-1.091l-.061.042c-1.06-.489-1.366-2.78-1.412-4.917z" fill="#C2BFBF"/><path d="M17.731 16.003c-2.12-9.352-7.122-12.418-7.663-13.592C9.479 1.581 8.883.11 8.883.11v.021c.502 1.935.42 17.565.474 19.437.108 3.527.032 7.058-.23 10.577.047 2.14.354 4.432 1.413 4.916l.061-.043c.462-.33.902-.69 1.319-1.077l.046-.043c2.533-2.338 7.423-8.24 5.765-17.895z" fill="#599636"/><path d="M9.128 30.145c.26-3.52.337-7.05.229-10.577-.053-1.872.028-17.502-.474-19.437A.818.818 0 0 0 8.845 0c-.061.825-.093 1.148-.877 1.987C6.75 2.93.528 8.15.02 18.77c-.472 9.9 7.154 15.8 8.188 16.553l.117.082c.294-.675.594-2.61.802-5.261z" fill="#69B240"/><path d="M121.443 30.337c.655.526 1.968.742 3.125.742 1.499 0 2.967-.279 4.405-1.576 1.469-1.33 2.468-3.362 2.468-6.612 0-3.121-1.187-5.655-3.624-7.139-1.376-.865-3.156-1.204-5.187-1.204-.594 0-1.187.03-1.528.185a.81.81 0 0 0-.281.433c-.063.556-.063 4.789-.063 7.29 0 2.565 0 6.148.063 6.582.032.37.218 1.02.625 1.298m-6.24-17.175c.53 0 2.55.093 3.487.093 1.75 0 2.968-.093 6.25-.093 2.75 0 5.062.74 6.723 2.162 2 1.73 3.056 4.14 3.056 7.075 0 4.172-1.905 6.582-3.81 7.947-1.906 1.421-4.376 2.225-7.906 2.225-1.875 0-5.093-.061-7.782-.092h-.036c-.126-.247.23-1.212.45-1.236.726-.082.917-.11 1.261-.25.567-.233.702-.522.764-1.543.094-1.914.063-4.202.063-6.797 0-1.854.03-5.47-.032-6.612-.093-.958-.5-1.204-1.313-1.39a17.421 17.421 0 0 0-1.75-.279c-.062-.185.42-1.02.575-1.206M142.475 14.729c-.125.03-.281.34-.281.495-.03 1.112-.063 4.016-.063 6.024a.199.199 0 0 0 .153.153c.406.03 1.406.062 2.25.062 1.187 0 1.874-.153 2.249-.34 1-.494 1.468-1.576 1.468-2.751 0-2.688-1.875-3.708-4.654-3.708a8.326 8.326 0 0 0-1.125.063m7.094 12.36c0-2.719-2-4.264-5.655-4.264-.152 0-1.312-.032-1.594.03a.245.245 0 0 0-.187.154c0 1.947-.033 5.067.062 6.303.063.526.439 1.267.906 1.484.5.278 1.625.341 2.406.341 2.156 0 4.062-1.206 4.062-4.048M136.83 13.222c.282 0 1.113.093 3.237.093 2 0 3.625-.061 5.563-.061 2.405 0 5.718.865 5.718 4.448 0 1.76-1.25 3.184-2.875 3.862-.094.03-.094.093 0 .124 2.313.587 4.344 2.008 4.344 4.727 0 2.657-1.657 4.326-4.062 5.376-1.469.648-3.281.865-5.126.865-1.406 0-5.174-.153-7.268-.124-.218-.093.2-1.082.387-1.236.48-.016.956-.09 1.418-.222.749-.185.839-.428.932-1.54.063-.959.063-4.388.063-6.828 0-3.338.03-5.593 0-6.704-.032-.865-.344-1.144-.939-1.298-.467-.093-1.248-.185-1.873-.278-.153-.153.324-1.082.481-1.206" fill="#C2BFBF"/><path d="M24.758 32.55a1.34 1.34 0 0 1-.096-.625.793.793 0 0 1 .094-.417c.405-.058.805-.14 1.2-.245.553-.137.764-.435.793-1.143.09-1.665.096-4.79.063-6.988v-.064c0-.236 0-.558-.289-.786a6.255 6.255 0 0 0-1.658-.727c-.261-.078-.407-.216-.399-.376.008-.16.173-.351.514-.417.904-.093 3.276-.659 4.208-1.088a.611.611 0 0 1 .125.444c0 .098-.015.2-.024.306-.026.306-.057.663-.057 1.013a.23.23 0 0 0 .393.133c1.774-1.39 3.362-1.886 4.178-1.886 1.342 0 2.387.642 3.194 1.961a.217.217 0 0 0 .182.107.206.206 0 0 0 .17-.09c1.632-1.238 3.247-1.976 4.329-1.976 2.558 0 4.086 1.915 4.086 5.122 0 .917-.009 2.09-.017 3.18-.007.957-.015 1.854-.015 2.475 0 .152.2.567.504.65.375.183.917.276 1.597.393h.026c.052.184-.056.899-.16 1.046-.17 0-.403-.014-.695-.028a39.405 39.405 0 0 0-2.106-.064c-1.7 0-2.587.034-3.436.089-.064-.213-.087-.897-.009-1.04.35-.06.696-.142 1.036-.243.541-.178.697-.423.73-1.143.012-.51.11-5.007-.065-6.076-.153-1.106-.995-2.402-2.818-2.402-.677 0-1.77.281-2.812 1.07a.416.416 0 0 0-.102.266v.021c.122.576.122 1.249.122 2.266v1.805c0 1.24-.014 2.412 0 3.295 0 .602.365.747.657.863.153.035.286.066.413.097.246.06.5.12.876.18a1.67 1.67 0 0 1-.016.778.611.611 0 0 1-.108.266 89.613 89.613 0 0 0-3.315-.061c-.425 0-1.117.018-1.728.035-.495.013-.964.026-1.23.027a1.223 1.223 0 0 1-.094-.538.941.941 0 0 1 .098-.504l.376-.067c.329-.058.611-.109.883-.176.459-.142.638-.399.671-.987.09-1.376.16-5.337-.033-6.328-.332-1.593-1.238-2.4-2.693-2.4-.853 0-1.93.411-2.81 1.07a.853.853 0 0 0-.26.636v1.635c0 1.987-.014 4.465.035 5.538.03.329.144.721.764.867.136.038.37.078.642.122l.504.085c.056.35.028.709-.084 1.046-.272 0-.611-.017-.988-.034a46.687 46.687 0 0 0-2.14-.058c-.976 0-1.656.032-2.204.058-.366.017-.683.032-1 .034M56.124 20.994a2.665 2.665 0 0 0-1.495.42c-1.085.66-1.636 1.978-1.636 3.914 0 3.625 1.815 6.157 4.413 6.157a2.777 2.777 0 0 0 1.91-.674c.798-.65 1.223-1.987 1.223-3.845 0-3.571-1.775-5.97-4.414-5.97m.5 11.834c-4.695 0-6.368-3.445-6.368-6.666 0-2.251.917-4.012 2.737-5.231a8.338 8.338 0 0 1 4.224-1.25c3.582 0 6.085 2.576 6.085 6.265 0 2.508-1 4.489-2.891 5.725-.908.556-2.482 1.158-3.787 1.158M103.92 20.994a2.665 2.665 0 0 0-1.496.42c-1.085.66-1.636 1.978-1.636 3.914 0 3.625 1.814 6.157 4.413 6.157a2.774 2.774 0 0 0 1.91-.674c.798-.65 1.223-1.987 1.223-3.845 0-3.571-1.773-5.97-4.413-5.97m.5 11.834c-4.695 0-6.369-3.443-6.369-6.666 0-2.253.917-4.012 2.737-5.233a8.333 8.333 0 0 1 4.224-1.25c3.584 0 6.085 2.577 6.085 6.266 0 2.51-1 4.488-2.89 5.724-.907.557-2.481 1.159-3.788 1.159M88.115 20.872c-1.448 0-2.383 1.143-2.383 2.911s.804 3.87 3.07 3.87c.39 0 1.094-.173 1.444-.558.528-.485.87-1.484.87-2.54 0-2.308-1.123-3.685-3.001-3.685m-.188 12.204a2.384 2.384 0 0 0-1.176.29c-1.146.734-1.68 1.47-1.68 2.313 0 .796.305 1.429.973 1.986.804.682 1.889 1.014 3.316 1.014 2.806 0 4.063-1.509 4.063-3.005 0-1.04-.522-1.739-1.596-2.14-.829-.305-2.212-.47-3.905-.47m.188 7.169c-1.681 0-2.904-.356-3.937-1.154-1.008-.78-1.46-1.935-1.46-2.732a2.14 2.14 0 0 1 .554-1.377c.294-.333.974-.958 2.545-2.039a.13.13 0 0 0 .082-.124.128.128 0 0 0-.1-.128c-1.294-.495-1.68-1.31-1.802-1.751 0-.016 0-.042-.014-.07-.037-.172-.072-.335.162-.505.182-.13.472-.306.78-.484.439-.242.859-.516 1.257-.82a.205.205 0 0 0-.052-.32c-1.916-.644-2.882-2.068-2.882-4.236a4.22 4.22 0 0 1 1.774-3.476c.764-.61 2.705-1.341 3.96-1.341h.073c1.29.03 2.016.305 3.023.672a4.814 4.814 0 0 0 1.786.284c1.07 0 1.528-.339 1.933-.727.065.177.1.364.103.553.024.45-.098.895-.347 1.27-.219.306-.725.521-1.201.521a1.352 1.352 0 0 1-.141 0 3.96 3.96 0 0 1-.724-.12l-.121.04a.202.202 0 0 0 .018.196.406.406 0 0 1 .019.05c.085.39.143.785.174 1.184 0 2.273-.897 3.265-1.866 3.999a6.372 6.372 0 0 1-3.225 1.247c-.024 0-.14.01-.372.03-.153.014-.338.03-.366.03h-.027c-.211.06-.764.322-.764.808 0 .405.249.906 1.436.996l.764.055c1.568.11 3.527.246 4.449.558a3.078 3.078 0 0 1 2.057 2.965c0 2.04-1.45 3.96-3.88 5.131a8.425 8.425 0 0 1-3.668.825M80.937 31.462c-.688-.093-1.188-.185-1.78-.458a.82.82 0 0 1-.22-.433c-.062-.958-.062-3.74-.062-5.56 0-1.485-.249-2.782-.874-3.71-.75-1.05-1.812-1.669-3.188-1.669-1.222 0-2.844.835-4.187 1.978-.032.03-.238.226-.234-.078.005-.304.052-.917.08-1.311a.674.674 0 0 0-.205-.573c-.876.432-3.339 1.018-4.248 1.112-.665.129-.833.764-.126.989h.011c.57.156 1.113.394 1.614.708.281.217.249.525.249.773.03 2.07.03 5.252-.063 6.984-.03.68-.218.926-.718 1.05l.046-.016a9.76 9.76 0 0 1-1.157.217c-.153.153-.153 1.05 0 1.236.306 0 1.906-.093 3.218-.093 1.813 0 2.751.093 3.219.093.188-.217.25-1.051.125-1.236a6.637 6.637 0 0 1-1.282-.185c-.5-.124-.625-.371-.656-.926-.062-1.452-.062-4.542-.062-6.643 0-.587.152-.865.344-1.02.625-.555 1.656-.925 2.562-.925a2.809 2.809 0 0 1 1.906.648c.5.445.813 1.063.876 1.73.125 1.173.093 3.514.093 5.56 0 1.113-.093 1.391-.5 1.515-.188.093-.688.185-1.28.248-.187.185-.126 1.05 0 1.236.812 0 1.75-.093 3.125-.093 1.719 0 2.811.093 3.248.093.188-.217.25-1.02.126-1.236" fill="#47474A"/><path d="M157.537 32.55a2.427 2.427 0 1 1 2.426-2.46 2.398 2.398 0 0 1-2.426 2.46zm0-4.633a2.208 2.208 0 1 0 2.194 2.214 2.172 2.172 0 0 0-2.194-2.214zm.593 3.74l-.627-1.349h-.504v1.35h-.369V28.59h.907c.674 0 .953.305.953.858 0 .45-.21.736-.611.818l.648 1.39h-.402.005zm-1.131-1.67h.538c.429 0 .593-.152.593-.538 0-.385-.153-.524-.64-.524h-.485v1.07l-.006-.008z" fill="#C2BFBF"/></g></svg>