<svg width="98" height="98" viewBox="0 0 98 98" xmlns="http://www.w3.org/2000/svg"><title>python</title><defs><linearGradient x1="12.959%" y1="11.7%" x2="79.639%" y2="78.453%" id="a"><stop stop-color="#387EB8" offset="0%"/><stop stop-color="#366994" offset="100%"/></linearGradient><linearGradient x1="19.128%" y1="20.316%" x2="90.742%" y2="88.773%" id="b"><stop stop-color="#FFE052" offset="0%"/><stop stop-color="#FFC331" offset="100%"/></linearGradient></defs><g fill="none" fill-rule="evenodd"><path d="M48.904.411c-24.59 0-23.054 10.664-23.054 10.664l.027 11.047h23.465v3.317H16.557S.822 23.654.822 48.465c0 24.81 13.734 23.93 13.734 23.93h8.196V60.884s-.442-13.734 13.514-13.734H59.54s13.076.211 13.076-12.637V13.268S74.6.41 48.904.41zM35.964 7.84a4.217 4.217 0 0 1 4.222 4.221 4.217 4.217 0 0 1-4.221 4.222 4.217 4.217 0 0 1-4.222-4.222 4.217 4.217 0 0 1 4.222-4.221z" fill="url(#a)" transform="translate(-.068 .466)"/><path d="M49.602 96.767c24.59 0 23.054-10.663 23.054-10.663l-.028-11.047H49.163V71.74h32.785s15.735 1.784 15.735-23.026c0-24.811-13.734-23.931-13.734-23.931h-8.196v11.513s.442 13.733-13.514 13.733H38.966S25.89 49.82 25.89 62.667V83.91s-1.985 12.856 23.712 12.856zM62.54 89.34a4.217 4.217 0 0 1-4.221-4.222 4.217 4.217 0 0 1 4.221-4.221 4.217 4.217 0 0 1 4.222 4.221 4.217 4.217 0 0 1-4.222 4.222z" fill="url(#b)" transform="translate(-.068 .466)"/></g></svg>