<svg width="90" height="81" viewBox="0 0 90 81" xmlns="http://www.w3.org/2000/svg"><title>react</title><g fill="none" fill-rule="evenodd"><path d="M.265 40.342c0 6.755 6.596 13.061 16.996 16.616-2.077 10.454-.372 18.88 5.32 22.164 5.853 3.375 14.57 1.039 22.845-6.195 8.066 6.942 16.218 9.673 21.906 6.38 5.847-3.384 7.625-12.382 5.49-23.163 10.832-3.58 16.891-8.958 16.891-15.802 0-6.599-6.608-12.307-16.867-15.839 2.297-11.226.35-19.448-5.579-22.867-5.716-3.296-13.962-.423-22.147 6.7-8.515-7.56-16.68-9.869-22.602-6.44-5.711 3.305-7.34 11.885-5.257 22.533C7.212 27.932.265 33.77.265 40.342z" fill="#FFF"/><path d="M70.673 28.01a53.214 53.214 0 0 0-2.557-.805c.142-.58.274-1.16.395-1.744 1.935-9.397.67-16.967-3.652-19.459-4.144-2.39-10.922.102-17.766 6.059a53.134 53.134 0 0 0-1.978 1.815c-.432-.414-.87-.819-1.317-1.216-7.173-6.37-14.364-9.053-18.681-6.554-4.14 2.397-5.367 9.513-3.624 18.418.174.882.37 1.76.587 2.631-1.017.29-2 .597-2.94.925C10.73 31.012 5.36 35.608 5.36 40.374c0 4.923 5.765 9.861 14.526 12.855.71.242 1.426.466 2.148.672-.235.94-.443 1.885-.624 2.836-1.662 8.75-.364 15.698 3.765 18.08 4.265 2.46 11.423-.068 18.393-6.161a45 45 0 0 0 1.657-1.528 52.15 52.15 0 0 0 2.148 1.96c6.751 5.809 13.419 8.155 17.544 5.767 4.261-2.467 5.646-9.93 3.848-19.012a44.994 44.994 0 0 0-.477-2.124c.503-.148.996-.301 1.478-.46 9.107-3.018 15.032-7.896 15.032-12.885 0-4.784-5.545-9.41-14.124-12.364z" fill="#53C1DE"/><path d="M68.697 50.037c-.434.144-.88.283-1.334.417-1.005-3.182-2.362-6.567-4.022-10.063 1.584-3.414 2.888-6.755 3.866-9.917.812.236 1.601.484 2.361.745 7.351 2.53 11.835 6.272 11.835 9.155 0 3.071-4.843 7.058-12.705 9.663zm-3.262 6.465c.795 4.016.908 7.646.382 10.484-.473 2.55-1.425 4.25-2.601 4.932-2.504 1.449-7.858-.435-13.63-5.403a48.652 48.652 0 0 1-1.998-1.821c2.238-2.448 4.475-5.295 6.658-8.455 3.84-.34 7.469-.898 10.759-1.659.162.654.306 1.295.43 1.922zM32.44 71.667c-2.446.864-4.394.889-5.571.21-2.506-1.445-3.548-7.024-2.127-14.507.169-.885.362-1.764.58-2.638 3.254.72 6.856 1.238 10.705 1.55 2.198 3.093 4.5 5.935 6.819 8.425-.493.477-.998.941-1.513 1.393-3.083 2.695-6.171 4.606-8.893 5.567zM20.982 50.018c-3.873-1.324-7.072-3.044-9.265-4.922-1.97-1.687-2.965-3.362-2.965-4.722 0-2.892 4.313-6.582 11.505-9.09.903-.313 1.815-.6 2.734-.86.995 3.234 2.299 6.614 3.872 10.033-1.594 3.47-2.916 6.904-3.92 10.175a41.804 41.804 0 0 1-1.96-.614zm3.841-26.146c-1.493-7.63-.501-13.385 1.994-14.83 2.658-1.538 8.534.656 14.728 6.156.396.351.793.72 1.192 1.1-2.308 2.478-4.589 5.3-6.767 8.374-3.736.347-7.313.903-10.6 1.648a49.755 49.755 0 0 1-.547-2.448zm34.266 8.462a107.923 107.923 0 0 0-2.415-3.973c2.534.32 4.963.745 7.243 1.266a72.388 72.388 0 0 1-2.543 6.84 118.273 118.273 0 0 0-2.285-4.133zm-13.973-13.61a72.574 72.574 0 0 1 4.674 5.642 99.93 99.93 0 0 0-9.388-.002 74.837 74.837 0 0 1 4.714-5.64zM31.052 32.356a100.28 100.28 0 0 0-2.242 4.108 74.893 74.893 0 0 1-2.524-6.874 76.566 76.566 0 0 1 7.202-1.236 99.77 99.77 0 0 0-2.436 4.002zm2.508 20.279a72.257 72.257 0 0 1-7.32-1.177 76.093 76.093 0 0 1 2.574-7.013 99.666 99.666 0 0 0 4.746 8.19zm11.65 9.629a76.275 76.275 0 0 1-4.78-5.72c1.52.06 3.072.09 4.648.09 1.619 0 3.22-.036 4.795-.107a72.166 72.166 0 0 1-4.663 5.737zm16.197-17.941a72.07 72.07 0 0 1 2.667 6.988 72.02 72.02 0 0 1-7.41 1.263c.84-1.331 1.653-2.679 2.439-4.042a107.8 107.8 0 0 0 2.304-4.21zm-5.244 2.514a111.262 111.262 0 0 1-3.81 6.148c-2.358.169-4.793.256-7.275.256-2.472 0-4.877-.077-7.193-.227a96.257 96.257 0 0 1-7.27-12.56 96.28 96.28 0 0 1 3.378-6.403 95.362 95.362 0 0 1 3.852-6.132 96.147 96.147 0 0 1 14.48.002 102.2 102.2 0 0 1 3.827 6.112 111.24 111.24 0 0 1 3.425 6.374 102.236 102.236 0 0 1-3.413 6.43zm7-37.896c2.66 1.534 3.695 7.72 2.024 15.834-.11.528-.229 1.055-.357 1.579-3.296-.76-6.875-1.327-10.622-1.678-2.182-3.108-4.444-5.934-6.714-8.38a49.894 49.894 0 0 1 1.826-1.676c5.865-5.104 11.346-7.12 13.844-5.679z" fill="#FFF"/><path d="M45.078 33.28a7.093 7.093 0 1 1 0 14.188 7.093 7.093 0 0 1 0-14.187" fill="#53C1DE"/></g></svg>