<svg width="115" height="60" viewBox="0 0 115 60" xmlns="http://www.w3.org/2000/svg" xmlns:xlink="http://www.w3.org/1999/xlink"><title>spark-logo</title><defs><path id="a" d="M0 .193h114.995v59.785H0"/></defs><g fill="none" fill-rule="evenodd"><g transform="translate(0 .063)"><mask id="b" fill="#fff"><use xlink:href="#a"/></mask><path d="M105.193 30.367c-.099-.211-.144-.318-.198-.421-1.44-2.739-2.878-5.48-4.332-8.212-.146-.275-.128-.438.073-.673 2.291-2.677 4.57-5.364 6.853-8.05a.723.723 0 0 0 .183-.362c-.668.174-1.335.347-2.002.523-2.769.734-5.538 1.465-8.304 2.21-.259.068-.376-.007-.504-.22-1.572-2.627-3.153-5.248-4.732-7.87a1.08 1.08 0 0 0-.344-.383c-.127.7-.256 1.4-.38 2.1-.44 2.47-.879 4.942-1.317 7.414-.048.266-.114.532-.137.8-.022.256-.153.35-.383.423-3.264 1.024-6.524 2.058-9.784 3.092a1.083 1.083 0 0 0-.436.243l8.042 3.196c-.099.079-.163.139-.235.186-1.667 1.078-3.337 2.153-5 3.237-.2.13-.358.149-.582.048-1.991-.897-3.99-1.777-5.985-2.668-.895-.4-1.7-.93-2.328-1.698-1.418-1.735-1.138-3.709.751-4.914.619-.395 1.32-.691 2.021-.92 3.196-1.04 6.404-2.044 9.61-3.052.27-.084.394-.204.444-.495.427-2.474.87-4.945 1.316-7.415.238-1.32.365-2.676 1.008-3.886a6.52 6.52 0 0 1 .895-1.311C90.678-.124 92.455-.18 93.8 1.167c.454.454.845.99 1.182 1.54a639.62 639.62 0 0 1 4.392 7.287c.172.289.326.347.644.262 3.575-.959 7.155-1.903 10.734-2.848.738-.195 1.485-.267 2.243-.125 1.65.31 2.37 1.565 1.812 3.158-.254.726-.692 1.34-1.185 1.919-2.497 2.937-4.99 5.877-7.497 8.807-.205.239-.209.413-.067.68 1.495 2.817 2.977 5.642 4.464 8.464.356.675.627 1.376.636 2.152.017 1.764-1.273 3.207-3.026 3.464-.982.144-1.894-.066-2.814-.35a927.688 927.688 0 0 0-6.735-2.05c-.208-.062-.287-.144-.324-.368-.259-1.581-.54-3.159-.813-4.738-.008-.044.005-.09.012-.187l7.734 2.133" fill="#D3642C" mask="url(#b)"/><path d="M100.822 53.399c-2.022-.004-4.043-.013-6.066-.005-.266 0-.418-.077-.567-.304-2.393-3.646-4.798-7.285-7.2-10.925-.077-.116-.159-.228-.295-.423l-1.53 11.63H79.87c.062-.516.116-1.015.181-1.511l1.555-11.843c.496-3.772.99-7.544 1.493-11.315a.489.489 0 0 1 .181-.314c1.822-1.188 3.65-2.366 5.479-3.545.026-.017.063-.019.158-.046l-1.651 12.587.065.045 8.667-9.607.23 1.326c.205 1.2.402 2.4.622 3.596.045.24-.02.39-.18.559-1.855 1.94-3.703 3.889-5.552 5.835-.08.084-.158.172-.25.273.059.095.11.185.169.27 3.19 4.477 6.38 8.954 9.573 13.43.057.08.14.144.212.216v.07M38.06 41.76c-.08-.413-.138-1.019-.321-1.585-.887-2.736-3.694-4.236-6.6-3.56-3.187.742-5.465 3.248-5.795 6.5-.244 2.406 1.052 4.724 3.46 5.594 1.942.701 3.81.408 5.545-.632 2.3-1.38 3.547-3.428 3.712-6.317zM24.064 51.929c-.157 1.177-.307 2.286-.453 3.396a850.927 850.927 0 0 0-.573 4.428c-.022.172-.074.248-.26.247-1.454-.006-2.908-.004-4.363-.007-.033 0-.065-.018-.144-.04.087-.697.173-1.395.264-2.093.322-2.448.642-4.896.967-7.343.373-2.798.668-5.61 1.145-8.39.844-4.922 5.02-9.164 9.921-10.22 2.841-.613 5.56-.33 8.04 1.269 2.474 1.594 3.893 3.908 4.216 6.818.458 4.115-1.057 7.53-3.98 10.357-1.918 1.855-4.215 3.034-6.864 3.432-2.729.412-5.294-.043-7.596-1.652-.085-.06-.175-.11-.32-.202z" fill="#3B3B3A" mask="url(#b)"/></g><path d="M21.693 28.6l-4.783 3.56c-.254-.402-.482-.802-.749-1.175-.685-.957-1.536-1.672-2.774-1.76-1.029-.071-1.91.268-2.61 1.027-.627.678-.708 1.643-.123 2.41.645.843 1.35 1.644 2.07 2.425 1.195 1.295 2.444 2.54 3.63 3.842 1.08 1.184 1.94 2.513 2.206 4.132.317 1.925-.067 3.759-.978 5.45-1.685 3.131-4.339 4.947-7.842 5.516-1.547.25-3.09.2-4.599-.244-2.003-.59-3.398-1.902-4.294-3.756C.53 49.37.287 48.68 0 47.977L5.186 45.2c.06.144.103.264.159.377.295.59.536 1.216.901 1.76 1.083 1.61 2.832 2.1 4.606 1.303a5.07 5.07 0 0 0 1.269-.824c1.143-1.015 1.358-2.428.511-3.705-.486-.734-1.094-1.391-1.686-2.049-1.415-1.571-2.888-3.092-4.27-4.692-.953-1.103-1.6-2.389-1.805-3.866-.224-1.612.099-3.133.938-4.491 2.086-3.374 5.117-5.13 9.127-4.984 2.285.083 4.106 1.152 5.519 2.928.418.525.81 1.072 1.238 1.641M60.424 46.714c-.266 2.033-.517 3.965-.778 5.895-.013.098-.09.23-.173.27-3.947 1.828-9.144 1.572-12.385-2.108-1.741-1.978-2.472-4.325-2.363-6.936.253-6.044 5.264-11.321 11.257-12.058 3.502-.431 6.572.515 8.945 3.235 1.615 1.853 2.363 4.065 2.252 6.507-.072 1.613-.325 3.22-.526 4.825-.284 2.274-.595 4.545-.896 6.817-.01.08-.027.16-.045.263h-4.721c.063-.522.12-1.033.186-1.543.342-2.624.718-5.245 1.018-7.874.186-1.637.07-3.263-.68-4.78-.796-1.611-2.132-2.464-3.889-2.65-3.635-.385-7.094 2.141-7.87 5.72-.512 2.361.295 4.625 2.176 5.876 1.834 1.22 3.797 1.224 5.795.433 1.013-.4 1.876-1.035 2.697-1.892M80.305 32.236l-.645 4.895c-.998 0-1.977-.006-2.956.002-.793.007-1.516.518-1.754 1.259-.094.29-.128.6-.168.903-.497 3.759-.99 7.518-1.483 11.277-.124.948-.245 1.896-.37 2.859h-4.914c.092-.723.178-1.423.27-2.121.32-2.436.64-4.872.963-7.307.28-2.108.529-4.22.858-6.32.441-2.814 3.242-5.313 6.082-5.437 1.355-.06 2.715-.01 4.117-.01M106.616 53.43v-2.074h-.012l-.814 2.075h-.26l-.814-2.075h-.012v2.075h-.41v-2.485h.633l.742 1.888.73-1.888h.627v2.485h-.41zm-3.607-2.152v2.153h-.41v-2.153h-.778v-.332h1.966v.332h-.778zM28.276 25.11h1.219l-.288-1.845-.93 1.845zm1.41 1.192h-2.027l-.644 1.261h-1.436l3.167-5.916h1.384l1.078 5.916h-1.33l-.192-1.261zM36.939 22.84h-.722l-.243 1.364h.721c.436 0 .784-.286.784-.826 0-.357-.218-.539-.54-.539zm-1.749-1.193h1.897c.992 0 1.688.592 1.688 1.61 0 1.278-.905 2.14-2.193 2.14h-.817l-.384 2.166h-1.234l1.043-5.916zM42.971 25.11h1.219l-.288-1.845-.93 1.845zm1.41 1.192h-2.027l-.644 1.261h-1.436l3.167-5.916h1.383l1.079 5.916h-1.33l-.192-1.261zM52.395 27.354a3.245 3.245 0 0 1-1.34.305c-1.565 0-2.549-1.175-2.549-2.645 0-1.88 1.584-3.463 3.463-3.463.47 0 .897.113 1.244.304l-.174 1.419c-.26-.287-.679-.487-1.2-.487-1.079 0-2.036.974-2.036 2.105 0 .861.54 1.532 1.392 1.532.522 0 1.026-.2 1.366-.479l-.166 1.41M59.945 25.18H57.37l-.418 2.383h-1.235l1.044-5.916h1.235l-.417 2.34h2.575l.417-2.34h1.236l-1.044 5.916h-1.235l.417-2.384M64.476 27.563l1.043-5.916h3.28l-.208 1.192h-2.045l-.208 1.148h1.878l-.208 1.192h-1.88l-.208 1.192h2.044l-.208 1.192h-3.28" fill="#3B3B3A"/></g></svg>