<svg xmlns="http://www.w3.org/2000/svg" width="30" height="30" viewBox="35 35 30 30"><path d="M64.517 55.248l-2.335-1.379-1.268.75 2.006 1.185L50 63.439l-12.92-7.636 2.006-1.185-1.268-.75-2.334 1.379a.646.646 0 0 0 0 1.113l14.188 8.383c.101.061.215.09.328.09a.634.634 0 0 0 .328-.09l14.189-8.383a.648.648 0 0 0 0-1.112zm0-5.803l-2.335-1.379-1.268.749L62.92 50 50 57.636 37.08 50l2.006-1.186-1.268-.749-2.334 1.379a.645.645 0 0 0 0 1.112l14.188 8.383c.101.061.215.09.328.09a.634.634 0 0 0 .328-.09l14.189-8.383a.644.644 0 0 0 0-1.111zm-29.033-4.693l14.188 8.383c.101.061.215.09.328.09a.634.634 0 0 0 .328-.09l14.189-8.383a.647.647 0 0 0 0-1.111l-14.189-8.384a.647.647 0 0 0-.656 0l-14.188 8.384a.646.646 0 0 0 0 1.111zM50 36.561l12.92 7.635L50 51.831l-12.92-7.635L50 36.561z"/></svg>