<svg xmlns="http://www.w3.org/2000/svg" width="30" height="30" viewBox="0 0 30 30"><path fill="#D2D2D2" d="M15 29.674c-.865 0-2.233-1.524-2.749-2.099-1.143-1.272-2.43-2.971-3.625-4.784-1.426-2.164-4.742-7.599-4.742-11.349C3.884 5.313 8.87.326 15 .326s11.116 4.987 11.116 11.116c0 1.435-.49 3.267-1.455 5.446-.812 1.829-1.948 3.87-3.287 5.902-1.195 1.813-2.482 3.512-3.625 4.784-.516.575-1.884 2.1-2.749 2.1zm0-28.458c-5.639 0-10.227 4.588-10.227 10.227 0 1.305.46 3.007 1.368 5.062.786 1.777 1.892 3.766 3.197 5.751 1.164 1.771 2.42 3.435 3.534 4.682 1.569 1.756 2.098 1.844 2.127 1.848.029-.004.558-.092 2.127-1.848 1.114-1.247 2.37-2.91 3.535-4.682 1.305-1.985 2.41-3.974 3.196-5.751.908-2.055 1.368-3.757 1.368-5.062C25.227 5.804 20.639 1.216 15 1.216zm0 17.786c-4.168 0-7.559-3.392-7.559-7.56S10.832 3.884 15 3.884s7.559 3.391 7.559 7.559-3.391 7.559-7.559 7.559zm0-14.229c-3.678 0-6.67 2.991-6.67 6.669s2.992 6.67 6.67 6.67 6.67-2.992 6.67-6.67S18.678 4.773 15 4.773z"/></svg>