<svg xmlns="http://www.w3.org/2000/svg" width="30" height="30" viewBox="0 0 30 30"><path d="M6.084 18.351l-.664.382a.765.765 0 0 1-1.047-.28.767.767 0 0 1 .28-1.049l.664-.384a.768.768 0 0 1 .767 1.331zm-.72-10.716l-.711-.41a.766.766 0 1 1 .767-1.329l.711.41a.767.767 0 1 1-.767 1.329zm-1.869 5.448a.768.768 0 1 1 0-1.535h.768a.766.766 0 1 1 0 1.535h-.768zm7.485-1.822c-.027.121-.05.243-.066.368a.766.766 0 1 1-1.521-.2c.022-.173.054-.343.092-.511a.765.765 0 0 1 .918-.577.77.77 0 0 1 .577.92zm4.03-3.211a4.135 4.135 0 0 0-3.038 1.332.769.769 0 1 1-1.129-1.04 5.684 5.684 0 0 1 4.166-1.827h.001a.768.768 0 0 1 0 1.535zm4.402 9.446a6.838 6.838 0 0 0 2.439-5.234 6.867 6.867 0 0 0-2.284-5.107 6.8 6.8 0 0 0-5.352-1.702c-3.195.353-5.794 3.043-6.044 6.258a6.793 6.793 0 0 0 2.396 5.766 3.993 3.993 0 0 1 1.347 2.483h2.318v-1.19l-1.309-1.31a.767.767 0 1 1 1.085-1.084l.992.991.992-.991a.765.765 0 1 1 1.084 1.084l-1.309 1.31v1.191h2.311a3.88 3.88 0 0 1 1.334-2.465zm-7.454 4.025c0 .847.689 1.535 1.534 1.535h3.016c.846 0 1.534-.688 1.534-1.535v-.026h-2.91c-.044.009-.085.026-.132.026s-.087-.018-.132-.026h-2.91v.026zm.847 3.838h4.39v-.854a2.985 2.985 0 0 1-.687.085h-3.016c-.237 0-.466-.033-.688-.085v.854zM15 28.427a2.19 2.19 0 0 0 2.083-1.535h-4.166A2.191 2.191 0 0 0 15 28.427zm0 1.535a3.733 3.733 0 0 1-3.729-3.73v-2.605a3.048 3.048 0 0 1-.848-2.104v-.939c0-.771-.31-1.477-.85-1.936a8.318 8.318 0 0 1-2.933-7.055c.312-4.002 3.427-7.225 7.405-7.665a8.428 8.428 0 0 1 6.544 2.084 8.402 8.402 0 0 1 2.794 6.25c0 2.475-1.09 4.81-2.985 6.408-.524.44-.822 1.112-.822 1.845v1.007a3.05 3.05 0 0 1-.848 2.104v2.605A3.732 3.732 0 0 1 15 29.962zm5.368-26.183a.765.765 0 0 1-.662-1.151l.382-.664a.767.767 0 0 1 1.329.767l-.384.665a.765.765 0 0 1-.665.383zm-6.136-2.206V.806a.768.768 0 0 1 1.536 0v.767a.767.767 0 0 1-1.536 0zm-4.6 2.206a.765.765 0 0 1-.665-.383l-.384-.665a.766.766 0 1 1 1.329-.767l.383.664a.767.767 0 0 1-.663 1.151zm15.332 15.057a.757.757 0 0 1-.385-.103l-.663-.383a.767.767 0 0 1 .767-1.33l.665.384a.768.768 0 0 1-.384 1.432zm.007-6.522c0-.424.345-.767.767-.767h.769a.767.767 0 0 1 0 1.535h-.769a.767.767 0 0 1-.767-.768zm-1.103-6.008l.711-.41a.767.767 0 1 1 .769 1.329l-.711.41a.766.766 0 0 1-1.049-.28.77.77 0 0 1 .28-1.049z"/></svg>