<svg xmlns="http://www.w3.org/2000/svg" width="30" height="30" viewBox="0 0 30 30"><path d="M7.585 19.83c-2.477 0-4.663-1.758-5.195-4.182a5.331 5.331 0 0 1 5.204-6.473c2.478 0 4.664 1.759 5.197 4.181a5.333 5.333 0 0 1-5.206 6.474zm.008-9.44a4.117 4.117 0 0 0-4.019 4.997c.475 2.161 2.717 3.604 4.899 3.13a4.117 4.117 0 0 0 3.131-4.899 4.135 4.135 0 0 0-4.011-3.228zm11.545 4.748a3.197 3.197 0 0 1-3.103-2.495 3.159 3.159 0 0 1 .426-2.396 3.157 3.157 0 0 1 1.995-1.392c1.672-.368 3.418.749 3.787 2.42a3.182 3.182 0 0 1-3.105 3.863zm.005-5.145a1.966 1.966 0 0 0-1.922 2.387c.228 1.033 1.295 1.726 2.341 1.497a1.966 1.966 0 0 0 1.496-2.341 1.978 1.978 0 0 0-1.915-1.543zm7.544 10.946a3.198 3.198 0 0 1-3.102-2.494 3.187 3.187 0 0 1 2.422-3.789c1.672-.371 3.418.75 3.786 2.421.182.828.031 1.68-.425 2.393a3.15 3.15 0 0 1-1.996 1.393 3.093 3.093 0 0 1-.685.076zm.006-5.143c-.142 0-.284.016-.426.045a1.973 1.973 0 0 0-1.497 2.345c.229 1.029 1.3 1.723 2.344 1.492a1.95 1.95 0 0 0 1.232-.861 1.95 1.95 0 0 0 .263-1.479 1.977 1.977 0 0 0-1.916-1.542zm-2.759-8.507a3.194 3.194 0 0 1-3.099-2.495 3.16 3.16 0 0 1 .424-2.396 3.165 3.165 0 0 1 1.997-1.393c1.674-.372 3.417.75 3.784 2.421a3.163 3.163 0 0 1-.424 2.394 3.158 3.158 0 0 1-1.996 1.393 3.095 3.095 0 0 1-.686.076zm.007-5.143a1.977 1.977 0 0 0-1.659.908 1.955 1.955 0 0 0-.265 1.479c.229 1.034 1.307 1.728 2.342 1.496.513-.113.95-.419 1.232-.859.283-.441.376-.968.263-1.48a1.97 1.97 0 0 0-1.913-1.544zM3.308 29.064A3.195 3.195 0 0 1 .207 26.57c-.182-.828-.031-1.68.425-2.396s1.166-1.209 1.995-1.393c1.681-.371 3.419.75 3.788 2.422a3.184 3.184 0 0 1-3.107 3.861zm.004-5.142a1.942 1.942 0 0 0-1.658.906 1.951 1.951 0 0 0-.262 1.482c.229 1.031 1.307 1.725 2.34 1.494a1.967 1.967 0 0 0 1.497-2.34 1.977 1.977 0 0 0-1.917-1.542zm10.55-10.193a.605.605 0 0 1-.591-.475.605.605 0 0 1 .46-.725l.986-.221a.606.606 0 1 1 .266 1.185l-.988.221a.616.616 0 0 1-.133.015zm7.461-4.717a.614.614 0 0 1-.318-.088.61.61 0 0 1-.201-.834l.478-.782a.608.608 0 1 1 1.038.631l-.479.782a.603.603 0 0 1-.518.291zm1.961 6.66a.607.607 0 0 1-.365-.122l-.592-.441a.608.608 0 0 1 .727-.974l.594.442a.611.611 0 0 1 .123.851.61.61 0 0 1-.487.244zm-18.52 6.949a.604.604 0 0 1-.567-.82l.579-1.541a.605.605 0 1 1 1.136.426l-.579 1.543a.607.607 0 0 1-.569.392z"/></svg>