<svg xmlns="http://www.w3.org/2000/svg" width="30" height="30" viewBox="0 0 30 30"><g fill="#FFF"><path d="M25.473 4.527A14.717 14.717 0 0 0 15 .189 14.713 14.713 0 0 0 4.528 4.527C1.73 7.324.189 11.044.189 15s1.541 7.675 4.338 10.473a14.71 14.71 0 0 0 10.472 4.338c3.957 0 7.675-1.54 10.473-4.338C28.27 22.676 29.81 18.956 29.81 15s-1.539-7.676-4.337-10.473zm-1.387 19.559A12.766 12.766 0 0 1 15 27.85c-3.432 0-6.659-1.337-9.086-3.764S2.151 18.432 2.151 15c0-3.432 1.336-6.659 3.763-9.086A12.765 12.765 0 0 1 15 2.151c3.433 0 6.659 1.336 9.086 3.763A12.766 12.766 0 0 1 27.85 15c0 3.432-1.337 6.659-3.764 9.086z"/><path d="M18.732 17.346a5.648 5.648 0 0 0 1.037-3.263 5.693 5.693 0 0 0-5.687-5.686 5.693 5.693 0 0 0-5.686 5.686 5.693 5.693 0 0 0 5.686 5.687 5.648 5.648 0 0 0 3.263-1.037l2.122 2.121c.254.255.67.255.924 0l.462-.462a.655.655 0 0 0 0-.925l-2.121-2.121zm-4.649.462a3.73 3.73 0 0 1-3.725-3.725 3.73 3.73 0 0 1 3.725-3.725 3.73 3.73 0 0 1 3.726 3.725 3.73 3.73 0 0 1-3.726 3.725z"/></g></svg>