<svg width="205" height="60" viewBox="0 0 205 60" xmlns="http://www.w3.org/2000/svg"><title>coreos</title><g fill="none" fill-rule="evenodd"><path d="M30.099.147C13.606.147.192 13.562.192 30.052c0 16.491 13.415 29.906 29.907 29.906 16.488 0 29.904-13.415 29.904-29.906 0-16.49-13.416-29.905-29.904-29.905z" fill="#53A3DA"/><path d="M30.099 2.89c-4.81 0-8.888 7.693-10.361 18.385a64.717 64.717 0 0 0-.539 6.276 63.631 63.631 0 0 0 0 5.001c.068 1.801.205 3.552.406 5.235 2.255.292 4.666.49 7.181.584 1.087.04 2.19.065 3.313.065 1.12 0 2.226-.025 3.31-.065a79.24 79.24 0 0 0 7.184-.584c.249-.032.493-.067.74-.103 9.393-1.319 15.927-4.238 15.927-7.632 0-15.002-12.162-27.161-27.161-27.161z" fill="#F1606D"/><path d="M41.333 22.42a13.785 13.785 0 0 0-.876-1.145A13.546 13.546 0 0 0 30.1 16.471c-1.346 0-2.545 2.061-3.313 5.262a31.888 31.888 0 0 0-.694 4.312 42.667 42.667 0 0 0-.185 4.007c0 1.394.065 2.74.185 4.006 1.267.12 2.612.185 4.007.185 1.394 0 2.739-.065 4.006-.185 2.786-.264 5.19-.8 6.894-1.506 1.682-.696 2.678-1.562 2.678-2.5 0-2.83-.864-5.457-2.344-7.633z" fill="#FFF"/><path d="M88.178 15.32c3.502 0 6.35 1.707 8.143 3.634l-2.8 3.152c-1.49-1.446-3.11-2.364-5.299-2.364-4.686 0-8.056 3.94-8.056 10.376 0 6.525 3.108 10.465 7.88 10.465 2.54 0 4.423-1.05 6.043-2.846l2.801 3.108c-2.32 2.67-5.297 4.16-8.932 4.16-7.268 0-13.003-5.254-13.003-14.755 0-9.37 5.867-14.93 13.223-14.93zm20.055 7.136c5.385 0 10.246 4.116 10.246 11.296 0 7.137-4.862 11.253-10.246 11.253-5.342 0-10.201-4.116-10.201-11.253 0-7.18 4.859-11.296 10.2-11.296zm0 18.433c3.152 0 5.078-2.846 5.078-7.137 0-4.334-1.926-7.18-5.078-7.18-3.153 0-5.035 2.846-5.035 7.18 0 4.29 1.882 7.137 5.035 7.137zm11.912-17.908h4.158l.35 3.809h.176c1.532-2.802 3.81-4.334 6.085-4.334 1.096 0 1.796.13 2.452.438l-.876 4.378c-.743-.218-1.312-.35-2.23-.35-1.709 0-3.768 1.181-5.08 4.422V44.48h-5.035V22.981zm22.637-.525c5.823 0 8.888 4.204 8.888 10.203 0 .962-.088 1.837-.22 2.364h-13.66c.438 3.896 2.888 6.085 6.348 6.085 1.84 0 3.415-.568 4.992-1.576l1.708 3.152c-2.058 1.358-4.64 2.321-7.356 2.321-5.956 0-10.596-4.16-10.596-11.253 0-7.006 4.86-11.296 9.896-11.296zm4.509 9.37c0-3.416-1.444-5.473-4.378-5.473-2.539 0-4.73 1.883-5.167 5.473h9.545z" fill="#231F20"/><path d="M159.333 29.943c0-9.107 4.949-14.844 11.909-14.844 6.918 0 11.865 5.737 11.865 14.844 0 9.152-4.946 15.062-11.865 15.062-6.96 0-11.91-5.91-11.91-15.062zm21.673 0c0-7.97-3.94-13.003-9.764-13.003-5.867 0-9.808 5.034-9.808 13.003 0 8.013 3.94 13.223 9.808 13.223 5.824 0 9.764-5.21 9.764-13.223z" fill="#F1606D"/><path d="M186.918 39.27c2.103 2.364 5.124 3.896 8.496 3.896 4.377 0 7.18-2.365 7.18-5.778 0-3.591-2.363-4.774-5.21-6.044l-4.378-1.97c-2.496-1.096-5.825-2.89-5.825-7.182 0-4.159 3.59-7.093 8.364-7.093 3.503 0 6.305 1.576 8.055 3.46l-1.18 1.357c-1.665-1.795-3.985-2.977-6.875-2.977-3.81 0-6.349 2.015-6.349 5.166 0 3.329 2.89 4.597 4.991 5.561l4.38 1.926c3.195 1.446 6.041 3.24 6.041 7.663 0 4.422-3.634 7.75-9.238 7.75-4.204 0-7.444-1.795-9.72-4.334l1.268-1.401z" fill="#53A4D9"/></g></svg>