<svg width="84" height="82" viewBox="0 0 84 82" xmlns="http://www.w3.org/2000/svg"><title>kubernetes</title><g stroke="#FFF" fill="none" fill-rule="evenodd"><path d="M41.488 1.124a5.5 5.5 0 0 0-2.094.53L10.816 15.309a5.429 5.429 0 0 0-2.957 3.677L.809 49.658a5.383 5.383 0 0 0 .741 4.156c.097.149.2.293.311.431l19.78 24.595a5.482 5.482 0 0 0 4.273 2.04l31.722-.008a5.482 5.482 0 0 0 4.273-2.036l19.773-24.598a5.386 5.386 0 0 0 1.056-4.587l-7.061-30.672a5.429 5.429 0 0 0-2.957-3.677L44.138 1.654a5.503 5.503 0 0 0-2.65-.53z" fill="#326CE5"/><path d="M41.772 11.562c-.945 0-1.711.851-1.711 1.9 0 .017.003.032.004.048-.002.143-.009.315-.004.439.023.605.154 1.069.234 1.626.144 1.194.264 2.184.19 3.103-.072.347-.328.665-.556.885l-.04.724c-1.026.085-2.06.24-3.092.475a22.003 22.003 0 0 0-11.177 6.385c-.189-.129-.52-.366-.618-.439-.305.042-.614.136-1.016-.098-.765-.516-1.462-1.227-2.306-2.084-.386-.41-.666-.8-1.126-1.195-.104-.09-.263-.21-.38-.303a2.034 2.034 0 0 0-1.191-.45c-.526-.018-1.032.188-1.364.603-.588.739-.4 1.868.42 2.522l.026.019c.113.091.251.208.355.285.487.36.932.544 1.418.83 1.023.631 1.871 1.155 2.544 1.787.263.28.308.773.343.986l.549.49a22.135 22.135 0 0 0-3.49 15.432l-.717.208c-.189.244-.456.627-.735.742-.88.277-1.87.379-3.066.504-.562.047-1.046.019-1.641.132-.131.025-.314.072-.457.106l-.015.003-.026.008c-1.008.243-1.655 1.17-1.447 2.083.209.913 1.193 1.469 2.208 1.25l.025-.004c.012-.002.022-.008.033-.01.142-.032.319-.066.442-.1.586-.156 1.01-.386 1.536-.588 1.131-.406 2.069-.745 2.982-.877.381-.03.783.235.983.347l.746-.128c1.716 5.32 5.311 9.62 9.865 12.318l-.311.745c.112.29.235.682.152.967-.332.861-.9 1.77-1.548 2.783-.314.468-.635.832-.918 1.367-.067.128-.154.325-.219.46-.44.941-.117 2.025.727 2.431.85.41 1.905-.022 2.361-.965l.004-.003v-.004c.065-.133.157-.31.212-.435.242-.555.323-1.03.494-1.568.452-1.137.7-2.33 1.324-3.073.17-.203.449-.282.737-.359l.387-.702a22.101 22.101 0 0 0 15.786.04c.109.194.311.565.366.659.293.095.613.144.873.53.466.796.785 1.738 1.173 2.876.17.537.255 1.013.498 1.568.055.127.146.305.212.439.455.945 1.513 1.378 2.364.968.845-.407 1.167-1.49.728-2.43-.066-.136-.156-.333-.223-.461-.283-.536-.604-.895-.918-1.363-.647-1.013-1.185-1.855-1.517-2.716-.138-.444.024-.72.132-1.009-.065-.074-.203-.493-.285-.69 4.732-2.794 8.222-7.254 9.861-12.405.221.034.606.102.731.127.257-.17.494-.39.958-.354.913.132 1.85.471 2.982.877.526.202.95.436 1.535.592.124.033.301.064.442.095.012.003.022.009.033.011l.026.004c1.014.218 2-.337 2.208-1.25.208-.913-.44-1.84-1.448-2.083-.147-.034-.354-.09-.497-.117-.595-.113-1.08-.085-1.641-.132-1.196-.125-2.186-.227-3.067-.504-.358-.14-.614-.567-.738-.742l-.69-.201a22.09 22.09 0 0 0-.359-7.986 22.143 22.143 0 0 0-3.205-7.41c.177-.16.512-.456.607-.544.027-.307.003-.628.321-.968.673-.632 1.521-1.156 2.544-1.788.486-.285.934-.47 1.422-.83.11-.08.26-.21.376-.303.82-.654 1.01-1.783.42-2.521-.589-.739-1.73-.809-2.55-.154-.117.092-.276.213-.38.303-.46.395-.744.786-1.13 1.196-.844.856-1.54 1.571-2.306 2.087-.332.193-.818.126-1.038.113l-.651.464c-3.71-3.89-8.76-6.377-14.2-6.86-.015-.228-.035-.64-.04-.764-.222-.213-.491-.395-.559-.856-.074-.92.05-1.909.194-3.103.08-.557.211-1.02.234-1.626.005-.138-.003-.337-.004-.486 0-1.05-.766-1.9-1.71-1.9zM39.63 24.83l-.508 8.973-.037.018a1.508 1.508 0 0 1-2.394 1.155l-.015.007-7.357-5.215a17.62 17.62 0 0 1 8.487-4.624c.609-.138 1.217-.24 1.824-.314zm4.287 0a17.77 17.77 0 0 1 10.249 4.941l-7.31 5.183-.026-.01a1.51 1.51 0 0 1-2.398-1.152l-.007-.004-.508-8.958zm-17.266 8.29l6.718 6.008-.008.037a1.506 1.506 0 0 1-.592 2.591l-.007.03-8.611 2.485a17.617 17.617 0 0 1 2.5-11.152zm30.194.003a17.838 17.838 0 0 1 2.204 5.384 17.8 17.8 0 0 1 .372 5.734l-8.655-2.492-.007-.037a1.509 1.509 0 0 1-.592-2.591l-.004-.019 6.682-5.98zm-16.451 6.47h2.752l1.71 2.137-.614 2.668-2.47 1.188-2.479-1.191-.614-2.668 1.715-2.135zm8.823 7.316a1.5 1.5 0 0 1 .347.026l.015-.018 8.907 1.506a17.64 17.64 0 0 1-7.131 8.958l-3.458-8.352.011-.014a1.51 1.51 0 0 1 1.309-2.106zm-14.96.037a1.508 1.508 0 0 1 1.363 2.102l.026.033-3.421 8.267a17.712 17.712 0 0 1-7.11-8.896l8.831-1.499.015.019c.099-.019.199-.027.296-.026zm7.46 3.622c.236-.009.477.04.705.15.3.144.53.371.676.643h.033l4.353 7.866c-.565.19-1.146.351-1.74.486a17.684 17.684 0 0 1-9.652-.497l4.342-7.851h.007a1.51 1.51 0 0 1 1.276-.797z" stroke-width=".25" fill="#FFF"/></g></svg>