<svg width="90" height="90" viewBox="0 0 90 90" xmlns="http://www.w3.org/2000/svg"><title>mocha</title><g fill="none" fill-rule="evenodd"><circle fill="#8A6343" cx="45" cy="45" r="45"/><path d="M15.205 41.548h.804v2.224h.043c.088-.346.238-.673.444-.964.213-.305.474-.573.773-.794a3.663 3.663 0 0 1 2.192-.72c.523 0 .974.067 1.355.201.382.135.706.311.975.53.268.218.48.466.635.74.155.276.261.555.318.838h.042c.325-.763.759-1.338 1.302-1.727.544-.388 1.26-.582 2.15-.582.494 0 .949.074 1.366.222.406.142.775.374 1.08.678.303.304.54.688.71 1.154.168.466.253 1.016.253 1.652v7.433h-.805V44.98c0-.692-.105-1.235-.317-1.63-.212-.396-.463-.696-.752-.9a2.131 2.131 0 0 0-.868-.382 4.296 4.296 0 0 0-.667-.074c-.494 0-.95.084-1.366.254a2.9 2.9 0 0 0-1.08.762 3.58 3.58 0 0 0-.71 1.26c-.169.501-.254 1.077-.254 1.727v6.437h-.805V44.98c0-.678-.102-1.218-.307-1.62-.204-.403-.444-.703-.72-.9a2.157 2.157 0 0 0-.847-.381 3.79 3.79 0 0 0-.688-.085c-.381 0-.776.077-1.186.233a3.308 3.308 0 0 0-1.122.72c-.339.325-.614.74-.826 1.25-.212.508-.318 1.107-.318 1.8v6.437h-.805V41.548zm16.327 5.443c0-.777.11-1.508.328-2.192a5.5 5.5 0 0 1 .963-1.81c.425-.524.96-.947 1.568-1.24.62-.303 1.334-.455 2.138-.455.805 0 1.518.152 2.14.455a4.576 4.576 0 0 1 1.566 1.24 5.48 5.48 0 0 1 .964 1.81 7.15 7.15 0 0 1 .328 2.192c0 .776-.11 1.51-.328 2.202a5.377 5.377 0 0 1-.963 1.81 4.638 4.638 0 0 1-1.568 1.229c-.62.303-1.334.455-2.139.455-.805 0-1.517-.152-2.138-.455a4.63 4.63 0 0 1-1.567-1.228 5.365 5.365 0 0 1-.964-1.81 7.266 7.266 0 0 1-.328-2.203zm.805 0c0 .649.091 1.274.275 1.873.183.6.451 1.134.805 1.6.35.463.798.843 1.312 1.111.523.276 1.123.413 1.8.413.678 0 1.278-.137 1.8-.413a3.918 3.918 0 0 0 1.313-1.111 5.09 5.09 0 0 0 .805-1.6c.183-.6.275-1.224.275-1.873 0-.65-.091-1.275-.275-1.875a5.084 5.084 0 0 0-.805-1.598 3.918 3.918 0 0 0-1.313-1.112c-.522-.275-1.122-.413-1.8-.413-.677 0-1.277.138-1.8.413a3.918 3.918 0 0 0-1.313 1.112 5.08 5.08 0 0 0-.804 1.598 6.371 6.371 0 0 0-.276 1.875zm19.27-2.076a3.14 3.14 0 0 0-.37-1.27 2.83 2.83 0 0 0-.795-.91 3.592 3.592 0 0 0-1.133-.551 4.873 4.873 0 0 0-1.387-.19c-.677 0-1.277.137-1.8.412a3.97 3.97 0 0 0-1.313 1.1 5.04 5.04 0 0 0-.805 1.568 6.022 6.022 0 0 0-.275 1.81c0 .735.085 1.413.255 2.034.17.62.43 1.16.783 1.62.348.454.797.82 1.313 1.069.522.254 1.137.381 1.842.381.509 0 .978-.084 1.409-.254.42-.163.807-.4 1.143-.699a3.6 3.6 0 0 0 .815-1.07c.216-.428.36-.89.424-1.365h.805a5.107 5.107 0 0 1-.53 1.737 4.255 4.255 0 0 1-1.016 1.28 4.41 4.41 0 0 1-1.398.795 4.946 4.946 0 0 1-1.652.275c-.89 0-1.648-.159-2.276-.476a4.352 4.352 0 0 1-1.546-1.282 5.442 5.442 0 0 1-.89-1.852 8.293 8.293 0 0 1-.285-2.192c0-.763.11-1.483.328-2.16a5.31 5.31 0 0 1 .963-1.78c.424-.507.946-.91 1.568-1.206.62-.297 1.334-.445 2.138-.445.593 0 1.147.074 1.663.222a4.3 4.3 0 0 1 1.376.668c.403.296.73.674.985 1.132.254.46.41.992.466 1.6h-.805zm3.6-7.602v6.565h.042c.134-.397.339-.767.604-1.091a4.011 4.011 0 0 1 2.043-1.323c.407-.113.828-.17 1.25-.17.635 0 1.175.078 1.62.233.445.155.808.36 1.09.614.274.243.5.533.668.858.162.317.278.639.35.963.07.325.112.64.126.942.014.304.021.569.021.795v6.734h-.805v-6.882c0-.269-.02-.608-.063-1.017a3.09 3.09 0 0 0-.37-1.175c-.205-.374-.516-.695-.932-.963-.417-.269-.992-.403-1.727-.403-.62 0-1.171.113-1.65.339a3.58 3.58 0 0 0-1.23.942 4.15 4.15 0 0 0-.772 1.44 6.044 6.044 0 0 0-.265 1.832v5.887h-.805v-15.12h.805zm17.407 12.96h-.042c-.133.335-.32.646-.55.921-.253.3-.55.561-.88.773a4.34 4.34 0 0 1-1.175.53c-.437.127-.918.19-1.44.19-1.157 0-2.054-.25-2.69-.752-.635-.501-.952-1.274-.952-2.319 0-.635.127-1.154.38-1.556.255-.402.576-.72.964-.953.4-.237.837-.405 1.292-.498.451-.095.907-.166 1.366-.211l1.25-.106c.578-.043 1.034-.11 1.365-.201.332-.092.583-.22.752-.382.17-.162.275-.37.318-.624.042-.254.063-.572.063-.953 0-.297-.056-.572-.17-.826a1.847 1.847 0 0 0-.529-.678c-.24-.198-.55-.353-.931-.466-.381-.112-.848-.169-1.398-.169-.974 0-1.761.24-2.361.72-.6.48-.928 1.207-.985 2.181h-.805c.057-1.2.442-2.1 1.155-2.7.713-.6 1.726-.9 3.038-.9 1.313 0 2.27.258 2.87.773.6.515.9 1.19.9 2.022v6.332c0 .155.003.31.01.466.007.155.032.297.074.424.043.127.113.23.212.307.1.077.24.116.424.116.14 0 .339-.021.593-.063v.677c-.212.057-.43.085-.657.085-.325 0-.582-.042-.773-.127a1.019 1.019 0 0 1-.434-.34 1.254 1.254 0 0 1-.201-.497 3.437 3.437 0 0 1-.053-.624v-.572zm0-4.024c-.197.24-.498.403-.9.487-.402.085-.85.149-1.345.19l-1.355.128a13.75 13.75 0 0 0-1.186.18 3.439 3.439 0 0 0-1.07.392c-.315.182-.581.44-.772.752-.198.317-.297.73-.297 1.238 0 .805.255 1.402.763 1.79.508.388 1.207.582 2.096.582.918 0 1.645-.166 2.181-.497.537-.332.946-.713 1.229-1.144.282-.43.462-.847.54-1.25.077-.402.116-.673.116-.815V46.25z" fill="#FFF"/></g></svg>