<svg width="143" height="40" viewBox="0 0 143 40" xmlns="http://www.w3.org/2000/svg"><title>quay-1</title><g fill="none" fill-rule="evenodd"><path d="M73.188 38.906a8.527 8.527 0 0 1-2.078.657 14.87 14.87 0 0 1-2.955.266c-3.034 0-5.594-.7-7.682-2.098a12.922 12.922 0 0 1-4.665-5.486 12.16 12.16 0 0 1-4.135-1.674 11.38 11.38 0 0 1-3.175-3.085 14.392 14.392 0 0 1-2.016-4.355 20.127 20.127 0 0 1-.702-5.494 19.127 19.127 0 0 1 .938-6.237c.562-1.7 1.47-3.266 2.67-4.596a11.363 11.363 0 0 1 4.081-2.857 14.616 14.616 0 0 1 10.551 0 11.253 11.253 0 0 1 4.082 2.857 13.147 13.147 0 0 1 2.649 4.625c.655 1.997.974 4.09.943 6.191 0 3.853-.816 7.02-2.45 9.498a11.461 11.461 0 0 1-6.607 4.898 5.278 5.278 0 0 0 2.714 2.078c1.14.397 2.34.6 3.547.6.58.002 1.16-.05 1.73-.155a9.58 9.58 0 0 0 1.425-.372l1.135 4.74zM52.37 17.641c0 3.064.57 5.442 1.71 7.135a5.51 5.51 0 0 0 9.282 0c1.138-1.693 1.706-4.071 1.706-7.135 0-2.86-.57-5.093-1.71-6.698a5.673 5.673 0 0 0-9.281 0c-1.124 1.603-1.686 3.834-1.686 6.694l-.02.004zM74.58 3.494h6.477v15.975c0 2.803.423 4.758 1.27 5.866.846 1.107 2.07 1.66 3.673 1.66 1.605 0 2.845-.554 3.718-1.664.874-1.11 1.31-3.066 1.31-5.866V3.485h6.217v15.323c0 4.787-.952 8.274-2.857 10.461-1.905 2.188-4.7 3.277-8.384 3.266-3.706 0-6.537-1.089-8.494-3.266-1.956-2.176-2.934-5.664-2.934-10.46V3.493h.004zm39.84 21.743h-8.706l-1.755 6.787h-6.567l8.922-28.542h7.755l8.94 28.538h-6.838l-1.75-6.783zm-1.318-5.033l-.657-2.624a103.97 103.97 0 0 1-1.184-4.551 310.2 310.2 0 0 0-1.139-4.645h-.175l-1.07 4.66c-.364 1.59-.75 3.1-1.159 4.532l-.698 2.628h6.082zm13.922 1.657l-8.628-18.367h6.91l2.543 6.563a384.85 384.85 0 0 1 1.16 3.13c.364 1 .753 2.046 1.167 3.14h.175c.408-1.108.81-2.166 1.204-3.176.395-1.01.796-2.053 1.204-3.13l2.58-6.568h6.743l-8.613 18.408v10.155h-6.44V21.861h-.005z" fill="#003764"/><path d="M30.665 0l8.515 18.008-8.515 18.004H23.42l8.51-18.004L23.42 0h7.245z" fill="#40B4E5"/><path d="M23.42 36.012l-8.514-18.004L23.42 0h7.245l-8.51 18.008 8.51 18.004H23.42z" fill="#003764"/><path d="M19.588 8.102L15.759 0H8.514l7.453 15.767 3.62-7.665zm-3.62 12.143L8.513 36.012h7.245l3.829-8.102-3.62-7.665z" fill="#40B4E5"/><path d="M8.514 36.012L0 18.008 8.514 0h7.245L7.245 18.008l8.514 18.004H8.514z" fill="#003764"/></g></svg>