<svg xmlns="http://www.w3.org/2000/svg" xmlns:xlink="http://www.w3.org/1999/xlink" viewBox="0 0 1170 657"><defs><style>.a,.h,.m,.o{fill:none;}.b{clip-path:url(#a);}.c{fill:#0cbba1;}.c,.d{opacity:0.1;}.d{fill:#f79337;}.e{fill:url(#b);}.f{fill:url(#c);}.g,.i{fill:#fff;}.g{font-size:30px;letter-spacing:-0.02em;}.g,.i,.j,.n{font-family:CerebriSans-Medium, Cerebri Sans;font-weight:500;}.h{stroke:#98f3ee;stroke-linejoin:bevel;stroke-width:4px;stroke-dasharray:6;}.i,.j,.n{font-size:20px;letter-spacing:-0.01em;}.j{fill:#00b491;}.k{fill:url(#f);}.l{fill:url(#h);}.m{stroke:#9f9f9f;opacity:0.3;}.m,.o{stroke-width:2px;}.n{fill:#f15f5f;opacity:0.6;}.o{stroke:#e1e1e1;}</style><clipPath id="a"><rect class="a" width="1170" height="657"/></clipPath><linearGradient id="b" y1="0.425" x2="1" y2="0.428" gradientUnits="objectBoundingBox"><stop offset="0" stop-color="#0cc19e"/><stop offset="1" stop-color="#0c94b3"/></linearGradient><linearGradient id="c" y1="0.425" x2="1" y2="0.428" gradientUnits="objectBoundingBox"><stop offset="0" stop-color="#f89c30"/><stop offset="1" stop-color="#f15f5f"/></linearGradient><linearGradient id="f" y1="0.425" x2="1" y2="0.428" gradientUnits="objectBoundingBox"><stop offset="0" stop-color="#0cc19e"/><stop offset="0.32" stop-color="#0c9ab0"/><stop offset="0.685" stop-color="#0ca2ad"/><stop offset="1" stop-color="#0c94b3"/></linearGradient><linearGradient id="h" x1="-0.118" y1="-0.101" x2="1" y2="0.841" gradientUnits="objectBoundingBox"><stop offset="0" stop-color="#09cfb6"/><stop offset="1" stop-color="#0c9ab0"/></linearGradient></defs><g class="b"><g transform="translate(-371 -2254)"><path class="c" d="M-98-3084a20,20,0,0,1-20-20v-317a20,20,0,0,1,20-20H1032a20,20,0,0,1,20,20v128a20,20,0,0,1-20,20H567v169a20,20,0,0,1-20,20Z" transform="translate(489 5805)"/><path class="d" d="M-98-3062a20,20,0,0,1-20-20v-339a20,20,0,0,1,20-20H547a20,20,0,0,1,20,20v339a20,20,0,0,1-20,20Z" transform="translate(1423 -530) rotate(180)"/><rect class="e" width="170" height="49" rx="10" transform="translate(471 2545)"/><rect class="f" width="170" height="49" rx="10" transform="translate(871 2604)"/><rect class="e" width="570" height="90" rx="10" transform="translate(371 2254)"/><text class="g" transform="translate(566 2309)"><tspan x="0" y="0">Code as Data</tspan></text><rect class="f" width="570" height="90" rx="10" transform="translate(971 2254)"/><text class="g" transform="translate(1075 2309)"><tspan x="0" y="0">Machine Learning on Code</tspan></text><path class="h" d="M559,5940l45.91-76.562L652.388,5940Z" transform="translate(-49.194 -3423)"/><text class="i" transform="translate(533 2576)"><tspan x="0" y="0">Sand</tspan></text><text class="j" transform="translate(725 2576)"><tspan x="0" y="0">Engine</tspan></text><rect class="k" width="170" height="49" rx="10" transform="translate(871 2545)"/><text class="i" transform="translate(925 2576)"><tspan x="0" y="0">Silicon</tspan></text><g transform="translate(0 -21)"><rect class="e" width="170" height="49" rx="10" transform="translate(1071 2441)"/><text class="i" transform="translate(1119 2472)"><tspan x="0" y="0">Industry</tspan></text></g><g transform="translate(1299.12 2401)"><g transform="translate(33.435 17.152)"><path class="l" d="M125.745,85.12A22.761,22.761,0,0,0,103,107.865a25.889,25.889,0,0,0,10.752,20.65v16.426a1.613,1.613,0,0,0,.113.548v.129a1.618,1.618,0,0,0,.1.193l5.674,8.447a1.612,1.612,0,0,0,1.338.709h9.382a1.612,1.612,0,0,0,1.338-.709l5.674-8.447a1.619,1.619,0,0,0,.1-.193v-.129a1.613,1.613,0,0,0,.113-.548V128.515a25.888,25.888,0,0,0,10.752-20.65A22.761,22.761,0,0,0,125.745,85.12Zm3.837,66.673h-7.673l-3.514-5.223H133.08Zm-12.59-8.447v-4.272H134.5l.016,4.272Zm18.248-17.039v.048a1.612,1.612,0,0,0-.725,1.354V135.9H116.992v-8.286a1.612,1.612,0,0,0-.725-1.354,22.568,22.568,0,0,1-10.027-18.441,19.521,19.521,0,0,1,39.027,0A22.568,22.568,0,0,1,135.24,126.307Z" transform="translate(-103 -85.12)"/></g><g transform="translate(55.213 24.454)"><path class="l" d="M212.692,121.36a1.612,1.612,0,0,0,0,3.224,12.155,12.155,0,0,1,12.138,12.138,1.612,1.612,0,1,0,3.224,0A15.378,15.378,0,0,0,212.692,121.36Z" transform="translate(-211.08 -121.36)"/></g><g transform="translate(15.88 38.205)"><g transform="translate(0)"><path class="l" d="M29.1,189.6H17.492a1.612,1.612,0,1,0,0,3.224H29.1a1.612,1.612,0,0,0,1.612-1.612h0A1.612,1.612,0,0,0,29.1,189.6Z" transform="translate(-15.88 -189.6)"/></g></g><g transform="translate(81.65 38.205)"><path class="l" d="M355.5,189.6H343.892a1.612,1.612,0,0,0,0,3.224H355.5a1.612,1.612,0,0,0,0-3.224Z" transform="translate(-342.28 -189.6)"/></g><g transform="translate(27.084 57.291)"><g transform="translate(0)"><path class="l" d="M82.733,284.887a1.612,1.612,0,0,0-2.449,0v-.032l-8.237,8.27A1.612,1.612,0,1,0,74.32,295.4l8.237-8.237A1.612,1.612,0,0,0,82.733,284.887Z" transform="translate(-71.483 -284.323)"/></g></g><g transform="translate(73.726 10.896)"><path class="l" d="M313.765,54.464a1.612,1.612,0,0,0-2.1,0L303.43,62.7a1.612,1.612,0,0,0,1.145,2.757l-.016-.016a1.613,1.613,0,0,0,1.145-.467l8.237-8.237A1.612,1.612,0,0,0,313.765,54.464Z" transform="translate(-302.953 -54.076)"/></g><g transform="translate(73.639 57.259)"><path class="l" d="M313.917,293.321a1.6,1.6,0,0,0-.32-.324l-8.237-8.27A1.612,1.612,0,1,0,303.087,287l8.237,8.237a1.612,1.612,0,0,0,2.593-1.916Z" transform="translate(-302.523 -284.163)"/></g><g transform="translate(27.26 10.896)"><path class="l" d="M83.254,62.7l-8.237-8.237a1.612,1.612,0,0,0-2.273,2.273l8.237,8.237A1.612,1.612,0,0,0,83.254,62.7Z" transform="translate(-72.356 -54.076)"/></g><g transform="translate(54.567)"><g transform="translate(0)"><path class="l" d="M209.489,0a1.612,1.612,0,0,0-1.612,1.612V13.267a1.612,1.612,0,0,0,1.563,1.66h.049a1.612,1.612,0,0,0,1.612-1.612V1.612A1.612,1.612,0,0,0,209.489,0Z" transform="translate(-207.876 0)"/></g></g></g><text class="i" transform="translate(925 2635)"><tspan x="0" y="0">Silicon</tspan></text><rect class="f" width="170" height="49" rx="10" transform="translate(1071 2604)"/><text class="i" transform="translate(1101 2635)"><tspan x="0" y="0">ML on Code</tspan></text><path class="m" d="M1074,5980.484v-76.437h99.055" transform="translate(-118 -3461)"/><rect class="f" width="170" height="49" rx="10" transform="translate(1271 2604)"/><text class="i" transform="translate(1310 2635)"><tspan x="0" y="0">Computer</tspan></text><rect class="f" width="170" height="49" rx="10" transform="translate(1071 2663)"/><text class="i" transform="translate(1120 2694)"><tspan x="0" y="0">Science</tspan></text><rect class="f" width="170" height="49" rx="10" transform="translate(1271 2722)"/><text class="i" transform="translate(1287 2753)"><tspan x="0" y="0">Self driving car</tspan></text><rect class="f" width="170" height="49" rx="10" transform="translate(1271 2781)"/><text class="i" transform="translate(1332 2812)"><tspan x="0" y="0">Apps</tspan></text><text class="n" transform="translate(1306 2588)"><tspan x="0" y="0">sourced.ml</tspan></text><text class="n" transform="translate(1321 2859)"><tspan x="0" y="0">lookout</tspan></text><rect class="e" width="170" height="49" rx="10" transform="translate(471 2604)"/><text class="i" transform="translate(531 2635)"><tspan x="0" y="0">Code</tspan></text><line class="o" y2="49" transform="translate(1356.5 2663.5)"/><line class="o" y2="49" transform="translate(706 2569) rotate(90)"/><line class="o" y2="49" transform="translate(855 2569) rotate(90)"/><line class="o" y2="19" transform="translate(1065 2629) rotate(90)"/><line class="o" y2="19" transform="translate(1266 2629) rotate(90)"/><text class="n" transform="translate(1413 2694)"><tspan x="0" y="0">models</tspan></text><text class="j" transform="translate(935 2695)"><tspan x="0" y="0">Data</tspan></text></g></g></svg>