<svg xmlns="http://www.w3.org/2000/svg" viewBox="0 0 194 194"><defs><style>.a{fill:#fff;}.b{opacity:0.2;}.c,.d{fill:none;stroke-miterlimit:10;stroke-width:4px;}.c{stroke:#fff;stroke-dasharray:5.969 5.969;}.d{stroke:#f69f0d;}</style></defs><g transform="translate(-984 -1793)"><g transform="translate(-295 94)"><g transform="translate(1341 1761)"><path class="a" d="M35,69.693A34.92,34.92,0,0,1,0,35a35,35,0,0,1,70,0A34.919,34.919,0,0,1,35,69.693ZM35,6.14A28.86,28.86,0,1,0,63.86,35,28.826,28.826,0,0,0,35,6.14Z"/><path class="a" d="M17.125,29.391h0a2.787,2.787,0,0,1-2.149-.921L8.221,21.716a3.039,3.039,0,0,1,4.3-4.3l4.605,4.605,13.2-13.2a3.039,3.039,0,0,1,4.3,4.3L19.274,28.47A2.787,2.787,0,0,1,17.125,29.391Z" transform="translate(15.112 16.354)"/></g></g><g transform="translate(984 1793)"><g class="b"><circle class="c" cx="95" cy="95" r="95" transform="translate(2 2)"/></g><circle class="d" cx="73.9" cy="73.9" r="73.9" transform="translate(23.1 23.1)"/></g></g></svg>