<svg width="71" height="60" viewBox="0 0 71 60" xmlns="http://www.w3.org/2000/svg"><title>drone</title><g fill-rule="evenodd"><path d="M44.549 34.719a9.033 9.033 0 1 1-18.066 0 9.033 9.033 0 0 1 18.066 0z"/><path d="M35.516.066c15.77.123 33.697 11.24 35.31 32.19h-21.35s-2.75-11.575-13.96-11.497c-11.21.078-13.96 11.497-13.96 11.497H.206C1.243 11.676 18.872-.064 35.516.066zm.147 59.699c-11.758.03-22.743-8.842-27.245-22.582h13.138S24.391 48.626 35.6 48.548c11.21-.077 13.876-11.365 13.876-11.365h13.139c-2.93 14.536-15.194 22.55-26.952 22.582z"/></g></svg>