<svg width="100" height="98" viewBox="0 0 100 98" xmlns="http://www.w3.org/2000/svg"><title>github-icon-1</title><g fill="#161614" fill-rule="evenodd"><path d="M49.807 0C22.303 0 0 22.299 0 49.807c0 22.006 14.271 40.675 34.06 47.261 2.49.461 3.404-1.08 3.404-2.396 0-1.187-.046-5.111-.068-9.273-13.856 3.013-16.78-5.876-16.78-5.876-2.266-5.757-5.53-7.288-5.53-7.288-4.519-3.091.34-3.028.34-3.028 5.002.352 7.636 5.133 7.636 5.133 4.442 7.614 11.651 5.413 14.493 4.14.447-3.22 1.738-5.416 3.163-6.66-11.063-1.26-22.693-5.53-22.693-24.615 0-5.437 1.946-9.88 5.132-13.368-.517-1.255-2.221-6.32.483-13.181 0 0 4.182-1.339 13.7 5.105 3.973-1.104 8.234-1.657 12.467-1.675 4.232.018 8.497.571 12.477 1.675 9.507-6.444 13.683-5.105 13.683-5.105 2.711 6.86 1.006 11.926.488 13.18 3.194 3.489 5.126 7.932 5.126 13.37 0 19.13-11.651 23.342-22.742 24.574 1.786 1.546 3.378 4.577 3.378 9.224 0 6.664-.058 12.028-.058 13.668 0 1.326.897 2.879 3.422 2.39 19.779-6.594 34.032-25.257 34.032-47.255C99.613 22.299 77.313 0 49.807 0"/><path d="M18.654 70.95c-.11.248-.499.322-.853.153-.362-.163-.565-.5-.447-.749.107-.254.497-.325.857-.154.362.162.569.502.443.75m2.45 2.187c-.237.22-.702.118-1.017-.23-.326-.348-.387-.812-.146-1.036.245-.22.696-.117 1.022.231.326.351.39.812.14 1.035m1.682 2.797c-.305.212-.805.013-1.113-.43-.305-.443-.305-.974.007-1.187.31-.213.8-.021 1.113.418.305.45.305.982-.007 1.199m2.842 3.239c-.273.3-.854.22-1.28-.19-.435-.402-.556-.972-.283-1.273.277-.302.861-.217 1.29.19.433.401.565.975.274 1.273m3.673 1.094c-.12.39-.68.567-1.244.401-.564-.17-.932-.627-.819-1.022.117-.392.68-.577 1.248-.4.563.17.932.624.815 1.02m4.181.464c.014.411-.464.752-1.057.76-.595.012-1.077-.32-1.083-.724 0-.415.467-.752 1.063-.762.592-.012 1.077.318 1.077.726m4.107-.157c.071.4-.34.813-.928.922-.579.105-1.114-.142-1.188-.54-.071-.41.348-.821.925-.928.59-.102 1.116.139 1.191.546"/></g></svg>