<svg width="101" height="100" viewBox="0 0 101 100" xmlns="http://www.w3.org/2000/svg"><title>js</title><g fill="none" fill-rule="evenodd"><path fill="#F7DF1E" d="M.727 0h100v100h-100z"/><path d="M27.02 83.567l7.653-4.631c1.476 2.618 2.82 4.832 6.04 4.832 3.089 0 5.036-1.208 5.036-5.906V45.91h9.397v32.085c0 9.733-5.705 14.164-14.03 14.164-7.517 0-11.88-3.894-14.096-8.593m33.23-1.006l7.652-4.43c2.014 3.29 4.632 5.706 9.264 5.706 3.894 0 6.377-1.947 6.377-4.632 0-3.222-2.551-4.363-6.847-6.242l-2.349-1.008c-6.78-2.886-11.278-6.51-11.278-14.163 0-7.048 5.37-12.419 13.761-12.419 5.975 0 10.27 2.082 13.358 7.519l-7.317 4.698c-1.61-2.886-3.356-4.027-6.04-4.027-2.753 0-4.498 1.746-4.498 4.027 0 2.82 1.745 3.961 5.772 5.707l2.35 1.006c7.988 3.424 12.485 6.914 12.485 14.768 0 8.458-6.645 13.09-15.573 13.09-8.726 0-14.365-4.162-17.117-9.6" fill="#000"/></g></svg>