<svg width="90" height="86" viewBox="0 0 90 86" xmlns="http://www.w3.org/2000/svg"><title>redux</title><g fill="#764ABC" fill-rule="evenodd"><path d="M62.203 59.696c3.303-.342 5.81-3.19 5.696-6.607-.114-3.418-2.962-6.152-6.38-6.152h-.228c-3.532.114-6.266 3.076-6.152 6.607.114 1.71.798 3.19 1.823 4.215-3.873 7.633-9.797 13.216-18.684 17.887-6.037 3.19-12.303 4.329-18.57 3.531-5.126-.683-9.113-2.962-11.62-6.721-3.645-5.583-3.987-11.62-.91-17.659 2.164-4.329 5.581-7.519 7.746-9.113-.456-1.481-1.14-3.988-1.481-5.81-16.519 11.961-14.81 28.139-9.797 35.772 3.76 5.696 11.392 9.227 19.822 9.227 2.279 0 4.557-.227 6.836-.797 14.582-2.848 25.633-11.506 31.899-24.38z"/><path d="M82.253 45.57c-8.658-10.14-21.418-15.722-36-15.722H44.43c-1.025-2.05-3.19-3.418-5.582-3.418h-.228c-3.531.114-6.266 3.076-6.152 6.608.114 3.418 2.962 6.152 6.38 6.152h.228c2.506-.114 4.67-1.709 5.582-3.874h2.05c8.66 0 16.862 2.507 24.267 7.406 5.696 3.759 9.797 8.658 12.076 14.582 1.936 4.785 1.822 9.455-.228 13.443-3.19 6.038-8.545 9.342-15.608 9.342-4.557 0-8.886-1.367-11.164-2.393-1.254 1.14-3.532 2.962-5.127 4.101 4.899 2.279 9.911 3.532 14.696 3.532 10.937 0 19.026-6.038 22.102-12.076 3.303-6.607 3.075-18-5.469-27.683z"/><path d="M24.38 61.633c.114 3.418 2.962 6.152 6.38 6.152h.227c3.532-.114 6.266-3.076 6.152-6.608-.114-3.418-2.962-6.152-6.38-6.152h-.227c-.228 0-.57 0-.798.114-4.67-7.747-6.607-16.177-5.924-25.29.456-6.836 2.734-12.76 6.722-17.66 3.303-4.214 9.683-6.265 14.012-6.379C56.62 5.582 61.747 20.62 62.09 26.658c1.48.342 3.987 1.14 5.696 1.71C66.418 9.91 55.025.341 44.089.341c-10.254 0-19.71 7.405-23.469 18.342-5.24 14.582-1.823 28.594 4.557 39.645-.57.798-.911 2.05-.797 3.304z"/></g></svg>