<svg xmlns="http://www.w3.org/2000/svg" width="30" height="30" viewBox="405.945 282.64 30 30"><path d="M420.945 312.593c8.244 0 14.952-6.708 14.952-14.952 0-8.245-6.708-14.952-14.952-14.952-8.245 0-14.952 6.708-14.952 14.952-.001 8.244 6.707 14.952 14.952 14.952zm0-28.797c7.634 0 13.845 6.21 13.845 13.845 0 7.634-6.211 13.845-13.845 13.845s-13.845-6.211-13.845-13.845c0-7.635 6.21-13.845 13.845-13.845z"/><path d="M418.813 303.846a.552.552 0 0 0 .783 0l5.814-5.814a.552.552 0 0 0 0-.783l-5.814-5.814a.553.553 0 0 0-.784 0 .554.554 0 0 0 0 .783l5.423 5.423-5.423 5.424a.55.55 0 0 0 .001.781z"/></svg>