<svg xmlns="http://www.w3.org/2000/svg" width="30" height="30" viewBox="405.945 282.64 30 30"><path d="M420.336 287.277a.37.37 0 0 1-.369-.368c0-1.611-1.283-2.922-2.86-2.922-1.036 0-2.032.617-2.537 1.571a.369.369 0 1 1-.652-.345c.632-1.192 1.883-1.963 3.189-1.963 1.983 0 3.598 1.641 3.598 3.659a.37.37 0 0 1-.369.368z"/><path d="M412.171 293.004a.369.369 0 0 1-.191-.054 4.186 4.186 0 0 1-2.004-3.604c0-2.319 1.859-4.207 4.146-4.207.705 0 1.304.15 1.885.473a.368.368 0 0 1-.357.644 3.026 3.026 0 0 0-1.527-.38c-1.88 0-3.409 1.557-3.409 3.47 0 1.231.617 2.344 1.651 2.976a.369.369 0 0 1 .123.507.378.378 0 0 1-.317.175z"/><path d="M410.526 300.437a.389.389 0 0 1-.12-.021c-1.934-.666-3.233-2.52-3.233-4.613 0-1.089.338-2.122.979-2.984a4.836 4.836 0 0 1 2.516-1.756.368.368 0 0 1 .205.708 4.039 4.039 0 0 0-2.129 1.488 4.229 4.229 0 0 0-.834 2.544c0 1.778 1.1 3.353 2.737 3.917a.37.37 0 0 1 .229.469.374.374 0 0 1-.35.248z"/><path d="M416.375 298.67a.37.37 0 0 1-.353-.264c-.524-1.746-2.133-2.965-3.912-2.965-.509 0-.92.07-1.256.214a.37.37 0 0 1-.484-.193.37.37 0 0 1 .194-.484c.43-.184.936-.273 1.546-.273 2.103 0 4.001 1.436 4.618 3.491a.368.368 0 0 1-.353.474zm-4.265 5.666c-2.622 0-4.755-2.16-4.755-4.816 0-.549.114-1.141.328-1.713a.369.369 0 0 1 .69.26 4.207 4.207 0 0 0-.281 1.454c0 2.25 1.803 4.08 4.018 4.08a4.043 4.043 0 0 0 3.796-2.68.37.37 0 1 1 .695.246 4.782 4.782 0 0 1-4.491 3.169z"/><path d="M414.181 309.332a3.732 3.732 0 0 1-2.676-1.115 3.85 3.85 0 0 1-1.104-2.727c0-.592.132-1.143.404-1.688a.367.367 0 0 1 .494-.164c.182.09.256.311.165.494a2.916 2.916 0 0 0-.327 1.357c0 1.74 1.337 3.105 3.043 3.105.204 0 .369.164.369.367s-.164.371-.368.371zm3.413-3.473a.37.37 0 0 1-.368-.369c0-1.193-.646-2.258-1.685-2.777a.366.366 0 0 1-.165-.494.367.367 0 0 1 .494-.164c1.291.645 2.092 1.961 2.092 3.436a.369.369 0 0 1-.368.368z"/><path d="M417.106 312.011a3.377 3.377 0 0 1-3.415-3.414c0-.645.183-1.264.544-1.84a.365.365 0 0 1 .508-.117.368.368 0 0 1 .117.508 2.704 2.704 0 0 0-.432 1.449 2.65 2.65 0 0 0 2.678 2.678c1.551 0 2.86-1.227 2.86-2.678a.37.37 0 0 1 .737 0c0 .918-.389 1.783-1.094 2.434a3.729 3.729 0 0 1-2.503.98zm-1.644-14.864a.368.368 0 0 1-.082-.728c1.213-.275 2.028-1.306 2.028-2.565 0-.725-.273-1.401-.77-1.904a2.576 2.576 0 0 0-1.848-.774.368.368 0 0 1 0-.736c.898 0 1.74.353 2.372.993a3.42 3.42 0 0 1 .981 2.422 3.35 3.35 0 0 1-.735 2.127 3.36 3.36 0 0 1-1.866 1.156.37.37 0 0 1-.08.009z"/><path d="M420.396 312.621a.368.368 0 0 1-.369-.367v-29.245a.369.369 0 1 1 .738 0v29.245a.368.368 0 0 1-.369.367zm3.717-1.826h-1.949c-.203 0-.369-.166-.369-.369s.166-.369.369-.369h1.58v-2.555a.37.37 0 0 1 .275-.357c.932-.248 1.805-.613 2.521-1.055a.37.37 0 0 1 .453.055l1.811 1.811 3.072-3.074-1.809-1.811a.367.367 0 0 1-.055-.453c.441-.717.807-1.59 1.055-2.521a.367.367 0 0 1 .355-.273h2.557v-4.381h-2.557a.368.368 0 0 1-.355-.274c-.248-.933-.613-1.804-1.055-2.521a.368.368 0 0 1 .055-.454l1.809-1.811-3.072-3.074-1.811 1.811a.366.366 0 0 1-.453.053c-.717-.441-1.59-.806-2.521-1.054a.369.369 0 0 1-.275-.356v-2.556h-1.58c-.203 0-.369-.165-.369-.368s.166-.368.369-.368h1.949a.37.37 0 0 1 .369.368v2.645c.793.233 1.543.544 2.191.914l1.871-1.87a.365.365 0 0 1 .52 0l3.596 3.595a.37.37 0 0 1 0 .521l-1.869 1.87c.369.65.68 1.399.912 2.193h2.646c.203 0 .367.165.367.368v5.117a.367.367 0 0 1-.367.369h-2.646a10.393 10.393 0 0 1-.912 2.193l1.869 1.869a.37.37 0 0 1 0 .521l-3.596 3.594c-.068.07-.162.107-.26.107s-.191-.037-.26-.107l-1.871-1.869c-.648.369-1.398.682-2.191.914v2.645a.37.37 0 0 1-.369.367z"/><path d="M422.163 302.873a.368.368 0 1 1 0-.736 4.511 4.511 0 0 0 4.506-4.505 4.511 4.511 0 0 0-4.506-4.506.37.37 0 0 1 0-.737 5.248 5.248 0 0 1 5.242 5.243 5.247 5.247 0 0 1-5.242 5.241z"/></svg>