<?xml version="1.0" encoding="utf-8"?>
<!-- Generator: Adobe Illustrator 23.0.2, SVG Export Plug-In . SVG Version: 6.00 Build 0)  -->
<svg version="1.1" id="Layer_1" xmlns="http://www.w3.org/2000/svg" xmlns:xlink="http://www.w3.org/1999/xlink" x="0px" y="0px"
	 viewBox="0 0 724.4 91.2" style="enable-background:new 0 0 724.4 91.2;" xml:space="preserve">
<style type="text/css">
	.st0{fill:#8719CB;}
	.st1{fill:#400D9A;}
	.st2{fill:#F89C30;}
</style>
<g>
	<path class="st0" d="M299.7,91.2c-3.9,0-7-1.1-9.4-3.3c-2.3-2.2-3.5-5-3.5-8.4V60.8c0-2.8-0.2-5-0.6-6.4c-0.4-1.4-1-2.5-1.9-3.3
		c-0.9-0.8-2.4-1.5-4.4-2.3v-6.4c2-0.7,3.5-1.5,4.4-2.3c0.9-0.8,1.6-1.9,1.9-3.3c0.4-1.4,0.6-3.6,0.6-6.4V11.8
		c0-3.4,1.2-6.3,3.5-8.5c2.3-2.2,5.4-3.3,9.4-3.3h5.1v7.9h-3c-1.4,0-2.6,0.5-3.4,1.4c-0.8,1-1.2,2.3-1.2,4.2v17.2
		c0,1.6-0.1,2.9-0.2,4.1c-0.1,1.1-0.4,2.3-0.8,3.5c-0.4,1.2-1,2.2-1.7,3.1s-1.7,1.7-2.9,2.4c-1.2,0.8-2.7,1.4-4.4,2
		c1.7,0.5,3.2,1.2,4.4,2c1.2,0.8,2.2,1.6,2.9,2.4s1.3,1.9,1.7,3.1s0.7,2.3,0.8,3.5c0.1,1.1,0.2,2.5,0.2,4v17.4
		c0,1.9,0.4,3.3,1.1,4.1c0.7,0.9,1.9,1.3,3.5,1.3h3v7.9H299.7z"/>
	<path class="st0" d="M342.9,0h11.2v68.9h-10.6l-0.3-6.8c-1.3,2.5-3.3,4.4-5.9,5.8c-2.6,1.4-5.6,2.1-8.9,2.1c-3,0-5.8-0.6-8.4-1.7
		c-2.6-1.1-4.9-2.7-6.9-4.7c-2-2-3.5-4.5-4.7-7.5c-1.2-3-1.7-6.3-1.7-9.9s0.6-6.9,1.7-9.9c1.2-3,2.7-5.5,4.7-7.5
		c2-2,4.3-3.6,6.9-4.7c2.6-1.1,5.4-1.7,8.4-1.7c3.2,0,6.1,0.7,8.7,2c2.6,1.3,4.6,3.1,5.9,5.5V0z M321.6,56.6
		c2.5,2.6,5.6,3.9,9.3,3.9c3.7,0,6.8-1.3,9.3-4c2.5-2.7,3.7-6.1,3.7-10.3c0-4.2-1.2-7.6-3.7-10.3c-2.5-2.7-5.6-4-9.2-4
		c-3.7,0-6.8,1.3-9.3,3.9s-3.7,6.1-3.7,10.4S319.1,54,321.6,56.6z"/>
	<path class="st0" d="M366.2,91.2h-5.1v-7.9h3c1.6,0,2.8-0.4,3.5-1.3c0.7-0.9,1.1-2.2,1.1-4.1V60.6c0-1.6,0.1-2.9,0.2-4
		c0.1-1.1,0.4-2.3,0.8-3.5s1-2.2,1.7-3.1c0.7-0.9,1.7-1.7,2.9-2.4c1.2-0.8,2.7-1.4,4.4-2c-1.7-0.5-3.2-1.2-4.4-2
		c-1.2-0.8-2.2-1.6-2.9-2.4c-0.7-0.9-1.3-1.9-1.7-3.1c-0.4-1.2-0.7-2.3-0.8-3.5c-0.1-1.1-0.2-2.5-0.2-4.1V13.5
		c0-1.8-0.4-3.2-1.2-4.2s-1.9-1.4-3.4-1.4h-3V0h5.1c3.9,0,7,1.1,9.4,3.3c2.3,2.2,3.5,5,3.5,8.5v18.6c0,2.9,0.2,5,0.6,6.4
		c0.4,1.4,1,2.5,1.9,3.3c0.9,0.8,2.4,1.6,4.4,2.3v6.4c-2,0.7-3.5,1.5-4.4,2.3c-0.9,0.8-1.6,1.9-1.9,3.3c-0.4,1.4-0.6,3.6-0.6,6.4
		v18.6c0,3.4-1.2,6.2-3.5,8.4C373.2,90.1,370.1,91.2,366.2,91.2z"/>
</g>
<g>
	<path class="st1" d="M19.2,69.8c-5.2,0-9.5-1.1-12.9-3.2c-3.4-2.2-5.5-5.3-6.3-9.4l9.5-2.7c0.6,2.5,1.7,4.3,3.5,5.5
		c1.7,1.2,3.8,1.8,6.3,1.8c2.1,0,3.8-0.4,5.2-1.3c1.4-0.8,2.1-2.2,2.1-4.1c0-1-0.3-1.8-0.7-2.5c-0.5-0.7-1.2-1.3-2.3-1.8
		c-1-0.5-2-0.9-3-1.2c-0.9-0.3-2.3-0.7-4-1.2c-1.7-0.5-3.1-0.9-4.2-1.3C11.1,48,10,47.6,9,47.2c-1-0.4-2-1-3-1.7
		c-1-0.7-1.9-1.5-2.6-2.3c-0.7-0.8-1.2-1.9-1.6-3.1c-0.4-1.2-0.7-2.6-0.7-4.1c0-4.4,1.6-7.7,4.8-10c3.2-2.3,7.3-3.4,12.4-3.4
		c4.6,0,8.5,1,11.7,2.9c3.1,2,5.1,5,5.9,9l-8.7,2c-1.2-4.2-4.1-6.4-8.7-6.4c-2,0-3.6,0.4-5,1.2c-1.3,0.8-2,2-2,3.6
		c0,0.4,0.1,0.9,0.2,1.2c0.1,0.4,0.3,0.7,0.6,1.1c0.3,0.3,0.6,0.6,0.8,0.9s0.7,0.5,1.2,0.7c0.5,0.3,0.9,0.5,1.3,0.6s0.9,0.3,1.6,0.5
		c0.7,0.2,1.3,0.4,1.7,0.5c0.4,0.1,1,0.3,1.9,0.5c0.8,0.2,1.5,0.4,1.9,0.5c1.7,0.4,3.1,0.9,4.3,1.3c1.2,0.4,2.5,1,3.9,1.8
		s2.6,1.6,3.5,2.6c0.9,0.9,1.6,2.2,2.2,3.7c0.6,1.5,0.9,3.2,0.9,5c0,2-0.3,3.8-1,5.3c-0.6,1.6-1.5,2.9-2.6,4c-1.1,1.1-2.5,1.9-4,2.6
		c-1.6,0.7-3.2,1.2-4.9,1.5C23.1,69.6,21.2,69.8,19.2,69.8z"/>
	<path class="st1" d="M83.8,63.4c-4.5,4.3-10.3,6.4-17.5,6.4c-7.1,0-13-2.1-17.5-6.4c-4.5-4.3-6.8-10-6.8-17.3
		c0-7.2,2.2-12.9,6.8-17.2c4.5-4.2,10.3-6.4,17.5-6.4c7.2,0,13,2.1,17.5,6.4c4.5,4.2,6.8,10,6.8,17.2C90.6,53.4,88.3,59.2,83.8,63.4
		z M66.2,60.8c3.9,0,7.1-1.3,9.6-4c2.5-2.7,3.7-6.2,3.7-10.6c0-4.4-1.2-7.9-3.7-10.6c-2.5-2.7-5.7-4-9.6-4c-3.8,0-6.9,1.3-9.4,4
		c-2.4,2.7-3.7,6.2-3.7,10.6c0,4.4,1.2,7.9,3.7,10.6C59.3,59.4,62.4,60.8,66.2,60.8z"/>
	<path class="st1" d="M128.6,23.5h11.2v45.4h-10.6l-0.3-5.6c-1.5,2.1-3.5,3.7-5.9,4.8c-2.4,1.1-5.2,1.7-8.2,1.7
		c-5.2,0-9.3-1.4-12.2-4.1c-2.9-2.7-4.3-6.6-4.3-11.6V23.5h11.2v28.2c0,3.1,0.8,5.4,2.4,6.8c1.6,1.5,3.7,2.2,6.3,2.2
		c3.1,0,5.5-0.9,7.5-2.8c1.9-1.9,2.9-4.8,3-8.7V23.5z"/>
	<path class="st1" d="M161.7,30.9c1.2-2.2,3.1-4.1,5.9-5.6c2.7-1.5,5.7-2.3,8.9-2.4v10.1c-4.9,0-8.5,1-10.8,2.9
		c-2.3,2-3.5,5.3-3.5,10.1v22.8h-11.3V23.5h10.8V30.9z"/>
	<path class="st1" d="M202.7,69.8c-7,0-12.7-2.2-17.1-6.5c-4.5-4.4-6.7-10.1-6.7-17.1s2.2-12.7,6.7-17c4.5-4.3,10.2-6.5,17.1-6.5
		c5.6,0,10.3,1.4,14.2,4.2c3.9,2.8,6.4,6.8,7.6,11.9L214.1,40c-0.8-2.8-2.2-4.9-4.2-6.3s-4.4-2.2-7.3-2.2c-3.7,0-6.7,1.3-9.1,4
		c-2.3,2.7-3.5,6.2-3.5,10.6c0,4.4,1.2,7.9,3.5,10.6c2.3,2.7,5.4,4,9.1,4c2.8,0,5.3-0.7,7.3-2.2s3.4-3.5,4.2-6.3l10.4,1.3
		c-1.2,5.1-3.7,9.1-7.6,12C212.9,68.3,208.2,69.8,202.7,69.8z"/>
	<path class="st1" d="M274.6,45.4l-0.2,2.8h-34.3c0.2,4.1,1.5,7.2,3.9,9.4c2.4,2.2,5.3,3.3,8.8,3.3c2.5,0,4.6-0.6,6.5-1.7
		c1.9-1.2,3.3-2.8,4.3-5l10.2,1.7c-1.5,4.4-4.2,7.9-7.9,10.4c-3.7,2.5-8.1,3.7-13,3.7c-7.2,0-13-2.1-17.3-6.3
		c-4.3-4.2-6.5-10-6.5-17.3c0-7.3,2.2-13.1,6.5-17.3c4.3-4.2,10-6.3,16.9-6.3c3.2,0,6.1,0.5,8.8,1.4c2.6,0.9,5,2.3,7,4.2
		c2,1.8,3.5,4.2,4.6,7.2C274,38.2,274.5,41.6,274.6,45.4z M252.5,30.6c-3.2,0-5.9,0.8-8,2.5c-2.1,1.7-3.5,4.2-4.1,7.6h23
		c-0.3-3.3-1.4-5.8-3.4-7.5C258.1,31.5,255.6,30.6,252.5,30.6z"/>
</g>
<g>
	<path class="st2" d="M439.3,63.2h22.4v5.7h-28.7V6.3h6.2V63.2z"/>
	<path class="st2" d="M487.9,69.8c-4,0-7.6-0.9-10.8-2.7c-3.2-1.8-5.7-4.5-7.6-7.9c-1.9-3.5-2.8-7.4-2.8-12c0-6.8,2-12.2,6-16.3
		s9.1-6.2,15.2-6.2c6.1,0,11.2,2.1,15.2,6.2c4,4.1,6,9.5,6,16.3c0,6.8-2,12.3-6,16.4C499.1,67.7,494,69.8,487.9,69.8z M477.1,59.8
		c2.9,3.2,6.5,4.8,10.8,4.8s8-1.6,10.9-4.8s4.4-7.4,4.4-12.6c0-5.2-1.5-9.3-4.4-12.5c-2.9-3.2-6.5-4.8-10.9-4.8s-7.9,1.6-10.8,4.8
		c-2.9,3.2-4.3,7.3-4.3,12.5C472.7,52.4,474.2,56.6,477.1,59.8z"/>
	<path class="st2" d="M537.9,69.8c-4,0-7.6-0.9-10.8-2.7c-3.2-1.8-5.7-4.5-7.6-7.9c-1.9-3.5-2.8-7.4-2.8-12c0-6.8,2-12.2,6-16.3
		c4-4.1,9.1-6.2,15.2-6.2s11.2,2.1,15.2,6.2c4,4.1,6,9.5,6,16.3c0,6.8-2,12.3-6,16.4C549,67.7,544,69.8,537.9,69.8z M527,59.8
		c2.9,3.2,6.5,4.8,10.8,4.8c4.3,0,8-1.6,10.9-4.8s4.4-7.4,4.4-12.6c0-5.2-1.5-9.3-4.4-12.5c-2.9-3.2-6.5-4.8-10.9-4.8
		c-4.3,0-7.9,1.6-10.8,4.8c-2.9,3.2-4.3,7.3-4.3,12.5C522.7,52.4,524.1,56.6,527,59.8z"/>
	<path class="st2" d="M596.8,68.9l-17.3-20.8h-3.8v20.8h-6.1V0h6.1v43.2h3.6l15.6-17.8h7.4l-17.7,19.7l20.2,23.7H596.8z"/>
	<path class="st2" d="M627.1,69.8c-4,0-7.6-0.9-10.8-2.7c-3.2-1.8-5.7-4.5-7.6-7.9c-1.9-3.5-2.8-7.4-2.8-12c0-6.8,2-12.2,6-16.3
		c4-4.1,9.1-6.2,15.2-6.2s11.2,2.1,15.2,6.2c4,4.1,6,9.5,6,16.3c0,6.8-2,12.3-6,16.4C638.2,67.7,633.2,69.8,627.1,69.8z M616.2,59.8
		c2.9,3.2,6.5,4.8,10.8,4.8c4.3,0,8-1.6,10.9-4.8s4.4-7.4,4.4-12.6c0-5.2-1.5-9.3-4.4-12.5c-2.9-3.2-6.5-4.8-10.9-4.8
		c-4.3,0-7.9,1.6-10.8,4.8c-2.9,3.2-4.3,7.3-4.3,12.5C611.8,52.4,613.3,56.6,616.2,59.8z"/>
	<path class="st2" d="M685.3,25.5h6v43.4h-5.8l-0.1-6c-1.3,2.2-3.1,3.9-5.3,5.1c-2.2,1.2-4.7,1.8-7.5,1.8c-4.3,0-7.9-1.3-10.6-3.9
		c-2.7-2.6-4.1-6.3-4.1-11.1V25.5h6.1v27.9c0,3.7,0.9,6.5,2.8,8.4s4.3,2.8,7.3,2.8c3.3,0,6-1.1,8-3.2c2-2.1,3.1-5.2,3.1-9.1V25.5z"
		/>
	<path class="st2" d="M719,68.9c-3.4,0-6.1-1-8-2.9c-2-2-3-4.7-3-8.2V30.4h-9v-4.9h3.5c2.2,0,3.7-0.5,4.6-1.4s1.3-2.5,1.3-4.6v-8.6
		h5.7v14.6h10.4v4.9H714v26.7c0,2.1,0.6,3.8,1.8,5c1.2,1.2,2.7,1.8,4.6,1.8h4v5H719z"/>
</g>
</svg>
