<?xml version="1.0" encoding="UTF-8" standalone="no"?>
<svg width="260px" height="223px" viewBox="0 0 260 223" version="1.1" xmlns="http://www.w3.org/2000/svg" xmlns:xlink="http://www.w3.org/1999/xlink" xmlns:sketch="http://www.bohemiancoding.com/sketch/ns">
    <!-- Generator: Sketch 3.4.2 (15857) - http://www.bohemiancoding.com/sketch -->
    <title>Slice 1</title>
    <desc>Created with Sketch.</desc>
    <defs></defs>
    <g id="Page-1" stroke="none" stroke-width="1" fill="none" fill-rule="evenodd" sketch:type="MSPage">
        <path d="M92.8571429,37.1666667 L167.142857,37.1666667 L167.142857,18.5833333 L92.8571429,18.5833333 L92.8571429,37.1666667 L92.8571429,37.1666667 Z M260,130.083333 L260,199.770833 C260,212.546875 249.553571,223 236.785714,223 L23.2142857,223 C10.4464286,223 0,212.546875 0,199.770833 L0,130.083333 L97.5,130.083333 L97.5,153.3125 C97.5,158.395042 101.706429,162.604167 106.785714,162.604167 L153.214286,162.604167 C158.293571,162.604167 162.5,158.395042 162.5,153.3125 L162.5,130.083333 L260,130.083333 L260,130.083333 Z M148.571429,130.083333 L148.571429,148.666667 L111.428571,148.666667 L111.428571,130.083333 L148.571429,130.083333 L148.571429,130.083333 Z M260,60.3958333 L260,116.145833 L0,116.145833 L0,60.3958333 C0,47.6197917 10.4464286,37.1666667 23.2142857,37.1666667 L74.2857143,37.1666667 L74.2857143,13.9375 C74.2857143,6.244 80.5257143,0 88.2142857,0 L171.785714,0 C179.474286,0 185.714286,6.244 185.714286,13.9375 L185.714286,37.1666667 L236.785714,37.1666667 C249.553571,37.1666667 260,47.6197917 260,60.3958333 L260,60.3958333 Z" id="Shape" fill="#000000" sketch:type="MSShapeGroup"></path>
        <path d="M191.96424,179.691542 C198.651973,190.299472 193.927192,198.950157 181.356309,198.950157 L78.643691,198.950157 C66.0728078,198.950157 61.3480274,190.299472 68.03576,179.691542 L112.88123,108.985316 L112.88123,73.4125131 L107.174974,73.4125131 C104.053651,73.4125131 101.468717,70.8275789 101.468717,67.7062566 C101.468717,64.5849342 104.053651,62 107.174974,62 L152.825026,62 C155.946349,62 158.531283,64.5849342 158.531283,67.7062566 C158.531283,70.8275789 155.946349,73.4125131 152.825026,73.4125131 L147.11877,73.4125131 L147.11877,108.985316 L191.96424,179.691542 L191.96424,179.691542 Z M122.513391,115.051067 L98.261801,153.300105 L161.743905,153.300105 L137.492315,115.051067 L135.706257,112.289239 L135.706257,73.4125131 L124.293743,73.4125131 L124.293743,112.289239 L122.513391,115.051067 L122.513391,115.051067 Z" id="Shape" fill="#FFFFFF" sketch:type="MSShapeGroup"></path>
    </g>
</svg>