<?xml version="1.0" encoding="UTF-8" standalone="no"?>
<svg width="261px" height="241px" viewBox="0 0 261 241" version="1.1" xmlns="http://www.w3.org/2000/svg" xmlns:xlink="http://www.w3.org/1999/xlink" xmlns:sketch="http://www.bohemiancoding.com/sketch/ns">
    <!-- Generator: Sketch 3.4.2 (15857) - http://www.bohemiancoding.com/sketch -->
    <title>Slice 1</title>
    <desc>Created with Sketch.</desc>
    <defs></defs>
    <g id="Page-1" stroke="none" stroke-width="1" fill="none" fill-rule="evenodd" sketch:type="MSPage">
        <path d="M257.050443,54.917875 C260.974407,60.5612917 262.0683,67.9419167 259.870478,75.161875 L216.747014,217.311708 C212.82305,230.647042 199.023943,241 185.545978,241 L40.8109069,241 C24.8139783,241 7.72315692,228.28725 1.92251406,211.969542 C-0.586414508,204.91025 -0.586414508,198.001583 1.61140692,192.046875 C1.92251406,188.903833 2.55476406,185.770833 2.70529978,182.005208 C2.86587121,179.494792 1.45083549,177.456333 1.76194264,175.5685 C2.39419264,171.802875 5.68590692,169.131792 8.19483549,164.90425 C12.9015855,157.061708 18.2305498,144.348958 19.9566926,136.195125 C20.7394783,133.21275 19.1739069,129.758417 19.9566926,127.097375 C20.7394783,124.115 23.7200855,121.915875 25.2856569,119.094167 C29.5207283,111.874208 35.0102641,97.9162917 35.7930498,90.5356667 C36.1041569,87.242 34.5385855,83.627 35.4819426,81.1165833 C36.5758355,77.511625 40.0281212,75.9350833 42.3865141,72.8020833 C46.1499069,67.6205833 52.4222283,52.71875 53.3655855,44.40425 C53.6766926,41.7331667 52.1111212,39.072125 52.5827998,36.2504167 C53.2150498,33.2680417 56.9784426,30.1350417 59.4873712,26.5200417 C66.0707998,16.7896667 67.3252641,-4.6995 87.2461569,0.943916667 L87.0855855,1.415875 C89.7550855,0.78325 92.4145498,0 95.0840498,0 L214.418728,0 C221.784943,0 228.378407,3.29366667 232.292335,8.78645833 C236.366835,14.429875 237.310193,21.8105 235.112371,29.1810833 L192.149478,171.330917 C184.783264,195.491167 180.698728,200.833333 160.787871,200.833333 L24.5229426,200.833333 C22.4856926,200.833333 19.9767641,201.305292 18.5617283,203.183083 C17.3072641,205.060875 17.1466926,206.47675 18.4011569,209.931083 C21.5423355,219.028833 32.3608355,220.916667 40.9815141,220.916667 L185.716585,220.916667 C191.517228,220.916667 198.261228,217.623 199.987371,211.969542 L247.0348,57.1069583 C247.978157,54.1245833 247.978157,50.9915833 247.817585,48.1598333 C251.420407,49.5757083 254.722157,51.7647917 257.070514,54.9078333 L257.050443,54.917875 Z M90.2066926,55.2291667 C89.2633355,58.050875 90.8389426,60.25 93.6589783,60.25 L188.998264,60.25 C191.667764,60.25 194.638335,58.050875 195.581693,55.2291667 L198.873407,45.1875 C199.816764,42.3657917 198.241157,40.1666667 195.421121,40.1666667 L100.081835,40.1666667 C97.4123355,40.1666667 94.4417641,42.3657917 93.4984069,45.1875 L90.2066926,55.2291667 Z M77.2004069,95.3958333 C76.2570498,98.2175417 77.8326569,100.416667 80.6526926,100.416667 L175.991978,100.416667 C178.661478,100.416667 181.63205,98.2175417 182.575407,95.3958333 L185.867121,85.3541667 C186.810478,82.5324583 185.234871,80.3333333 182.414835,80.3333333 L87.0755498,80.3333333 C84.4060498,80.3333333 81.4354783,82.5324583 80.4921212,85.3541667 L77.2004069,95.3958333 Z M94.60865,169.35165 L92.3697833,171.58815 C91.78785,172.169468 90.8905833,172.169468 90.30865,171.58815 L69.43645,150.738014 C68.8545167,150.156695 68.8545167,149.260377 69.43645,148.679059 L90.30865,127.828923 C90.8905833,127.247604 91.78785,127.247604 92.3697833,127.828923 L94.60865,130.065423 C95.1905833,130.646741 95.1905833,131.543059 94.60865,132.124377 L77.00445,149.709968 L94.60865,167.295559 C95.1905833,167.876877 95.1905833,168.773195 94.60865,169.354514 L94.60865,169.35165 Z M121.07945,121.609104 L104.372517,179.374377 C104.148917,180.136104 103.343383,180.582832 102.626717,180.359468 L99.8489167,179.597741 C99.0863833,179.374377 98.6391833,178.569695 98.8627833,177.807968 L115.569717,120.042695 C115.793317,119.280968 116.59885,118.834241 117.315517,119.057604 L120.093317,119.819332 C120.85585,120.042695 121.30305,120.847377 121.07945,121.609104 L121.07945,121.609104 Z M150.50865,150.738014 L129.63645,171.58815 C129.054517,172.169468 128.15725,172.169468 127.575317,171.58815 L125.33645,169.35165 C124.754517,168.770332 124.754517,167.874014 125.33645,167.292695 L142.94065,149.707104 L125.33645,132.121514 C124.754517,131.540195 124.754517,130.643877 125.33645,130.062559 L127.575317,127.826059 C128.15725,127.244741 129.054517,127.244741 129.63645,127.826059 L150.50865,148.676195 C151.090583,149.257514 151.090583,150.153832 150.50865,150.73515 L150.50865,150.738014 Z" id="Shape" fill="#000000" sketch:type="MSShapeGroup"></path>
    </g>
</svg>