<?xml version="1.0" encoding="UTF-8" standalone="no"?>
<svg width="207px" height="217px" viewBox="0 0 207 217" version="1.1" xmlns="http://www.w3.org/2000/svg" xmlns:xlink="http://www.w3.org/1999/xlink" xmlns:sketch="http://www.bohemiancoding.com/sketch/ns">
    <!-- Generator: Sketch 3.4.2 (15857) - http://www.bohemiancoding.com/sketch -->
    <title>Slice 1</title>
    <desc>Created with Sketch.</desc>
    <defs></defs>
    <g id="Page-1" stroke="none" stroke-width="1" fill="none" fill-rule="evenodd" sketch:type="MSPage">
        <path d="M201.683458,186.484375 C212.280292,203.292833 204.793792,217 184.875,217 L22.125,217 C2.20620833,217 -5.28029167,203.292833 5.31654167,186.484375 L76.375,74.4490833 L76.375,18.0833333 L67.3333333,18.0833333 C62.3875417,18.0833333 58.2916667,13.9874583 58.2916667,9.04166667 C58.2916667,4.095875 62.3875417,0 67.3333333,0 L139.666667,0 C144.612458,0 148.708333,4.095875 148.708333,9.04166667 C148.708333,13.9874583 144.612458,18.0833333 139.666667,18.0833333 L130.625,18.0833333 L130.625,74.4490833 L201.683458,186.484375 Z M91.6373333,84.060375 L53.21025,144.666667 L153.798792,144.666667 L115.371708,84.060375 L112.541667,79.6842083 L112.541667,18.0833333 L94.4583333,18.0833333 L94.4583333,79.6842083 L91.6373333,84.060375 Z M93.8235294,193.517857 L102.117647,189.339286 L102.117647,182.505929 L93.8235294,186.074429 L93.8235294,193.517857 Z M92.4411765,183.636929 L101.166588,179.872036 L92.4411765,176.107143 L83.7157647,179.872036 L92.4411765,183.636929 Z M115.941176,193.517857 L124.235294,189.339286 L124.235294,182.505929 L115.941176,186.074429 L115.941176,193.517857 L115.941176,193.517857 Z M114.558824,183.636929 L123.284235,179.872036 L114.558824,176.107143 L105.833412,179.872036 L114.558824,183.636929 Z M104.882353,177.260429 L113.176471,173.669643 L113.176471,167.880929 L104.882353,171.449429 L104.882353,177.260429 L104.882353,177.260429 Z M103.5,169.011929 L113.025794,164.898821 L103.5,160.785714 L93.9742059,164.898821 L103.5,169.011929 Z M127,180.285714 L127,189.339286 C127,190.383929 126.416647,191.363107 125.466971,191.819964 L115.7905,196.694964 C115.402059,196.91225 114.9915,197 114.558824,197 C114.126147,197 113.716971,196.91225 113.327147,196.694964 L103.650676,191.819964 C103.585706,191.797679 103.542853,191.776786 103.5,191.732214 C103.457147,191.775393 103.412912,191.797679 103.349324,191.819964 L93.6728529,196.694964 C93.2844118,196.91225 92.8738529,197 92.4411765,197 C92.0085,197 91.5993235,196.91225 91.2095,196.694964 L81.5330294,191.819964 C80.5819706,191.363107 80,190.383929 80,189.339286 L80,180.285714 C80,179.175607 80.6690588,178.174143 81.6850882,177.717286 L91.0588235,173.669643 L91.0588235,164.964286 C91.0588235,163.854179 91.7278824,162.852714 92.7439118,162.395857 L102.420382,158.217286 C102.765971,158.065464 103.133676,158 103.5,158 C103.866324,158 104.234029,158.065464 104.579618,158.217286 L114.256088,162.395857 C115.270735,162.852714 115.941176,163.854179 115.941176,164.964286 L115.941176,173.669643 L125.314912,177.717286 C126.351676,178.174143 127,179.175607 127,180.285714 L127,180.285714 Z" id="Shape" fill="#000000" sketch:type="MSShapeGroup"></path>
    </g>
</svg>