<?xml version="1.0" encoding="utf-8"?>
<!-- Generator: Adobe Illustrator 23.0.0, SVG Export Plug-In . SVG Version: 6.00 Build 0)  -->
<svg version="1.1" id="Layer_1" xmlns="http://www.w3.org/2000/svg" xmlns:xlink="http://www.w3.org/1999/xlink" x="0px" y="0px"
	 viewBox="0 0 141.9 38.3" style="enable-background:new 0 0 141.9 38.3;" xml:space="preserve">
<style type="text/css">
	.st0{fill:#C9C9C9;}
</style>
<g>
	<path class="st0" d="M2.4,19.7c-0.1-6,3.3-11.2,7.5-13.8c1.8-1.1,3.7-1.9,5.8-2.2c4.8-0.6,9,0.7,12.5,3.8c2.7,2.4,4.4,5.5,5.1,9
		c1.5,8-3.2,15.9-10.9,18.3c-1.9,0.6-3.9,0.8-5.9,0.6c-4.3-0.4-9.2-3-11.9-8.1c-1-1.8-1.7-3.8-2-5.9C2.4,20.9,2.4,20.2,2.4,19.7z
		 M26.8,19.7c0-0.7,0-1.2-0.1-1.6c-0.4-2.4-1.4-4.4-3.3-6s-4-2.3-6.5-2c-2,0.2-3.7,1.2-5.1,2.7c-2,2.2-2.9,4.8-2.6,7.7
		c0.2,1.9,0.9,3.7,2.1,5.2c1.5,1.9,3.4,3,5.8,3.3c2,0.2,3.9-0.3,5.6-1.5C25.4,25.6,26.7,22.9,26.8,19.7z"/>
	<path class="st0" d="M100.7,8.9c-1.7,1.1-3.4,2.3-5,3.4c-0.1-0.1-0.2-0.2-0.3-0.3c-1.1-1.3-2.4-2.1-4.1-2.4
		c-1.2-0.2-2.4-0.1-3.6,0.3c-0.6,0.2-1.2,0.5-1.7,1c-0.7,0.7-1,1.6-0.9,2.6c0,0.4,0.2,0.7,0.5,1s0.7,0.6,1.1,0.8
		c1,0.6,2.1,0.9,3.2,1.2c1.9,0.5,3.7,0.9,5.6,1.5c0.6,0.2,1.2,0.3,1.8,0.6c2.2,1,3.8,2.5,4.5,4.8c0.7,2.5,0.4,4.8-1.1,7
		c-1.2,1.8-2.9,3-4.8,3.9c-1.5,0.7-3,1-4.7,1.2c-2.4,0.2-4.7,0-6.9-0.9c-1.9-0.7-3.5-1.9-4.9-3.5c-0.6-0.7-1-1.5-1.4-2.3
		c0-0.1-0.1-0.2-0.1-0.3c0,0,0,0,0-0.1c2-0.9,4.1-1.9,6.1-2.8c0.1,0.2,0.1,0.4,0.2,0.6c0.3,1,1,1.7,1.8,2.2s1.8,0.9,2.7,0.9
		c1.2,0.1,2.4,0.1,3.6-0.4c0.6-0.2,1.1-0.5,1.6-0.9c0.3-0.3,0.6-0.6,0.7-1c0.4-1,0.2-2-0.6-2.6c-0.4-0.3-0.8-0.5-1.2-0.6
		c-1.3-0.4-2.5-0.7-3.8-1c-1.9-0.4-3.7-0.9-5.5-1.8c-1-0.5-1.9-1-2.7-1.7c-1.3-1.3-2.1-2.9-2.3-4.7c-0.3-3.2,0.9-5.7,3.1-7.9
		c1.6-1.4,3.4-2.3,5.5-2.8c3.1-0.7,6-0.4,8.9,0.9c1.6,0.7,3,1.7,4.1,3.1C100.2,8.2,100.5,8.5,100.7,8.9z"/>
	<path class="st0" d="M66.5,8.9c-1.7,1.1-3.4,2.3-5,3.4c-0.2-0.1-0.2-0.2-0.3-0.3c-1.1-1.3-2.4-2.1-4.1-2.4
		c-1.3-0.2-2.6-0.1-3.8,0.3c-0.9,0.3-1.6,0.9-2.1,1.8c-0.2,0.5-0.3,1-0.3,1.5c0,0.6,0.3,1,0.7,1.4c0.5,0.4,1,0.7,1.6,1
		c1.2,0.5,2.4,0.9,3.6,1.2c1.7,0.4,3.5,0.9,5.2,1.4c1.4,0.4,2.7,1.1,3.7,2.2c1.2,1.2,1.8,2.6,2,4.3c0.2,1.6,0,3.2-0.8,4.6
		c-0.6,1.2-1.4,2.2-2.4,3.1c-1.8,1.5-3.8,2.4-6.1,2.9c-1.3,0.3-2.7,0.4-4.1,0.3c-3.2-0.2-6-1.2-8.4-3.4c-1-0.9-1.8-2-2.3-3.3
		c-0.1-0.1-0.1-0.2-0.1-0.4c2-0.9,4.1-1.9,6.1-2.8c0.1,0.2,0.1,0.3,0.1,0.5c0.3,1,0.9,1.7,1.7,2.2c0.9,0.6,1.9,1,3,1.1
		c1.2,0.1,2.3,0.1,3.4-0.3c0.6-0.2,1.1-0.5,1.6-0.9c0.4-0.3,0.7-0.7,0.9-1.1c0.5-1,0.2-2-0.6-2.7c-0.4-0.3-0.8-0.5-1.2-0.6
		c-1.4-0.5-2.7-0.8-4.1-1.1c-1.8-0.4-3.6-0.9-5.3-1.7c-0.4-0.2-0.8-0.4-1.2-0.7c-2.1-1.3-3.3-3.2-3.6-5.6c-0.4-2.6,0.5-4.9,2.1-7
		c1.3-1.8,3-2.8,5-3.5c1.9-0.7,3.8-0.8,5.8-0.7c2.2,0.2,4.3,0.9,6.2,2.1c1,0.7,2,1.5,2.7,2.6C66.2,8.5,66.4,8.7,66.5,8.9z"/>
	<path class="st0" d="M138.1,8.3c-1.3,1.6-2.6,3.1-3.9,4.6c-0.1,0-0.2-0.1-0.3-0.1c-0.4-0.4-0.9-0.7-1.4-1.1
		c-1.3-0.9-2.8-1.4-4.3-1.6c-1.5-0.2-3,0-4.3,0.6c-2.8,1.2-4.6,3.3-5.3,6.1c-0.9,3.2-0.3,6.2,1.7,8.8c1.3,1.7,3.1,2.8,5.3,3.2
		c1.7,0.3,3.4,0.1,5-0.5s3-1.6,4.2-2.8c0.2-0.2,0.5-0.5,0.7-0.7c1.5,1.4,2.9,2.7,4.3,4c0,0.1-0.1,0.1-0.1,0.2
		c-2.1,2.6-4.7,4.6-7.8,5.7c-2.1,0.8-4.3,1-6.5,0.8c-3.4-0.3-6.3-1.8-8.8-4.1c-2.6-2.5-4.2-5.5-4.8-9.1c-0.8-5.3,0.6-10,4.2-13.9
		c2.3-2.5,5.1-4,8.4-4.6c4.4-0.8,8.3,0.1,11.9,2.9C136.9,7.2,137.5,7.7,138.1,8.3z"/>
</g>
</svg>
