<?xml version="1.0" encoding="utf-8"?>
<!-- Generator: Adobe Illustrator 23.0.0, SVG Export Plug-In . SVG Version: 6.00 Build 0)  -->
<svg version="1.1" id="Layer_1" xmlns="http://www.w3.org/2000/svg" xmlns:xlink="http://www.w3.org/1999/xlink" x="0px" y="0px"
	 viewBox="0 0 93.6 35.4" style="enable-background:new 0 0 93.6 35.4;" xml:space="preserve">
<style type="text/css">
	.st0{fill:#C9C9C9;}
</style>
<g>
	<path class="st0" d="M79,5.6c-1.6,2.2-2.6,4.6-3.2,7.2c-0.6,3-0.6,5.9-0.2,8.9c0.1,0.7-0.1,1-0.8,1.2c-1.7,0.3-3.3,0.8-4.6,2
		c-1.8,1.7-2.1,3.6-1,5.9c0,0.1,0.1,0.2,0.1,0.4c-1.2-0.8-2.2-3.3-1.8-5.1c0.6-3.5,3.5-4.1,6.4-4.8c-1.8-7.6-0.4-14.5,4.3-20.8
		c2.8,1.8,5.2,3.8,7,6.4c1.2-1.4,2.4-2.8,3.6-4.2C89,2.9,89.1,3,89.2,3c4,7.6,2.7,14.7-2.2,21.5c0.4-0.4,0.7-0.8,1.1-1.2
		c0.5-0.5,0.9-1.1,1.4-1.6c0.4-0.4,0.9-1.2,1.6-0.7c0.8,0.5,0.4,1.4,0,1.9c-1.1,1.3-2.2,2.6-3.5,3.6c-5.1,3.9-10.9,6-17.2,7
		c-1.3,0.2-2.6,0.3-3.8,0.5c-0.3,0-0.6,0-1-0.2c1-0.2,2-0.4,2.9-0.7c3.4-1.1,6.7-2.1,10.1-3.3c3.9-1.4,6-4.5,6.8-8.5
		c0.7-3.7,0.4-7.4-1.4-10.8C82.8,8.4,81.2,6.8,79,5.6z M88.8,6.7c-0.1,0-0.2-0.1-0.3-0.1c-0.5,0.6-0.9,1.2-1.4,1.8
		c-0.5,0.7-0.5,1.3-0.3,2.1c1.5,4.6,1.4,9.1-0.7,13.5C86,24.1,86,24.3,86,24.4C89.7,19,91,13.1,88.8,6.7z"/>
	<path class="st0" d="M16.7,11.1c0,1.7,0.6,2.4,2.2,2.5c1.8,0.1,3.6,0.1,5.4,0c0.9,0,1.1,0.3,1.1,1.1s-0.3,1.1-1.1,1
		c-1.9-0.1-3.9,0-5.8-0.1c-2.4-0.2-3.9-1.6-4.2-4c-0.1-0.7-0.1-1.4-0.1-2C14.4,6.7,16,5.2,18.9,5c1.1,0,2.3,0,3.4,0.2
		c2.4,0.5,4,2.9,3.6,5.4c-0.1,0.6-0.5,0.5-0.9,0.5c-2.4,0-4.9,0-7.3,0C17.4,11.1,17.1,11.1,16.7,11.1z M23.3,9
		c0-0.9-0.5-1.5-1.2-1.6c-1.4-0.1-2.7-0.1-4.1,0c-0.8,0.1-1.2,0.7-1.2,1.6C19,9,21.1,9,23.3,9z"/>
	<path class="st0" d="M54,11.1c0,1.7,0.6,2.4,2.2,2.5c1.8,0.1,3.7,0.1,5.5,0c0.8,0,1,0.3,1,1.1s-0.2,1.1-1,1.1
		c-1.9-0.1-3.9,0-5.8-0.1c-2.6-0.2-4-1.6-4.3-4.2c-0.1-0.4-0.1-0.9-0.1-1.3c0.1-3.3,1.7-5.1,5-5.2c1.1,0,2.3,0,3.4,0.3
		c2.2,0.5,3.8,3.2,3.3,5.4c-0.1,0.2-0.5,0.4-0.8,0.4c-2.4,0-4.9,0-7.3,0C54.7,11.1,54.4,11.1,54,11.1z M60.6,9
		c0-0.9-0.5-1.5-1.2-1.6c-1.3-0.1-2.7-0.1-4,0c-0.8,0.1-1.2,0.7-1.2,1.6C56.3,9,58.4,9,60.6,9z"/>
	<path class="st0" d="M4.4,31c0,0.7,0,1.5,0,2.3c0,0.6-0.2,0.8-0.8,0.8c-1.5,0-1.5,0.1-1.5-1.4c0-2.1,0-4.2,0-6.3
		c0-0.7,0.1-1.5,0.2-2.2c0.4-1.5,1.3-2.5,2.8-2.7c1.6-0.2,3.3-0.2,4.9,0s2.7,1.2,2.9,2.8c0.2,1.2,0.2,2.5,0,3.7
		c-0.2,1.6-1.3,2.7-2.9,2.9C8.2,31.1,6.4,31,4.4,31z M7.6,29.2c0.5,0,1,0,1.5-0.1c1.3-0.1,1.8-0.6,1.9-1.9c0-0.7,0-1.4,0-2
		c-0.1-1.2-0.5-1.7-1.7-1.8c-0.8-0.1-1.6-0.1-2.4-0.1c-2,0.1-2.4,0.5-2.5,2.5C4.3,28.8,4.6,29.2,7.6,29.2z"/>
	<path class="st0" d="M54.9,27c-0.1,1.4,0.5,2.1,1.8,2.2c1.7,0.1,3.3,0.1,5,0.1c1,0,1.5,0.9,1,1.7c-0.1,0.2-0.4,0.3-0.6,0.3
		c-1.8,0-3.6,0.1-5.3,0c-3.1-0.2-4.7-2.7-4.1-6.1c0.4-2.1,1.6-3.3,3.7-3.5c1.2-0.1,2.5-0.1,3.7,0.1c2.2,0.4,3.7,2.7,3.2,4.9
		c0,0.2-0.5,0.5-0.8,0.5c-2.2,0-4.3,0-6.5,0C55.5,27,55.2,27,54.9,27z M55,24.9c1.9,0,3.8,0,5.6,0c-0.1-1.1-0.6-1.5-2.3-1.6
		C56,23.3,55.2,23.6,55,24.9z"/>
	<path class="st0" d="M42.8,27c-0.1,1.4,0.5,2.1,1.8,2.2c1.7,0.1,3.3,0.1,5,0c0.8,0,1,0.3,1,1.1c0,0.8-0.3,1-1,1c-1.5,0-3.1,0-4.6,0
		c-1.8-0.1-3.5-0.6-4.1-2.5c-0.7-2.1-0.8-4.2,0.8-6c1.7-1.9,6.6-1.8,8.3,0.1c1,1.1,1.2,2.4,1.1,3.8c0,0.2-0.5,0.5-0.8,0.5
		c-2.1,0-4.2,0-6.4,0C43.6,27,43.2,27,42.8,27z M42.9,24.9c2,0,3.8,0,5.7,0c-0.2-1.2-0.7-1.5-2.4-1.5C43.9,23.3,43.3,23.6,42.9,24.9
		z"/>
	<path class="st0" d="M39.9,12.2c0,0.9,0,1.8,0,2.7c0,0.7-0.3,1-0.9,0.9c-0.1,0-0.1,0-0.2,0c-1.3,0-1.3,0-1.3-1.3c0-1.5,0-3,0-4.4
		c-0.1-2.1-0.7-2.8-2.8-2.9c-0.7,0-1.4,0-2,0c-1.8,0.2-2.5,0.9-2.5,2.7c0,1.7-0.1,3.3,0,5c0,1-0.5,1-1.2,1s-1.2,0-1.2-1
		c0.1-1.6,0-3.2,0-4.8c0.1-3.3,1.5-4.8,4.8-5c1.3-0.1,2.6,0,3.9,0.2c2.1,0.4,3.2,1.7,3.4,3.8C39.9,10.1,39.9,11.2,39.9,12.2
		L39.9,12.2z"/>
	<path class="st0" d="M42.2,6.7c0-1.7,0-3.4,0-5.1c0-0.7,0.2-1,0.9-0.9c0.3,0,0.6,0,0.9,0c0.5,0,0.6,0.2,0.6,0.7c0,0.9,0,1.8,0,2.8
		c0,0.6,0.2,0.8,0.8,0.8c1,0,2,0,3,0C49.1,5,49,5.5,49,6s0.2,1.1-0.7,1.1c-1,0-2,0-3,0c-0.6,0-0.8,0.2-0.8,0.8c0,1.2,0,2.5,0,3.7
		c0.1,1.5,0.6,2,2.1,2.1c1,0,2,0,3,0c0.7,0,0.8,0.4,0.7,1c0,0.5,0.3,1.2-0.7,1.2c-1.4,0-2.8,0-4.1-0.1c-2.1-0.2-3.4-1.4-3.5-3.6
		C42.1,10.3,42.2,8.5,42.2,6.7L42.2,6.7z"/>
	<path class="st0" d="M14.2,5c-0.3,0.6-0.5,1-0.6,1.3c-1.5,2.9-3,5.7-4.4,8.6c-0.3,0.7-0.7,0.9-1.4,0.8c-0.7,0-1.2-0.1-1.6-0.8
		c-1.6-3-3.2-6.2-4.8-9.3C1.3,5.5,1.3,5.4,1.2,5.2c1.5-0.6,2.5-0.3,3.1,1c1.1,2.1,2.1,4.3,3.3,6.6c0.2-0.3,0.3-0.5,0.4-0.7
		c1-2,2-3.9,2.9-6c0.4-0.9,0.9-1.4,1.9-1.2C13.2,5,13.6,5,14.2,5z"/>
	<path class="st0" d="M28.3,21.4c0.8,0,1.4-0.1,1.9,0c0.3,0.1,0.7,0.4,0.8,0.7c0.9,1.7,1.8,3.5,2.6,5.3c0.1,0.3,0.3,0.6,0.5,1
		c0.6-1.3,1.2-2.4,1.8-3.5c0.4-0.8,0.8-1.5,1.1-2.3c0.3-1,1-1.3,2-1.2c0.3,0,0.6,0,1,0c-0.1,0.3-0.2,0.6-0.3,0.8
		c-1.4,2.7-2.8,5.5-4.2,8.2c-0.3,0.7-0.7,0.8-1.4,0.8S33,31,32.7,30.3c-1.3-2.7-2.7-5.4-4.1-8.1C28.6,22,28.5,21.8,28.3,21.4z"/>
	<path class="st0" d="M20.6,21.4c0.4,0,0.8,0,1.2,0c0.9-0.1,1.1,0.3,1.1,1.1c0,0.7-0.2,0.9-0.9,0.9c-1,0-1.9,0-2.9,0.1
		c-1.3,0.1-1.8,0.7-1.8,2c0,1.6-0.1,3.2,0,4.8c0.1,1-0.5,1-1.2,1c-0.7,0-1.2,0-1.1-1c0.1-1.5,0-3,0-4.5c0-2.8,1.3-4.2,4.1-4.3
		C19.6,21.4,20.1,21.4,20.6,21.4L20.6,21.4z"/>
	<path class="st0" d="M24.6,26.2c0-1.3,0-2.6,0-4c0-0.6,0.2-0.9,0.8-0.9c1.4,0,1.4,0,1.4,1.4c0,2.5,0,4.9,0,7.4
		c0,0.9-0.3,1.1-1.2,1.1c-0.9,0-1.2-0.3-1.1-1.2C24.6,28.8,24.6,27.5,24.6,26.2z"/>
	<path class="st0" d="M26.9,18.8c-0.1,0.7-0.7,1.2-1.3,1.1c-0.6-0.1-1.1-0.7-1.1-1.3c0.1-0.6,0.7-1.2,1.3-1
		C26.5,17.7,26.9,18.1,26.9,18.8z"/>
</g>
</svg>
