<svg xmlns="http://www.w3.org/2000/svg" width="30" height="30" viewBox="0 0 30 30"><path fill="#FFF" d="M2.521 2.833A2.504 2.504 0 0 0 .025 5.329v17.47a2.504 2.504 0 0 0 2.496 2.495h13.103a.622.622 0 0 0 .54-.936.624.624 0 0 0-.54-.312H2.521a1.231 1.231 0 0 1-1.248-1.247V5.329c0-.702.545-1.248 1.248-1.248h24.957c.702 0 1.248.545 1.248 1.248v17.47c0 .701-.546 1.247-1.248 1.247h-.624a.626.626 0 0 0-.54.936.626.626 0 0 0 .54.312h.624a2.504 2.504 0 0 0 2.496-2.495V5.329a2.504 2.504 0 0 0-2.496-2.496H2.521zm19.342 2.496a.624.624 0 1 0-.001 1.247.624.624 0 0 0 .001-1.247zm2.496 0a.623.623 0 1 0 0 1.248.624.624 0 1 0 0-1.248zm2.495 0a.624.624 0 1 0-.001 1.247.624.624 0 0 0 .001-1.247zM5.641 7.825a.622.622 0 0 0-.624.624c0 .346.278.624.624.624h2.496a.622.622 0 0 0 .624-.624.622.622 0 0 0-.624-.624H5.641zm4.991 0a.622.622 0 0 0-.624.624c0 .346.278.624.624.624h2.496a.622.622 0 0 0 .624-.624.622.622 0 0 0-.624-.624h-2.496zm-2.495 3.743c-.346 0-.624.278-.624.624s.278.624.624.624h2.496c.346 0 .624-.278.624-.624s-.278-.624-.624-.624H8.137zm4.991 0c-.346 0-.624.278-.624.624s.278.624.624.624h2.496c.347 0 .624-.278.624-.624s-.277-.624-.624-.624h-2.496zm-2.496 3.744a.622.622 0 0 0-.624.624c0 .346.278.624.624.624h2.496a.622.622 0 0 0 .624-.624.622.622 0 0 0-.624-.624h-2.496zm4.992 0a.622.622 0 0 0-.624.624c0 .346.278.624.624.624h2.496a.621.621 0 0 0 .623-.624.62.62 0 0 0-.623-.624h-2.496zm-7.487 3.743c-.346 0-.624.278-.624.624s.278.624.624.624h2.496c.346 0 .624-.278.624-.624s-.278-.624-.624-.624H8.137zm4.991 0c-.346 0-.624.278-.624.624s.278.624.624.624h2.496c.347 0 .624-.278.624-.624s-.277-.624-.624-.624h-2.496zm6.871 3.12a.62.62 0 0 0-.45.183l-1.871 1.872a.623.623 0 0 0 0 .882l1.871 1.872a.624.624 0 1 0 .883-.883l-1.431-1.431 1.431-1.431a.623.623 0 0 0-.433-1.064zm2.48 0a.623.623 0 0 0-.432 1.065l1.431 1.431-1.431 1.431a.625.625 0 0 0 .883.883l1.871-1.872a.623.623 0 0 0 0-.882l-1.871-1.872a.623.623 0 0 0-.451-.184z"/></svg>