<svg xmlns="http://www.w3.org/2000/svg" width="30" height="30" viewBox="0 0 30 30"><path fill="#FFF" d="M15.002.516C6.801.516.151 7.165.151 15.368c0 6.562 4.255 12.128 10.155 14.091.742.137 1.014-.322 1.014-.714 0-.354-.014-1.525-.021-2.765-4.129.896-5.002-1.753-5.002-1.753-.676-1.714-1.648-2.171-1.648-2.171-1.351-.921.103-.902.103-.902 1.491.104 2.276 1.529 2.276 1.529 1.324 2.271 3.477 1.613 4.321 1.232.136-.957.521-1.613.943-1.983-3.297-.375-6.765-1.648-6.765-7.339 0-1.623.578-2.945 1.526-3.985-.15-.378-.662-1.889.147-3.933 0 0 1.246-.398 4.084 1.522A14.113 14.113 0 0 1 15 7.698a14.14 14.14 0 0 1 3.718.501c2.834-1.923 4.081-1.523 4.081-1.523.812 2.046.301 3.556.148 3.931.952 1.04 1.525 2.362 1.525 3.985 0 5.705-3.474 6.96-6.78 7.329.533.461 1.008 1.363 1.008 2.748 0 1.985-.021 3.587-.021 4.076 0 .395.271.856 1.022.712 5.896-1.967 10.147-7.532 10.147-14.091.005-8.2-6.645-14.85-14.846-14.85z"/></svg>