<svg xmlns="http://www.w3.org/2000/svg" width="30" height="30" viewBox="0 0 30 30"><path fill="none" d="M15.285 14.846h4.561V12.41c-.35.126-.708.192-1.045.192a2.758 2.758 0 0 1-2.756-2.757 2.759 2.759 0 0 1 2.756-2.757c.337 0 .695.066 1.045.193V4.847h-4.561l.851-.851c.299-.349.474-.784.474-1.188 0-.943-.769-1.712-1.712-1.712-.944 0-1.712.769-1.712 1.712 0 .433.153.812.481 1.195l.843.843H10v4.662l-.85-.85a1.653 1.653 0 0 0-1.188-.472c-.944 0-1.712.768-1.712 1.712s.769 1.712 1.712 1.712c.433 0 .812-.152 1.195-.48l.843-.844v4.56h4.56l-.851.851c-.298.349-.474.784-.474 1.188 0 .943.769 1.711 1.712 1.711.472 0 .907-.183 1.224-.516.304-.321.459-.743.438-1.189 0-.439-.153-.819-.48-1.202l-.844-.843z"/><path fill="#FFF" d="M20.94 15.89v-5.655l-.842.844c-.382.327-.763.479-1.195.479a1.714 1.714 0 0 1-1.712-1.712c0-.943.768-1.712 1.712-1.712.326 0 .796.082 1.188.474l.85.851V3.854h-3.479c.126-.35.192-.707.192-1.045 0-1.52-1.236-2.756-2.756-2.756S12.14 1.289 12.14 2.809c0 .338.066.695.193 1.045H8.904v3.479a3.106 3.106 0 0 0-1.044-.192c-1.52 0-2.756 1.237-2.756 2.757s1.236 2.757 2.756 2.757c.337 0 .695-.066 1.044-.192v3.428h3.429a2.976 2.976 0 0 0-.193.994 2.76 2.76 0 0 0 2.757 2.756 2.76 2.76 0 0 0 2.572-3.75h3.471zm-4.768 2.189a1.67 1.67 0 0 1-1.224.516 1.714 1.714 0 0 1-1.712-1.711c0-.403.175-.839.474-1.188l.851-.851H10v-4.56l-.842.843c-.383.328-.763.48-1.195.48-.944 0-1.712-.768-1.712-1.712s.769-1.712 1.712-1.712c.326 0 .796.082 1.188.474l.849.851V4.847h4.509l-.843-.843c-.328-.383-.481-.763-.481-1.195 0-.943.768-1.712 1.712-1.712s1.712.769 1.712 1.712c0 .403-.175.839-.474 1.188l-.851.851h4.561v2.436a3.093 3.093 0 0 0-1.045-.193 2.759 2.759 0 0 0-2.756 2.757 2.758 2.758 0 0 0 2.756 2.757c.337 0 .695-.066 1.045-.192v2.436h-4.561l.844.842c.327.383.48.763.48 1.202a1.59 1.59 0 0 1-.436 1.186zM26.1 17.1l2.581-.105-3.048-6.886-.001-2.396a6.203 6.203 0 0 0-.526-2.05l-.052-.113-.973.347.055.134c.24.573.4 1.18.452 1.693v2.568l2.498 5.725-2.042.049.212 4.705c0 .348-.102.61-.32.828-.22.221-.492.318-.878.318h-4.041v6.833H17.91v1.044h3.15v-6.832h2.984c.061.006.122.008.183.008.525 0 1.015-.212 1.416-.612.449-.451.658-1.003.604-1.592L26.1 17.1zM3.28 15.074c-1.186-3.351-1.22-6.31-.105-9.046l.051-.125-.971-.416-.053.13c-1.21 2.999-1.176 6.281.101 9.753.353 1.015.927 1.985 1.534 3.013l.328.557.046.077c1.356 2.261 2.759 4.598 2.759 7.558v3.373h1.044v-3.321c0-3.275-1.566-5.885-2.947-8.188-.711-1.167-1.381-2.301-1.787-3.365z"/><path fill="#FFF" d="M17.859 25.409h1.044v1.045h-1.044zm0-1.746h1.044v1.045h-1.044z"/></svg>