<svg xmlns="http://www.w3.org/2000/svg" width="15" height="11" viewBox="0 0 15 11"><path d="M6 .761a.75.75 0 0 1-.75.75H.75a.75.75 0 0 1 0-1.5h4.5a.75.75 0 0 1 .75.75zm1.5 3a.75.75 0 0 1-.75.75h-4.5a.75.75 0 0 1 0-1.5h4.5a.75.75 0 0 1 .75.75zm7 0a.75.75 0 0 1-.75.75h-4.5a.75.75 0 0 1 0-1.5h4.5a.75.75 0 0 1 .75.75zm-4 2.984a.75.75 0 0 1-.75.75h-6a.75.75 0 0 1 0-1.5h6a.75.75 0 0 1 .75.75zM10 .75a.75.75 0 0 1-.75.75h-1.5a.75.75 0 0 1 0-1.5h1.5a.75.75 0 0 1 .75.75zm4.5 6a.75.75 0 0 1-.75.75h-1.5a.75.75 0 0 1 0-1.5h1.5a.75.75 0 0 1 .75.75z"/></svg>