<svg xmlns="http://www.w3.org/2000/svg" width="30" height="30" viewBox="0 0 30 30"><g fill="#FFF"><path d="M15.68 27.31c-.165-.131-.414-.281-.68-.281a.972.972 0 0 0-.96.96c0 .272.157.526.289.69a.96.96 0 0 0 .671.27.95.95 0 0 0 .96-.96c0-.266-.15-.515-.28-.679zM9.276 9.276A8.163 8.163 0 0 0 6.896 15c0 4.444 3.636 8.06 8.104 8.06a8.051 8.051 0 0 0 5.724-2.381 8.156 8.156 0 0 0 2.381-5.725c-.047-4.443-3.682-8.058-8.105-8.058a8.05 8.05 0 0 0-5.724 2.38zm8.324 8.778c-.184.846-.398 1.577-.636 2.172-.587 1.263-1.284 1.959-1.964 1.959-1.096 0-2.135-1.653-2.604-4.131H17.6zm-6.129-.045c.286 1.572.81 2.922 1.491 3.857a7.242 7.242 0 0 1-4.447-3.857h2.956zM9.945 9.945a7.17 7.17 0 0 1 3.004-1.808 5.954 5.954 0 0 0-.723 1.269 13.893 13.893 0 0 0-.755 2.54H8.516c.375-.792.854-1.464 1.429-2.001zm2.455 2.001c.185-.847.398-1.578.636-2.171.568-1.221 1.268-1.918 1.964-1.959 1.096 0 2.135 1.653 2.604 4.13H12.4zm-.133 5.142A17.667 17.667 0 0 1 12.146 15c0-.734.042-1.454.12-2.087h5.514c.078.633.12 1.353.12 2.087 0 .735-.042 1.455-.12 2.088h-5.513zm7.788 2.968a7.386 7.386 0 0 1-3.001 1.804c.276-.366.514-.782.72-1.266a13.77 13.77 0 0 0 .755-2.54h2.956c-.376.793-.855 1.465-1.43 2.002zm-1.526-8.064c-.287-1.572-.811-2.922-1.491-3.857a7.241 7.241 0 0 1 4.447 3.857h-2.956zm-7.23 5.096H8.146A7.133 7.133 0 0 1 7.816 15c0-.671.107-1.355.329-2.087H11.3c-.081.688-.12 1.372-.12 2.087 0 .733.041 1.452.119 2.088zm7.402-4.175h3.153c.222.732.329 1.416.329 2.087s-.107 1.355-.329 2.088H18.7c.081-.687.12-1.371.12-2.088 0-.733-.041-1.452-.119-2.087zM5.849 6.247a.123.123 0 0 0 .087.036.105.105 0 0 0 .087-.037 12.545 12.545 0 0 1 7.226-3.648c.283.779.976 1.295 1.751 1.295a1.883 1.883 0 0 0 1.881-1.881A1.86 1.86 0 0 0 15 .131c-.915 0-1.682.658-1.822 1.546a13.383 13.383 0 0 0-7.826 3.902.123.123 0 0 0 .001.172l.496.496zM15 1.052c.521 0 .96.439.96.96s-.439.961-.96.961-.96-.44-.96-.961a.95.95 0 0 1 .96-.96zM2.075 18.823a.123.123 0 0 0 .117.088.126.126 0 0 0 .033-.005l.632-.181a.118.118 0 0 0 .073-.06.118.118 0 0 0 .01-.094c-.33-1.073-.491-2.227-.491-3.526 0-1.63.311-3.262.898-4.728.129.023.269.023.378.023.681 0 1.309-.352 1.64-.92.26-.467.326-.952.19-1.401a2.07 2.07 0 0 0-.873-1.156c-.989-.494-2.112-.15-2.599.687-.22.439-.273.962-.145 1.391.088.353.3.674.601.913a13.64 13.64 0 0 0-.464 8.969zm1.209-9.569c-.217-.108-.343-.282-.437-.612-.073-.182-.038-.459.083-.662a.978.978 0 0 1 .841-.479c.16 0 .324.041.486.122.217.108.343.282.435.606a.887.887 0 0 1-.078.707c-.273.431-.879.603-1.33.318zm8.274 17.76c-2.509-.649-4.813-2.188-6.499-4.339.534-.598.623-1.464.216-2.189a1.918 1.918 0 0 0-1.639-.962c-.301 0-.582.073-.917.241-.47.261-.779.658-.869 1.108-.135.45-.069.936.192 1.404a1.903 1.903 0 0 0 2.273.852c1.799 2.32 4.281 4.007 6.999 4.752a.124.124 0 0 0 .033.004.12.12 0 0 0 .117-.088l.18-.631a.121.121 0 0 0-.086-.152zm-7.395-4.725a.844.844 0 0 1-.409.102c-.36 0-.721-.201-.911-.5-.131-.261-.158-.495-.084-.719.079-.237.241-.443.435-.561.162-.081.326-.122.486-.122a.98.98 0 0 1 .84.478c.241.44.074 1.048-.357 1.322z"/><path d="M24.065 23.848a.127.127 0 0 0-.088-.04.127.127 0 0 0-.09.036 12.612 12.612 0 0 1-7.138 3.56 1.975 1.975 0 0 0-.446-.719 1.933 1.933 0 0 0-1.349-.577c-1.02 0-1.881.841-1.881 1.836 0 .479.187.955.531 1.35.361.361.849.576 1.305.576.914 0 1.682-.657 1.822-1.546 2.917-.38 5.59-1.712 7.734-3.856a.122.122 0 0 0 .005-.168l-.405-.452zM15 28.948a.96.96 0 0 1-.671-.27c-.132-.164-.289-.418-.289-.69 0-.521.439-.96.96-.96.266 0 .515.15.68.281.13.164.28.413.28.679a.95.95 0 0 1-.96.96zm3.083-26.095a12.177 12.177 0 0 1 6.904 4.562 1.762 1.762 0 0 0-.408.741c-.144.479-.096.965.146 1.449.347.594.975.963 1.639.963.301 0 .582-.073.917-.241.449-.25.774-.644.914-1.108.144-.48.096-.966-.146-1.449a1.917 1.917 0 0 0-1.64-.963c-.211 0-.418.037-.592.106-1.886-2.493-4.545-4.258-7.497-4.974a.12.12 0 0 0-.146.087l-.18.677c-.009.032-.004.065.013.094s.044.048.076.056zm8.326 4.874c.308 0 .635.197.793.474.131.261.158.496.084.719a1.052 1.052 0 0 1-.438.562.938.938 0 0 1-.446.11c-.35 0-.677-.184-.83-.464-.13-.261-.157-.496-.083-.719a1.05 1.05 0 0 1 .435-.561c.162-.08.325-.121.485-.121zm1.004 12.517A13.529 13.529 0 0 0 28.471 15c0-1.212-.157-2.394-.455-3.416a.123.123 0 0 0-.149-.084l-.676.181a.121.121 0 0 0-.087.148c.267 1.022.401 2.09.401 3.171 0 1.636-.332 3.256-.986 4.817-.132-.023-.28-.023-.425-.023-.672 0-1.253.334-1.592.915a1.863 1.863 0 0 0 .622 2.556c.331.221.712.246.97.246.673 0 1.254-.335 1.596-.92.255-.459.322-.935.197-1.378.031-.331-.123-.65-.474-.969zm-1.274 2.391c-.16 0-.323-.041-.475-.115a.967.967 0 0 1-.32-1.325.978.978 0 0 1 .841-.479c.16 0 .324.041.479.118.212.127.364.336.442.609.078.235.039.466-.125.713a.984.984 0 0 1-.842.479z"/></g></svg>