<?xml version="1.0" encoding="utf-8"?>
<!-- Generator: Adobe Illustrator 16.0.0, SVG Export Plug-In . SVG Version: 6.00 Build 0)  -->
<!DOCTYPE svg PUBLIC "-//W3C//DTD SVG 1.1//EN" "http://www.w3.org/Graphics/SVG/1.1/DTD/svg11.dtd">
<svg version="1.1" xmlns="http://www.w3.org/2000/svg" xmlns:xlink="http://www.w3.org/1999/xlink" x="0px" y="0px" width="15px"
	 height="11px" viewBox="0 0 15 11" enable-background="new 0 0 15 11" xml:space="preserve">
<g id="Layer_1">
	<path d="M6,0.761c0,0.414-0.336,0.75-0.75,0.75h-4.5C0.336,1.511,0,1.175,0,0.761l0,0c0-0.414,0.336-0.75,0.75-0.75h4.5
		C5.664,0.011,6,0.347,6,0.761L6,0.761z"/>
	<path d="M7.5,3.761c0,0.414-0.336,0.75-0.75,0.75h-4.5c-0.414,0-0.75-0.336-0.75-0.75l0,0c0-0.414,0.336-0.75,0.75-0.75h4.5
		C7.164,3.011,7.5,3.347,7.5,3.761L7.5,3.761z"/>
	<path d="M14.5,3.761c0,0.414-0.336,0.75-0.75,0.75h-4.5c-0.414,0-0.75-0.336-0.75-0.75l0,0c0-0.414,0.336-0.75,0.75-0.75h4.5
		C14.164,3.011,14.5,3.347,14.5,3.761L14.5,3.761z"/>
	<path d="M10.5,6.745c0,0.414-0.336,0.75-0.75,0.75h-6C3.336,7.495,3,7.159,3,6.745l0,0c0-0.414,0.336-0.75,0.75-0.75h6
		C10.165,5.995,10.5,6.331,10.5,6.745L10.5,6.745z"/>
	<path d="M10,0.75C10,1.164,9.664,1.5,9.25,1.5h-1.5C7.336,1.5,7,1.164,7,0.75l0,0C7,0.336,7.336,0,7.75,0h1.5
		C9.664,0,10,0.336,10,0.75L10,0.75z"/>
	<path d="M14.5,6.75c0,0.414-0.336,0.75-0.75,0.75h-1.5c-0.414,0-0.75-0.336-0.75-0.75l0,0C11.5,6.336,11.836,6,12.25,6h1.5
		C14.164,6,14.5,6.336,14.5,6.75L14.5,6.75z"/>
</g>
<g id="Layer_2">
	<g id="Layer_4">
	</g>
</g>
<g id="Layer_3">
</g>
</svg>
