<?xml version="1.0" encoding="utf-8"?>
<!-- Generator: Adobe Illustrator 16.0.0, SVG Export Plug-In . SVG Version: 6.00 Build 0)  -->
<!DOCTYPE svg PUBLIC "-//W3C//DTD SVG 1.1//EN" "http://www.w3.org/Graphics/SVG/1.1/DTD/svg11.dtd">
<svg version="1.1" xmlns="http://www.w3.org/2000/svg" xmlns:xlink="http://www.w3.org/1999/xlink" x="0px" y="0px" width="15px"
	 height="11px" viewBox="0 0 15 11" enable-background="new 0 0 15 11" xml:space="preserve">
<g id="Layer_1">
	<path d="M6,6.734c0,0.414-0.336,0.75-0.75,0.75h-1.5C3.336,7.484,3,7.148,3,6.734l0,0c0-0.414,0.336-0.75,0.75-0.75h1.5
		C5.664,5.984,6,6.32,6,6.734L6,6.734z"/>
	<path d="M10,6.75C10,7.164,9.664,7.5,9.25,7.5h-1.5C7.336,7.5,7,7.164,7,6.75l0,0C7,6.336,7.336,6,7.75,6h1.5
		C9.664,6,10,6.336,10,6.75L10,6.75z"/>
	<path d="M3.016,0.75c0,0.414-0.336,0.75-0.75,0.75h-1.5c-0.414,0-0.75-0.336-0.75-0.75l0,0C0.016,0.336,0.352,0,0.766,0h1.5
		C2.68,0,3.016,0.336,3.016,0.75L3.016,0.75z"/>
	<path d="M6.016,3.75c0,0.414-0.336,0.75-0.75,0.75h-3c-0.414,0-0.75-0.336-0.75-0.75l0,0C1.516,3.336,1.852,3,2.266,3h3
		C5.68,3,6.016,3.336,6.016,3.75L6.016,3.75z"/>
	<path d="M14,0.766c0,0.414-0.336,0.75-0.75,0.75h-3c-0.414,0-0.75-0.336-0.75-0.75l0,0c0-0.414,0.336-0.75,0.75-0.75h3
		C13.664,0.016,14,0.352,14,0.766L14,0.766z"/>
	<path d="M8.516,0.75c0,0.414-0.336,0.75-0.75,0.75h-3c-0.414,0-0.75-0.336-0.75-0.75l0,0C4.016,0.336,4.352,0,4.766,0h3
		C8.18,0,8.516,0.336,8.516,0.75L8.516,0.75z"/>
	<path d="M11.5,3.766c0,0.414-0.336,0.75-0.75,0.75h-3C7.336,4.516,7,4.18,7,3.766l0,0c0-0.414,0.336-0.75,0.75-0.75h3
		C11.164,3.016,11.5,3.352,11.5,3.766L11.5,3.766z"/>
</g>
<g id="Layer_2">
	<g id="Layer_4">
	</g>
</g>
<g id="Layer_3">
</g>
</svg>
