<?xml version="1.0" encoding="utf-8"?>
<!-- Generator: Adobe Illustrator 16.0.0, SVG Export Plug-In . SVG Version: 6.00 Build 0)  -->
<!DOCTYPE svg PUBLIC "-//W3C//DTD SVG 1.1//EN" "http://www.w3.org/Graphics/SVG/1.1/DTD/svg11.dtd">
<svg version="1.1" xmlns="http://www.w3.org/2000/svg" xmlns:xlink="http://www.w3.org/1999/xlink" x="0px" y="0px" width="15px"
	 height="11px" viewBox="0 0 15 11" enable-background="new 0 0 15 11" xml:space="preserve">
<g id="Layer_1">
	<path d="M13,6.761c0,0.414-0.336,0.75-0.75,0.75h-4.5C7.336,7.511,7,7.175,7,6.761l0,0c0-0.414,0.336-0.75,0.75-0.75h4.5
		C12.664,6.011,13,6.347,13,6.761L13,6.761z"/>
	<path d="M10,3.734c0,0.414-0.336,0.75-0.75,0.75h-1.5C7.336,4.484,7,4.148,7,3.734l0,0c0-0.414,0.336-0.75,0.75-0.75h1.5
		C9.664,2.984,10,3.32,10,3.734L10,3.734z"/>
	<path d="M14,3.75c0,0.414-0.336,0.75-0.75,0.75h-1.5C11.336,4.5,11,4.164,11,3.75l0,0C11,3.336,11.336,3,11.75,3h1.5
		C13.664,3,14,3.336,14,3.75L14,3.75z"/>
	<path d="M6.016,6.75c0,0.414-0.336,0.75-0.75,0.75h-1.5c-0.414,0-0.75-0.336-0.75-0.75l0,0C3.016,6.336,3.352,6,3.766,6h1.5
		C5.68,6,6.016,6.336,6.016,6.75L6.016,6.75z"/>
	<path d="M6.016,3.75c0,0.414-0.336,0.75-0.75,0.75h-3c-0.414,0-0.75-0.336-0.75-0.75l0,0C1.516,3.336,1.852,3,2.266,3h3
		C5.68,3,6.016,3.336,6.016,3.75L6.016,3.75z"/>
	<path d="M4.5,0.766c0,0.414-0.336,0.75-0.75,0.75h-3C0.336,1.516,0,1.18,0,0.766l0,0c0-0.414,0.336-0.75,0.75-0.75h3
		C4.164,0.016,4.5,0.352,4.5,0.766L4.5,0.766z"/>
	<path d="M10.016,0.75c0,0.414-0.336,0.75-0.75,0.75h-3c-0.414,0-0.75-0.336-0.75-0.75l0,0C5.516,0.336,5.852,0,6.266,0h3
		C9.68,0,10.016,0.336,10.016,0.75L10.016,0.75z"/>
</g>
<g id="Layer_2">
	<g id="Layer_4">
	</g>
</g>
<g id="Layer_3">
</g>
</svg>
