<?xml version="1.0" encoding="utf-8"?>
<!-- Generator: Adobe Illustrator 16.0.0, SVG Export Plug-In . SVG Version: 6.00 Build 0)  -->
<!DOCTYPE svg PUBLIC "-//W3C//DTD SVG 1.1//EN" "http://www.w3.org/Graphics/SVG/1.1/DTD/svg11.dtd">
<svg version="1.1" xmlns="http://www.w3.org/2000/svg" xmlns:xlink="http://www.w3.org/1999/xlink" x="0px" y="0px" width="15px"
	 height="11px" viewBox="0 0 15 11" enable-background="new 0 0 15 11" xml:space="preserve">
<g id="Layer_1">
	<path d="M14.5,6.761c0,0.414-0.336,0.75-0.75,0.75h-4.5c-0.414,0-0.75-0.336-0.75-0.75l0,0c0-0.414,0.336-0.75,0.75-0.75h4.5
		C14.164,6.011,14.5,6.347,14.5,6.761L14.5,6.761z"/>
	<path d="M10,3.734c0,0.414-0.336,0.75-0.75,0.75h-1.5C7.336,4.484,7,4.148,7,3.734l0,0c0-0.414,0.336-0.75,0.75-0.75h1.5
		C9.664,2.984,10,3.32,10,3.734L10,3.734z"/>
	<path d="M12.5,0.75c0,0.414-0.336,0.75-0.75,0.75h-1.5C9.836,1.5,9.5,1.164,9.5,0.75l0,0C9.5,0.336,9.836,0,10.25,0h1.5
		C12.164,0,12.5,0.336,12.5,0.75L12.5,0.75z"/>
	<path d="M3.016,0.75c0,0.414-0.336,0.75-0.75,0.75h-1.5c-0.414,0-0.75-0.336-0.75-0.75l0,0C0.016,0.336,0.352,0,0.766,0h1.5
		C2.68,0,3.016,0.336,3.016,0.75L3.016,0.75z"/>
	<path d="M6.016,3.75c0,0.414-0.336,0.75-0.75,0.75h-3c-0.414,0-0.75-0.336-0.75-0.75l0,0C1.516,3.336,1.852,3,2.266,3h3
		C5.68,3,6.016,3.336,6.016,3.75L6.016,3.75z"/>
	<path d="M7.5,6.766c0,0.414-0.336,0.75-0.75,0.75h-3C3.336,7.516,3,7.18,3,6.766l0,0c0-0.414,0.336-0.75,0.75-0.75h3
		C7.164,6.016,7.5,6.352,7.5,6.766L7.5,6.766z"/>
	<path d="M8.516,0.75c0,0.414-0.336,0.75-0.75,0.75h-3c-0.414,0-0.75-0.336-0.75-0.75l0,0C4.016,0.336,4.352,0,4.766,0h3
		C8.18,0,8.516,0.336,8.516,0.75L8.516,0.75z"/>
</g>
<g id="Layer_2">
	<g id="Layer_4">
	</g>
</g>
<g id="Layer_3">
</g>
</svg>
