<?xml version="1.0" encoding="utf-8"?>
<!-- Generator: Adobe Illustrator 16.0.0, SVG Export Plug-In . SVG Version: 6.00 Build 0)  -->
<!DOCTYPE svg PUBLIC "-//W3C//DTD SVG 1.1//EN" "http://www.w3.org/Graphics/SVG/1.1/DTD/svg11.dtd">
<svg version="1.1" id="Layer_1" xmlns="http://www.w3.org/2000/svg" xmlns:xlink="http://www.w3.org/1999/xlink" x="0px" y="0px"
	 width="15px" height="11px" viewBox="0 0 15 11" enable-background="new 0 0 15 11" xml:space="preserve">
<g id="Layer_1_1_">
	<path d="M11.5,6.75c0,0.414-0.336,0.75-0.75,0.75h-1.5C8.836,7.5,8.5,7.164,8.5,6.75l0,0C8.5,6.336,8.836,6,9.25,6h1.5
		C11.164,6,11.5,6.336,11.5,6.75L11.5,6.75z"/>
	<path d="M3.016,0.75c0,0.414-0.336,0.75-0.75,0.75h-1.5c-0.414,0-0.75-0.336-0.75-0.75l0,0C0.016,0.336,0.352,0,0.766,0h1.5
		C2.68,0,3.016,0.336,3.016,0.75L3.016,0.75z"/>
	<path d="M6.016,3.75c0,0.414-0.336,0.75-0.75,0.75h-3c-0.414,0-0.75-0.336-0.75-0.75l0,0C1.516,3.336,1.852,3,2.266,3h3
		C5.68,3,6.016,3.336,6.016,3.75L6.016,3.75z"/>
	<path d="M7.5,6.766c0,0.414-0.336,0.75-0.75,0.75h-3C3.336,7.516,3,7.18,3,6.766l0,0c0-0.414,0.336-0.75,0.75-0.75h3
		C7.164,6.016,7.5,6.352,7.5,6.766L7.5,6.766z"/>
	<path d="M8.516,0.75c0,0.414-0.336,0.75-0.75,0.75h-3c-0.414,0-0.75-0.336-0.75-0.75l0,0C4.016,0.336,4.352,0,4.766,0h3
		C8.18,0,8.516,0.336,8.516,0.75L8.516,0.75z"/>
	<path d="M11.5,3.766c0,0.414-0.336,0.75-0.75,0.75h-3C7.336,4.516,7,4.18,7,3.766l0,0c0-0.414,0.336-0.75,0.75-0.75h3
		C11.164,3.016,11.5,3.352,11.5,3.766L11.5,3.766z"/>
</g>
<g id="Layer_2">
	<g id="Layer_4">
	</g>
</g>
<g id="Layer_3">
</g>
</svg>
