<svg xmlns="http://www.w3.org/2000/svg" width="30" height="30" viewBox="0 0 30 30"><path fill="none" d="M15 1.837C7.742 1.837 1.837 7.742 1.837 15S7.742 28.163 15 28.163c7.259 0 13.163-5.905 13.163-13.163S22.259 1.837 15 1.837zm8.67 15.122h-8.638a.913.913 0 0 1-.671-.295.916.916 0 0 1-.279-.658V7.375a.918.918 0 1 1 1.836 0v7.748h7.752a.918.918 0 1 1 0 1.836z"/><path fill="#D2D2D2" d="M15 0C6.729 0 0 6.729 0 15s6.729 15 15 15 15-6.729 15-15S23.271 0 15 0zm0 28.163C7.742 28.163 1.837 22.258 1.837 15S7.742 1.837 15 1.837c7.259 0 13.163 5.905 13.163 13.163S22.259 28.163 15 28.163z"/><path fill="#D2D2D2" d="M23.67 15.123h-7.752V7.375a.918.918 0 1 0-1.836 0v8.631c0 .258.107.49.279.658.167.18.405.295.671.295h8.638a.917.917 0 1 0 0-1.836z"/></svg>