<?xml version="1.0" encoding="utf-8"?>
<!-- Generator: Adobe Illustrator 16.0.0, SVG Export Plug-In . SVG Version: 6.00 Build 0)  -->
<!DOCTYPE svg PUBLIC "-//W3C//DTD SVG 1.1//EN" "http://www.w3.org/Graphics/SVG/1.1/DTD/svg11.dtd">
<svg version="1.1" id="Layer_1" xmlns="http://www.w3.org/2000/svg" xmlns:xlink="http://www.w3.org/1999/xlink" x="0px" y="0px"
	 width="30px" height="30px" viewBox="35 35 30 30" enable-background="new 35 35 30 30" xml:space="preserve">
<path d="M64.517,55.248l-2.335-1.379l-1.268,0.75l2.006,1.185L50,63.439l-12.92-7.636l2.006-1.185l-1.268-0.75l-2.334,1.379
	c-0.197,0.117-0.317,0.328-0.317,0.556s0.12,0.44,0.317,0.557l14.188,8.383c0.101,0.061,0.215,0.09,0.328,0.09
	c0.113,0,0.227-0.029,0.328-0.09l14.189-8.383c0.196-0.116,0.316-0.329,0.316-0.557S64.713,55.365,64.517,55.248z M64.517,49.445
	l-2.335-1.379l-1.268,0.749L62.92,50L50,57.636L37.08,50l2.006-1.186l-1.268-0.749l-2.334,1.379
	c-0.197,0.117-0.317,0.327-0.317,0.555s0.12,0.438,0.317,0.557l14.188,8.383c0.101,0.061,0.215,0.09,0.328,0.09
	c0.113,0,0.227-0.029,0.328-0.09l14.189-8.383c0.196-0.117,0.316-0.329,0.316-0.557S64.713,49.562,64.517,49.445z M35.484,44.752
	l14.188,8.383c0.101,0.061,0.215,0.09,0.328,0.09c0.113,0,0.227-0.029,0.328-0.09l14.189-8.383c0.196-0.117,0.316-0.328,0.316-0.556
	c0-0.228-0.12-0.438-0.316-0.555l-14.189-8.384c-0.202-0.119-0.454-0.119-0.656,0l-14.188,8.384
	c-0.197,0.117-0.317,0.328-0.317,0.555C35.167,44.424,35.287,44.635,35.484,44.752z M50,36.561l12.92,7.635L50,51.831l-12.92-7.635
	L50,36.561z"/>
</svg>
