<?xml version="1.0" encoding="utf-8"?>
<!-- Generator: Adobe Illustrator 16.0.0, SVG Export Plug-In . SVG Version: 6.00 Build 0)  -->
<!DOCTYPE svg PUBLIC "-//W3C//DTD SVG 1.1//EN" "http://www.w3.org/Graphics/SVG/1.1/DTD/svg11.dtd">
<svg version="1.1" id="Layer_1" xmlns="http://www.w3.org/2000/svg" xmlns:xlink="http://www.w3.org/1999/xlink" x="0px" y="0px"
	 width="30px" height="30px" viewBox="0 0 30 30" enable-background="new 0 0 30 30" xml:space="preserve">
<g id="molecule">
	<g>
		<path d="M7.585,19.83c-2.477,0-4.663-1.758-5.195-4.182c-0.633-2.867,1.187-5.715,4.055-6.347
			c0.379-0.083,0.765-0.126,1.149-0.126c2.478,0,4.664,1.759,5.197,4.181c0.633,2.867-1.188,5.714-4.055,6.347
			C8.355,19.787,7.97,19.83,7.585,19.83z M7.593,10.39c-0.298,0-0.596,0.033-0.889,0.097c-2.213,0.488-3.617,2.686-3.13,4.9
			c0.475,2.161,2.717,3.604,4.899,3.13c2.213-0.486,3.618-2.687,3.131-4.899C11.193,11.749,9.506,10.39,7.593,10.39z"/>
	</g>
	<g>
		<path d="M19.138,15.138c-1.48,0-2.785-1.049-3.103-2.495c-0.183-0.83-0.031-1.68,0.426-2.396c0.458-0.715,1.165-1.21,1.995-1.392
			c1.672-0.368,3.418,0.749,3.787,2.42c0.377,1.712-0.709,3.412-2.421,3.788C19.597,15.112,19.367,15.138,19.138,15.138z
			 M19.143,9.993c-0.142,0-0.285,0.016-0.426,0.046c-1.058,0.233-1.73,1.284-1.496,2.341c0.228,1.033,1.295,1.726,2.341,1.497
			c1.058-0.233,1.73-1.284,1.496-2.341C20.86,10.643,20.055,9.993,19.143,9.993z"/>
	</g>
	<g>
		<path d="M26.687,20.939c-1.479,0-2.782-1.049-3.102-2.494c-0.374-1.713,0.712-3.413,2.422-3.789
			c1.672-0.371,3.418,0.75,3.786,2.421c0.182,0.828,0.031,1.68-0.425,2.393c-0.457,0.717-1.166,1.211-1.996,1.393
			C27.148,20.914,26.917,20.939,26.687,20.939z M26.693,15.796c-0.142,0-0.284,0.016-0.426,0.045
			c-1.057,0.234-1.729,1.286-1.497,2.345c0.229,1.029,1.3,1.723,2.344,1.492c0.512-0.113,0.949-0.418,1.232-0.861
			c0.282-0.439,0.375-0.965,0.263-1.479C28.411,16.443,27.604,15.796,26.693,15.796z"/>
	</g>
	<g>
		<path d="M23.934,7.289c-1.477,0-2.781-1.048-3.099-2.495c-0.183-0.829-0.033-1.679,0.424-2.396
			c0.459-0.716,1.167-1.21,1.997-1.393c1.674-0.372,3.417,0.75,3.784,2.421c0.183,0.827,0.031,1.679-0.424,2.394
			c-0.458,0.716-1.165,1.21-1.996,1.393C24.396,7.264,24.165,7.289,23.934,7.289z M23.941,2.146c-0.142,0-0.284,0.016-0.425,0.047
			c-0.514,0.112-0.951,0.419-1.234,0.861c-0.283,0.441-0.376,0.967-0.265,1.479c0.229,1.034,1.307,1.728,2.342,1.496
			c0.513-0.113,0.95-0.419,1.232-0.859c0.283-0.441,0.376-0.968,0.263-1.48C25.658,2.795,24.855,2.146,23.941,2.146z"/>
	</g>
	<g>
		<path d="M3.308,29.064c-1.479,0-2.783-1.049-3.101-2.494c-0.182-0.828-0.031-1.68,0.425-2.396s1.166-1.209,1.995-1.393
			c1.681-0.371,3.419,0.75,3.788,2.422c0.376,1.709-0.709,3.41-2.42,3.787C3.768,29.039,3.537,29.064,3.308,29.064z M3.312,23.922
			c-0.142,0-0.285,0.016-0.425,0.045c-0.512,0.111-0.951,0.418-1.233,0.861s-0.376,0.967-0.262,1.482
			c0.229,1.031,1.307,1.725,2.34,1.494c1.058-0.232,1.729-1.283,1.497-2.34C5.03,24.57,4.226,23.922,3.312,23.922z"/>
	</g>
	<g>
		<path d="M13.862,13.729c-0.278,0-0.529-0.192-0.591-0.475c-0.074-0.328,0.132-0.652,0.46-0.725l0.986-0.221
			c0.329-0.074,0.652,0.132,0.726,0.46c0.073,0.328-0.133,0.652-0.46,0.725l-0.988,0.221C13.949,13.724,13.906,13.729,13.862,13.729
			z"/>
	</g>
	<g>
		<path d="M21.323,9.012c-0.108,0-0.219-0.028-0.318-0.088c-0.284-0.175-0.374-0.548-0.201-0.834l0.478-0.782
			c0.175-0.288,0.547-0.377,0.836-0.203c0.285,0.175,0.376,0.547,0.202,0.834l-0.479,0.782C21.728,8.909,21.527,9.012,21.323,9.012z
			"/>
	</g>
	<g>
		<path d="M23.284,15.672c-0.127,0-0.256-0.04-0.365-0.122l-0.592-0.441c-0.269-0.203-0.323-0.583-0.122-0.851
			c0.202-0.27,0.582-0.323,0.849-0.123l0.594,0.442c0.268,0.202,0.322,0.583,0.123,0.851C23.65,15.587,23.469,15.672,23.284,15.672z
			"/>
	</g>
	<g>
		<path d="M4.764,22.621c-0.072,0-0.143-0.012-0.213-0.039c-0.315-0.117-0.472-0.467-0.354-0.781l0.579-1.541
			c0.119-0.314,0.471-0.477,0.782-0.355c0.314,0.117,0.472,0.469,0.354,0.781l-0.579,1.543C5.242,22.471,5.011,22.621,4.764,22.621z
			"/>
	</g>
</g>
<g id="Warstwa_1">
</g>
</svg>
