<?xml version="1.0" encoding="utf-8"?>
<!-- Generator: Adobe Illustrator 16.0.0, SVG Export Plug-In . SVG Version: 6.00 Build 0)  -->
<!DOCTYPE svg PUBLIC "-//W3C//DTD SVG 1.1//EN" "http://www.w3.org/Graphics/SVG/1.1/DTD/svg11.dtd">
<svg version="1.1" id="Layer_1" xmlns="http://www.w3.org/2000/svg" xmlns:xlink="http://www.w3.org/1999/xlink" x="0px" y="0px"
	 width="30px" height="30px" viewBox="17 17 30 30" enable-background="new 17 17 30 30" xml:space="preserve">
<g id="Ebene_2">
</g>
<g id="Ebene_1">
	<g>
		<path d="M40.787,27.606h-5.81l3.129-9.388c0.132-0.396-0.032-0.83-0.393-1.039c-0.361-0.207-0.819-0.135-1.097,0.177
			l-14.06,15.816c-0.229,0.259-0.286,0.628-0.145,0.943c0.141,0.317,0.455,0.52,0.801,0.52h5.864l-3.195,11.184
			c-0.115,0.401,0.071,0.829,0.442,1.021c0.128,0.065,0.267,0.098,0.403,0.098c0.26,0,0.515-0.116,0.687-0.33l14.06-17.574
			c0.211-0.263,0.251-0.625,0.104-0.93C41.433,27.8,41.125,27.606,40.787,27.606z M28.774,42.094l2.312-8.096
			c0.076-0.265,0.023-0.55-0.143-0.771c-0.166-0.22-0.425-0.349-0.701-0.349H25.17l9.916-11.154l-2.161,6.483
			c-0.09,0.268-0.045,0.562,0.12,0.792s0.431,0.365,0.713,0.365h5.201L28.774,42.094z"/>
	</g>
</g>
</svg>
