<svg width="78" height="78" viewBox="0 0 78 78" xmlns="http://www.w3.org/2000/svg"><title>Oval 19 Copy + mail</title><g fill="none" fill-rule="evenodd"><circle fill="#506079" cx="39" cy="39" r="39"/><path d="M53.728 47.118l-1.243 1.244-9.216-7.9-4.038 3.461-4.039-3.461-9.215 7.9-1.243-1.244 9.112-7.81-9.112-7.811 1.243-1.243L39.23 41.615l13.254-11.361 1.243 1.243-9.113 7.81 9.113 7.811zM23.083 27A3.077 3.077 0 0 0 20 30.068v18.48a3.069 3.069 0 0 0 3.083 3.067H55.38a3.077 3.077 0 0 0 3.083-3.067v-18.48A3.069 3.069 0 0 0 55.38 27H23.083z" fill="#FFF"/></g></svg>