<?xml version="1.0" encoding="utf-8"?>
<!-- Generator: Adobe Illustrator 23.0.3, SVG Export Plug-In . SVG Version: 6.00 Build 0)  -->
<svg version="1.1" id="Layer_1" xmlns="http://www.w3.org/2000/svg" xmlns:xlink="http://www.w3.org/1999/xlink" x="0px" y="0px"
	 viewBox="0 0 154.14 138.32" style="enable-background:new 0 0 154.14 138.32;" xml:space="preserve">
<style type="text/css">
	.st0{fill:#FFA700;}
	.st1{fill:#FFFFFF;}
	.st2{fill:#631AB3;}
</style>
<g>
	<path class="st0" d="M69.16,138.32C31.08,138.32,0,107.36,0,69.16C0,31.08,30.96,0,69.16,0c38.08,0,69.16,30.96,69.16,69.16
		C138.32,107.36,107.24,138.32,69.16,138.32z M69.16,3.75c-36.08,0-65.42,29.34-65.42,65.54c0,36.08,29.34,65.54,65.54,65.54
		c36.08,0,65.54-29.34,65.54-65.54C134.7,33.08,105.24,3.75,69.16,3.75z"/>
	<g>
		<polygon class="st1" points="86.48,39.93 152.64,39.93 138.91,87.37 70.25,87.37 		"/>
		<path class="st2" d="M138.91,88.87H70.25c-0.48,0-0.94-0.23-1.22-0.63c-0.28-0.39-0.36-0.9-0.2-1.36l16.23-47.44
			c0.21-0.61,0.78-1.01,1.42-1.01h66.17c0.47,0,0.92,0.22,1.2,0.6s0.37,0.87,0.24,1.32l-13.73,47.44
			C140.16,88.43,139.58,88.87,138.91,88.87z M72.34,85.87h65.44l12.86-44.44h-63.1L72.34,85.87z"/>
	</g>
	<g>
		<g>
			<path class="st2" d="M93.6,63.61v-2.64l8.94-5.7v3.51l-5.75,3.46v0.09l5.75,3.46v3.51L93.6,63.61z"/>
			<path class="st2" d="M113.67,53.67h3.24l-7.52,19.83h-3.24L113.67,53.67z"/>
			<path class="st2" d="M120.51,65.8l5.74-3.46v-0.09l-5.74-3.46v-3.51l8.94,5.7v2.64l-8.94,5.7V65.8z"/>
		</g>
	</g>
	<g>
		<polygon class="st1" points="138.91,87.37 112.07,107.97 43.41,107.97 70.25,87.37 		"/>
		<path class="st2" d="M112.07,109.47H43.41c-0.64,0-1.21-0.41-1.42-1.02s0-1.28,0.51-1.67l26.84-20.6c0.26-0.2,0.58-0.31,0.91-0.31
			h68.66c0.64,0,1.21,0.41,1.42,1.02c0.21,0.61,0,1.28-0.51,1.67l-26.84,20.6C112.72,109.36,112.4,109.47,112.07,109.47z
			 M47.82,106.47h63.73l22.93-17.6H70.76L47.82,106.47z"/>
	</g>
	<g>
		<path class="st1" d="M35.77,10.6c0,0,47.29,9.8,32.9,46.33L84.6,79.65c0,0-14.39,0.89-14.39,16.93c0,0,5.14,22.28-26.73,14.26
			l-2.06,19.6"/>
		<path class="st0" d="M41.42,131.94c-0.05,0-0.11,0-0.16-0.01c-0.82-0.09-1.42-0.83-1.34-1.65l2.06-19.6
			c0.05-0.43,0.28-0.82,0.63-1.07c0.36-0.25,0.8-0.33,1.23-0.23c10.72,2.7,18.41,2.14,22.23-1.6c4.17-4.09,2.69-10.79,2.67-10.86
			c-0.03-0.11-0.04-0.22-0.04-0.34c0-11.88,7.66-16.71,13.28-18.04L67.44,57.79c-0.29-0.41-0.35-0.94-0.17-1.41
			c3.57-9.06,3.48-17.17-0.27-24.11c-8.2-15.19-31.31-20.15-31.54-20.2c-0.81-0.17-1.33-0.96-1.16-1.77
			c0.17-0.81,0.96-1.33,1.77-1.16c0.25,0.05,6.23,1.31,13.35,4.58C58.96,18.08,65.95,24,69.64,30.83
			c4.09,7.56,4.32,16.27,0.71,25.89l15.48,22.07c0.31,0.44,0.36,1.02,0.12,1.51s-0.72,0.81-1.26,0.85
			c-0.52,0.04-12.9,1.04-12.99,15.28c0.26,1.28,1.45,8.61-3.53,13.49c-4.45,4.37-12.31,5.3-23.39,2.78l-1.88,17.9
			C42.83,131.37,42.18,131.94,41.42,131.94z"/>
	</g>
	<ellipse class="st0" cx="55.64" cy="56.62" rx="5.68" ry="2.84"/>
</g>
</svg>
