<?xml version="1.0" encoding="utf-8"?>
<!-- Generator: Adobe Illustrator 23.0.3, SVG Export Plug-In . SVG Version: 6.00 Build 0)  -->
<svg version="1.1" id="Layer_1" xmlns="http://www.w3.org/2000/svg" xmlns:xlink="http://www.w3.org/1999/xlink" x="0px" y="0px"
	 viewBox="0 0 154.14 138.32" style="enable-background:new 0 0 154.14 138.32;" xml:space="preserve">
<style type="text/css">
	.st0{fill:#FFA700;}
	.st1{fill:#FFFFFF;}
	.st2{fill:#631AB3;}
</style>
<g>
	<path class="st0" d="M76.39,138.31c-38.08,0-69.16-30.96-69.16-69.16c0-38.08,30.96-69.16,69.16-69.16
		c38.08,0,69.16,30.96,69.16,69.16C145.55,107.35,114.47,138.31,76.39,138.31z M76.39,3.74c-36.08,0-65.42,29.34-65.42,65.54
		c0,36.08,29.34,65.54,65.54,65.54c36.08,0,65.54-29.34,65.54-65.54C141.93,33.07,112.47,3.74,76.39,3.74z"/>
	<g>
		<polygon class="st1" points="62.33,18.92 148.87,18.92 130.91,80.97 41.11,80.97 		"/>
		<path class="st2" d="M130.91,82.47h-89.8c-0.48,0-0.94-0.23-1.22-0.63c-0.28-0.39-0.36-0.9-0.2-1.36l21.23-62.05
			c0.21-0.61,0.78-1.01,1.42-1.01h86.54c0.47,0,0.92,0.22,1.2,0.6s0.37,0.87,0.24,1.32l-17.96,62.05
			C132.17,82.03,131.58,82.47,130.91,82.47z M43.2,79.47h86.58l17.09-59.05H63.4L43.2,79.47z"/>
	</g>
	<g>
		<path class="st2" d="M71.65,49.9v-3.46l11.69-7.45v4.59l-7.51,4.53v0.12l7.51,4.53v4.59L71.65,49.9z"/>
		<path class="st2" d="M97.89,36.9h4.23l-9.84,25.94h-4.23L97.89,36.9z"/>
		<path class="st2" d="M106.84,52.76l7.51-4.53v-0.12l-7.51-4.53v-4.59l11.69,7.45v3.46l-11.69,7.45V52.76z"/>
	</g>
	<g>
		<polygon class="st1" points="130.91,80.97 95.8,107.91 6,107.91 41.11,80.97 		"/>
		<path class="st2" d="M95.8,109.41H6c-0.64,0-1.21-0.41-1.42-1.02s0-1.28,0.51-1.67l35.11-26.94c0.26-0.2,0.58-0.31,0.91-0.31h89.8
			c0.64,0,1.21,0.41,1.42,1.02c0.21,0.61,0,1.28-0.51,1.67L96.72,109.1C96.46,109.3,96.13,109.41,95.8,109.41z M10.42,106.41H95.3
			l31.2-23.94H41.61L10.42,106.41z"/>
	</g>
</g>
</svg>
