<?xml version="1.0" encoding="utf-8"?>
<!-- Generator: Adobe Illustrator 16.0.0, SVG Export Plug-In . SVG Version: 6.00 Build 0)  -->
<!DOCTYPE svg PUBLIC "-//W3C//DTD SVG 1.1//EN" "http://www.w3.org/Graphics/SVG/1.1/DTD/svg11.dtd">
<svg version="1.1" id="Layer_1" xmlns="http://www.w3.org/2000/svg" xmlns:xlink="http://www.w3.org/1999/xlink" x="0px" y="0px"
	 width="30px" height="30px" viewBox="497 497 30 30" enable-background="new 497 497 30 30" xml:space="preserve">
<path d="M512,497.515c-8.201,0-14.851,6.649-14.851,14.851c0,6.562,4.255,12.128,10.156,14.091c0.742,0.137,1.013-0.322,1.013-0.714
	c0-0.354-0.013-1.525-0.021-2.765c-4.129,0.897-5.002-1.752-5.002-1.752c-0.676-1.714-1.649-2.171-1.649-2.171
	c-1.35-0.921,0.103-0.903,0.103-0.903c1.491,0.104,2.276,1.53,2.276,1.53c1.325,2.27,3.477,1.613,4.322,1.232
	c0.135-0.957,0.52-1.613,0.943-1.983c-3.297-0.375-6.765-1.649-6.765-7.339c0-1.623,0.579-2.946,1.527-3.986
	c-0.151-0.377-0.663-1.888,0.146-3.932c0,0,1.246-0.399,4.084,1.522c1.184-0.331,2.454-0.494,3.716-0.499
	c1.262,0.005,2.532,0.17,3.718,0.501c2.834-1.923,4.081-1.523,4.081-1.523c0.812,2.046,0.301,3.555,0.148,3.93
	c0.952,1.04,1.526,2.363,1.526,3.986c0,5.705-3.474,6.96-6.781,7.329c0.534,0.461,1.008,1.363,1.008,2.748
	c0,1.985-0.021,3.587-0.021,4.076c0,0.395,0.271,0.857,1.022,0.712c5.897-1.967,10.148-7.532,10.148-14.091
	C526.851,504.165,520.201,497.515,512,497.515z"/>
</svg>
