<svg width="20" height="20" viewBox="0 0 20 20" xmlns="http://www.w3.org/2000/svg"><title>github</title><path d="M10 .247c-5.522 0-10 4.477-10 10 0 4.418 2.866 8.167 6.839 9.489.5.092.683-.217.683-.482 0-.238-.009-1.026-.013-1.862-2.783.605-3.37-1.18-3.37-1.18-.455-1.155-1.11-1.463-1.11-1.463-.907-.62.07-.608.07-.608 1.003.07 1.532 1.03 1.532 1.03.891 1.53 2.339 1.088 2.91.832.089-.646.348-1.087.635-1.337-2.222-.253-4.557-1.111-4.557-4.942A3.87 3.87 0 0 1 4.65 7.039c-.104-.252-.446-1.268.097-2.646 0 0 .84-.269 2.75 1.025a9.595 9.595 0 0 1 2.504-.337 9.609 9.609 0 0 1 2.505.337c1.908-1.294 2.746-1.025 2.746-1.025.545 1.378.202 2.394.099 2.646.64.7 1.029 1.593 1.029 2.685 0 3.84-2.34 4.686-4.566 4.934.358.31.678.919.678 1.852 0 1.338-.012 2.415-.012 2.744 0 .267.18.578.687.48A10.001 10.001 0 0 0 20 10.247c0-5.523-4.477-10-10-10z" fill="#58729E" fill-rule="evenodd"/></svg>