<svg xmlns="http://www.w3.org/2000/svg" width="30" height="30" viewBox="497 497 30 30"><path d="M512 497.515c-8.201 0-14.851 6.649-14.851 14.851 0 6.562 4.255 12.128 10.156 14.091.742.137 1.013-.322 1.013-.714 0-.354-.013-1.525-.021-2.765-4.129.897-5.002-1.752-5.002-1.752-.676-1.714-1.649-2.171-1.649-2.171-1.35-.921.103-.903.103-.903 1.491.104 2.276 1.53 2.276 1.53 1.325 2.27 3.477 1.613 4.322 1.232.135-.957.52-1.613.943-1.983-3.297-.375-6.765-1.649-6.765-7.339 0-1.623.579-2.946 1.527-3.986-.151-.377-.663-1.888.146-3.932 0 0 1.246-.399 4.084 1.522a14.113 14.113 0 0 1 3.716-.499 14.14 14.14 0 0 1 3.718.501c2.834-1.923 4.081-1.523 4.081-1.523.812 2.046.301 3.555.148 3.93.952 1.04 1.526 2.363 1.526 3.986 0 5.705-3.474 6.96-6.781 7.329.534.461 1.008 1.363 1.008 2.748 0 1.985-.021 3.587-.021 4.076 0 .395.271.857 1.022.712 5.897-1.967 10.148-7.532 10.148-14.091.004-8.2-6.646-14.85-14.847-14.85z"/></svg>