<svg height="100" viewBox="0 0 100 100" width="100" xmlns="http://www.w3.org/2000/svg" xmlns:xlink="http://www.w3.org/1999/xlink"><mask id="a" fill="#fff"><path d="m0 .26830357h99.8197297v98.83883933h-99.8197297z" fill="#fff" fill-rule="evenodd"/></mask><g fill="none" fill-rule="evenodd"><path d="m49.9098198 2.85758929c-26.1261261 0-47.29729728 21.07142861-47.29729728 46.87500001 0 25.8026786 21.17117118 46.875 47.29729728 46.875s47.2972973-20.9821429 47.2972973-46.875c0-25.8928572-21.2612612-46.87500001-47.2972973-46.87500001m0 96.25000001c-27.5675675 0-49.90990989-22.1428572-49.90990989-49.375 0-27.2321429 22.34234239-49.46428573 49.90990989-49.46428573 27.5675676 0 49.9099099 22.14196433 49.9099099 49.46428573 0 27.3214286-22.4324324 49.375-49.9099099 49.375" fill="#ffa700" mask="url(#a)" transform="translate(0 .625)"/><g fill="#631ab3"><path d="m31.9226126 63.3711607c-.3963964 0-.7972973-.1214286-1.1405405-.3741071l-14.4783784-10.6508929c-.4846847-.35625-.7720721-.9196428-.7738739-1.51875-.0018018-.5991071.281982-1.1633928.7648649-1.5232143l14.4792793-10.7776785c.845045-.6285715 2.0468468-.4607143 2.681081.3785714.6360361.8375.4648649 2.0276786-.381081 2.6571428l-12.427928 9.2517858 12.4198199 9.1348214c.8486486.6241071 1.0261261 1.8133928.3954955 2.65625-.3747748.5008928-.9531532.7660714-1.5387388.7660714"/><path d="m67.8971171 63.4347321c-.581982 0-1.1567567-.2616071-1.5324324-.7589285-.6360361-.8375-.4648649-2.0276786.3810811-2.6571429l12.4279279-9.2517857-12.4198198-9.1348214c-.8486487-.6241072-1.0261262-1.8133929-.3954955-2.65625.6288288-.8410715 1.8297297-1.01875 2.6792793-.3919643l14.4783783 10.6508928c.4846847.35625.7720721.9196429.7738739 1.51875.0018018.5991072-.281982 1.1633929-.7648649 1.5232143l-14.4792792 10.7776786c-.3441442.25625-.7486487.3803571-1.1486487.3803571"/><path d="m44.9548649 66.0505357c-.2126126 0-.4288289-.0357143-.6405406-.1098214-.9963964-.3508929-1.518018-1.4357143-1.1639639-2.4241072l9.9099099-27.6785714c.3531531-.9875 1.4468468-1.5035714 2.445045-1.1544643.9963964.3508929 1.518018 1.4366072 1.163964 2.4241072l-9.9099099 27.6785714c-.2783784.7776786-1.0162162 1.2642857-1.8045045 1.2642857"/></g></g></svg>