<svg height="100" viewBox="0 0 100 100" width="100" xmlns="http://www.w3.org/2000/svg" xmlns:xlink="http://www.w3.org/1999/xlink"><mask id="a" fill="#fff"><path d="m0 .26803571h99.8197297v98.83910719h-99.8197297z" fill="#fff" fill-rule="evenodd"/></mask><g fill="none" fill-rule="evenodd"><path d="m49.9098198 2.85732143c-26.1261261 0-47.29729728 21.07142857-47.29729728 46.87499997 0 25.8026786 21.17117118 46.875 47.29729728 46.875s47.2972973-20.9821428 47.2972973-46.875c0-25.8928571-21.2612612-46.87499997-47.2972973-46.87499997m0 96.24999997c-27.5675675 0-49.90990989-22.1428571-49.90990989-49.375 0-27.2321428 22.34234239-49.46428569 49.90990989-49.46428569 27.5675676 0 49.9099099 22.14196429 49.9099099 49.46428569 0 27.3214286-22.4324324 49.375-49.9099099 49.375" fill="#ffa700" mask="url(#a)" transform="translate(0 .625)"/><g fill="#8719cb"><path d="m75.3782883 50.9650893c0-.1625-.027027-.3169643-.0657658-.4678572-.2756757-13.66875-11.572072-24.7053571-25.4288288-24.7053571-14.0288288 0-25.4423423 11.3116071-25.4423423 25.2142857 0 6.5053572 2.4990991 12.6839286 7.036036 17.3973214.7288288.7580358 1.9414414.7866072 2.7072072.0633929.7657658-.7241071.7936937-1.9258929.063964-2.6839286-3.418919-3.5517857-5.4666667-8.0839285-5.8873874-12.9196428h3.3954955c1.0576576 0 1.9153153-.85 1.9153153-1.8982143s-.8576577-1.8982143-1.9153153-1.8982143h-3.3918919c.3963964-4.3571429 2.1135135-8.3419643 4.7522522-11.5553571l2.9189189 2.8910714c.3738739.3714286.863964.55625 1.3540541.55625s.9801802-.1857143 1.3540541-.55625c.7486486-.7410714.7486486-1.9428572 0-2.6839286l-2.954955-2.9285714c3.3459459-2.8598214 7.5792793-4.7214286 12.2324324-5.1178572v4.3357143c0 1.0482143.8567568 1.8982143 1.9153153 1.8982143 1.0576577 0 1.9153154-.85 1.9153154-1.8982143v-4.3276785c4.6369369.4178571 8.8531531 2.2928571 12.1819819 5.1580357l-2.9054054 2.8803571c-.7477477.7410714-.7477477 1.9428572 0 2.6839286.3738739.3705357.863964.55625 1.3540541.55625s.9801802-.1857143 1.354054-.55625l2.8594595-2.8330357c2.6126126 3.2044643 4.3117117 7.1660714 4.7054054 11.4973214h-3.2855856c-1.0576576 0-1.9153153.85-1.9153153 1.8982143s.8576577 1.8982143 1.9153153 1.8982143h3.2936937c-.4351351 5.0580357-2.6396396 9.75-6.327027 13.3660714-.7522523.7366071-.7585586 1.9392857-.0144144 2.6839286.3747748.375.8684684.5625 1.3612612.5625.4873874 0 .9738739-.1830357 1.3477478-.5491072 4.7666667-4.675 7.4297297-10.8758928 7.5378378-17.5017857.036937-.1473214.0630631-.3.0630631-.4598214"/><path d="m47.3896396 51.7323214 9.7153154-9.1848214c.5414414-.5116071 1.3990991-.4919643 1.9153153.0446429.472072.4901785.4954955 1.2401785.0846847 1.75625l-8.3027027 10.4580357c-.7891892.9955357-2.2432433 1.1669643-3.245946.3839285-1.0036036-.7821428-1.1774775-2.2223214-.3882883-3.2169642.0666667-.0830358.1468469-.1696429.2216216-.2410715"/></g></g></svg>