<svg height="100" viewBox="0 0 100 100" width="100" xmlns="http://www.w3.org/2000/svg" xmlns:xlink="http://www.w3.org/1999/xlink"><mask id="a" fill="#fff"><path d="m0 .268125h99.8198198v98.8390179h-99.8198198z" fill="#fff" fill-rule="evenodd"/></mask><g fill="none" fill-rule="evenodd"><path d="m49.9099099 2.85741071c-26.1261261 0-47.29729729 21.07142859-47.29729729 46.87499999 0 25.8026786 21.17117119 46.875 47.29729729 46.875s47.2972973-20.9821428 47.2972973-46.875c0-25.8928571-21.2612613-46.87499999-47.2972973-46.87499999m0 96.24999999c-27.5675676 0-49.9099099-22.1428571-49.9099099-49.375 0-27.2321428 22.3423423-49.4642857 49.9099099-49.4642857s49.9099099 22.1419643 49.9099099 49.4642857c0 27.3214286-22.4324324 49.375-49.9099099 49.375" fill="#ffa700" mask="url(#a)" transform="translate(0 .625)"/><path d="m35.3195495 47.9116964c-4.5504504.025-8.2441441 3.7017857-8.2441441 8.2169643 0 4.5303572 3.7198198 8.2169643 8.290991 8.2169643h31.0243243c.1099099-.0366071.2243243-.0642857.3432433-.08125 3.427027-.4866071 6.0108108-3.4410714 6.0108108-6.8714286 0-3.4660714-2.6144144-6.425-6.081982-6.8821428-.8774775-.1160715-1.5594595-.8116072-1.6522523-1.6839286-.7576576-7.1526786-6.8117117-12.5473214-14.0801801-12.5473214-6.3270271 0-11.9333334 4.2142857-13.6342343 10.2491071-.2315315.8196429-.9846847 1.3875-1.845045 1.3875-.0333334 0-.0855856-.0017857-.1315316-.0044643m31.6864865 20.2303572h-31.6396396c-6.6837838 0-12.1216216-5.3892857-12.1216216-12.0133929 0-6.1785714 4.7306306-11.2830357 10.790991-11.9419643 2.5675675-6.95625 9.3252252-11.7035714 16.8945946-11.7035714 8.7585585 0 16.127027 6.1660714 17.6873873 14.55625 4.6261262 1.2669643 7.9576577 5.4875 7.9576577 10.3535714 0 5.0883929-3.6756757 9.5-8.6531531 10.5178572-.2711712.1473214-.5837838.23125-.9162163.23125" fill="#fff"/></g></svg>