<svg height="100" viewBox="0 0 100 100" width="100" xmlns="http://www.w3.org/2000/svg" xmlns:xlink="http://www.w3.org/1999/xlink"><mask id="a" fill="#fff"><path d="m.00009009.26839286h99.81972971v98.83875004h-99.81972971z" fill="#fff" fill-rule="evenodd"/></mask><g fill="none" fill-rule="evenodd"><path d="m49.91 2.85678571c-26.1261261 0-47.2972973 21.07232139-47.2972973 46.87499999 0 25.8035714 21.1711712 46.875 47.2972973 46.875s47.2972973-20.9821428 47.2972973-46.875c0-25.8928571-21.2612613-46.87499999-47.2972973-46.87499999m0 96.25089289c-27.5675676 0-49.90990991-22.14375-49.90990991-49.3758929 0-27.2321428 22.34234231-49.46339284 49.90990991-49.46339284s49.9099099 22.14196424 49.9099099 49.46339284c0 27.3223214-22.4324324 49.3758929-49.9099099 49.3758929" fill="#ffa700" mask="url(#a)" transform="translate(0 .625)"/><g fill="#fff"><path d="m49.9090991 32.12125c-4.0891892 0-7.4153153 3.2964286-7.4153153 7.3491071 0 4.0535715 3.3261261 7.3508929 7.4153153 7.3508929s7.4162162-3.2973214 7.4162162-7.3508929c0-4.0526785-3.327027-7.3491071-7.4162162-7.3491071m0 18.4964286c-6.2018018 0-11.2459459-5.0008929-11.2459459-11.1473215 0-6.1455357 5.0441441-11.1455357 11.2459459-11.1455357s11.2468468 5 11.2468468 11.1455357c0 6.1464286-5.045045 11.1473215-11.2468468 11.1473215"/><path d="m37.7759459 68.5033929h24.2594595c1.1261261-.4196429 4.4243243-2.1169643 3.1243243-7.2741072-.5594594-2.2151786-2.6216216-5.0776786-5.9954955-8.3383928-2.4972973 2.3142857-5.7747747 3.6107142-9.2549549 3.6107142-3.4810811 0-6.7567568-1.2964285-9.254955-3.6116071-4.2108108 4.06875-5.5954955 6.75625-5.9945946 8.3392857-1.3189189 5.2303572 2.0945946 6.8991072 3.1162162 7.2741072m24.5747748 3.7964285h-24.8837838c-.1828828 0-.3648648-.0258928-.5396396-.0776785-2.8963964-.84375-7.8738739-4.4205358-5.9837838-11.9142858.8261261-3.275 3.6900901-7.1491071 8.5135135-11.5151785.3927928-.35625.9225225-.5357143 1.4477478-.4910715.5306306.0428572 1.0189189.3026786 1.3477477.7169643 1.8648649 2.3428572 4.6558559 3.6866072 7.6567568 3.6866072 3.0018018 0 5.7918919-1.34375 7.6576576-3.6866072.3288289-.4142857.8171172-.6741071 1.3477478-.7169643.5315315-.0446428 1.0549549.1348215 1.4468468.4910715 4.8225226 4.3651785 7.6873874 8.2392857 8.5144144 11.5151785 1.8891892 7.49375-3.0882882 11.0705358-5.9846846 11.9151786-.1747748.0508929-.3576577.0767857-.5405406.0767857"/><path d="m75.0542342 43.873125h-2.945045v-2.91875c0-1.0473214-.8576577-1.8982143-1.9153153-1.8982143-1.0567568 0-1.9153153.8508929-1.9153153 1.8982143v2.91875h-2.9441442c-1.0576576 0-1.9153153.85-1.9153153 1.8982143s.8576577 1.8982143 1.9153153 1.8982143h2.9441442v2.91875c0 1.0473214.8585585 1.8973214 1.9153153 1.8973214 1.0576576 0 1.9153153-.85 1.9153153-1.8973214v-2.91875h2.945045c1.0576577 0 1.9153153-.85 1.9153153-1.8982143s-.8576576-1.8982143-1.9153153-1.8982143"/></g></g></svg>