<svg height="169" viewBox="0 0 169 169" width="169" xmlns="http://www.w3.org/2000/svg"><g fill="none" fill-rule="evenodd" transform="translate(2 2)"><g stroke="#fff"><path d="m82.5 0c45.563447 0 82.5 36.9365526 82.5 82.5 0 45.563447-36.936553 82.5-82.5 82.5-45.5634474 0-82.5-36.936553-82.5-82.5 0-45.5634474 36.9365526-82.5 82.5-82.5z" stroke-dasharray="5.969 5.969" stroke-opacity=".2" stroke-width="4"/><path d="m60.7894737 137.644737c0 4.556605-3.6933948 8.25-8.25 8.25-4.5566053 0-8.25-3.693395-8.25-8.25s3.6933947-8.25 8.25-8.25c4.5566052 0 8.25 3.693395 8.25 8.25z" stroke-width="4.252"/><path d="m85.9736842 76.8552632c0 4.5566052-3.6933947 8.25-8.25 8.25s-8.25-3.6933948-8.25-8.25c0-4.5566053 3.6933947-8.25 8.25-8.25s8.25 3.6933947 8.25 8.25z" stroke-width="4.252"/><path d="m74.6842105 39.5131579c0 4.5566053-3.6933947 8.25-8.25 8.25-4.5566052 0-8.25-3.6933947-8.25-8.25s3.6933948-8.25 8.25-8.25c4.5566053 0 8.25 3.6933947 8.25 8.25z" stroke-width="4.252"/><path d="m52.9736842 129.394737v-74.6842107l8.503579-8.5035789" stroke-width="4.252"/><path d="m69.4736842 76.4210526h-7.8157895v18.2368421h-8.6842105" stroke-width="4.252"/></g><path d="m64.3742289 144.062889c5.7498158 1.690816 11.8287632 2.613079 18.1256843 2.613079 35.4437368 0 64.1763158-28.732579 64.1763158-64.1763154 0-35.4437368-28.732579-64.1763158-64.1763158-64.1763158-35.4428685 0-64.1763158 28.732579-64.1763158 64.1763158 0 19.4830264 8.6937631 36.9252634 22.400921 48.6958424" stroke="#ffa700" stroke-linecap="round" stroke-width="4"/><path d="m77.7236842 18.4992789s32.5657898 9.2903685 38.6447368 25.7903685 0 24.3157894 0 24.3157894l15.631579 21.7105264s-8.25 3.9078947-12.157895 7.8157894c-3.907894 3.9078944 0 13.0263154-1.736842 16.5000004-1.736842 3.473684-6.078947 14.763158-27.7894735 7.815789l-2.1997106 23.981447" stroke="#ffa700" stroke-linecap="round" stroke-linejoin="round" stroke-width="4"/><path d="m98.1315789 66.8684211h8.6842101" stroke="#ffa700" stroke-linecap="round" stroke-width="4"/></g></svg>