<svg height="169" viewBox="0 0 169 169" width="169" xmlns="http://www.w3.org/2000/svg"><g fill="none" fill-rule="evenodd" transform="translate(2 2)"><path d="m82.5 0c45.563447 0 82.5 36.9365526 82.5 82.5 0 45.563447-36.936553 82.5-82.5 82.5-45.5634474 0-82.5-36.936553-82.5-82.5 0-45.5634474 36.9365526-82.5 82.5-82.5z" stroke="#fff" stroke-dasharray="5.969 5.969" stroke-opacity=".2" stroke-width="4"/><g stroke-linecap="round"><path d="m119.186827 29.9314701c-4.86423-3.4709753-10.289517-6.325504-16.220449-8.3826348-33.3881146-11.57742135-69.8395337 6.1029945-81.4174048 39.488946-11.5778712 33.3859515 6.1032316 69.8359547 39.4904804 81.4133757 33.3872487 11.577421 69.8386674-6.102995 81.4165394-39.48808 2.506576-7.2285294 3.639081-14.5990489 3.537779-21.8284438" stroke="#ffa700" stroke-width="4"/><path d="m131 28-21 44h21 21z" stroke="#fff" stroke-linejoin="round" stroke-width="4.252"/><path d="m131.5 46v10" stroke="#fff" stroke-linejoin="round" stroke-width="4.252"/><path d="m131.5 63v2" stroke="#fff" stroke-linejoin="round" stroke-width="4.252"/><path d="m83 28v55.0253165l25 13.9746835" stroke="#ffa700" stroke-linejoin="round" stroke-width="4"/><path d="m31 82.5h23" stroke="#ffa700" stroke-linejoin="round" stroke-width="4"/><path d="m82.5 137v-23" stroke="#ffa700" stroke-linejoin="round" stroke-width="4"/></g></g></svg>