<svg height="169" viewBox="0 0 169 169" width="169" xmlns="http://www.w3.org/2000/svg"><g fill="none" fill-rule="evenodd" transform="translate(2 2)"><path d="m82.5 0c45.563447 0 82.5 36.9365526 82.5 82.5 0 45.563447-36.936553 82.5-82.5 82.5-45.5634474 0-82.5-36.936553-82.5-82.5 0-45.5634474 36.9365526-82.5 82.5-82.5z" stroke="#fff" stroke-dasharray="5.969 5.969" stroke-opacity=".2" stroke-width="4"/><path d="m115.5 116.368421c0 8.632974-6.998605 15.631579-15.6315789 15.631579-8.6329737 0-15.631579-6.998605-15.631579-15.631579s6.9986053-15.631579 15.631579-15.631579c8.6329739 0 15.6315789 6.998605 15.6315789 15.631579z" stroke="#fff" stroke-width="4.252"/><g stroke-linecap="round"><path d="m123.616003 131.775253c4.600894-3.841895 8.745-8.382869 12.243868-13.619448 19.691447-29.4689997 11.765368-69.3234471-17.703632-89.0157629-29.4698679-19.69144736-69.3234469-11.7653684-89.0157627 17.7036316-19.69231577 29.4698684-11.7662368 69.3234473 17.7036316 89.0157633 16.1995263 10.824868 35.5323158 13.286842 52.9328684 8.429763" stroke="#ffa700" stroke-width="4"/><path d="m106.815789 130.263158 8.684211 14.763158" stroke="#fff" stroke-linejoin="round" stroke-width="4.252"/><path d="m18.3165632 82.5h37.2622105l6.0789474 9.5526316 9.5526315-37.3421053 9.5526316 37.3421053 9.5526316-17.3684211 6.0789474 9.5526316h50.2850528" stroke="#ffa700" stroke-linejoin="round" stroke-width="4"/></g></g></svg>