<svg height="169" viewBox="0 0 169 169" width="169" xmlns="http://www.w3.org/2000/svg"><g fill="none" fill-rule="evenodd" transform="translate(2 2)"><path d="m82.5 0c45.563447 0 82.5 36.9365526 82.5 82.5 0 45.563447-36.936553 82.5-82.5 82.5-45.5634474 0-82.5-36.936553-82.5-82.5 0-45.5634474 36.9365526-82.5 82.5-82.5z" stroke="#fff" stroke-dasharray="5.969 5.969" stroke-opacity=".2" stroke-width="4"/><g stroke-linecap="round"><path d="m130.167284 39.5309605c-4.013842-4.4506579-8.710263-8.4176052-14.076237-11.7141316-30.2010786-18.5520789-69.7229207-9.1088684-88.2741312 21.0922106-18.55207896 30.2010789-9.1088684 69.7229215 21.0922105 88.2741315 30.201079 18.552079 69.7229207 9.108868 88.2741317-21.09221 10.197868-16.6016057 11.919947-36.0142899 6.401131-53.2168426" stroke="#ffa700" stroke-width="4"/><path d="m41.6842105 112.026316v19.105263" stroke="#ffa700" stroke-linejoin="round" stroke-width="4"/><path d="m94.6578947 111.157895v33" stroke="#ffa700" stroke-linejoin="round" stroke-width="4"/><path d="m67.7368421 100.736842v43.421053" stroke="#ffa700" stroke-linejoin="round" stroke-width="4"/><path d="m118.973684 88.5789474v46.0263156" stroke="#ffa700" stroke-linejoin="round" stroke-width="4"/><path d="m35.6052632 101.605263 35.6052631-25.1842104 11.2894737 13.0263158 72.078947-52.1052631" stroke="#fff" stroke-linejoin="round" stroke-width="4.252"/><path d="m146.763158 35.6052632 11.289474-.8684211-3.473685 10.4210526" stroke="#fff" stroke-linejoin="round" stroke-width="4.252"/></g></g></svg>