<svg xmlns="http://www.w3.org/2000/svg" width="30" height="30" viewBox="405.945 282.64 30 30"><path d="M435.019 298.472h-15.007a.832.832 0 0 1 0-1.664h15.007a.832.832 0 0 1 0 1.664z"/><path d="M416.563 303.51h-6.461a.833.833 0 0 1-.7-.383l-3.23-5.037a.83.83 0 0 1 0-.898l3.23-5.037a.833.833 0 0 1 .7-.383h6.461c.283 0 .547.145.7.383l3.23 5.037a.83.83 0 0 1 0 .898l-3.23 5.037a.832.832 0 0 1-.7.383zm-6.007-1.665h5.553l2.697-4.205-2.697-4.206h-5.553l-2.697 4.206 2.697 4.205z"/><path d="M413.333 300.365c-1.493 0-2.708-1.221-2.708-2.724s1.214-2.726 2.708-2.726 2.707 1.222 2.707 2.726-1.214 2.724-2.707 2.724zm0-3.787c-.576 0-1.044.477-1.044 1.062 0 .585.468 1.062 1.044 1.062.576 0 1.044-.477 1.044-1.062 0-.585-.469-1.062-1.044-1.062zM435.019 302.566h-5.459a.831.831 0 0 1 0-1.662h5.459a.83.83 0 1 1 0 1.662z"/></svg>