<svg width="16" height="15" viewBox="0 0 16 15" xmlns="http://www.w3.org/2000/svg"><title>Key</title><path d="M15.286 4.603l-1.482-1.48-1.32-1.321L11.002.32c-.363-.364-1.01-.427-1.437-.143l-4.05 2.7c-.427.285-.59.894-.36 1.353l1.033 2.065c.032.063.068.13.108.2L1.074 11.72.604 15h2.813v-.937h1.875v-1.875h1.875v-1.875h1.875V9.27c.094.055.184.106.267.147l2.065 1.033c.46.23 1.068.068 1.353-.36l2.7-4.05c.285-.427.22-1.074-.143-1.437h.002zM2.812 12.52l-.663-.663 4.565-4.564.662.663-4.564 4.564zM14.04 6.208l-.663.663a.47.47 0 0 1-.663 0L8.736 2.893a.47.47 0 0 1 0-.663l.663-.662a.47.47 0 0 1 .662 0l3.978 3.977a.47.47 0 0 1 0 .663z" fill="#829ECE" fill-rule="evenodd"/></svg>