<?xml version="1.0" encoding="utf-8"?>
<!-- Generator: Adobe Illustrator 16.0.0, SVG Export Plug-In . SVG Version: 6.00 Build 0)  -->
<!DOCTYPE svg PUBLIC "-//W3C//DTD SVG 1.1//EN" "http://www.w3.org/Graphics/SVG/1.1/DTD/svg11.dtd">
<svg version="1.1" id="Layer_1" xmlns="http://www.w3.org/2000/svg" xmlns:xlink="http://www.w3.org/1999/xlink" x="0px" y="0px"
	 width="30px" height="30px" viewBox="405.945 282.64 30 30" enable-background="new 405.945 282.64 30 30" xml:space="preserve">
<g>
	<g>
		<g>
			<path d="M435.019,298.472h-15.007c-0.46,0-0.832-0.373-0.832-0.832c0-0.459,0.372-0.832,0.832-0.832h15.007
				c0.459,0,0.831,0.373,0.831,0.832C435.85,298.1,435.478,298.472,435.019,298.472z"/>
		</g>
	</g>
	<g>
		<g>
			<path d="M416.563,303.51h-6.461c-0.283,0-0.547-0.145-0.7-0.383l-3.23-5.037c-0.176-0.274-0.176-0.625,0-0.898l3.23-5.037
				c0.153-0.238,0.417-0.383,0.7-0.383h6.461c0.283,0,0.547,0.145,0.7,0.383l3.23,5.037c0.176,0.273,0.176,0.624,0,0.898
				l-3.23,5.037C417.111,303.365,416.846,303.51,416.563,303.51z M410.556,301.845h5.553l2.697-4.205l-2.697-4.206h-5.553
				l-2.697,4.206L410.556,301.845z"/>
		</g>
	</g>
	<g>
		<g>
			<path d="M413.333,300.365c-1.493,0-2.708-1.221-2.708-2.724s1.214-2.726,2.708-2.726s2.707,1.222,2.707,2.726
				S414.826,300.365,413.333,300.365z M413.333,296.578c-0.576,0-1.044,0.477-1.044,1.062c0,0.585,0.468,1.062,1.044,1.062
				c0.576,0,1.044-0.477,1.044-1.062C414.377,297.055,413.908,296.578,413.333,296.578z"/>
		</g>
	</g>
	<g>
		<g>
			<path d="M435.019,302.566h-5.459c-0.46,0-0.833-0.373-0.833-0.832s0.373-0.83,0.833-0.83h5.459c0.458,0,0.831,0.371,0.831,0.83
				S435.477,302.566,435.019,302.566z"/>
		</g>
	</g>
</g>
</svg>
