<?xml version="1.0" encoding="utf-8"?>
<!-- Generator: Adobe Illustrator 16.0.0, SVG Export Plug-In . SVG Version: 6.00 Build 0)  -->
<!DOCTYPE svg PUBLIC "-//W3C//DTD SVG 1.1//EN" "http://www.w3.org/Graphics/SVG/1.1/DTD/svg11.dtd">
<svg version="1.1" id="Layer_1" xmlns="http://www.w3.org/2000/svg" xmlns:xlink="http://www.w3.org/1999/xlink" x="0px" y="0px"
	 width="30px" height="30px" viewBox="17 17 30 30" enable-background="new 17 17 30 30" xml:space="preserve">
<g id="Ebene_2">
</g>
<g id="Ebene_1">
	<g>
		<path d="M35.474,25.937c0.32,0,0.579-0.259,0.579-0.579v-6.947c0-0.32-0.259-0.579-0.579-0.579h-6.947
			c-0.32,0-0.579,0.259-0.579,0.579v6.947c0,0.32,0.259,0.579,0.579,0.579h2.076l0.988,0.988c0.113,0.113,0.261,0.169,0.409,0.169
			c0.148,0,0.296-0.057,0.409-0.169l0.988-0.988H35.474z M32.749,24.949L32,25.697l-0.749-0.748c-0.108-0.109-0.255-0.17-0.409-0.17
			h-1.737v-5.79h5.79v5.79h-1.737C33.004,24.779,32.856,24.84,32.749,24.949z"/>
		<path d="M24.32,34.041c0.09,0,0.181-0.021,0.263-0.064c0.137-0.069,0.241-0.19,0.288-0.336l0.641-1.974l1.245-0.635
			c0.285-0.145,0.398-0.494,0.253-0.778l-0.634-1.245l0.642-1.975c0.048-0.146,0.035-0.305-0.035-0.441
			c-0.07-0.137-0.191-0.24-0.337-0.288l-6.607-2.146c-0.304-0.098-0.631,0.068-0.729,0.371l-2.146,6.606
			c-0.048,0.146-0.035,0.305,0.035,0.442c0.069,0.136,0.19,0.24,0.336,0.287l6.607,2.146C24.199,34.031,24.26,34.041,24.32,34.041z
			 M18.443,30.943l1.788-5.505l5.507,1.789l-0.537,1.652c-0.048,0.146-0.035,0.305,0.034,0.441l0.481,0.943l-0.943,0.48
			c-0.137,0.07-0.24,0.19-0.288,0.336l-0.536,1.651L18.443,30.943z"/>
		<path d="M29.388,38.277l-0.219-1.379c-0.05-0.317-0.348-0.533-0.663-0.482l-1.38,0.22l-1.679-1.22
			c-0.258-0.19-0.62-0.132-0.809,0.129l-4.083,5.621c-0.188,0.256-0.131,0.618,0.128,0.807l5.62,4.084
			c0.1,0.072,0.219,0.111,0.34,0.111c0.03,0,0.061-0.004,0.09-0.01c0.152-0.023,0.288-0.107,0.378-0.229l4.084-5.621
			c0.188-0.259,0.131-0.62-0.128-0.809L29.388,38.277z M26.515,44.779l-4.683-3.401l3.402-4.686l1.405,1.021
			c0.124,0.09,0.28,0.129,0.431,0.104l1.046-0.165l0.166,1.046c0.024,0.152,0.107,0.288,0.231,0.378l1.405,1.021L26.515,44.779z"/>
		<path d="M46.838,31.136l-2.147-6.607c-0.098-0.304-0.425-0.47-0.728-0.372l-6.608,2.147c-0.146,0.047-0.268,0.151-0.337,0.288
			c-0.069,0.137-0.083,0.296-0.035,0.442l0.642,1.974l-0.635,1.245c-0.146,0.285-0.032,0.634,0.252,0.778l1.246,0.635l0.641,1.974
			c0.048,0.146,0.152,0.267,0.288,0.336c0.083,0.041,0.172,0.062,0.263,0.062c0.061,0,0.12-0.01,0.179-0.027l6.608-2.147
			c0.146-0.047,0.267-0.151,0.336-0.288C46.872,31.441,46.886,31.282,46.838,31.136z M40.052,32.731l-0.536-1.651
			c-0.048-0.146-0.151-0.267-0.288-0.336l-0.944-0.48l0.48-0.943c0.071-0.137,0.084-0.296,0.036-0.441l-0.538-1.652l5.507-1.789
			l1.79,5.505L40.052,32.731z"/>
		<path d="M39.361,35.545c-0.187-0.261-0.549-0.317-0.808-0.129l-1.68,1.22l-1.38-0.22c-0.316-0.051-0.612,0.167-0.663,0.482
			l-0.218,1.379l-1.681,1.222c-0.258,0.187-0.315,0.548-0.127,0.807l4.084,5.621c0.089,0.124,0.226,0.208,0.377,0.231
			c0.029,0.006,0.061,0.008,0.09,0.008c0.121,0,0.241-0.039,0.341-0.111l5.62-4.082c0.258-0.188,0.316-0.551,0.128-0.809
			L39.361,35.545z M37.484,44.779l-3.402-4.684l1.405-1.021c0.124-0.092,0.207-0.228,0.231-0.38l0.165-1.044l1.046,0.165
			c0.151,0.025,0.307-0.014,0.431-0.104l1.405-1.021l3.402,4.684L37.484,44.779z"/>
	</g>
</g>
</svg>
