<svg xmlns="http://www.w3.org/2000/svg" width="30" height="30" viewBox="17 17 30 30"><path d="M35.474 25.937c.32 0 .579-.259.579-.579v-6.947a.579.579 0 0 0-.579-.579h-6.947a.579.579 0 0 0-.579.579v6.947c0 .32.259.579.579.579h2.076l.988.988a.576.576 0 0 0 .818 0l.988-.988h2.077zm-2.725-.988l-.749.748-.749-.748a.575.575 0 0 0-.409-.17h-1.737v-5.79h5.79v5.79h-1.737a.573.573 0 0 0-.409.17zM24.32 34.041c.09 0 .181-.021.263-.064a.573.573 0 0 0 .288-.336l.641-1.974 1.245-.635a.578.578 0 0 0 .253-.778l-.634-1.245.642-1.975a.582.582 0 0 0-.372-.729l-6.607-2.146a.58.58 0 0 0-.729.371l-2.146 6.606a.576.576 0 0 0 .371.729l6.607 2.146a.54.54 0 0 0 .178.03zm-5.877-3.098l1.788-5.505 5.507 1.789-.537 1.652a.577.577 0 0 0 .034.441l.481.943-.943.48a.58.58 0 0 0-.288.336l-.536 1.651-5.506-1.787zM29.388 38.277l-.219-1.379a.579.579 0 0 0-.663-.482l-1.38.22-1.679-1.22a.576.576 0 0 0-.809.129l-4.083 5.621a.577.577 0 0 0 .128.807l5.62 4.084c.1.072.219.111.34.111.03 0 .061-.004.09-.01a.58.58 0 0 0 .378-.229l4.084-5.621a.58.58 0 0 0-.128-.809l-1.679-1.222zm-2.873 6.502l-4.683-3.401 3.402-4.686 1.405 1.021c.124.09.28.129.431.104l1.046-.165.166 1.046a.578.578 0 0 0 .231.378l1.405 1.021-3.403 4.682zM46.838 31.136l-2.147-6.607a.578.578 0 0 0-.728-.372l-6.608 2.147a.58.58 0 0 0-.372.73l.642 1.974-.635 1.245a.577.577 0 0 0 .252.778l1.246.635.641 1.974a.58.58 0 0 0 .73.371l6.608-2.147a.573.573 0 0 0 .336-.288.575.575 0 0 0 .035-.44zm-6.786 1.595l-.536-1.651a.577.577 0 0 0-.288-.336l-.944-.48.48-.943a.57.57 0 0 0 .036-.441l-.538-1.652 5.507-1.789 1.79 5.505-5.507 1.787zM39.361 35.545a.576.576 0 0 0-.808-.129l-1.68 1.22-1.38-.22a.58.58 0 0 0-.663.482l-.218 1.379-1.681 1.222a.577.577 0 0 0-.127.807l4.084 5.621a.572.572 0 0 0 .467.239.586.586 0 0 0 .341-.111l5.62-4.082a.58.58 0 0 0 .128-.809l-4.083-5.619zm-1.877 9.234l-3.402-4.684 1.405-1.021a.587.587 0 0 0 .231-.38l.165-1.044 1.046.165a.577.577 0 0 0 .431-.104l1.405-1.021 3.402 4.684-4.683 3.405z"/></svg>