<?xml version="1.0" encoding="utf-8"?>
<!-- Generator: Adobe Illustrator 22.1.0, SVG Export Plug-In . SVG Version: 6.00 Build 0)  -->
<svg version="1.1" id="Layer_1" xmlns="http://www.w3.org/2000/svg" xmlns:xlink="http://www.w3.org/1999/xlink" x="0px" y="0px"
	 viewBox="0 0 110.7 110.7" style="enable-background:new 0 0 110.7 110.7;" xml:space="preserve">
<style type="text/css">
	.st0{fill:#FFA700;}
	.st1{fill:#631AB3;}
</style>
<g>
	<path class="st0" d="M56.1,111.3c-30.5,0-55.4-24.8-55.4-55.4S25.6,0.5,56.1,0.5c30.5,0,55.4,24.8,55.4,55.4S86.7,111.3,56.1,111.3
		z M56.1,3.4C27.2,3.4,3.7,27,3.7,55.9c0,28.9,23.5,52.5,52.5,52.5c28.9,0,52.5-23.5,52.5-52.5C108.6,27,85.1,3.4,56.1,3.4z"/>
	<g>
		<path class="st1" d="M40.8,73.8c-1.8,0-3.2-0.4-4-1.3c-0.9-0.8-1.3-2.4-1.3-4.6c0-0.7,0-1.4,0.1-2c0-0.6,0.1-1.1,0.1-1.7
			c0.1-0.5,0.1-1.1,0.1-1.6c0-0.5,0.1-1.1,0.1-1.8c0-0.4-0.1-0.7-0.2-1.1c-0.1-0.4-0.3-0.7-0.6-1c-0.3-0.3-0.6-0.5-1.1-0.7
			c-0.5-0.2-1-0.3-1.7-0.3v-3.6c0.7,0,1.2-0.1,1.7-0.3c0.5-0.2,0.8-0.4,1.1-0.7c0.3-0.3,0.5-0.6,0.6-1c0.1-0.4,0.2-0.7,0.2-1.1
			c0-0.7,0-1.3-0.1-1.8c0-0.5-0.1-1.1-0.1-1.6c-0.1-0.5-0.1-1.1-0.1-1.7c0-0.6-0.1-1.2-0.1-2c0-2.3,0.4-3.8,1.3-4.6
			c0.9-0.8,2.2-1.3,4-1.3h2.6v3.2h-0.8c-0.9,0-1.4,0.2-1.7,0.6c-0.3,0.4-0.5,1.2-0.5,2.3c0,1.1,0,2.2,0.1,3.3
			c0.1,1.1,0.1,2.2,0.1,3.5c0,1.6-0.3,2.7-0.8,3.4c-0.5,0.7-1.3,1.2-2.3,1.4V56c1.1,0.2,1.8,0.7,2.3,1.4c0.5,0.7,0.8,1.9,0.8,3.4
			c0,1.3,0,2.4-0.1,3.5c-0.1,1.1-0.1,2.2-0.1,3.3c0,1.1,0.2,1.9,0.5,2.3c0.3,0.4,0.9,0.6,1.7,0.6h0.8v3.2H40.8z"/>
		<path class="st1" d="M53.2,63.4l-2.5-1.8l2.5-4.3l-4.5-2l1-3l4.8,1l0.5-4.9h3.2l0.5,5l4.8-1l1,3l-4.5,2l2.5,4.3l-2.5,1.8l-3.3-3.7
			L53.2,63.4z"/>
		<path class="st1" d="M68.8,73.8v-3.2h0.8c0.9,0,1.4-0.2,1.7-0.6c0.3-0.4,0.5-1.2,0.5-2.3c0-1.1,0-2.2-0.1-3.3
			c-0.1-1.1-0.1-2.2-0.1-3.5c0-1.6,0.2-2.7,0.7-3.4c0.5-0.7,1.3-1.2,2.3-1.4v-0.2c-1.1-0.3-1.8-0.7-2.3-1.4
			c-0.5-0.7-0.7-1.9-0.7-3.4c0-1.3,0-2.4,0.1-3.5c0.1-1.1,0.1-2.2,0.1-3.3c0-1.1-0.2-1.9-0.5-2.3c-0.3-0.4-0.9-0.6-1.7-0.6h-0.8V38
			h2.6c1.8,0,3.2,0.4,4,1.3c0.9,0.8,1.3,2.4,1.3,4.6c0,0.7,0,1.4-0.1,2c0,0.6-0.1,1.1-0.1,1.7c-0.1,0.5-0.1,1.1-0.1,1.6
			c0,0.5-0.1,1.1-0.1,1.8c0,0.4,0.1,0.7,0.2,1.1c0.1,0.4,0.3,0.7,0.6,1c0.3,0.3,0.6,0.5,1.1,0.7c0.5,0.2,1,0.3,1.7,0.3v3.6
			c-0.7,0-1.2,0.1-1.7,0.3c-0.5,0.2-0.8,0.4-1.1,0.7c-0.3,0.3-0.5,0.6-0.6,1c-0.1,0.4-0.2,0.7-0.2,1.1c0,0.7,0,1.3,0.1,1.8
			c0,0.5,0.1,1.1,0.1,1.6c0.1,0.5,0.1,1.1,0.1,1.7c0,0.6,0.1,1.3,0.1,2c0,2.3-0.4,3.8-1.3,4.6c-0.9,0.8-2.2,1.3-4,1.3H68.8z"/>
	</g>
</g>
</svg>
