<svg xmlns="http://www.w3.org/2000/svg" width="30" height="30" viewBox="405.945 282.64 30 30"><path d="M435.759 299.123l-4.257-8.937c.275-.159.54-.347.781-.564a.827.827 0 0 0 .053-1.168.835.835 0 0 0-1.175-.053 2.727 2.727 0 0 1-2.501.634l-4.476-1.11a3.296 3.296 0 0 0-2.39-2.531v-1.897c-.006-.458-.375-.828-.833-.828s-.828.371-.828.828v1.897a3.295 3.295 0 0 0-2.39 2.531l-4.475 1.11a2.722 2.722 0 0 1-2.501-.634.827.827 0 0 0-1.174.053.82.82 0 0 0 .053 1.168c.241.224.505.411.787.57l-4.31 9.032c-.047.082-.077.404-.077.411.059 2.965 2.501 5.366 5.473 5.366 2.93 0 5.35-2.342 5.467-5.255.012-.054-.029-.493-.117-.623l-3.987-8.367c.264-.018.522-.047.787-.112l4.187-1.04a3.297 3.297 0 0 0 2.284 2.132v15.802a6.468 6.468 0 0 0-5.085 3.793.831.831 0 0 0 .757 1.163h10.316a.828.828 0 0 0 .757-1.163 6.47 6.47 0 0 0-5.085-3.793v-15.796a3.293 3.293 0 0 0 2.284-2.131l4.188 1.039c.258.064.522.1.787.111l-4.047 8.462c-.047.082-.076.404-.076.411.06 2.965 2.502 5.366 5.473 5.366 2.931 0 5.35-2.342 5.468-5.255.011-.053-.035-.486-.118-.622zm-24.24 4.227a3.832 3.832 0 0 1-3.717-2.941h7.435a3.839 3.839 0 0 1-3.718 2.941zm-3.336-4.596l3.335-6.994 3.336 6.994h-6.671zm16.448 12.09h-7.34c.899-1.062 2.237-1.704 3.67-1.704s2.767.642 3.67 1.704zm-3.669-20.652a1.625 1.625 0 1 1-.001-3.25 1.625 1.625 0 0 1 .001 3.25zm9.447 1.562l3.336 6.994h-6.671l3.335-6.994zm0 11.596a3.833 3.833 0 0 1-3.717-2.941h7.435c-.405 1.68-1.92 2.941-3.718 2.941z"/></svg>