<?xml version="1.0" encoding="utf-8"?>
<!-- Generator: Adobe Illustrator 16.0.0, SVG Export Plug-In . SVG Version: 6.00 Build 0)  -->
<!DOCTYPE svg PUBLIC "-//W3C//DTD SVG 1.1//EN" "http://www.w3.org/Graphics/SVG/1.1/DTD/svg11.dtd">
<svg version="1.1" id="Layer_1" xmlns="http://www.w3.org/2000/svg" xmlns:xlink="http://www.w3.org/1999/xlink" x="0px" y="0px"
	 width="30px" height="30px" viewBox="405.945 282.64 30 30" enable-background="new 405.945 282.64 30 30" xml:space="preserve">
<path d="M435.759,299.123l-4.257-8.937c0.275-0.159,0.54-0.347,0.781-0.564c0.341-0.311,0.357-0.833,0.053-1.168
	c-0.312-0.334-0.834-0.364-1.175-0.053c-0.676,0.616-1.614,0.857-2.501,0.634l-4.476-1.11c-0.246-1.233-1.186-2.214-2.39-2.531
	v-1.897c-0.006-0.458-0.375-0.828-0.833-0.828s-0.828,0.371-0.828,0.828v1.897c-1.204,0.317-2.144,1.297-2.39,2.531l-4.475,1.11
	c-0.893,0.223-1.826-0.018-2.501-0.634c-0.34-0.312-0.863-0.288-1.174,0.053c-0.312,0.335-0.288,0.863,0.053,1.168
	c0.241,0.224,0.505,0.411,0.787,0.57l-4.31,9.032c-0.047,0.082-0.077,0.404-0.077,0.411c0.059,2.965,2.501,5.366,5.473,5.366
	c2.93,0,5.35-2.342,5.467-5.255c0.012-0.054-0.029-0.493-0.117-0.623l-3.987-8.367c0.264-0.018,0.522-0.047,0.787-0.112l4.187-1.04
	c0.353,1.045,1.21,1.85,2.284,2.132v15.802c-2.22,0.288-4.164,1.709-5.085,3.793c-0.112,0.259-0.088,0.553,0.064,0.787
	c0.153,0.235,0.417,0.376,0.693,0.376h10.316c0.282,0,0.541-0.141,0.693-0.376c0.153-0.234,0.177-0.528,0.064-0.787
	c-0.922-2.084-2.865-3.505-5.085-3.793v-15.796c1.074-0.282,1.932-1.086,2.284-2.131l4.188,1.039c0.258,0.064,0.522,0.1,0.787,0.111
	l-4.047,8.462c-0.047,0.082-0.076,0.404-0.076,0.411c0.06,2.965,2.502,5.366,5.473,5.366c2.931,0,5.35-2.342,5.468-5.255
	C435.888,299.692,435.842,299.259,435.759,299.123z M411.519,303.35c-1.797,0-3.317-1.256-3.717-2.941h7.435
	C414.837,302.089,413.316,303.35,411.519,303.35z M408.183,298.754l3.335-6.994l3.336,6.994H408.183z M424.631,310.844h-7.34
	c0.899-1.062,2.237-1.704,3.67-1.704S423.728,309.782,424.631,310.844z M420.962,290.192c-0.899,0-1.626-0.728-1.626-1.626
	s0.728-1.626,1.626-1.626c0.898,0,1.626,0.728,1.626,1.626S421.86,290.192,420.962,290.192z M430.409,291.754l3.336,6.994h-6.671
	L430.409,291.754z M430.409,303.35c-1.796,0-3.317-1.256-3.717-2.941h7.435C433.722,302.089,432.207,303.35,430.409,303.35z"/>
</svg>
