<svg width="20" height="20" viewBox="0 0 20 20" xmlns="http://www.w3.org/2000/svg"><title>Shape</title><path d="M18.125 0H1.875A1.88 1.88 0 0 0 0 1.875v16.25A1.88 1.88 0 0 0 1.875 20h16.25A1.88 1.88 0 0 0 20 18.125V1.875A1.88 1.88 0 0 0 18.125 0zM7.5 16.25H5V7.5h2.5v8.75zm-1.25-10a1.249 1.249 0 1 1 0-2.5 1.249 1.249 0 1 1 0 2.5zm10 10h-2.5v-5a1.249 1.249 0 1 0-2.5 0v5h-2.5V7.5h2.5v1.55c.516-.706 1.304-1.55 2.188-1.55 1.554 0 2.812 1.399 2.812 3.125v5.625z" fill="#2C6DA1" fill-rule="evenodd"/></svg>