<?xml version="1.0" encoding="utf-8"?>
<!-- Generator: Adobe Illustrator 16.0.0, SVG Export Plug-In . SVG Version: 6.00 Build 0)  -->
<!DOCTYPE svg PUBLIC "-//W3C//DTD SVG 1.1//EN" "http://www.w3.org/Graphics/SVG/1.1/DTD/svg11.dtd">
<svg version="1.1" id="Layer_1" xmlns="http://www.w3.org/2000/svg" xmlns:xlink="http://www.w3.org/1999/xlink" x="0px" y="0px"
	 width="30px" height="30px" viewBox="405.945 282.64 30 30" enable-background="new 405.945 282.64 30 30" xml:space="preserve">
<g id="Layer_1_1_" display="none">
</g>
<g id="Layer_2">
	<g>
		<g>
			<g>
				<path d="M420.336,287.277c-0.203,0-0.369-0.165-0.369-0.368c0-1.611-1.283-2.922-2.86-2.922c-1.036,0-2.032,0.617-2.537,1.571
					c-0.096,0.18-0.318,0.249-0.499,0.153c-0.18-0.095-0.248-0.318-0.153-0.498c0.632-1.192,1.883-1.963,3.189-1.963
					c1.983,0,3.598,1.641,3.598,3.659C420.704,287.112,420.539,287.277,420.336,287.277z"/>
			</g>
			<g>
				<path d="M412.171,293.004c-0.065,0-0.132-0.018-0.191-0.054c-1.255-0.767-2.004-2.114-2.004-3.604
					c0-2.319,1.859-4.207,4.146-4.207c0.705,0,1.304,0.15,1.885,0.473c0.178,0.099,0.242,0.323,0.144,0.501
					c-0.1,0.178-0.323,0.242-0.501,0.143c-0.467-0.259-0.952-0.38-1.527-0.38c-1.88,0-3.409,1.557-3.409,3.47
					c0,1.231,0.617,2.344,1.651,2.976c0.174,0.106,0.229,0.333,0.123,0.507C412.416,292.941,412.295,293.004,412.171,293.004z"/>
			</g>
			<g>
				<path d="M410.526,300.437c-0.04,0-0.08-0.008-0.12-0.021c-1.934-0.666-3.233-2.52-3.233-4.613c0-1.089,0.338-2.122,0.979-2.984
					c0.626-0.843,1.52-1.467,2.516-1.756c0.195-0.057,0.399,0.056,0.456,0.251c0.057,0.195-0.056,0.399-0.251,0.457
					c-0.854,0.248-1.591,0.763-2.129,1.488c-0.546,0.734-0.834,1.614-0.834,2.544c0,1.778,1.1,3.353,2.737,3.917
					c0.192,0.066,0.295,0.275,0.229,0.469C410.822,300.34,410.679,300.437,410.526,300.437z"/>
			</g>
			<g>
				<path d="M416.375,298.67c-0.158,0-0.305-0.104-0.353-0.264c-0.524-1.746-2.133-2.965-3.912-2.965
					c-0.509,0-0.92,0.07-1.256,0.214c-0.188,0.08-0.403-0.007-0.484-0.193c-0.079-0.188,0.007-0.404,0.194-0.484
					c0.43-0.184,0.936-0.273,1.546-0.273c2.103,0,4.001,1.436,4.618,3.491c0.059,0.195-0.052,0.4-0.247,0.459
					C416.445,298.666,416.41,298.67,416.375,298.67z"/>
			</g>
			<g>
				<path d="M412.11,304.336c-2.622,0-4.755-2.16-4.755-4.816c0-0.549,0.114-1.141,0.328-1.713c0.072-0.19,0.284-0.287,0.475-0.215
					c0.19,0.072,0.287,0.284,0.215,0.475c-0.184,0.491-0.281,0.993-0.281,1.454c0,2.25,1.803,4.08,4.018,4.08
					c1.698,0,3.224-1.078,3.796-2.68c0.068-0.193,0.279-0.293,0.472-0.225c0.191,0.07,0.291,0.279,0.223,0.471
					C415.924,303.062,414.119,304.336,412.11,304.336z"/>
			</g>
			<g>
				<path d="M414.181,309.332c-1.016,0-1.966-0.396-2.676-1.115c-0.712-0.721-1.104-1.689-1.104-2.727
					c0-0.592,0.132-1.143,0.404-1.688c0.091-0.182,0.312-0.256,0.494-0.164c0.182,0.09,0.256,0.311,0.165,0.494
					c-0.224,0.445-0.327,0.877-0.327,1.357c0,1.74,1.337,3.105,3.043,3.105c0.204,0,0.369,0.164,0.369,0.367
					S414.385,309.332,414.181,309.332z"/>
			</g>
			<g>
				<path d="M417.594,305.859c-0.203,0-0.368-0.166-0.368-0.369c0-1.193-0.646-2.258-1.685-2.777
					c-0.183-0.09-0.257-0.312-0.165-0.494c0.091-0.182,0.312-0.256,0.494-0.164c1.291,0.645,2.092,1.961,2.092,3.436
					C417.962,305.693,417.797,305.859,417.594,305.859z"/>
			</g>
			<g>
				<path d="M417.106,312.011c-1.915,0-3.415-1.498-3.415-3.414c0-0.645,0.183-1.264,0.544-1.84
					c0.107-0.174,0.335-0.227,0.508-0.117c0.173,0.107,0.225,0.334,0.117,0.508c-0.286,0.457-0.432,0.945-0.432,1.449
					c0,1.502,1.177,2.678,2.678,2.678c1.551,0,2.86-1.227,2.86-2.678c0-0.203,0.166-0.369,0.369-0.369s0.368,0.166,0.368,0.369
					c0,0.918-0.389,1.783-1.094,2.434C418.935,311.654,418.022,312.011,417.106,312.011z"/>
			</g>
			<g>
				<path d="M415.462,297.147c-0.169,0-0.32-0.116-0.359-0.287c-0.045-0.198,0.079-0.396,0.277-0.441
					c1.213-0.275,2.028-1.306,2.028-2.565c0-0.725-0.273-1.401-0.77-1.904c-0.492-0.499-1.148-0.774-1.848-0.774
					c-0.203,0-0.368-0.165-0.368-0.368s0.165-0.368,0.368-0.368c0.898,0,1.74,0.353,2.372,0.993
					c0.634,0.643,0.981,1.502,0.981,2.422c0,0.794-0.254,1.53-0.735,2.127c-0.467,0.578-1.129,0.989-1.866,1.156
					C415.515,297.144,415.488,297.147,415.462,297.147z"/>
			</g>
			<g>
				<path d="M420.396,312.621c-0.204,0-0.369-0.164-0.369-0.367v-29.245c0-0.204,0.165-0.369,0.369-0.369
					c0.203,0,0.369,0.165,0.369,0.369v29.245C420.765,312.457,420.599,312.621,420.396,312.621z"/>
			</g>
			<g>
				<path d="M424.113,310.795h-1.949c-0.203,0-0.369-0.166-0.369-0.369s0.166-0.369,0.369-0.369h1.58v-2.555
					c0-0.168,0.113-0.314,0.275-0.357c0.932-0.248,1.805-0.613,2.521-1.055c0.145-0.088,0.332-0.066,0.453,0.055l1.811,1.811
					l3.072-3.074l-1.809-1.811c-0.121-0.121-0.145-0.309-0.055-0.453c0.441-0.717,0.807-1.59,1.055-2.521
					c0.043-0.162,0.189-0.273,0.355-0.273h2.557v-4.381h-2.557c-0.166,0-0.312-0.112-0.355-0.274
					c-0.248-0.933-0.613-1.804-1.055-2.521c-0.09-0.146-0.066-0.333,0.055-0.454l1.809-1.811l-3.072-3.074l-1.811,1.811
					c-0.121,0.121-0.309,0.143-0.453,0.053c-0.717-0.441-1.59-0.806-2.521-1.054c-0.162-0.043-0.275-0.189-0.275-0.356v-2.556h-1.58
					c-0.203,0-0.369-0.165-0.369-0.368s0.166-0.368,0.369-0.368h1.949c0.203,0,0.369,0.165,0.369,0.368v2.645
					c0.793,0.233,1.543,0.544,2.191,0.914l1.871-1.87c0.068-0.069,0.162-0.108,0.26-0.108s0.191,0.039,0.26,0.108l3.596,3.595
					c0.143,0.144,0.143,0.377,0,0.521l-1.869,1.87c0.369,0.65,0.68,1.399,0.912,2.193h2.646c0.203,0,0.367,0.165,0.367,0.368v5.117
					c0,0.205-0.164,0.369-0.367,0.369h-2.646c-0.232,0.793-0.543,1.543-0.912,2.193l1.869,1.869c0.143,0.145,0.143,0.377,0,0.521
					l-3.596,3.594c-0.068,0.07-0.162,0.107-0.26,0.107s-0.191-0.037-0.26-0.107l-1.871-1.869c-0.648,0.369-1.398,0.682-2.191,0.914
					v2.645C424.482,310.629,424.316,310.795,424.113,310.795z"/>
			</g>
			<g>
				<path d="M422.163,302.873c-0.203,0-0.369-0.164-0.369-0.367c0-0.205,0.166-0.369,0.369-0.369c2.484,0,4.506-2.021,4.506-4.505
					c0-2.484-2.021-4.506-4.506-4.506c-0.203,0-0.369-0.165-0.369-0.368c0-0.204,0.166-0.369,0.369-0.369
					c2.891,0,5.242,2.352,5.242,5.243C427.406,300.521,425.054,302.873,422.163,302.873z"/>
			</g>
		</g>
	</g>
</g>
</svg>
