<svg width="51" height="51" viewBox="0 0 51 51" xmlns="http://www.w3.org/2000/svg"><title>Oval 103 Copy + profile-male copy</title><g fill="none" fill-rule="evenodd"><path d="M25.5 51C39.583 51 51 39.583 51 25.5S39.583 0 25.5 0 0 11.417 0 25.5 11.417 51 25.5 51z" fill="#F4B045"/><path d="M13.347 36.21a.35.35 0 0 0 .425-.245c.715-2.67 3.622-3.36 5.36-3.775.435-.103.78-.185 1.003-.282 1.979-.859 2.624-2.24 2.817-3.249a.347.347 0 0 0-.115-.328c-1.03-.89-1.9-2.225-2.448-3.762a.342.342 0 0 0-.072-.118c-.725-.79-1.142-1.623-1.142-2.288 0-.388.147-.648.476-.845a.35.35 0 0 0 .17-.283c.153-3.538 2.672-6.322 5.762-6.34l.075.004c3.105.043 5.609 2.888 5.698 6.475.003.1.047.193.124.257.217.184.319.417.319.734 0 .556-.297 1.24-.834 1.925a.363.363 0 0 0-.059.11c-.555 1.76-1.553 3.315-2.734 4.267-.1.08-.148.21-.124.335.193 1.008.838 2.389 2.817 3.25.234.1.597.18 1.058.28 1.72.371 4.599.996 5.305 3.633a.347.347 0 0 0 .67-.181c-.815-3.046-4.076-3.753-5.828-4.132-.406-.088-.757-.164-.928-.239-1.291-.56-2.087-1.416-2.368-2.545 1.199-1.03 2.202-2.619 2.776-4.4.609-.792.944-1.608.944-2.304 0-.465-.15-.852-.447-1.155-.166-3.892-2.943-6.956-6.39-7.006h-.103c-3.384.017-6.173 3.001-6.417 6.825-.434.32-.655.768-.655 1.337 0 .821.465 1.804 1.278 2.705.562 1.544 1.432 2.9 2.47 3.85-.28 1.133-1.077 1.99-2.372 2.552-.167.073-.5.153-.886.245-1.765.42-5.048 1.2-5.87 4.268-.05.186.06.375.245.425z" stroke="#FFF" stroke-width=".5" fill="#FFF"/></g></svg>