<?xml version="1.0" encoding="utf-8"?>
<!-- Generator: Adobe Illustrator 16.0.0, SVG Export Plug-In . SVG Version: 6.00 Build 0)  -->
<!DOCTYPE svg PUBLIC "-//W3C//DTD SVG 1.1//EN" "http://www.w3.org/Graphics/SVG/1.1/DTD/svg11.dtd">
<svg version="1.1" id="Layer_1" xmlns="http://www.w3.org/2000/svg" xmlns:xlink="http://www.w3.org/1999/xlink" x="0px" y="0px"
	 width="30px" height="30px" viewBox="0 0 30 30" enable-background="new 0 0 30 30" xml:space="preserve">
<g id="experiment">
	<g>
		<path d="M24.057,24.443c-1.5-2.354-4.962-8.2-5.438-9.081v-4.795c0-0.332-0.271-0.602-0.602-0.602
			c-0.332,0-0.603,0.27-0.603,0.602v4.935c0,0.482,5.568,9.501,5.625,9.59c0.6,0.943,0.74,1.807,0.397,2.433
			c-0.387,0.702-1.382,1.105-2.732,1.105H9.308c-1.356,0-2.358-0.406-2.746-1.115c-0.343-0.626-0.203-1.485,0.4-2.435
			c5.637-9.299,5.637-9.353,5.637-9.578v-4.935c0-0.332-0.27-0.602-0.602-0.602c-0.332,0-0.602,0.27-0.602,0.602v4.791
			c-0.458,0.819-3.455,5.787-5.455,9.087c-0.843,1.326-0.997,2.622-0.433,3.65c0.616,1.119,1.966,1.738,3.802,1.738h11.396
			c1.83,0,3.176-0.616,3.788-1.731C25.059,27.073,24.902,25.775,24.057,24.443z"/>
		<path d="M12.323,4.816c1.328,0,2.408-1.08,2.408-2.408S13.651,0,12.323,0c-1.329,0-2.409,1.08-2.409,2.408
			S10.994,4.816,12.323,4.816z M12.323,1.204c0.663,0,1.204,0.541,1.204,1.204c0,0.663-0.541,1.204-1.204,1.204
			c-0.665,0-1.205-0.541-1.205-1.204C11.119,1.745,11.659,1.204,12.323,1.204z"/>
		<circle cx="18.116" cy="3.771" r="1.091"/>
		<circle cx="14.615" cy="7.423" r="1.091"/>
		<path d="M9.588,24.415c0,0.331,0.27,0.602,0.602,0.602h9.633c0.332,0,0.603-0.271,0.603-0.602c0-0.332-0.271-0.603-0.603-0.603
			H10.19C9.858,23.812,9.588,24.083,9.588,24.415z"/>
	</g>
</g>
<g id="Warstwa_1">
</g>
</svg>
