<svg xmlns="http://www.w3.org/2000/svg" width="30" height="30" viewBox="0 0 30 30"><path d="M24.057 24.443c-1.5-2.354-4.962-8.2-5.438-9.081v-4.795a.603.603 0 0 0-1.205 0v4.935c0 .482 5.568 9.501 5.625 9.59.6.943.74 1.807.397 2.433-.387.702-1.382 1.105-2.732 1.105H9.308c-1.356 0-2.358-.406-2.746-1.115-.343-.626-.203-1.485.4-2.435 5.637-9.299 5.637-9.353 5.637-9.578v-4.935a.603.603 0 0 0-1.204 0v4.791c-.458.819-3.455 5.787-5.455 9.087-.843 1.326-.997 2.622-.433 3.65.616 1.119 1.966 1.738 3.802 1.738h11.396c1.83 0 3.176-.616 3.788-1.731.566-1.029.409-2.327-.436-3.659zM12.323 4.816c1.328 0 2.408-1.08 2.408-2.408S13.651 0 12.323 0c-1.329 0-2.409 1.08-2.409 2.408s1.08 2.408 2.409 2.408zm0-3.612c.663 0 1.204.541 1.204 1.204 0 .663-.541 1.204-1.204 1.204a1.206 1.206 0 0 1-1.205-1.204 1.207 1.207 0 0 1 1.205-1.204z"/><circle cx="18.116" cy="3.771" r="1.091"/><circle cx="14.615" cy="7.423" r="1.091"/><path d="M9.588 24.415c0 .331.27.602.602.602h9.633a.604.604 0 0 0 .603-.602.604.604 0 0 0-.603-.603H10.19a.603.603 0 0 0-.602.603z"/></svg>