<svg width="36" height="37" viewBox="0 0 36 37" xmlns="http://www.w3.org/2000/svg"><title>Ribbon</title><g fill="none" fill-rule="evenodd"><path d="M.163 0L0 .163l36 36V2.999A3.008 3.008 0 0 0 32.995 0H.163z" fill="#F06B72"/><path d="M28.927 13.427L26.5 11l2.427-2.427a.251.251 0 0 0 0-.353L27.78 7.072a.25.25 0 0 0-.353 0L25 9.5l-2.427-2.427a.25.25 0 0 0-.353 0l-1.147 1.146a.25.25 0 0 0 0 .354L23.5 11l-2.427 2.427a.25.25 0 0 0 0 .353l1.146 1.147a.25.25 0 0 0 .354 0L25 12.5l2.427 2.427a.25.25 0 0 0 .353 0l1.147-1.147a.25.25 0 0 0 0-.353z" fill="#FFF"/></g></svg>