<?xml version="1.0" encoding="utf-8"?>
<!-- Generator: Adobe Illustrator 16.0.0, SVG Export Plug-In . SVG Version: 6.00 Build 0)  -->
<!DOCTYPE svg PUBLIC "-//W3C//DTD SVG 1.1//EN" "http://www.w3.org/Graphics/SVG/1.1/DTD/svg11.dtd">
<svg version="1.1" id="Layer_1" xmlns="http://www.w3.org/2000/svg" xmlns:xlink="http://www.w3.org/1999/xlink" x="0px" y="0px"
	 width="30px" height="30px" viewBox="0 0 30 30" enable-background="new 0 0 30 30" xml:space="preserve">
<g>
	<path d="M6.084,18.351L5.42,18.733c-0.121,0.07-0.252,0.103-0.383,0.103c-0.265,0-0.522-0.137-0.664-0.383
		c-0.213-0.367-0.087-0.836,0.28-1.049l0.664-0.384c0.366-0.212,0.835-0.085,1.048,0.282C6.577,17.669,6.452,18.138,6.084,18.351z
		 M5.364,7.635l-0.711-0.41C4.286,7.013,4.16,6.544,4.373,6.177C4.584,5.81,5.051,5.685,5.42,5.896l0.711,0.41
		c0.367,0.211,0.493,0.681,0.281,1.048C6.27,7.6,6.012,7.737,5.746,7.737C5.616,7.737,5.484,7.705,5.364,7.635z M3.495,13.083
		c-0.425,0-0.768-0.344-0.768-0.768s0.343-0.767,0.768-0.767h0.768c0.424,0,0.767,0.343,0.767,0.767s-0.343,0.768-0.767,0.768H3.495
		z M10.98,11.261c-0.027,0.121-0.05,0.243-0.066,0.368c-0.051,0.387-0.38,0.667-0.759,0.667c-0.033,0-0.067-0.002-0.101-0.006
		c-0.421-0.055-0.717-0.44-0.661-0.861c0.022-0.173,0.054-0.343,0.092-0.511c0.094-0.414,0.506-0.673,0.918-0.577
		C10.816,10.437,11.074,10.849,10.98,11.261z M15.01,8.05C15.01,8.05,15.01,8.05,15.01,8.05c-1.151,0-2.259,0.484-3.038,1.332
		c-0.152,0.164-0.358,0.248-0.565,0.248c-0.187,0-0.371-0.068-0.519-0.204c-0.312-0.288-0.332-0.773-0.045-1.084
		c1.071-1.161,2.589-1.827,4.166-1.827c0.001,0,0.001,0,0.001,0c0.424,0,0.768,0.344,0.768,0.768S15.434,8.05,15.01,8.05z
		 M19.412,17.496c1.548-1.305,2.439-3.214,2.439-5.234c0-1.947-0.834-3.808-2.284-5.107c-1.472-1.317-3.377-1.923-5.352-1.702
		c-3.195,0.353-5.794,3.043-6.044,6.258c-0.174,2.223,0.7,4.324,2.396,5.766c0.732,0.622,1.205,1.505,1.347,2.483h2.318V18.77
		l-1.309-1.31c-0.3-0.299-0.3-0.784,0-1.084s0.784-0.3,1.085,0L15,17.367l0.992-0.991c0.3-0.3,0.784-0.3,1.084,0s0.3,0.785,0,1.084
		l-1.309,1.31v1.191h2.311C18.209,18.991,18.678,18.113,19.412,17.496z M11.958,21.521c0,0.847,0.689,1.535,1.534,1.535h3.016
		c0.846,0,1.534-0.688,1.534-1.535v-0.026h-2.91c-0.044,0.009-0.085,0.026-0.132,0.026s-0.087-0.018-0.132-0.026h-2.91V21.521z
		 M12.805,25.359h4.39v-0.854c-0.221,0.052-0.449,0.085-0.687,0.085h-3.016c-0.237,0-0.466-0.033-0.688-0.085V25.359z M15,28.427
		c0.979,0,1.801-0.647,2.083-1.535h-4.166C13.2,27.779,14.021,28.427,15,28.427z M15,29.962c-2.057,0-3.729-1.673-3.729-3.73v-2.605
		c-0.522-0.549-0.848-1.289-0.848-2.104v-0.794v-0.145c0-0.771-0.31-1.477-0.85-1.936c-2.074-1.763-3.144-4.334-2.933-7.055
		c0.312-4.002,3.427-7.225,7.405-7.665c2.387-0.263,4.771,0.496,6.544,2.084c1.775,1.59,2.794,3.868,2.794,6.25
		c0,2.475-1.09,4.81-2.985,6.408c-0.524,0.44-0.822,1.112-0.822,1.845v0.213v0.794c0,0.815-0.327,1.556-0.848,2.104v2.605
		C18.729,28.289,17.057,29.962,15,29.962z M20.368,3.779c-0.131,0-0.261-0.033-0.382-0.103c-0.367-0.211-0.494-0.681-0.28-1.048
		l0.382-0.664c0.213-0.367,0.682-0.493,1.049-0.28c0.367,0.211,0.494,0.681,0.28,1.047l-0.384,0.665
		C20.891,3.642,20.634,3.779,20.368,3.779z M14.232,1.573V0.806c0-0.424,0.344-0.768,0.768-0.768c0.425,0,0.768,0.344,0.768,0.768
		v0.767c0,0.423-0.343,0.767-0.768,0.767C14.576,2.34,14.232,1.996,14.232,1.573z M9.632,3.779c-0.266,0-0.523-0.137-0.665-0.383
		L8.583,2.731C8.371,2.364,8.497,1.895,8.864,1.684c0.366-0.213,0.835-0.087,1.048,0.28l0.383,0.664
		c0.213,0.367,0.086,0.836-0.28,1.048C9.895,3.746,9.762,3.779,9.632,3.779z M24.964,18.836c-0.131,0-0.264-0.032-0.385-0.103
		l-0.663-0.383c-0.366-0.213-0.493-0.682-0.28-1.048c0.212-0.367,0.681-0.494,1.047-0.282l0.665,0.384
		c0.367,0.213,0.492,0.682,0.28,1.049C25.486,18.699,25.229,18.836,24.964,18.836z M24.971,12.314c0-0.424,0.345-0.767,0.767-0.767
		h0.769c0.423,0,0.767,0.343,0.767,0.767s-0.344,0.768-0.767,0.768h-0.769C25.315,13.083,24.971,12.738,24.971,12.314z
		 M23.868,6.306l0.711-0.41c0.367-0.211,0.836-0.086,1.049,0.281c0.212,0.367,0.087,0.836-0.28,1.048l-0.711,0.41
		c-0.121,0.07-0.254,0.103-0.384,0.103c-0.264,0-0.521-0.137-0.665-0.383C23.377,6.986,23.504,6.517,23.868,6.306z"/>
</g>
</svg>
