<svg width="50" height="50" viewBox="0 0 50 50" xmlns="http://www.w3.org/2000/svg"><title>Layer_1</title><g fill="none" fill-rule="evenodd"><circle fill="#4F5D73" cx="25" cy="25" r="25"/><path d="M10.417 36.653a.419.419 0 0 0 .51-.295c.858-3.203 4.346-4.033 6.431-4.53.523-.124.935-.222 1.204-.338 2.375-1.03 3.149-2.69 3.38-3.9a.417.417 0 0 0-.137-.393c-1.237-1.068-2.28-2.67-2.938-4.514a.41.41 0 0 0-.086-.142c-.871-.947-1.371-1.948-1.371-2.745 0-.466.176-.778.572-1.014a.42.42 0 0 0 .202-.34c.184-4.245 3.208-7.587 6.916-7.609l.09.006c3.726.052 6.73 3.465 6.838 7.77.003.12.056.231.148.308.26.22.382.5.382.88 0 .668-.355 1.489-1 2.31a.435.435 0 0 0-.07.132c-.667 2.114-1.864 3.98-3.282 5.121a.418.418 0 0 0-.148.403c.231 1.209 1.005 2.866 3.38 3.899.281.121.717.216 1.27.336 2.064.446 5.518 1.195 6.365 4.36a.417.417 0 0 0 .805-.217c-.979-3.656-4.892-4.503-6.994-4.958-.487-.106-.908-.197-1.113-.287-1.55-.673-2.505-1.7-2.843-3.054 1.44-1.236 2.644-3.143 3.332-5.281.73-.95 1.133-1.928 1.133-2.764 0-.558-.18-1.023-.537-1.386-.198-4.67-3.531-8.348-7.667-8.407l-.124-.001c-4.06.021-7.407 3.602-7.7 8.191-.522.384-.787.921-.787 1.604 0 .985.558 2.165 1.534 3.246.674 1.853 1.719 3.48 2.963 4.62-.336 1.36-1.292 2.389-2.845 3.063-.2.087-.6.183-1.064.293-2.118.503-6.058 1.44-7.044 5.123-.06.222.072.45.295.51z" stroke="#FFF" stroke-width=".5" fill="#FFF"/></g></svg>