<?xml version="1.0" encoding="utf-8"?>
<!-- Generator: Adobe Illustrator 16.0.0, SVG Export Plug-In . SVG Version: 6.00 Build 0)  -->
<!DOCTYPE svg PUBLIC "-//W3C//DTD SVG 1.1//EN" "http://www.w3.org/Graphics/SVG/1.1/DTD/svg11.dtd">
<svg version="1.1" id="Layer_1" xmlns="http://www.w3.org/2000/svg" xmlns:xlink="http://www.w3.org/1999/xlink" x="0px" y="0px"
	 width="30px" height="30px" viewBox="0 0 30 30" enable-background="new 0 0 30 30" xml:space="preserve">
<g>
	<path fill="#C9C9C9" d="M10.34,12.834c0.466-0.466,1.22-0.466,1.687,0l2.966,3l2.967-3c0.466-0.466,1.221-0.466,1.687,0
		c0.464,0.471,0.466,1.233,0,1.705l-3.812,3.847c-0.464,0.467-1.22,0.467-1.687,0l-3.809-3.847
		C9.873,14.067,9.873,13.306,10.34,12.834z M15,25c5.522,0,10-4.478,10-10S20.522,5,15,5S5,9.478,5,15S9.478,25,15,25z"/>
</g>
</svg>
