<?xml version="1.0" encoding="utf-8"?>
<!-- Generator: Adobe Illustrator 16.0.0, SVG Export Plug-In . SVG Version: 6.00 Build 0)  -->
<!DOCTYPE svg PUBLIC "-//W3C//DTD SVG 1.1//EN" "http://www.w3.org/Graphics/SVG/1.1/DTD/svg11.dtd">
<svg version="1.1" id="Layer_1" xmlns="http://www.w3.org/2000/svg" xmlns:xlink="http://www.w3.org/1999/xlink" x="0px" y="0px"
	 width="30px" height="30px" viewBox="0 0 30 30" enable-background="new 0 0 30 30" xml:space="preserve">
<g>
	<g>
		<path fill="#1B78B7" d="M14.124,23.254c-0.207,0-0.417-0.05-0.612-0.148c-0.363-0.184-0.648-0.52-0.781-0.922l-0.521-1.592
			l-1.518,0.525c-0.399,0.139-0.837,0.117-1.202-0.062c-0.328-0.158-0.571-0.429-0.684-0.757c-0.25-0.726,0.188-1.539,0.978-1.813
			l1.549-0.537l-1.006-3.049l-1.496,0.52c-0.398,0.138-0.837,0.116-1.202-0.062c-0.328-0.159-0.57-0.429-0.684-0.757
			c-0.25-0.725,0.188-1.539,0.978-1.813l1.538-0.532l-0.509-1.55C8.69,9.909,9.068,9.066,9.795,8.825
			c0.329-0.109,0.688-0.08,1.013,0.084c0.364,0.183,0.648,0.52,0.781,0.923l0.497,1.509l3.068-1.065L14.631,8.69
			c-0.262-0.796,0.116-1.639,0.843-1.88c0.329-0.109,0.688-0.08,1.013,0.083c0.363,0.183,0.648,0.52,0.781,0.923l0.51,1.548
			l1.529-0.532c0.398-0.139,0.837-0.117,1.202,0.061c0.328,0.159,0.57,0.429,0.684,0.758c0.25,0.725-0.188,1.538-0.977,1.812
			l-1.567,0.544l1.005,3.053l1.515-0.529c0.398-0.139,0.836-0.116,1.202,0.061c0.328,0.159,0.57,0.429,0.684,0.757
			c0.25,0.726-0.188,1.539-0.979,1.813l-1.566,0.544l0.537,1.585c0.264,0.796-0.115,1.64-0.842,1.881
			c-0.329,0.109-0.688,0.079-1.014-0.084c-0.363-0.183-0.648-0.519-0.781-0.922l-0.103-0.313c-0.033-0.102,0.021-0.211,0.124-0.244
			c0.101-0.033,0.21,0.022,0.243,0.123l0.104,0.313c0.101,0.306,0.315,0.561,0.588,0.698c0.231,0.116,0.486,0.138,0.718,0.062
			c0.524-0.173,0.792-0.798,0.597-1.392l-0.599-1.765c-0.033-0.102,0.021-0.21,0.119-0.245l1.749-0.607
			c0.589-0.204,0.92-0.797,0.739-1.321c-0.08-0.231-0.254-0.421-0.488-0.536c-0.273-0.133-0.604-0.149-0.906-0.044l-1.699,0.593
			c-0.049,0.018-0.103,0.015-0.149-0.008c-0.046-0.023-0.081-0.063-0.098-0.113l-0.019-0.056l-1.107-3.366
			c-0.017-0.049-0.013-0.103,0.011-0.148c0.024-0.046,0.065-0.081,0.115-0.097l0.037-0.012L20.09,11.1
			c0.588-0.204,0.92-0.797,0.738-1.321c-0.08-0.232-0.253-0.423-0.487-0.537c-0.273-0.132-0.604-0.148-0.907-0.043l-1.704,0.593
			c-0.087,0.031-0.184-0.004-0.23-0.084l-0.023-0.039c-0.007-0.012-0.013-0.025-0.018-0.038l-0.556-1.692
			C16.8,7.632,16.586,7.377,16.313,7.24c-0.231-0.117-0.486-0.139-0.717-0.062C15.071,7.352,14.804,7.976,15,8.57l0.56,1.703
			l0.021,0.051c0.02,0.049,0.019,0.104-0.003,0.152c-0.023,0.048-0.062,0.085-0.112,0.103l-3.433,1.191
			c-0.093,0.032-0.195-0.01-0.238-0.098l-0.013-0.027c-0.004-0.008-0.007-0.016-0.01-0.024l-0.549-1.667
			c-0.101-0.307-0.315-0.562-0.587-0.699c-0.232-0.116-0.486-0.139-0.718-0.062C9.391,9.366,9.124,9.99,9.319,10.583l0.569,1.73
			c0.033,0.101-0.021,0.209-0.121,0.243L8.05,13.152c-0.589,0.204-0.92,0.797-0.739,1.321c0.08,0.232,0.253,0.421,0.487,0.536
			c0.273,0.132,0.604,0.148,0.906,0.043l1.681-0.583c0.05-0.017,0.104-0.014,0.15,0.01c0.046,0.023,0.082,0.063,0.097,0.113
			l1.127,3.414c0.033,0.1-0.02,0.208-0.118,0.243l-0.023,0.008l-1.708,0.594c-0.588,0.204-0.92,0.797-0.739,1.321
			c0.08,0.231,0.253,0.422,0.487,0.535c0.274,0.134,0.604,0.149,0.907,0.044l1.673-0.581l0.014-0.006
			c0.05-0.022,0.107-0.021,0.157,0c0.049,0.022,0.087,0.065,0.104,0.117l0.583,1.78c0.101,0.307,0.315,0.561,0.587,0.697
			c0.232,0.116,0.487,0.14,0.718,0.062c0.525-0.174,0.793-0.798,0.597-1.393l-0.597-1.807c-0.033-0.098,0.018-0.204,0.114-0.241
			l0.038-0.015c0.001-0.001,0.004-0.001,0.006-0.002l3.217-1.12l-1.749-5.324l-3.071,1.065l1.003,3.048l2.312-0.803
			c0.101-0.036,0.212,0.018,0.247,0.118c0.034,0.102-0.019,0.212-0.12,0.247l-2.478,0.86c-0.024,0.009-0.05,0.012-0.077,0.011
			l-0.022-0.002c-0.078-0.005-0.146-0.058-0.17-0.132l-1.122-3.408c-0.034-0.101,0.021-0.209,0.12-0.243l3.436-1.192
			c0.049-0.017,0.102-0.014,0.148,0.009s0.082,0.064,0.099,0.113l1.833,5.579l0.039,0.107c0.017,0.048,0.014,0.102-0.008,0.148
			c-0.023,0.046-0.062,0.081-0.111,0.099l-3.258,1.135l0.538,1.628c0.263,0.796-0.115,1.64-0.842,1.88
			C14.395,23.232,14.26,23.254,14.124,23.254z"/>
	</g>
</g>
<g>
	<path fill="#E6E9EC" d="M3.784,10.212l2.699-1.559l-1.54-2.667L4.593,7.295c-0.02,0.075-0.098,0.12-0.173,0.104
		C3.722,7.235,2.816,7.104,2.021,7.563c-1.15,0.664-1.808,1.967-1.698,3.23c0.237-0.697,0.745-1.347,1.375-1.711
		c0.74-0.427,1.636-0.555,2.346-0.334C4.119,8.772,4.164,8.85,4.141,8.926L3.784,10.212z M6.753,8.831l-3.13,1.807
		c-0.05,0.029-0.115,0.027-0.16-0.011c-0.047-0.036-0.066-0.095-0.052-0.153l0.414-1.489C3.214,8.844,2.467,8.972,1.843,9.333
		c-0.768,0.443-1.333,1.346-1.375,2.197c-0.004,0.069-0.057,0.129-0.125,0.135c-0.068,0.01-0.135-0.031-0.157-0.099
		c-0.511-1.572,0.216-3.401,1.691-4.253c0.833-0.48,1.744-0.387,2.473-0.228l0.404-1.51c0.015-0.056,0.063-0.1,0.12-0.105
		C4.934,5.461,4.99,5.489,5.019,5.539l1.787,3.095C6.846,8.704,6.823,8.791,6.753,8.831z"/>
</g>
<g>
	<path fill="#E6E9EC" d="M26.198,19.799l-2.699,1.559l1.54,2.668l0.351-1.31c0.02-0.075,0.098-0.12,0.173-0.104
		c0.698,0.163,1.604,0.294,2.398-0.165c1.15-0.664,1.809-1.967,1.698-3.23c-0.237,0.697-0.745,1.348-1.375,1.711
		c-0.739,0.428-1.636,0.555-2.347,0.335c-0.074-0.024-0.119-0.102-0.096-0.178L26.198,19.799z M23.229,21.18l3.13-1.807
		c0.05-0.029,0.115-0.027,0.16,0.011c0.047,0.036,0.065,0.095,0.051,0.153l-0.414,1.488c0.612,0.141,1.359,0.014,1.983-0.348
		c0.768-0.443,1.333-1.346,1.374-2.197c0.004-0.068,0.057-0.129,0.126-0.135c0.068-0.01,0.135,0.031,0.157,0.1
		c0.511,1.571-0.216,3.4-1.691,4.252c-0.832,0.48-1.744,0.387-2.473,0.229l-0.404,1.51c-0.015,0.055-0.062,0.1-0.119,0.105
		c-0.061,0.008-0.117-0.02-0.146-0.069l-1.786-3.095C23.137,21.307,23.16,21.221,23.229,21.18z"/>
</g>
</svg>
