<svg xmlns="http://www.w3.org/2000/svg" width="30" height="30" viewBox="405.945 282.64 30 30"><path d="M422.02 295.43l1.079 3.205-3.272 1.1-1.078-3.205z"/><path d="M420.945 282.77c-8.213 0-14.871 6.657-14.871 14.869 0 8.213 6.658 14.871 14.871 14.871 8.212 0 14.871-6.658 14.871-14.871 0-8.212-6.66-14.869-14.871-14.869zm7.547 17.225l-1.59.535.546 1.626a1.5 1.5 0 0 1-.941 1.899 1.503 1.503 0 0 1-1.9-.942l-.548-1.626-3.271 1.101.554 1.645a1.499 1.499 0 0 1-2.841.956l-.553-1.646-1.519.513a1.499 1.499 0 1 1-.956-2.841l1.518-.511-1.078-3.205-1.56.525a1.498 1.498 0 1 1-.956-2.84l1.559-.525-.516-1.532a1.5 1.5 0 0 1 2.841-.956l.516 1.533 3.271-1.101-.521-1.551a1.499 1.499 0 1 1 2.841-.956l.521 1.551 1.552-.521a1.497 1.497 0 0 1 1.898.942 1.501 1.501 0 0 1-.943 1.899l-1.55.521 1.079 3.205 1.592-.536a1.496 1.496 0 1 1 .955 2.838z"/></svg>