<?xml version="1.0" encoding="utf-8"?>
<!-- Generator: Adobe Illustrator 16.0.0, SVG Export Plug-In . SVG Version: 6.00 Build 0)  -->
<!DOCTYPE svg PUBLIC "-//W3C//DTD SVG 1.1//EN" "http://www.w3.org/Graphics/SVG/1.1/DTD/svg11.dtd">
<svg version="1.1" id="Layer_1" xmlns="http://www.w3.org/2000/svg" xmlns:xlink="http://www.w3.org/1999/xlink" x="0px" y="0px"
	 width="30px" height="30px" viewBox="405.945 282.64 30 30" enable-background="new 405.945 282.64 30 30" xml:space="preserve">
<g>
	<rect x="419.24" y="295.87" transform="matrix(0.3188 0.9478 -0.9478 0.3188 568.7925 -196.2494)" width="3.382" height="3.452"/>
	<path d="M420.945,282.77c-8.213,0-14.871,6.657-14.871,14.869c0,8.213,6.658,14.871,14.871,14.871
		c8.212,0,14.871-6.658,14.871-14.871C435.816,289.427,429.156,282.77,420.945,282.77z M428.492,299.995l-1.59,0.535l0.546,1.626
		c0.264,0.784-0.159,1.635-0.941,1.899c-0.784,0.263-1.635-0.159-1.9-0.942l-0.548-1.626l-3.271,1.101l0.554,1.645
		c0.263,0.785-0.158,1.634-0.943,1.898c-0.784,0.266-1.634-0.157-1.898-0.942l-0.553-1.646l-1.519,0.513
		c-0.785,0.263-1.635-0.159-1.899-0.942c-0.264-0.785,0.158-1.636,0.943-1.899l1.518-0.511l-1.078-3.205l-1.56,0.525
		c-0.785,0.264-1.635-0.157-1.899-0.942c-0.264-0.784,0.158-1.634,0.943-1.898l1.559-0.525l-0.516-1.532
		c-0.264-0.784,0.158-1.635,0.943-1.899c0.784-0.263,1.635,0.159,1.898,0.943l0.516,1.533l3.271-1.101l-0.521-1.551
		c-0.265-0.785,0.158-1.635,0.941-1.899c0.787-0.264,1.635,0.157,1.9,0.943l0.521,1.551l1.552-0.521
		c0.784-0.265,1.635,0.157,1.898,0.942c0.263,0.784-0.159,1.635-0.943,1.899l-1.55,0.521l1.079,3.205l1.592-0.536
		c0.782-0.265,1.633,0.158,1.896,0.942C429.699,298.88,429.277,299.73,428.492,299.995z"/>
</g>
</svg>
