<?xml version="1.0" encoding="utf-8"?>
<!-- Generator: Adobe Illustrator 22.1.0, SVG Export Plug-In . SVG Version: 6.00 Build 0)  -->
<svg version="1.1" id="Layer_1" xmlns="http://www.w3.org/2000/svg" xmlns:xlink="http://www.w3.org/1999/xlink" x="0px" y="0px"
	 viewBox="0 0 110.7 110.7" style="enable-background:new 0 0 110.7 110.7;" xml:space="preserve">
<style type="text/css">
	.st0{fill:#FFA700;}
	.st1{fill:#631AB3;}
</style>
<g>
	<path class="st0" d="M55.9,111.1c-30.5,0-55.4-24.8-55.4-55.4c0-30.5,24.8-55.4,55.4-55.4c30.5,0,55.4,24.8,55.4,55.4
		C111.3,86.3,86.4,111.1,55.9,111.1z M55.9,3.3C27,3.3,3.4,26.8,3.4,55.8c0,28.9,23.5,52.5,52.5,52.5c28.9,0,52.5-23.5,52.5-52.5
		C108.3,26.8,84.8,3.3,55.9,3.3z"/>
	<path class="st1" d="M87.3,66.6H61.1c-1,0-1.8-0.8-1.8-1.8v-8.4c0-1,0.8-1.8,1.8-1.8c1,0,1.8,0.8,1.8,1.8V63h22.6v-6.9
		c0-1,0.8-1.8,1.8-1.8c1,0,1.8,0.8,1.8,1.8v8.8C89.2,65.8,88.3,66.6,87.3,66.6z"/>
	<path class="st1" d="M35.5,67.4c-0.7,0-1.3-0.4-1.6-1L23,43.7c-0.4-0.9-0.1-2,0.8-2.4c0.9-0.4,2-0.1,2.4,0.8l10.9,22.6
		c0.4,0.9,0.1,2-0.8,2.4C36.1,67.3,35.8,67.4,35.5,67.4z"/>
	<g>
		<path class="st1" d="M49,66.5c-1.2,0-2.2-0.2-3-0.5c-0.8-0.4-1.5-0.9-2-1.5c-0.5-0.6-0.9-1.4-1.1-2.3c-0.2-0.9-0.3-1.9-0.3-3v-9.6
			h-2.9v-3.5l3.1-0.2l0.6-5.5h3.9v5.5h5.1v3.7h-5.1v9.6c0,2.3,0.9,3.5,2.8,3.5c0.4,0,0.7,0,1.1-0.1c0.4-0.1,0.7-0.2,1-0.3l0.8,3.5
			c-0.5,0.2-1.2,0.4-1.9,0.5C50.6,66.4,49.8,66.5,49,66.5z"/>
	</g>
</g>
</svg>
