<svg xmlns="http://www.w3.org/2000/svg" width="30" height="30" viewBox="0 0 30 30"><path fill="#D2D2D2" d="M26.271 19.149l-.479-.188.055-.512a10.91 10.91 0 0 0-2.695-8.406 10.809 10.809 0 0 0-2.555-2.105l-.444-.264.14-.496c.149-.533.223-1.01.223-1.459A5.52 5.52 0 0 0 15.001.204a5.521 5.521 0 0 0-5.515 5.515c0 .444.074.917.231 1.487l.138.496-.443.263c-.672.398-1.208.782-1.685 1.209a10.951 10.951 0 0 0-3.6 9.294l.054.509-.475.188C1.58 20.007.205 22.015.205 24.28a5.52 5.52 0 0 0 5.515 5.515c1.694 0 3.274-.785 4.335-2.156l.313-.405.474.194a11.02 11.02 0 0 0 8.31 0l.473-.194.313.405c1.062 1.371 2.644 2.156 4.343 2.156a5.521 5.521 0 0 0 5.515-5.515c-.001-2.246-1.417-4.307-3.525-5.131zM15 1.954a3.77 3.77 0 0 1 3.767 3.766c0 2.077-1.689 3.766-3.767 3.766s-3.766-1.689-3.766-3.766A3.77 3.77 0 0 1 15 1.954zM5.72 28.048a3.77 3.77 0 0 1-3.766-3.768 3.77 3.77 0 0 1 3.766-3.766 3.77 3.77 0 0 1 3.766 3.766 3.773 3.773 0 0 1-3.766 3.768zm13.047-3.768c0 .238.035.472.067.705l.088.646-.483.197a9.127 9.127 0 0 1-3.444.669 9.218 9.218 0 0 1-3.436-.66l-.5-.2.086-.531c.048-.307.082-.563.082-.825 0-2.734-2.062-5.072-4.795-5.438l-.527-.07-.053-.529a9.194 9.194 0 0 1 3.034-7.763 8.91 8.91 0 0 1 1.362-.989l.454-.274.373.378a5.465 5.465 0 0 0 3.917 1.647c1.48 0 2.874-.588 3.926-1.656l.372-.378.454.275a9.17 9.17 0 0 1 4.356 8.779l-.056.525-.523.071c-2.71.365-4.754 2.696-4.754 5.421zm5.513 3.768a3.771 3.771 0 0 1-3.766-3.768 3.77 3.77 0 0 1 3.766-3.766 3.771 3.771 0 0 1 3.768 3.766 3.773 3.773 0 0 1-3.768 3.768z"/></svg>