<svg viewBox="0 0 150 149" xmlns="http://www.w3.org/2000/svg"><g fill="none" fill-rule="evenodd" transform="translate(0-1)"><path d="m74.864 4.286c-39.19 0-70.946 31.607-70.946 70.31 0 38.704 31.757 70.31 70.946 70.31 39.19 0 70.946-31.473 70.946-70.31 0-38.839-31.892-70.31-70.946-70.31m0 144.37c-41.35 0-74.864-33.21-74.864-74.06 0-40.848 33.512-74.2 74.864-74.2 41.35 0 74.865 33.21 74.865 74.2 0 40.982-33.649 74.06-74.865 74.06" transform="translate(0 .938)" fill="#ffa700"/><path d="m54.47 94.62l-4.049 9.236 15.538-7.701c.541-.269 1.155-.359 1.751-.263 2.418.394 4.823.593 7.153.593 17.04 0 30.911-9.395 30.911-20.944 0-11.547-13.868-20.942-30.911-20.942-17.04 0-30.911 9.395-30.911 20.942 0 5.729 3.438 11.11 9.681 15.14 1.028.663 1.518 1.9 1.219 3.078-.08.315-.211.605-.382.865m-9.832 18.13c-.722 0-1.432-.268-1.977-.781-.878-.824-1.142-2.103-.661-3.202l6.465-14.739c-6.551-4.938-10.258-11.567-10.258-18.489 0-14.688 16.445-26.637 36.657-26.637 20.21 0 36.657 11.949 36.657 26.637 0 14.688-16.445 26.638-36.657 26.638-2.339 0-4.741-.177-7.153-.525l-21.789 10.796c-.409.204-.849.301-1.284.301" fill="#fff"/></g></svg>