<svg viewBox="0 0 150 149" xmlns="http://www.w3.org/2000/svg"><g fill="none" fill-rule="evenodd" transform="translate(0-1)"><path d="m74.865 4.286c-39.19 0-70.946 31.607-70.946 70.31 0 38.704 31.757 70.31 70.946 70.31 39.19 0 70.946-31.473 70.946-70.31 0-38.839-31.892-70.31-70.946-70.31m0 144.37c-41.35 0-74.865-33.21-74.865-74.06 0-40.848 33.514-74.2 74.865-74.2 41.35 0 74.865 33.21 74.865 74.2 0 40.982-33.649 74.06-74.865 74.06" transform="translate(0 .938)" fill="#ffa700"/><path d="m52.979 71.868c-6.826.037-12.366 5.553-12.366 12.325 0 6.796 5.58 12.325 12.436 12.325h46.536c.165-.055.336-.096.515-.122 5.141-.73 9.02-5.162 9.02-10.307 0-5.199-3.922-9.638-9.123-10.323-1.316-.174-2.339-1.217-2.478-2.526-1.136-10.729-10.218-18.821-21.12-18.821-9.491 0-17.9 6.321-20.451 15.374-.347 1.229-1.477 2.081-2.768 2.081-.05 0-.128-.003-.197-.007m47.53 30.346h-47.46c-10.03 0-18.18-8.08-18.18-18.02 0-9.268 7.096-16.925 16.186-17.913 3.851-10.434 13.988-17.555 25.342-17.555 13.14 0 24.19 9.249 26.531 21.834 6.939 1.9 11.936 8.231 11.936 15.53 0 7.633-5.514 14.25-12.98 15.777-.407.221-.876.347-1.374.347" fill="#fff"/></g></svg>