<svg viewBox="0 0 150 150" xmlns="http://www.w3.org/2000/svg" xmlns:xlink="http://www.w3.org/1999/xlink"><defs><path id="0" d="m0 0h150v150h-150z"/><mask id="1" fill="#fff"><use xlink:href="#0"/></mask></defs><g fill="none" fill-rule="evenodd"><path d="m75 3.929c-39.26 0-71.07 31.979-71.07 71.14 0 39.16 31.813 71.14 71.07 71.14 39.26 0 71.07-31.842 71.07-71.14 0-39.3-31.949-71.14-71.07-71.14m0 146.07c-41.43 0-75-33.603-75-74.931 0-41.33 33.573-75.07 75-75.07 41.43 0 75 33.605 75 75.07 0 41.463-33.71 74.931-75 74.931" fill="#ffa700" mask="url(#1)"/><g fill="#fff"><path d="m47.97 94.82c-.596 0-1.197-.184-1.713-.567l-21.758-16.16c-.728-.541-1.159-1.396-1.162-2.305-.003-.909.424-1.766 1.15-2.312l21.756-16.357c1.271-.954 3.078-.698 4.03.574.955 1.272.698 3.078-.574 4.03l-18.674 14.04 18.662 13.865c1.276.947 1.543 2.752.595 4.03-.564.761-1.433 1.163-2.313 1.163"/><path d="m102.03 94.91c-.874 0-1.738-.397-2.304-1.151-.955-1.272-.698-3.078.574-4.03l18.674-14.04-18.662-13.863c-1.276-.947-1.543-2.753-.595-4.03.946-1.277 2.75-1.547 4.03-.595l21.758 16.16c.728.541 1.16 1.397 1.162 2.306.003.908-.424 1.765-1.15 2.311l-21.756 16.357c-.519.39-1.125.577-1.727.577"/><path d="m67.55 98.88c-.319 0-.645-.055-.963-.167-1.497-.531-2.281-2.179-1.749-3.679l14.892-42c.53-1.499 2.174-2.283 3.674-1.752 1.499.532 2.282 2.179 1.75 3.679l-14.892 42.01c-.418 1.181-1.528 1.919-2.712 1.919"/></g></g></svg>