<svg viewBox="0 0 150 149" xmlns="http://www.w3.org/2000/svg"><g fill="none" fill-rule="evenodd" transform="translate(0-1)"><path d="m74.865 4.286c-39.19 0-70.946 31.607-70.946 70.31 0 38.705 31.757 70.31 70.946 70.31 39.19 0 70.946-31.473 70.946-70.31 0-38.839-31.892-70.31-70.946-70.31m0 144.37c-41.35 0-74.865-33.21-74.865-74.06 0-40.848 33.514-74.2 74.865-74.2 41.35 0 74.865 33.21 74.865 74.2 0 40.982-33.649 74.06-74.865 74.06" transform="translate(0 .938)" fill="#ffa700"/><path d="m91.59 98.9c0 1.757-1.442 3.186-3.215 3.186h-27.01c-1.773 0-3.215-1.429-3.215-3.186v-24.09c0-1.757 1.442-3.186 3.215-3.186h27.01c1.773 0 3.215 1.429 3.215 3.186v24.09m-16.722-50.05c5.868 0 10.641 4.73 10.641 10.546v6.528h-21.281v-6.528c0-5.815 4.773-10.546 10.641-10.546m16.386 17.551v-7.01c0-8.956-7.35-16.24-16.386-16.24-9.04 0-16.386 7.284-16.386 16.24v7.01c-3.531 1.193-6.081 4.505-6.081 8.403v24.09c0 4.896 4.02 8.881 8.961 8.881h27.01c4.941 0 8.961-3.984 8.961-8.881v-24.09c0-3.897-2.55-7.209-6.081-8.403" fill="#fff"/></g></svg>