<svg viewBox="0 0 150 150" xmlns="http://www.w3.org/2000/svg" xmlns:xlink="http://www.w3.org/1999/xlink"><defs><path id="0" d="m0 0h150v150h-150z"/><mask id="1" fill="#fff"><use xlink:href="#0"/></mask></defs><g fill="none" fill-rule="evenodd"><path d="m75 3.929c-39.26 0-71.07 31.979-71.07 71.14 0 39.16 31.814 71.14 71.07 71.14 39.26 0 71.07-31.842 71.07-71.14 0-39.3-31.949-71.14-71.07-71.14m0 146.07c-41.43 0-75-33.603-75-74.931 0-41.33 33.574-75.07 75-75.07 41.43 0 75 33.605 75 75.07 0 41.463-33.709 74.931-75 74.931" fill="#ffa700" mask="url(#1)"/><g fill="#fff"><path d="m63.28 82.74l-18.675 18.692 2.617-18.426c.224-1.576-.871-3.035-2.445-3.257-1.573-.226-3.03.872-3.255 2.445l-3.829 26.965c-.127.9.176 1.808.82 2.448.644.641 1.553.941 2.451.807l26.804-3.969c.635-.094 1.191-.39 1.612-.811.622-.623.952-1.522.814-2.459-.233-1.575-1.697-2.663-3.268-2.429l-18.18 2.692 18.608-18.624c1.124-1.125 1.124-2.949 0-4.074-1.124-1.124-2.946-1.125-4.07 0"/><path d="m109.04 37.589l-26.804 3.969c-1.574.23-2.659 1.698-2.426 3.27.233 1.574 1.696 2.662 3.269 2.429l18.359-2.719-18.709 18.726c-1.124 1.126-1.124 2.95 0 4.074 1.124 1.125 2.946 1.125 4.07 0l18.574-18.591-2.591 18.25c-.224 1.575.871 3.034 2.445 3.257.932.134 1.823-.197 2.441-.815.426-.426.722-.989.814-1.63l3.829-26.965c.127-.901-.176-1.808-.82-2.448-.645-.641-1.554-.941-2.451-.807"/></g></g></svg>