<svg viewBox="0 0 150 149" xmlns="http://www.w3.org/2000/svg"><g fill="none" fill-rule="evenodd" transform="translate(0-1)"><path d="m74.865 4.285c-39.19 0-70.946 31.608-70.946 70.31 0 38.705 31.757 70.31 70.946 70.31 39.19 0 70.946-31.473 70.946-70.31 0-38.839-31.892-70.31-70.946-70.31m0 144.38c-41.35 0-74.865-33.22-74.865-74.06 0-40.848 33.514-74.2 74.865-74.2 41.35 0 74.865 33.21 74.865 74.2 0 40.983-33.649 74.06-74.865 74.06" transform="translate(0 .938)" fill="#ffa700"/><path d="m52.06 95.26v-6.897c7.735 3.209 20.769 3.343 22.803 3.343 2.034 0 15.07-.134 22.803-3.343v6.897c-1.346 1.548-9.754 4.144-22.803 4.144-13.05 0-21.457-2.596-22.803-4.144m22.803-43.733c12.25 0 20.414 2.288 22.481 3.849-2.068 1.562-10.231 3.849-22.481 3.849-12.25 0-20.414-2.288-22.481-3.849 2.068-1.562 10.231-3.849 22.481-3.849m22.803 16.947c-1.346 1.548-9.754 4.144-22.803 4.144-13.05 0-21.457-2.596-22.803-4.144v-6.897c7.735 3.209 20.769 3.343 22.803 3.343 2.034 0 15.07-.134 22.803-3.343v6.897m0 13.393c-1.346 1.548-9.754 4.144-22.803 4.144-13.05 0-21.457-2.596-22.803-4.144v-6.897c7.735 3.209 20.769 3.343 22.803 3.343 2.034 0 15.07-.134 22.803-3.343v6.897m-22.803-36.03c-2.922 0-28.549.268-28.549 9.544v40.18c0 9.276 25.627 9.544 28.549 9.544 2.922 0 28.549-.268 28.549-9.544v-40.18c0-9.276-25.627-9.544-28.549-9.544" fill="#fff"/></g></svg>