<svg width="51" height="51" viewBox="0 0 51 51" xmlns="http://www.w3.org/2000/svg"><title>Oval 103 Copy + profile-female</title><g fill="none" fill-rule="evenodd"><path d="M25.5 51C39.583 51 51 39.583 51 25.5S39.583 0 25.5 0 0 11.417 0 25.5 11.417 51 25.5 51z" fill="#F06B72"/><path d="M28.43 27.393a.337.337 0 0 0-.295.108.346.346 0 0 0-.087.302c.192 1.007.837 2.389 2.817 3.25.235.1.598.18 1.057.279 1.721.372 4.599.996 5.306 3.633a.347.347 0 0 0 .671-.18c-.817-3.047-4.077-3.753-5.83-4.132-.405-.088-.756-.164-.927-.24-1.19-.516-1.96-1.282-2.293-2.281 3.307.246 4.804-1.072 4.87-1.131a.347.347 0 0 0-.06-.56c-1.909-1.09-1.909-4.857-1.909-6.276 0-3.967-2.672-7.112-6.098-7.162a4.08 4.08 0 0 0-.098-.002c-3.476.02-6.304 3.168-6.304 7.02 0 1.419 0 5.187-1.908 6.276a.349.349 0 0 0-.042.576c.096.074 2.214 1.695 4.82 1.203-.348.957-1.107 1.693-2.262 2.195-.168.073-.501.153-.887.244-1.764.42-5.048 1.201-5.87 4.269a.348.348 0 0 0 .671.18c.715-2.67 3.623-3.36 5.36-3.774.435-.104.78-.186 1.003-.282 1.98-.86 2.625-2.243 2.817-3.25a.345.345 0 0 0-.11-.324.345.345 0 0 0-.335-.072c-1.88.591-3.617-.222-4.376-.674 1.813-1.518 1.813-5.012 1.813-6.567 0-3.47 2.518-6.308 5.64-6.327l.073.005c3.078.043 5.399 2.823 5.399 6.466 0 1.557 0 5.058 1.82 6.576-.627.358-2.057.938-4.445.652z" stroke="#FFF" stroke-width=".5" fill="#FFF"/></g></svg>